<svg xmlns="http://www.w3.org/2000/svg" viewBox="0 0 38.07 74"><defs><style>.cls-1,.cls-2{fill:none;stroke:#f4b516;}.cls-1{stroke-linecap:round;stroke-linejoin:round;stroke-width:5px;}.cls-2{stroke-miterlimit:10;}</style></defs><title>abs3</title><g id="Слой_2" data-name="Слой 2"><g id="Layer_1" data-name="Layer 1"><path class="cls-1" d="M14.75,46.11C14.75,53,2.5,51.83,2.5,60.64"/><path class="cls-1" d="M14.75,17c0,6.91-12.25,5.72-12.25,14.54"/><path class="cls-1" d="M14.75,46.11c0-6.91-12.25-5.72-12.25-14.54"/><path class="cls-1" d="M2.5,2.5"/><path class="cls-1" d="M14.75,17C14.75,10.13,2.5,11.32,2.5,2.5"/><path class="cls-2" d="M37.57,59.47c0,6.91-12.25,5.72-12.25,14.54"/><path class="cls-2" d="M37.57,30.4c0,6.91-12.25,5.72-12.25,14.54"/><path class="cls-2" d="M37.57,59.47c0-6.91-12.25-5.72-12.25-14.54"/><path class="cls-2" d="M25.32,15.86"/><path class="cls-2" d="M37.57,30.4c0-6.91-12.25-5.72-12.25-14.54"/></g></g></svg>