<svg width="67" height="67" viewBox="0 0 67 67" fill="none" xmlns="http://www.w3.org/2000/svg">
<path d="M41.9431 4.01998C39.1636 3.96763 36.3213 4.45443 33.5785 5.55365C32.8876 5.83107 32.5526 6.61099 32.83 7.2967C33.1074 7.9824 33.8874 8.3174 34.5731 8.03998C44.2095 4.18748 55.1023 8.85654 58.96 18.493C62.8125 28.1295 58.1435 39.0222 48.507 42.88C47.8213 43.1522 47.4863 43.9321 47.7585 44.623C48.0359 45.3087 48.8158 45.6437 49.5015 45.3663C60.4832 40.9747 65.838 28.475 61.4463 17.4985C58.1539 9.25959 50.2971 4.19271 41.9431 4.01998ZM41.561 9.34857C36.8395 9.34857 32.5945 11.4057 29.6528 14.6458C29.2863 15.054 29.2026 15.6455 29.4434 16.1428L33.5314 24.4079L28.6635 26.9832C25.3658 28.7262 21.3877 28.5483 18.2575 26.5278C18.2313 26.5121 18.2104 26.4964 18.1842 26.4859L14.9494 24.6644L15.0227 24.7115C12.8556 23.3086 9.85635 24.612 9.40096 27.1559C9.40096 27.1664 9.39572 27.1769 9.39572 27.1821L4.03572 61.4306C3.92057 62.1634 4.42307 62.8491 5.15064 62.9643C5.88346 63.0794 6.56916 62.5769 6.68432 61.8493L12.0391 27.627C12.1752 26.8785 12.9237 26.5487 13.5675 26.9622C13.5885 26.9779 13.6146 26.9884 13.6356 27.0041L16.8704 28.8204L16.7971 28.7733C20.7438 31.3225 25.7688 31.5423 29.9197 29.3491L34.7196 26.8104L36.5098 30.4222L25.0413 36.7034C21.4243 38.682 18.6187 41.8907 17.1792 45.7693C15.8968 49.2293 14.4783 54.2909 13.4157 61.4463C13.3215 61.9279 13.4995 62.4251 13.8816 62.7392C14.2637 63.048 14.7871 63.1265 15.2425 62.9381C15.6979 62.7497 16.012 62.3257 16.0643 61.8336C17.106 54.8405 18.4826 49.9673 19.6917 46.7063C20.9061 43.4348 23.2668 40.7286 26.3289 39.0484L37.698 32.83L41.5871 40.7025C41.8331 41.1945 42.3513 41.4876 42.901 41.4405C51.1451 40.7601 57.641 33.8402 57.641 25.4286C57.641 16.5615 50.428 9.34857 41.561 9.34857ZM41.561 12.0286C48.9781 12.0286 54.961 18.0115 54.961 25.4286C54.961 32.16 49.9674 37.5776 43.5081 38.5407L32.3328 15.9334C34.751 13.5884 37.9283 12.0286 41.561 12.0286Z" fill="#BD4635"/>
</svg>
