<svg width="29" height="27" viewBox="0 0 29 27" fill="none" xmlns="http://www.w3.org/2000/svg">
<g clip-path="url(#clip0_203_437)">
<path d="M7.56234 26.0528C5.92109 25.9821 5.02952 25.7233 4.4365 25.5042C3.65074 25.2144 3.09053 24.8693 2.5008 24.3114C1.91106 23.7535 1.54607 23.2228 1.24177 22.4784C1.01047 21.9166 0.737335 21.0719 0.662696 19.5171C0.580674 17.8363 0.56427 17.332 0.56427 13.0738C0.56427 8.81558 0.582315 8.31206 0.661876 6.62975C0.736515 5.07488 1.01129 4.23179 1.24095 3.66843C1.54689 2.92402 1.91188 2.3933 2.49998 1.83383C3.08889 1.27591 3.6491 0.929347 4.43568 0.641063C5.0287 0.421936 5.92027 0.16318 7.56152 0.0924684C9.33647 0.0155409 9.86961 0 14.3627 0C18.8575 0 19.389 0.017095 21.1648 0.0924684C22.806 0.16318 23.696 0.42349 24.2906 0.641063C25.0764 0.929347 25.6366 1.27591 26.2263 1.83383C26.8161 2.39175 27.1794 2.92325 27.4854 3.66766C27.7167 4.22946 27.9898 5.07411 28.0644 6.62898C28.1456 8.31128 28.162 8.81481 28.162 13.073C28.162 17.3297 28.1456 17.8347 28.0644 19.5171C27.9898 21.0719 27.715 21.9166 27.4854 22.4784C27.1794 23.2228 26.8152 23.7535 26.2263 24.3114C25.6374 24.8693 25.0764 25.2144 24.2906 25.5042C23.6976 25.7233 22.806 25.9821 21.1648 26.0528C19.3907 26.1297 18.8575 26.1453 14.3627 26.1453C9.86961 26.1453 9.33647 26.1305 7.56234 26.0528Z" fill="#BDBDBD"/>
<path d="M7.56234 26.0528C5.92109 25.9821 5.02952 25.7233 4.4365 25.5042C3.65074 25.2144 3.09053 24.8693 2.5008 24.3114C1.91106 23.7535 1.54607 23.2228 1.24177 22.4784C1.01047 21.9166 0.737335 21.0719 0.662696 19.5171C0.580674 17.8363 0.56427 17.332 0.56427 13.0738C0.56427 8.81558 0.582315 8.31206 0.661876 6.62975C0.736515 5.07488 1.01129 4.23179 1.24095 3.66843C1.54689 2.92402 1.91188 2.3933 2.49998 1.83383C3.08889 1.27591 3.6491 0.929347 4.43568 0.641063C5.0287 0.421936 5.92027 0.16318 7.56152 0.0924684C9.33647 0.0155409 9.86961 0 14.3627 0C18.8575 0 19.389 0.017095 21.1648 0.0924684C22.806 0.16318 23.696 0.42349 24.2906 0.641063C25.0764 0.929347 25.6366 1.27591 26.2263 1.83383C26.8161 2.39175 27.1794 2.92325 27.4854 3.66766C27.7167 4.22946 27.9898 5.07411 28.0644 6.62898C28.1456 8.31128 28.162 8.81481 28.162 13.073C28.162 17.3297 28.1456 17.8347 28.0644 19.5171C27.9898 21.0719 27.715 21.9166 27.4854 22.4784C27.1794 23.2228 26.8152 23.7535 26.2263 24.3114C25.6374 24.8693 25.0764 25.2144 24.2906 25.5042C23.6976 25.7233 22.806 25.9821 21.1648 26.0528C19.3907 26.1297 18.8575 26.1453 14.3627 26.1453C9.86961 26.1453 9.33647 26.1305 7.56234 26.0528Z" fill="#37373A"/>
<path d="M10.9751 13.1284C10.9751 11.3403 12.5048 9.8904 14.3922 9.8904C16.2795 9.8904 17.81 11.3403 17.81 13.1284C17.81 14.9164 16.2795 16.3663 14.3922 16.3663C12.5048 16.3663 10.9751 14.9164 10.9751 13.1284ZM9.12752 13.1284C9.12752 15.883 11.4845 18.1159 14.3922 18.1159C17.2998 18.1159 19.6568 15.883 19.6568 13.1284C19.6568 10.3737 17.2998 8.14081 14.3922 8.14081C11.4845 8.14081 9.1276 10.3736 9.1276 13.1284H9.12752ZM18.635 7.94305C18.6349 8.17358 18.7069 8.39896 18.842 8.59068C18.9771 8.78241 19.1692 8.93188 19.394 9.02018C19.6188 9.10849 19.8661 9.13166 20.1048 9.08678C20.3435 9.0419 20.5628 8.93097 20.7349 8.76803C20.907 8.60508 21.0243 8.39744 21.0719 8.17136C21.1194 7.94528 21.0952 7.71092 21.0021 7.4979C20.9091 7.28489 20.7515 7.10279 20.5492 6.97464C20.3469 6.84649 20.1091 6.77804 19.8658 6.77795H19.8653C19.5391 6.77809 19.2263 6.90088 18.9957 7.11933C18.765 7.33778 18.6352 7.63405 18.635 7.94305ZM10.2501 21.0346C9.25047 20.9915 8.70716 20.8338 8.3461 20.7005C7.86742 20.524 7.52589 20.3137 7.1668 19.974C6.80771 19.6342 6.58543 19.311 6.3999 18.8575C6.25915 18.5156 6.09264 18.0007 6.0472 17.0538C5.9975 16.0299 5.98757 15.7224 5.98757 13.1285C5.98757 10.5347 5.99832 10.228 6.0472 9.20326C6.09272 8.25628 6.26046 7.74242 6.3999 7.39951C6.58625 6.94602 6.8082 6.62246 7.1668 6.28227C7.52539 5.94208 7.8666 5.7315 8.3461 5.55573C8.707 5.42239 9.25047 5.26465 10.2501 5.2216C11.3308 5.17451 11.6554 5.16511 14.3922 5.16511C17.1289 5.16511 17.4538 5.17514 18.5355 5.22176C19.5351 5.26488 20.0775 5.42379 20.4394 5.55589C20.9181 5.73166 21.2596 5.9427 21.6187 6.28243C21.9778 6.62215 22.1993 6.94618 22.3856 7.39966C22.5264 7.74156 22.6929 8.25643 22.7383 9.20342C22.788 10.2281 22.798 10.5348 22.798 13.1287C22.798 15.7225 22.788 16.0292 22.7383 17.0539C22.6928 18.0009 22.5255 18.5156 22.3856 18.8577C22.1993 19.3111 21.9773 19.6347 21.6187 19.9741C21.2601 20.3135 20.9181 20.5241 20.4394 20.7007C20.0785 20.834 19.5351 20.9917 18.5355 21.0348C17.4548 21.0819 17.1301 21.0913 14.3922 21.0913C11.6542 21.0913 11.3305 21.0819 10.2501 21.0348V21.0346ZM10.1652 3.47411C9.07371 3.52119 8.32789 3.68515 7.67656 3.92526C7.00243 4.17321 6.43098 4.50587 5.86036 5.0456C5.28973 5.58534 4.9395 6.12678 4.67777 6.76621C4.42433 7.38366 4.25126 8.08983 4.20156 9.12385C4.15103 10.1595 4.13947 10.4906 4.13947 13.1284C4.13947 15.7661 4.15103 16.0972 4.20156 17.1329C4.25126 18.167 4.42433 18.8731 4.67777 19.4905C4.9395 20.1291 5.28982 20.6716 5.86036 21.2111C6.4309 21.7506 7.00161 22.0828 7.67656 22.3314C8.32912 22.5716 9.07371 22.7355 10.1652 22.7826C11.2589 22.8297 11.6078 22.8414 14.3922 22.8414C17.1765 22.8414 17.5259 22.8305 18.6191 22.7826C19.7107 22.7355 20.456 22.5716 21.1077 22.3314C21.7819 22.0828 22.3533 21.7508 22.9239 21.2111C23.4946 20.6714 23.8441 20.1291 24.1065 19.4905C24.36 18.8731 24.5339 18.1669 24.5827 17.1329C24.6325 16.0964 24.644 15.7661 24.644 13.1284C24.644 10.4906 24.6325 10.1595 24.5827 9.12385C24.533 8.08976 24.36 7.38327 24.1065 6.76621C23.8441 6.12756 23.4937 5.58619 22.9239 5.0456C22.3542 4.50501 21.7819 4.17321 21.1086 3.92526C20.456 3.68515 19.7106 3.52042 18.6199 3.47411C17.5266 3.42678 17.1773 3.41528 14.3934 3.41528C11.6095 3.41528 11.2593 3.42624 10.1656 3.47411" fill="white"/>
</g>
<defs>
<clipPath id="clip0_203_437">
<rect width="27.5978" height="26.1453" fill="white" transform="translate(0.56427)"/>
</clipPath>
</defs>
</svg>
