<svg width="46" height="40" viewBox="0 0 46 40" fill="none" xmlns="http://www.w3.org/2000/svg">
<path d="M26.2917 2.78215e-06C23.384 -0.00155265 20.512 0.649115 17.8814 1.9054C15.2507 3.16168 12.9266 4.99248 11.0754 7.26667C10.7964 7.60924 10.6631 8.05016 10.7047 8.49243C10.7463 8.93471 10.9594 9.3421 11.2972 9.625C11.635 9.9079 12.0697 10.0431 12.5057 10.0009C12.9418 9.95873 13.3434 9.74257 13.6224 9.4C15.775 6.75089 18.2366 4.41043 21.5 3.5C24.7634 2.58957 28.8144 2.77029 32 3.93015C35.1856 5.09002 38.0526 7.1923 40 10C41.9474 12.8077 43 16.5671 43 20C43 23.4329 41.9474 26.969 40 29.7767C38.0526 32.5844 35.1856 35.03 32 36.1899C28.8144 37.3497 24.7634 37.4104 21.5 36.5C18.2366 35.5896 15.775 33.2491 13.6224 30.6C13.3434 30.2574 12.9418 30.0413 12.5057 29.9991C12.0697 29.9569 11.635 30.0921 11.2972 30.375C10.9594 30.6579 10.7463 31.0653 10.7047 31.5076C10.6631 31.9498 10.7964 32.3908 11.0754 32.7333C13.1902 35.3314 15.9179 37.3455 19.0053 38.5887C22.0927 39.8319 25.4397 40.2638 28.7357 39.8445C32.0316 39.4251 35.1697 38.168 37.8587 36.1899C40.5477 34.2117 42.7003 31.5767 44.117 28.5292C45.5336 25.4818 46.1682 22.1208 45.9619 18.7581C45.7557 15.3955 44.7152 12.1401 42.9371 9.2943C41.159 6.44846 38.7009 4.10433 35.7909 2.4795C32.881 0.854666 29.6134 0.00178053 26.2917 2.78215e-06Z" fill="#BD4635"/>
<path d="M4.92969 15H11.5026C11.9384 15 12.3564 14.8244 12.6645 14.5118C12.9727 14.1993 13.1458 13.7754 13.1458 13.3333C13.1458 12.8913 12.9727 12.4674 12.6645 12.1548C12.3564 11.8423 11.9384 11.6667 11.5026 11.6667H4.92969C4.49387 11.6667 4.07591 11.8423 3.76775 12.1548C3.45958 12.4674 3.28646 12.8913 3.28646 13.3333C3.28646 13.7754 3.45958 14.1993 3.76775 14.5118C4.07591 14.8244 4.49387 15 4.92969 15Z" fill="#BD4635"/>
<path d="M11.5026 20C11.5026 19.558 11.3295 19.1341 11.0213 18.8215C10.7131 18.5089 10.2952 18.3333 9.85937 18.3333H1.64323C1.20742 18.3333 0.789456 18.5089 0.48129 18.8215C0.173125 19.1341 0 19.558 0 20C0 20.442 0.173125 20.866 0.48129 21.1785C0.789456 21.4911 1.20742 21.6667 1.64323 21.6667H9.85937C10.2952 21.6667 10.7131 21.4911 11.0213 21.1785C11.3295 20.866 11.5026 20.442 11.5026 20Z" fill="#BD4635"/>
<path d="M16.4323 26.6667C16.4323 26.2246 16.2592 25.8007 15.951 25.4882C15.6428 25.1756 15.2249 25 14.7891 25H4.92969C4.49387 25 4.07591 25.1756 3.76775 25.4882C3.45958 25.8007 3.28646 26.2246 3.28646 26.6667C3.28646 27.1087 3.45958 27.5326 3.76775 27.8452C4.07591 28.1577 4.49387 28.3333 4.92969 28.3333H14.7891C15.2249 28.3333 15.6428 28.1577 15.951 27.8452C16.2592 27.5326 16.4323 27.1087 16.4323 26.6667Z" fill="#BD4635"/>
<path d="M28.3293 10H24.2541C23.8743 10 23.4982 10.0759 23.1473 10.2233C22.7964 10.3707 22.4776 10.5868 22.209 10.8592C21.9405 11.1315 21.7275 11.4549 21.5821 11.8108C21.4368 12.1667 21.362 12.5481 21.362 12.9333L21.5 15H19.3244C18.5573 15 17.8217 15.309 17.2794 15.8592C16.737 16.4093 16.4323 17.1554 16.4323 17.9333V22.0667C16.4323 22.4519 16.5071 22.8333 16.6524 23.1892C16.7978 23.5451 17.0108 23.8685 17.2794 24.1408C17.5479 24.4132 17.8667 24.6293 18.2176 24.7767C18.5685 24.9241 18.9446 25 19.3244 25H21.362V27.0667C21.362 27.4519 21.4368 27.8333 21.5821 28.1892C21.7275 28.5451 21.9405 28.8685 22.209 29.1408C22.4776 29.4132 22.7964 29.6293 23.1473 29.7767C23.4982 29.9241 23.8743 30 24.2541 30H28.3293C29.0963 30 29.8319 29.691 30.3743 29.1408C30.9166 28.5907 31.2213 27.8446 31.2213 27.0667V25H33.2589C33.6387 25 34.0148 24.9241 34.3657 24.7767C34.7166 24.6293 35.0354 24.4132 35.304 24.1408C35.5725 23.8685 35.7855 23.5451 35.9309 23.1892C36.0762 22.8333 36.151 22.4519 36.151 22.0667V17.9333C36.151 17.1554 35.8463 16.4093 35.304 15.8592C34.7616 15.309 34.026 15 33.2589 15H31.2213V12.9333C31.2213 12.5481 31.1465 12.1667 31.0012 11.8108C30.8559 11.4549 30.6428 11.1315 30.3743 10.8592C30.1057 10.5868 29.7869 10.3707 29.436 10.2233C29.0851 10.0759 28.7091 10 28.3293 10ZM33.2589 17.9333V22.1548L29.9725 21.9079C29.5367 21.9079 29.1187 22.0835 28.8105 22.396C28.5024 22.7086 28.3293 23.1325 28.3293 23.5745V27.2653H24.2541V23.5745C24.2541 23.1325 24.0809 22.7086 23.7728 22.396C23.4646 22.0835 23.0466 21.9079 22.6108 21.9079L19.3244 21.6667V17.9333L22.6108 17.9882C23.0466 17.9882 23.4646 17.8126 23.7728 17.5C24.0809 17.1874 24.2541 16.7635 24.2541 16.3215V12.9333H28.3293V16.3215C28.3293 16.7635 28.5024 17.1874 28.8105 17.5C29.1187 17.8126 29.5367 17.9882 29.9725 17.9882L33.2589 17.9333Z" fill="#BD4635"/>
</svg>
