<svg width="52" height="67" viewBox="0 0 52 67" fill="none" xmlns="http://www.w3.org/2000/svg">
<path d="M25.4911 0L24.3368 1.08414L24.2269 1.68042V2.54773L24.9414 3.95712L26.4804 4.22816L27.6346 3.14401L27.7446 2.54773V1.68042L27.03 0.271036L25.4911 0ZM25.4911 4.33657L24.3368 5.42071L24.2269 6.01699V6.61327C23.8353 5.95601 23.0589 5.62399 22.3032 5.80016C22.0421 5.85437 21.8016 5.96278 21.5886 6.1254C21.5886 6.1254 20.9497 6.52518 19.2252 6.77589C17.5007 7.0266 14.8418 7.0537 11.0906 5.96278C10.8089 5.8747 10.5066 5.85437 10.2112 5.90858C9.42105 6.06442 8.83706 6.72846 8.80271 7.52801C8.76148 8.32079 9.27677 9.03904 10.0463 9.26942C14.251 10.4959 17.5419 10.5162 19.7748 10.1909C22.0077 9.8657 23.3475 9.1068 23.3475 9.1068C24.0414 8.85609 24.5017 8.2056 24.5017 7.48058L24.9414 8.29369L26.4804 8.56472L27.6346 7.48058L27.7446 6.8843V6.01699L27.03 4.6076L25.4911 4.33657ZM41.3206 5.85437C41.1694 5.8747 41.0252 5.90858 40.8809 5.96278C37.1296 7.0537 34.4707 7.0266 32.7463 6.77589C31.0218 6.52518 30.3828 6.1254 30.3828 6.1254C30.0324 5.92213 29.6271 5.84759 29.2286 5.90858C28.5003 6.03054 27.9301 6.58617 27.7995 7.29763C27.6621 8.01588 27.9919 8.73412 28.624 9.1068C28.624 9.1068 29.9637 9.8657 32.1966 10.1909C34.4295 10.5162 37.7205 10.4959 41.9252 9.26942C42.8458 9.07292 43.4504 8.19205 43.2855 7.27731C43.1207 6.35579 42.255 5.7324 41.3206 5.85437ZM25.4911 8.67314L24.3368 9.75728L24.2269 10.3536V11.2209L24.9414 12.6303L26.4804 12.9013L27.6346 11.8172L27.7446 11.2209V10.3536L27.03 8.94417L25.4911 8.67314ZM6.91333 12.7929C6.83776 12.8064 6.76218 12.8268 6.69348 12.8471C5.90337 13.0029 5.31938 13.667 5.28503 14.4665C5.24381 15.2593 5.75909 15.9775 6.52859 16.2079C15.0823 18.6947 23.0177 16.2079 23.0177 16.2079C23.6635 16.0047 24.1307 15.4558 24.2269 14.7985V15.5574L24.9414 16.9668L26.4804 17.2379L27.6346 16.1537L27.7446 15.5574V14.907C27.8751 15.5236 28.3423 16.025 28.9538 16.2079C28.9538 16.2079 36.8892 18.6947 45.4429 16.2079C46.075 16.0521 46.5765 15.5642 46.7276 14.9408C46.8857 14.3107 46.6796 13.6534 46.1918 13.2265C45.6971 12.7997 45.01 12.6709 44.3986 12.9013C37.0334 15.0493 30.053 12.9013 30.053 12.9013C29.895 12.8403 29.7301 12.8064 29.5584 12.7929C29.4278 12.7997 29.2973 12.8132 29.1736 12.8471C28.2873 13.0097 27.6759 13.8025 27.7446 14.6901L27.03 13.2807L25.4911 13.0097L24.3368 14.0939L24.2269 14.4733C24.1994 13.9312 23.9177 13.4298 23.4643 13.1249C23.0177 12.8132 22.4406 12.7319 21.9184 12.9013C21.9184 12.9013 14.938 15.0493 7.5729 12.9013C7.41487 12.8403 7.24998 12.8064 7.07822 12.7929C7.02326 12.7929 6.96829 12.7929 6.91333 12.7929ZM25.4911 17.3463L24.3368 18.4304L24.2269 19.0267V19.894L24.9414 21.3034L26.4804 21.5744L27.6346 20.4903L27.7446 19.894V19.0267L27.03 17.6173L25.4911 17.3463ZM22.4131 19.6772C22.1795 19.7246 21.9528 19.8127 21.7535 19.9482C21.7535 19.9482 12.3822 23.9663 2.46127 19.894C2.13149 19.7517 1.76736 19.7178 1.41696 19.7856C0.654341 19.9347 0.0840937 20.5581 0.00851819 21.3169C-0.0670573 22.0826 0.365783 22.8009 1.08718 23.0922C12.499 27.7744 23.1826 23.0922 23.1826 23.0922C24.0414 22.8754 24.6048 22.0623 24.488 21.195C24.378 20.3277 23.6292 19.6772 22.7429 19.6772C22.6329 19.6636 22.523 19.6636 22.4131 19.6772ZM29.1736 19.7856C28.4316 19.9143 27.8545 20.4971 27.7377 21.2356C27.6278 21.9742 28.0056 22.6992 28.6789 23.038C28.6789 23.038 30.8363 24.1493 34.5601 24.6642C38.2839 25.1792 43.7459 25.2063 50.7194 23.2006C51.6606 22.9296 52.2034 21.9607 51.9286 21.0324C51.6538 20.1041 50.6713 19.5688 49.73 19.8398C43.2168 21.71 38.3045 21.7032 35.0547 21.2492C31.805 20.7952 30.3279 20.0024 30.3279 20.0024C29.9775 19.7992 29.5721 19.7246 29.1736 19.7856ZM25.4911 21.6828L24.3368 22.767L24.2269 23.3633V24.2306L24.9414 25.64L26.4804 25.911L27.6346 24.8269L27.7446 24.2306V23.3633L27.03 21.9539L25.4911 21.6828ZM25.4911 26.0194L24.3368 27.1036L24.2269 27.6998V28.5672L24.9414 29.9765L26.4804 30.2476L27.6346 29.1634L27.7446 28.5672V27.6998L27.03 26.2905L25.4911 26.0194ZM8.50728 28.4045C7.69656 28.4994 7.05761 29.1296 6.96142 29.9359C6.87211 30.7354 7.35304 31.4943 8.12253 31.7654C13.1311 33.8049 16.9579 33.8998 19.555 33.3374C22.152 32.775 23.6773 31.4401 23.6773 31.4401C24.2338 30.959 24.4193 30.1866 24.1513 29.5022C23.8834 28.8246 23.2101 28.3842 22.4681 28.4045C22.0146 28.4113 21.5818 28.5807 21.2589 28.8924C21.2589 28.8924 20.6474 29.5158 18.7855 29.9223C16.9236 30.3289 13.9556 30.3831 9.49662 28.5672C9.29051 28.4723 9.06379 28.4181 8.83706 28.4045C8.72713 28.391 8.61721 28.391 8.50728 28.4045ZM29.2836 28.4045C29.208 28.4181 29.1324 28.4384 29.0637 28.4587C28.4247 28.6078 27.9232 29.0957 27.7652 29.7191C27.6003 30.3492 27.8064 31.0065 28.2942 31.4401C28.2942 31.4401 29.8194 32.775 32.4165 33.3374C35.0135 33.8998 38.8404 33.8049 43.8489 31.7654C44.7421 31.3927 45.1612 30.3695 44.7833 29.4887C44.4054 28.6078 43.368 28.1945 42.4748 28.5672C38.0159 30.3831 35.0479 30.3289 33.186 29.9223C31.3241 29.5158 30.7126 28.8924 30.7126 28.8924C30.3347 28.5265 29.8126 28.3435 29.2836 28.4045ZM25.4911 30.356L24.3368 31.4401L24.2269 32.0364V32.9037L24.9414 34.3131L26.4804 34.5841L27.6346 33.5L27.7446 32.9037V32.0364L27.03 30.627L25.4911 30.356ZM25.4911 34.6926L24.3368 35.7767L24.2269 36.373V37.2403L24.9414 38.6497L26.4804 38.9207L27.6346 37.8366L27.7446 37.2403V36.373L27.03 34.9636L25.4911 34.6926ZM25.4911 39.0291L24.3368 40.1133L24.2269 40.7095V41.5769L24.6666 42.4442C22.4474 42.0173 19.287 41.2584 17.7412 40.818C15.9617 40.3165 14.3334 39.246 12.025 39.246C9.52411 39.246 7.40113 40.3708 6.03391 42.1189C4.66669 43.8671 4.00026 46.1641 4.00026 48.5696C4.00026 51.0225 4.90716 53.1975 6.69348 54.5866C8.4798 55.9756 10.8432 56.6871 13.8937 57.2427C16.7175 57.7577 17.5351 58.5979 18.6206 61.3083C19.8161 64.31 22.4131 66.7019 25.4911 66.9458C25.6559 66.9593 25.814 67 25.9857 67C26.0407 67 26.0957 67 26.1506 67C26.1712 67 26.185 67 26.2056 67C26.3018 67 26.3842 66.9526 26.4804 66.9458C29.5584 66.7019 32.1554 64.31 33.3509 61.3083C34.4364 58.5979 35.254 57.7577 38.0777 57.2427C41.1282 56.6871 43.4917 55.9756 45.278 54.5866C47.0643 53.1975 47.9712 51.0225 47.9712 48.5696C47.9712 46.1641 47.3048 43.8671 45.9375 42.1189C44.5703 40.3708 42.4474 39.246 39.9465 39.246C37.638 39.246 36.0097 40.3165 34.2303 40.818C32.6982 41.2516 29.5721 42.0173 27.3598 42.4442L27.6346 42.1731L27.7446 41.5769V40.7095L27.03 39.3002L25.4911 39.0291ZM12.025 42.7152C12.9456 42.7152 14.5189 43.5351 16.8068 44.1788C18.8473 44.7548 22.9284 45.7711 25.4361 46.1303C25.5392 46.1438 25.6697 46.1709 25.7659 46.1845C25.8758 46.1912 25.9857 46.1912 26.0957 46.1845C26.1163 46.1845 26.13 46.1845 26.1506 46.1845C26.1712 46.1845 26.185 46.1845 26.2056 46.1845C26.288 46.1777 26.398 46.1438 26.4804 46.1303C26.5354 46.1167 26.5903 46.0964 26.6453 46.0761C29.1599 45.7034 33.1516 44.748 35.1647 44.1788C37.4594 43.5351 39.0259 42.7152 39.9465 42.7152C41.4374 42.7152 42.413 43.2912 43.1894 44.2872C43.9657 45.2833 44.4535 46.7875 44.4535 48.5696C44.4535 50.311 44.0688 51.0563 43.0794 51.822C42.0901 52.5877 40.2351 53.3127 37.4182 53.8277C33.715 54.5053 31.3653 56.7278 30.053 60.0073C29.311 61.8639 27.1606 63.4359 26.0957 63.5307C26.0613 63.5307 26.0201 63.5307 25.9857 63.5307C25.9376 63.5307 25.8758 63.5375 25.8208 63.5307C24.7353 63.3885 22.6467 61.83 21.9184 60.0073C20.6062 56.7278 18.2565 54.5053 14.5533 53.8277C11.7364 53.3127 9.88137 52.5877 8.89202 51.822C7.90268 51.0563 7.51793 50.311 7.51793 48.5696C7.51793 46.7875 8.00574 45.2833 8.7821 44.2872C9.55846 43.2912 10.5341 42.7152 12.025 42.7152ZM13.9487 45.3714C12.8975 45.3375 11.8669 45.8118 11.3104 46.7265C10.4173 48.1969 11.0013 50.2229 12.5746 51.2799C14.1479 52.3302 16.1335 52.0388 17.0266 50.5752C17.9198 49.1117 17.3977 47.0247 15.8174 45.9676C15.2266 45.5746 14.5808 45.3917 13.9487 45.3714ZM38.0228 45.3714C37.3907 45.3917 36.7449 45.6288 36.154 46.0218C34.5738 47.0789 34.0517 49.1049 34.9448 50.5752C35.838 52.0388 37.8235 52.3302 39.3969 51.2799C40.9702 50.2229 41.5542 48.1969 40.661 46.7265C40.1045 45.8118 39.074 45.3375 38.0228 45.3714Z" fill="#BD4635"/>
</svg>
