<svg width="136" height="38" viewBox="0 0 136 38" fill="none" xmlns="http://www.w3.org/2000/svg">
<g clip-path="url(#clip0_203_1820)">
<path d="M11.2919 4.49365V10.7985H16.9626V16.1843H11.2919V27.8483C11.2919 30.0425 12.448 31.1396 14.7604 31.1396C15.4479 31.1427 16.1351 31.1124 16.8195 31.0488V36.269C15.6613 36.4787 14.4851 36.5807 13.3069 36.5735C10.0586 36.5735 7.73897 36.025 6.3479 34.9278C4.95683 33.8307 4.25395 32.0123 4.23927 29.4726V16.1843H0V10.7985H4.23927V4.49365H11.2919Z" fill="#BF3E2A"/>
<path d="M23.2665 5.95221C22.8966 5.64526 22.6023 5.26182 22.405 4.83003C22.2078 4.39825 22.1128 3.92909 22.1268 3.45699C22.1091 2.98441 22.2026 2.51413 22.4 2.0818C22.5975 1.64947 22.8938 1.26645 23.2665 0.961774C24.1188 0.289361 25.1974 -0.0532147 26.2945 1.8789e-05C27.3916 -0.0532147 28.4702 0.289361 29.3226 0.961774C29.6952 1.26645 29.9915 1.64947 30.189 2.0818C30.3864 2.51413 30.4799 2.98441 30.4622 3.45699C30.4762 3.92909 30.3812 4.39825 30.184 4.83003C29.9868 5.26182 29.6924 5.64526 29.3226 5.95221C28.4679 6.62061 27.391 6.96267 26.2945 6.91397C25.1974 6.9672 24.1188 6.62463 23.2665 5.95221ZM22.7599 10.5366H29.8126V36.4826H22.7599V10.5366Z" fill="#BF3E2A"/>
<path d="M36.9367 10.5364H43.7691V14.7682H44.204C44.7117 13.335 45.693 12.1046 46.9953 11.2684C48.3577 10.3912 49.9634 9.9382 51.598 9.97008C55.3968 9.97008 57.8615 11.573 58.9919 14.7789H59.4269C60.0461 13.3317 61.1241 12.1134 62.5045 11.3005C63.994 10.4139 65.7123 9.95622 67.4595 9.98077C70.1242 9.98077 72.2328 10.7662 73.7854 12.3371C75.3379 13.9079 76.1179 16.0291 76.1252 18.7007V36.4825H69.0726V20.4853C69.0726 17.4148 67.5861 15.8777 64.6131 15.8742C63.9776 15.8482 63.3438 15.9544 62.7541 16.1857C62.1644 16.417 61.6325 16.7681 61.1942 17.2153C60.7607 17.67 60.4243 18.2033 60.2041 18.7847C59.9839 19.3661 59.8845 19.984 59.9114 20.6028V36.4825H53.123V20.2021C53.1604 19.6195 53.0768 19.0355 52.8773 18.4848C52.6777 17.9341 52.3663 17.4279 51.9614 16.9962C51.0233 16.2196 49.8171 15.8165 48.5852 15.868C47.3533 15.9196 46.1873 16.4219 45.3217 17.2741C44.4174 18.2554 43.9399 19.5384 43.9893 20.8539V36.4825H36.9367V10.5364Z" fill="#BF3E2A"/>
<path d="M106.808 29.0931C106.568 30.2756 106.087 31.3994 105.392 32.398C104.697 33.3966 103.802 34.2496 102.761 34.9064C100.559 36.3312 97.8354 37.0436 94.5908 37.0436C90.5204 37.0436 87.3455 35.8592 85.0662 33.4905C82.7869 31.1217 81.6473 27.8375 81.6473 23.6378C81.6473 19.4239 82.7961 16.0916 85.0937 13.6409C87.3914 11.1902 90.5259 9.96666 94.4972 9.97022C98.4392 9.97022 101.508 11.1243 103.703 13.4325C105.897 15.7408 106.998 18.9466 107.006 23.0501V25.1659H88.6779V25.5186C88.7256 27.4457 89.3 28.9667 90.4011 30.0816C90.9671 30.654 91.6534 31.1015 92.4133 31.3937C93.1733 31.686 93.9892 31.8161 94.8055 31.7753C97.6684 31.7753 99.4871 30.8848 100.262 29.1038L106.808 29.0931ZM90.4727 16.7453C89.3898 17.8364 88.7588 19.2762 88.6999 20.79H100.091C100.102 19.2885 99.5319 17.8376 98.4943 16.7239C97.976 16.2184 97.3548 15.8233 96.6704 15.5639C95.986 15.3044 95.2533 15.1863 94.5192 15.2171C93.7732 15.1923 93.0298 15.315 92.3342 15.5777C91.6385 15.8404 91.0052 16.2376 90.4727 16.7453Z" fill="#BF3E2A"/>
<path d="M119.168 23.9958H114.152V29.1412H119.168V23.9958Z" fill="#BF3E2A"/>
<path d="M128.191 23.9958H123.176V29.1412H128.191V23.9958Z" fill="#BF3E2A"/>
<path d="M119.168 32.8545H114.152V37.9999H119.168V32.8545Z" fill="#BF3E2A"/>
<path d="M128.191 32.8545H123.176V37.9999H128.191V32.8545Z" fill="#BF3E2A"/>
<path d="M122.08 31.77H126.93C126.97 31.5136 126.99 31.2546 126.991 30.9953C126.991 30.7251 126.969 30.4553 126.925 30.1885H122.08V25.4225C121.781 25.3759 121.48 25.3509 121.177 25.3477C120.873 25.3497 120.569 25.3766 120.269 25.4278V30.1885H115.424C115.382 30.4556 115.36 30.7252 115.358 30.9953C115.359 31.2546 115.379 31.5136 115.418 31.77H120.269V36.5788C120.868 36.6786 121.481 36.6786 122.08 36.5788V31.77Z" fill="#BF3E2A"/>
</g>
<defs>
<clipPath id="clip0_203_1820">
<rect width="136" height="38" fill="white"/>
</clipPath>
</defs>
</svg>
