<svg xmlns="http://www.w3.org/2000/svg" viewBox="0 0 527.55 488.45"><defs><style>.cls-1{fill:#444242;}.cls-2{fill:#9f2aa6;}.cls-3{fill:#b02a9e;}.cls-4{fill:#f04471;}.cls-5{fill:#f38259;opacity:0.8;}.cls-6{fill:#282828;}</style></defs><title>abs2t</title><g id="Слой_2" data-name="Слой 2"><g id="OBJECTS"><polygon class="cls-1" points="224.03 0 246.45 27.57 216.75 25.18 224.03 0"/><polygon class="cls-2" points="92.27 13.79 452.14 373.66 527.55 355.98 191.13 19.55 92.27 13.79"/><polygon class="cls-3" points="100.32 44.34 432.15 376.17 472.16 336.15 186.33 50.32 100.32 44.34"/><polygon class="cls-4" points="253.22 186.5 466.21 399.48 469.16 324.26 235.32 88.56 253.22 186.5"/><polygon class="cls-2" points="293.1 98.27 411.79 216.96 437.9 218.67 294.25 74.44 293.1 98.27"/><path class="cls-4" d="M78,88.38a.74.74,0,0,0,0,1L305.27,316.7a.74.74,0,0,0,1,0h0a.74.74,0,0,0,0-1L79,88.38a.74.74,0,0,0-1,0Z"/><polygon class="cls-2" points="433.49 152.44 474.13 227.51 389.76 142.88 433.49 152.44"/><polygon class="cls-5" points="339.86 250.25 505.32 415.72 526.09 488.45 339.86 302.22 339.86 250.25"/><polygon class="cls-5" points="326.66 237.06 326.66 289.02 160.03 122.4 151.41 61.81 326.66 237.06"/><path class="cls-5" d="M3.06,37.6a.74.74,0,0,0,0,1L230.33,265.92a.74.74,0,0,0,1,0h0a.74.74,0,0,0,0-1L4.11,37.6a.74.74,0,0,0-1,0Z"/><path class="cls-4" d="M.22,42.28a.74.74,0,0,0,0,1L227.49,270.6a.74.74,0,0,0,1,0h0a.74.74,0,0,0,0-1L1.26,42.28a.74.74,0,0,0-1,0Z"/><polygon class="cls-6" points="242.6 222.7 251.68 222.7 251.68 222.7 242.6 222.7 242.6 222.7"/><polygon class="cls-4" points="217.56 209.51 143.35 135.3 149.27 129.37 229.41 209.51 217.56 209.51"/><polygon class="cls-4" points="242.6 222.7 495.15 475.25 496.5 488.45 230.75 222.7 242.6 222.7"/><polygon class="cls-5" points="352.21 437.9 339.86 376.17 430.99 467.87 352.21 437.9"/><polygon class="cls-1" points="222.14 16.21 243.48 42.46 215.21 40.17 222.14 16.21"/><polygon class="cls-2" points="96.72 29.33 439.27 371.88 511.06 355.06 190.83 34.82 96.72 29.33"/><polygon class="cls-3" points="104.39 58.42 420.24 374.28 458.33 336.18 186.26 64.11 104.39 58.42"/><polygon class="cls-4" points="249.93 193.73 452.66 396.47 455.47 324.86 232.89 100.5 249.93 193.73"/><polygon class="cls-2" points="287.88 109.75 400.86 222.73 425.72 224.36 288.98 87.06 287.88 109.75"/><path class="cls-4" d="M83.13,100.34a.7.7,0,0,0,0,1L299.47,317.67a.7.7,0,0,0,1,0h0a.7.7,0,0,0,0-1L84.13,100.34a.7.7,0,0,0-1,0Z"/><polygon class="cls-2" points="421.52 161.31 460.2 232.77 379.9 152.21 421.52 161.31"/><polygon class="cls-5" points="332.39 254.42 489.9 411.93 509.66 481.15 332.39 303.88 332.39 254.42"/><polygon class="cls-5" points="319.84 241.86 319.84 291.32 161.23 132.72 153.02 75.04 319.84 241.86"/><path class="cls-5" d="M11.81,52a.71.71,0,0,0,0,1L228.14,269.33a.7.7,0,0,0,1,0h0a.71.71,0,0,0,0-1L12.8,52a.7.7,0,0,0-1,0Z"/><path class="cls-4" d="M9.1,56.46a.7.7,0,0,0,0,1L225.44,273.79a.71.71,0,0,0,1,0h0a.71.71,0,0,0,0-1L10.1,56.46a.7.7,0,0,0-1,0Z"/><polygon class="cls-6" points="239.82 228.19 248.46 228.19 248.46 228.19 239.82 228.19 239.82 228.19"/><polygon class="cls-4" points="215.99 215.64 145.34 144.99 150.98 139.36 227.26 215.64 215.99 215.64"/><polygon class="cls-4" points="239.82 228.19 480.21 468.59 481.5 481.15 228.54 228.19 239.82 228.19"/><polygon class="cls-5" points="344.15 433.03 332.39 374.28 419.14 461.56 344.15 433.03"/></g></g></svg>