<svg xmlns="http://www.w3.org/2000/svg" viewBox="0 0 442.27 406.69"><defs><style>.cls-1,.cls-3{fill:#f04471;}.cls-1{opacity:0.8;}.cls-2{fill:#f38259;}.cls-4{fill:#f5ab4a;}.cls-5{fill:#b02a9e;opacity:0.9;}</style></defs><title>abs2b</title><g id="Слой_2" data-name="Слой 2"><g id="OBJECTS"><polygon class="cls-1" points="351.25 239.29 433.64 321.69 442.27 382.27 299.29 239.29 351.25 239.29"/><polygon class="cls-1" points="286.1 226.1 101.49 41.5 111.96 0 338.06 226.1 286.1 226.1"/><polygon class="cls-2" points="364.99 323.99 67.58 26.58 75.21 95.23 299.42 319.44 364.99 323.99"/><polygon class="cls-2" points="324.29 368.12 117.3 161.13 74.56 160.95 319.29 406.69 324.29 368.12"/><path class="cls-3" d="M.16,53.82c-.29.29-.16.88.28,1.33L349.26,404c.44.45,1,.57,1.33.28h0c.29-.29.16-.88-.28-1.33L1.48,54.1c-.45-.45-1-.57-1.33-.28Z"/><polygon class="cls-4" points="300.5 365.18 62.18 126.86 71.11 171.01 260.15 360.89 300.5 365.18"/><polygon class="cls-5" points="211.42 191.56 162.36 142.12 177.73 79.32 211.42 113 211.42 191.56"/><polygon class="cls-5" points="224.61 126.2 390.72 292.3 408.62 390.24 224.61 204.85 224.61 126.2"/><polygon class="cls-3" points="35.77 24.45 244.53 233.22 242.74 188.51 77.28 22.04 35.77 24.45"/><polygon class="cls-1" points="341.06 242.42 419.49 320.84 427.7 378.52 291.6 242.42 341.06 242.42"/><polygon class="cls-1" points="279.04 229.86 103.32 54.14 113.28 14.64 328.5 229.86 279.04 229.86"/><polygon class="cls-2" points="354.14 323.04 71.04 39.94 78.31 105.29 291.72 318.7 354.14 323.04"/><polygon class="cls-2" points="315.39 365.05 118.37 168.02 77.69 167.84 310.64 401.76 315.39 365.05"/><path class="cls-3" d="M16.65,55.14c-.28.27-.16.84.27,1.26l332,332c.42.42,1,.54,1.26.27h0c.27-.27.15-.84-.27-1.26l-332-332c-.42-.42-1-.54-1.26-.27Z"/><polygon class="cls-4" points="292.75 362.25 65.9 135.39 74.4 177.42 254.35 358.16 292.75 362.25"/><polygon class="cls-5" points="207.96 196.98 161.26 149.93 175.89 90.14 207.96 122.21 207.96 196.98"/><polygon class="cls-5" points="220.52 134.76 378.63 292.88 395.67 386.1 220.52 209.63 220.52 134.76"/><polygon class="cls-3" points="50.54 27.18 249.25 225.9 247.55 183.35 90.06 24.88 50.54 27.18"/></g></g></svg>