<svg width="13" height="11" viewBox="0 0 13 11" fill="none" xmlns="http://www.w3.org/2000/svg">
<path d="M13 2.92453V9.075C13 10.1383 12.1961 11 11.2039 11H1.79605C1.31971 11 0.862877 10.7972 0.526052 10.4362C0.189226 10.0752 0 9.58554 0 9.075V2.92453L6.29405 6.6352C6.42234 6.71073 6.578 6.71073 6.70595 6.6352L13 2.92453ZM11.2039 8.27868e-09C11.6728 4.6697e-05 12.123 0.196589 12.4585 0.547645C12.794 0.8987 12.9881 1.37643 12.9993 1.8788L6.5 5.71047L0.000684161 1.87843L0.00136849 1.84543C0.0205273 1.34906 0.217992 0.879847 0.552469 0.535911C0.886946 0.191976 1.33253 -4.60361e-05 1.79605 8.27868e-09H11.2039Z" fill="#545458"/>
</svg>
