<svg width="27" height="27" viewBox="0 0 27 27" fill="none" xmlns="http://www.w3.org/2000/svg">
<g clip-path="url(#clip0_203_434)">
<path d="M13.0727 26.1453C20.2925 26.1453 26.1453 20.2924 26.1453 13.0726C26.1453 5.85281 20.2925 0 13.0727 0C5.85284 0 3.05176e-05 5.85281 3.05176e-05 13.0726C3.05176e-05 20.2924 5.85284 26.1453 13.0727 26.1453Z" fill="#37373A"/>
<path d="M17.3227 4.0127H14.4268C12.7083 4.0127 10.7968 4.73548 10.7968 7.22656C10.8052 8.09455 10.7968 8.92583 10.7968 9.86137H8.80872V13.025H10.8583V22.1327H14.6246V12.9649H17.1105L17.3354 9.8525H14.5597C14.5597 9.8525 14.566 8.46795 14.5597 8.06587C14.5597 7.08145 15.5841 7.13783 15.6457 7.13783C16.1331 7.13783 17.0809 7.13925 17.3242 7.13783V4.0127H17.3227Z" fill="white"/>
</g>
<defs>
<clipPath id="clip0_203_434">
<rect width="26.1453" height="26.1453" fill="white"/>
</clipPath>
</defs>
</svg>
