<svg width="38" height="41" viewBox="0 0 38 41" fill="none" xmlns="http://www.w3.org/2000/svg">
<path d="M36.1 12.8834L22.8146 1.42021C21.7537 0.50395 20.4001 0 19 0C17.5999 0 16.2463 0.50395 15.1854 1.42021L1.9 12.8834C1.30696 13.3929 0.830291 14.0245 0.50243 14.7353C0.174568 15.4461 0.00320531 16.2194 0 17.0025V35.4727C0.0133134 36.2119 0.171701 36.9413 0.466116 37.6191C0.760531 38.297 1.18521 38.91 1.71588 39.4232C2.24656 39.9364 2.87284 40.3397 3.55895 40.6101C4.24506 40.8805 4.97756 41.0126 5.71461 40.999H11.6923C12.0799 40.999 12.4517 40.8446 12.7258 40.5697C12.9999 40.2948 13.1538 39.9219 13.1538 39.5332C13.1538 39.1444 12.9999 38.7715 12.7258 38.4966C12.4517 38.2217 12.0799 38.0673 11.6923 38.0673H5.71461C5.00229 38.0911 4.30938 37.8319 3.78662 37.346C3.26385 36.8601 2.9535 36.1869 2.92308 35.4727V17.0025C2.92697 16.6394 3.00859 16.2813 3.1624 15.9526C3.31621 15.6238 3.53863 15.332 3.81462 15.0969L17.1 3.58972C17.6295 3.1355 18.3033 2.8859 19 2.8859C19.6967 2.8859 20.3705 3.1355 20.9 3.58972L34.1854 15.0969C34.4614 15.332 34.6838 15.6238 34.8376 15.9526C34.9914 16.2813 35.073 16.6394 35.0769 17.0025V35.4727C35.0465 36.1869 34.7361 36.8601 34.2134 37.346C33.6906 37.8319 32.9977 38.0911 32.2854 38.0673H19C18.6124 38.0673 18.2406 38.2217 17.9665 38.4966C17.6924 38.7715 17.5385 39.1444 17.5385 39.5332C17.5385 39.9219 17.6924 40.2948 17.9665 40.5697C18.2406 40.8446 18.6124 40.999 19 40.999H32.2854C33.0224 41.0126 33.7549 40.8805 34.441 40.6101C35.1272 40.3397 35.7534 39.9364 36.2841 39.4232C36.8148 38.91 37.2395 38.297 37.5339 37.6191C37.8283 36.9413 37.9867 36.2119 38 35.4727V17.0025C37.9968 16.2194 37.8254 15.4461 37.4976 14.7353C37.1697 14.0245 36.693 13.3929 36.1 12.8834Z" fill="#BD4635"/>
<path d="M23.3846 31.163V27.8061H26.7315C27.3932 27.8023 28.0267 27.5369 28.4945 27.0677C28.9624 26.5984 29.2269 25.9631 29.2308 25.2994V21.5175C29.2269 20.8538 28.9624 20.2185 28.4945 19.7492C28.0267 19.28 27.3932 19.0147 26.7315 19.0108H23.3846V15.6539C23.3808 14.9903 23.1162 14.355 22.6484 13.8857C22.1805 13.4165 21.547 13.1511 20.8854 13.1473H17.1146C16.453 13.1511 15.8195 13.4165 15.3516 13.8857C14.8838 14.355 14.6192 14.9903 14.6154 15.6539V19.0108H11.2685C10.6068 19.0147 9.97334 19.28 9.50548 19.7492C9.03761 20.2185 8.77307 20.8538 8.76923 21.5175V25.2994C8.77307 25.9631 9.03761 26.5984 9.50548 27.0677C9.97334 27.5369 10.6068 27.8023 11.2685 27.8061H14.6154V31.163C14.6192 31.8266 14.8838 32.4619 15.3516 32.9312C15.8195 33.4005 16.453 33.6658 17.1146 33.6696H20.8854C21.547 33.6658 22.1805 33.4005 22.6484 32.9312C23.1162 32.4619 23.3808 31.8266 23.3846 31.163ZM20.4615 30.7379H17.5385V26.3402C17.5385 25.9514 17.3845 25.5786 17.1104 25.3037C16.8363 25.0288 16.4645 24.8743 16.0769 24.8743H11.6923V21.9426H16.0769C16.4645 21.9426 16.8363 21.7881 17.1104 21.5132C17.3845 21.2383 17.5385 20.8655 17.5385 20.4767V16.079H20.4615V20.4767C20.4615 20.8655 20.6155 21.2383 20.8896 21.5132C21.1637 21.7881 21.5355 21.9426 21.9231 21.9426H26.3077V24.8743H21.9231C21.5355 24.8743 21.1637 25.0288 20.8896 25.3037C20.6155 25.5786 20.4615 25.9514 20.4615 26.3402V30.7379Z" fill="#BD4635"/>
</svg>
