<svg width="43" height="67" viewBox="0 0 43 67" fill="none" xmlns="http://www.w3.org/2000/svg">
<path d="M21.5 0C15.9757 0 11.4667 4.582 11.4667 10.1957C11.4667 15.8093 15.9757 20.3913 21.5 20.3913C27.0243 20.3913 31.5333 15.8093 31.5333 10.1957C31.5333 4.582 27.0243 0 21.5 0ZM21.5 2.91304C25.475 2.91304 28.6667 6.15633 28.6667 10.1957C28.6667 14.235 25.475 17.4783 21.5 17.4783C17.525 17.4783 14.3333 14.235 14.3333 10.1957C14.3333 6.15633 17.525 2.91304 21.5 2.91304ZM10.0333 23.3043C4.50879 23.3043 0 27.8861 0 33.5V62.6304C0 65.0264 1.94221 67 4.3 67H38.7C41.0578 67 43 65.0264 43 62.6304V33.5C43 27.8861 38.4912 23.3043 32.9667 23.3043H10.0333ZM10.0333 26.2174H32.9667C36.9423 26.2174 40.1333 29.4601 40.1333 33.5V46.0426L26.0324 41.2662L32.9667 38.9193V34.9565C32.9693 34.7617 32.9334 34.5682 32.8612 34.3877C32.7889 34.2072 32.6817 34.0432 32.546 33.9056C32.4102 33.7679 32.2487 33.6593 32.0709 33.5862C31.8931 33.5131 31.7027 33.477 31.5109 33.4801C31.1313 33.4861 30.7695 33.645 30.505 33.9218C30.2404 34.1986 30.0948 34.5707 30.1 34.9565V36.8198L21.5 39.7329L12.9 36.8198V34.9565C12.9026 34.7617 12.8667 34.5682 12.7945 34.3877C12.7222 34.2072 12.615 34.0432 12.4793 33.9056C12.3436 33.7679 12.182 33.6593 12.0042 33.5862C11.8264 33.5131 11.636 33.477 11.4443 33.4801C11.0646 33.4861 10.7028 33.645 10.4383 33.9218C10.1738 34.1986 10.0281 34.5707 10.0333 34.9565V38.9193L20.7665 42.5549C20.9226 42.6432 21.0935 42.7011 21.2704 42.7256L40.1333 49.1149V56.2638L2.86667 44.0911V33.5C2.86667 29.4601 6.05775 26.2174 10.0333 26.2174ZM2.86667 47.1492L16.8193 51.7065L2.86667 56.2638V47.1492ZM21.5 53.2342L40.1333 59.322V62.6304C40.1333 63.4534 39.5099 64.087 38.7 64.087H4.3C3.49012 64.087 2.86667 63.4534 2.86667 62.6304V59.322L21.5 53.2342Z" fill="#BD4635"/>
</svg>
