<svg width="76" height="67" viewBox="0 0 76 67" fill="none" xmlns="http://www.w3.org/2000/svg">
<path d="M21.4789 0C9.63507 0 0 9.70049 0 21.6232C0 23.6433 0.193824 25.5715 0.537344 27.4225H3.64859C3.25947 25.5745 3.04 23.6463 3.04 21.6232C3.04 11.3809 11.3101 3.04694 21.4789 3.04694C27.0877 3.04694 31.8435 5.42748 35.6131 10.1198C35.905 10.4854 36.768 11.5986 36.768 11.5986C37.344 12.3421 38.5936 12.3421 39.1697 11.5986C39.1697 11.5986 40.0281 10.4899 40.3245 10.1228C44.0394 5.49292 48.9488 3.04694 54.5211 3.04694C64.6899 3.04694 72.96 11.3809 72.96 21.6232C72.96 39.2939 56.9373 50.0942 45.2378 57.9782C42.4927 59.8277 40.0096 61.8456 37.9941 63.5276C36.3844 62.2021 33.138 59.5779 30.7592 57.9752C22.7944 52.6065 12.829 45.8839 7.27641 36.5633H3.7525C9.40538 47.2444 20.3681 54.6451 29.0641 60.5074C32.1405 62.5793 36.9746 66.6345 37.0233 66.6757C37.2847 66.8966 37.6209 67 37.9614 67C38.3551 67 38.7543 66.8616 39.0598 66.6072C41.086 64.907 43.8626 62.5763 46.933 60.5074C59.2009 52.238 76 40.9164 76 21.6232C76 9.70049 66.3649 0 54.5211 0C48.0018 0 42.2781 2.83497 37.9673 8.19758C33.6581 2.83497 27.9556 0 21.4789 0ZM26.5852 10.6643C26.2379 10.6681 25.9025 10.7909 25.6346 11.0123C25.3667 11.2337 25.1825 11.5404 25.1127 11.8813L20.8555 32.6118L18.142 25.3634C18.0379 25.0862 17.8554 24.8453 17.6168 24.6704C17.3782 24.4956 17.0939 24.3942 16.7987 24.3787C16.5036 24.3632 16.2103 24.4343 15.9548 24.5833C15.6993 24.7323 15.4927 24.9528 15.3603 25.2176L12.7419 30.4694H3.04C2.83858 30.4666 2.63861 30.5039 2.45169 30.5791C2.26478 30.6544 2.09466 30.7662 1.95122 30.9079C1.80778 31.0497 1.69388 31.2186 1.61613 31.4049C1.53839 31.5911 1.49835 31.791 1.49835 31.9929C1.49835 32.1948 1.53839 32.3947 1.61613 32.5809C1.69388 32.7672 1.80778 32.9361 1.95122 33.0779C2.09466 33.2196 2.26478 33.3314 2.45169 33.4066C2.63861 33.4819 2.83858 33.5192 3.04 33.5164H13.68C13.9623 33.5164 14.239 33.4376 14.4792 33.2889C14.7193 33.1402 14.9134 32.9273 15.0397 32.6743L16.5211 29.7047L19.858 38.6224C19.9746 38.9305 20.1878 39.1924 20.4655 39.3688C20.7432 39.5453 21.0705 39.6267 21.3983 39.6009C21.7261 39.575 22.0368 39.4434 22.2836 39.2257C22.5304 39.0079 22.7002 38.7159 22.7673 38.3933L26.505 20.1919L31.1838 45.9779C31.2429 46.3052 31.4072 46.6041 31.6517 46.8289C31.8962 47.0538 32.2074 47.1924 32.5378 47.2234C32.8682 47.2544 33.1996 47.1762 33.4815 47.0008C33.7634 46.8253 33.9803 46.5622 34.0991 46.2516L40.2622 30.1897L43.418 38.6224C43.518 38.8879 43.69 39.1202 43.9146 39.293C44.1393 39.4658 44.4076 39.5723 44.6894 39.6004C44.9712 39.6286 45.2552 39.5773 45.5095 39.4523C45.7637 39.3273 45.9781 39.1337 46.1284 38.8931L49.4831 33.5164H56.6527C56.919 33.9788 57.3019 34.3629 57.763 34.6303C58.2242 34.8977 58.7473 35.0389 59.28 35.0398C60.0863 35.0398 60.8595 34.7188 61.4296 34.1474C61.9997 33.576 62.32 32.801 62.32 31.9929C62.32 31.1848 61.9997 30.4098 61.4296 29.8384C60.8595 29.267 60.0863 28.946 59.28 28.946C58.7468 28.9464 58.223 29.0874 57.7614 29.3548C57.2997 29.6222 56.9163 30.0066 56.6497 30.4694H48.64C48.3822 30.4696 48.1287 30.5356 47.9033 30.661C47.6779 30.7865 47.488 30.9673 47.3516 31.1865L45.1814 34.6649L41.702 25.3634C41.5936 25.0744 41.4 24.8252 41.1471 24.6489C40.8941 24.4726 40.5937 24.3776 40.2856 24.3763C39.9775 24.375 39.6763 24.4675 39.4219 24.6417C39.1674 24.8159 38.9718 25.0634 38.8609 25.3515L33.2055 40.0863L28.0963 11.914C28.0318 11.5606 27.8448 11.2413 27.5683 11.0126C27.2918 10.784 26.9436 10.6606 26.5852 10.6643Z" fill="#BD4635"/>
</svg>
