<svg width="50" height="67" viewBox="0 0 50 67" fill="none" xmlns="http://www.w3.org/2000/svg">
<path d="M15.3783 0C10.7576 0 6.89248 3.63789 6.53783 8.33313L2.96053 58.2063H2.59046C1.16674 58.2063 0 59.4363 0 60.8863V65.66C0 66.398 0.591078 67 1.31579 67H6.57895C7.30366 67 7.89474 66.398 7.89474 65.66V60.8863C7.89474 59.5305 6.8822 58.3999 5.59211 58.2481L6.86678 40.2H39.8849C39.8849 40.2262 39.8849 40.2576 39.8849 40.2838C39.89 40.3675 39.9054 40.4513 39.926 40.535C39.926 40.5507 39.926 40.5612 39.926 40.5769L40.3783 48.4075C40.9385 48.3133 41.5193 48.24 42.1053 48.24C42.4137 48.24 42.7066 48.2557 43.0099 48.2819L42.5164 40.4094V40.3675C42.5164 40.3256 42.5164 40.2838 42.5164 40.2419C42.5113 40.1424 42.501 40.043 42.4753 39.9487C42.4753 39.9226 42.4753 39.8912 42.4753 39.865L40.5428 8.375V8.33313C40.1881 3.63789 36.323 0 31.7023 0H15.3783ZM15.3783 2.68H31.7023C34.9712 2.68 37.6593 5.21867 37.9112 8.5425L38.199 13.2325C37.428 13.332 35.4801 13.5989 32.4424 13.9444C28.86 14.3527 24.8047 14.74 23.5197 14.74C22.2348 14.74 18.1795 14.3527 14.597 13.9444C11.5389 13.5937 9.54461 13.332 8.79934 13.2325L9.12829 8.5425C9.38014 5.21867 12.1094 2.68 15.3783 2.68ZM8.59375 15.9125C9.41098 16.0067 11.2921 16.237 14.3092 16.5825C17.9122 16.9908 21.7722 17.42 23.5197 17.42C25.2673 17.42 29.1273 16.9908 32.7303 16.5825C35.7011 16.2423 37.5051 16.012 38.3635 15.9125L39.7204 37.52H7.07237L8.59375 15.9125ZM42.1053 50.92C37.7621 50.92 34.2105 54.537 34.2105 58.96C34.2105 63.383 37.7621 67 42.1053 67C46.4484 67 50 63.383 50 58.96C50 54.537 46.4484 50.92 42.1053 50.92ZM42.1053 53.6C45.0298 53.6 47.3684 55.9816 47.3684 58.96C47.3684 61.9384 45.0298 64.32 42.1053 64.32C39.1807 64.32 36.8421 61.9384 36.8421 58.96C36.8421 55.9816 39.1807 53.6 42.1053 53.6ZM42.1053 56.28C40.6507 56.28 39.4737 57.4787 39.4737 58.96C39.4737 60.4413 40.6507 61.64 42.1053 61.64C43.5598 61.64 44.7368 60.4413 44.7368 58.96C44.7368 57.4787 43.5598 56.28 42.1053 56.28ZM2.63158 60.8863H5.26316V64.32H2.63158V60.8863Z" fill="#BD4635"/>
</svg>
