<svg width="48" height="67" viewBox="0 0 48 67" fill="none" xmlns="http://www.w3.org/2000/svg">
<path d="M23.9697 0.0002712C23.7672 0.00494152 23.568 0.0526435 23.3858 0.140138C23.2036 0.227633 23.0425 0.352871 22.9136 0.507349C22.9136 0.507349 17.2178 7.30515 11.5202 15.9896C5.8226 24.674 0 35.1263 0 43.2682C0 56.3586 10.76 67 24 67C37.24 67 48 56.36 48 43.2709C48 35.1284 42.1774 24.6742 36.4798 15.9896C30.7822 7.30497 25.0864 0.507349 25.0864 0.507349C24.9509 0.345087 24.7801 0.215196 24.5868 0.127388C24.3934 0.0395795 24.1824 -0.00387557 23.9697 0.0002712ZM24 3.65614C25.3553 5.31328 29.3811 10.3052 34.1085 17.5108C39.705 26.0413 45.1765 36.5242 45.1765 43.2709C45.1765 54.8517 35.7144 64.2083 24 64.2083C12.2856 64.2083 2.82353 54.8504 2.82353 43.2682C2.82353 36.5222 8.29504 26.0411 13.8915 17.5108C18.6189 10.3053 22.6447 5.31327 24 3.65614ZM23.9779 32.0852C23.604 32.091 23.2477 32.2432 22.9871 32.5085C22.7266 32.7738 22.5831 33.1304 22.5882 33.5001V41.8751H14.1176C13.9306 41.8725 13.7448 41.9067 13.5712 41.9756C13.3976 42.0446 13.2396 42.147 13.1064 42.2769C12.9732 42.4067 12.8674 42.5615 12.7952 42.7322C12.723 42.9028 12.6858 43.0859 12.6858 43.2709C12.6858 43.4559 12.723 43.639 12.7952 43.8097C12.8674 43.9804 12.9732 44.1351 13.1064 44.265C13.2396 44.3949 13.3976 44.4973 13.5712 44.5662C13.7448 44.6352 13.9306 44.6694 14.1176 44.6668H22.5882V53.0417C22.5856 53.2267 22.6202 53.4103 22.6899 53.582C22.7597 53.7536 22.8632 53.9098 22.9946 54.0416C23.126 54.1733 23.2825 54.2779 23.4551 54.3493C23.6277 54.4207 23.8129 54.4574 24 54.4574C24.1871 54.4574 24.3723 54.4207 24.5449 54.3493C24.7175 54.2779 24.874 54.1733 25.0054 54.0416C25.1368 53.9098 25.2403 53.7536 25.3101 53.582C25.3798 53.4103 25.4144 53.2267 25.4118 53.0417V44.6668H33.8824C34.0694 44.6694 34.2552 44.6352 34.4288 44.5662C34.6024 44.4973 34.7604 44.3949 34.8936 44.265C35.0268 44.1351 35.1326 43.9804 35.2048 43.8097C35.277 43.639 35.3142 43.4559 35.3142 43.2709C35.3142 43.0859 35.277 42.9028 35.2048 42.7322C35.1326 42.5615 35.0268 42.4067 34.8936 42.2769C34.7604 42.147 34.6024 42.0446 34.4288 41.9756C34.2552 41.9067 34.0694 41.8725 33.8824 41.8751H25.4118V33.5001C25.4144 33.3134 25.379 33.128 25.3078 32.955C25.2367 32.782 25.1311 32.6249 24.9974 32.493C24.8637 32.361 24.7046 32.257 24.5295 32.1869C24.3544 32.1169 24.1668 32.0823 23.9779 32.0852Z" fill="#BD4635"/>
</svg>
