<svg width="58" height="67" viewBox="0 0 58 67" fill="none" xmlns="http://www.w3.org/2000/svg">
<path d="M8.1912 0C5.54887 0 3.37099 2.1623 3.37099 4.78571V12.7619H1.76425C1.71404 12.7619 1.66383 12.7619 1.61362 12.7619C0.728664 12.8055 0.0382691 13.5533 0.0822036 14.4319C0.126138 15.3105 0.879295 15.996 1.76425 15.9524H8.1912C8.76862 15.9586 9.30838 15.6595 9.60337 15.161C9.89208 14.6625 9.89208 14.0518 9.60337 13.5533C9.30838 13.0548 8.76862 12.7557 8.1912 12.7619H6.58446V4.78571C6.58446 3.90086 7.29996 3.19048 8.1912 3.19048H53.1798C54.071 3.19048 54.7865 3.90086 54.7865 4.78571V62.2143C54.7865 63.0991 54.071 63.8095 53.1798 63.8095H8.1912C7.29996 63.8095 6.58446 63.0991 6.58446 62.2143V55.8333H3.37099V62.2143C3.37099 64.8377 5.54887 67 8.1912 67H53.1798C55.8221 67 58 64.8377 58 62.2143V4.78571C58 2.1623 55.8221 0 53.1798 0H8.1912ZM3.37099 17.5476V22.3333H1.76425C1.71404 22.3333 1.66383 22.3333 1.61362 22.3333C1.56341 22.3333 1.5132 22.3333 1.46299 22.3333C0.578033 22.4143 -0.0747037 23.1995 0.00688792 24.0781C0.0884796 24.9568 0.879295 25.6048 1.76425 25.5238H8.1912C8.76862 25.53 9.30838 25.2309 9.60337 24.7324C9.89208 24.2339 9.89208 23.6232 9.60337 23.1247C9.30838 22.6262 8.76862 22.3271 8.1912 22.3333H6.58446V17.5476H3.37099ZM25.8653 19.1429V28.7143H16.2249V38.2857H25.8653V47.8571H35.5057V38.2857H45.1461V28.7143H35.5057V19.1429H25.8653ZM29.0788 22.3333H32.2922V31.9048H41.9326V35.0952H32.2922V44.6667H29.0788V35.0952H19.4383V31.9048H29.0788V22.3333ZM3.37099 27.119V31.9048H1.76425C1.71404 31.9048 1.66383 31.9048 1.61362 31.9048C0.728664 31.9484 0.0382691 32.6961 0.0822036 33.5748C0.126138 34.4534 0.879295 35.1389 1.76425 35.0952H8.1912C8.76862 35.1015 9.30838 34.8024 9.60337 34.3039C9.89208 33.8053 9.89208 33.1947 9.60337 32.6961C9.30838 32.1976 8.76862 31.8985 8.1912 31.9048H6.58446V27.119H3.37099ZM3.37099 36.6905V41.4762H1.76425C1.71404 41.4762 1.66383 41.4762 1.61362 41.4762C0.728664 41.5198 0.0382691 42.2676 0.0822036 43.1462C0.126138 44.0248 0.879295 44.7103 1.76425 44.6667H8.1912C8.76862 44.6729 9.30838 44.3738 9.60337 43.8753C9.89208 43.3768 9.89208 42.7661 9.60337 42.2676C9.30838 41.7691 8.76862 41.47 8.1912 41.4762H6.58446V36.6905H3.37099ZM3.37099 46.2619V51.0476H1.76425C1.71404 51.0476 1.66383 51.0476 1.61362 51.0476C0.728664 51.0912 0.0382691 51.839 0.0822036 52.7176C0.126138 53.5963 0.879295 54.2817 1.76425 54.2381H8.1912C8.76862 54.2443 9.30838 53.9452 9.60337 53.4467C9.89208 52.9482 9.89208 52.3375 9.60337 51.839C9.30838 51.3405 8.76862 51.0414 8.1912 51.0476H6.58446V46.2619H3.37099Z" fill="#BD4635"/>
</svg>
