<svg width="67" height="67" viewBox="0 0 67 67" fill="none" xmlns="http://www.w3.org/2000/svg">
<g clip-path="url(#clip0_1_1871)">
<path d="M33.5 0C26.1143 0 20.1 6.0143 20.1 13.4C20.1 20.7857 26.1143 26.8 33.5 26.8C40.8857 26.8 46.9 20.7857 46.9 13.4C46.9 6.0143 40.8857 0 33.5 0ZM33.5 26.8H23.45C20.927 26.8 18.8961 28.0039 17.085 29.815C16.7133 29.9511 16.4255 30.239 16.2894 30.6106V30.6525C16.0381 30.9352 15.7764 31.2283 15.5356 31.5319C13.3529 34.2904 11.2644 37.9545 8.41686 42.1262C3.26624 49.7475 1.91577 55.7827 2.80562 60.1325C3.69546 64.4823 7.02976 67 10.4687 67H15.3262C15.6612 67.1413 16.0381 67.1413 16.3731 67H40.2837C40.6763 67.2094 41.1474 67.2094 41.54 67H53.8512C55.8665 67 57.5205 65.7228 58.3319 64.0269C59.1432 62.3309 59.4049 60.2372 59.4206 57.8712C59.4573 53.1341 58.379 47.3135 57.1594 42.2937C55.856 37.1379 54.1234 33.3325 51.8412 30.7362C49.5591 28.14 46.654 26.8 43.55 26.8H33.5ZM33.5 2.68C39.4358 2.68 44.22 7.46422 44.22 13.4C44.22 19.3358 39.4358 24.12 33.5 24.12C27.5642 24.12 22.78 19.3358 22.78 13.4C22.78 7.46422 27.5642 2.68 33.5 2.68ZM23.45 29.48H30.82L35.5937 49.2869V49.3287C35.5937 49.3549 35.5937 49.3863 35.5937 49.4125C35.5571 49.7213 35.6356 50.0302 35.8031 50.2919C35.8188 50.3076 35.8293 50.318 35.845 50.3337L39.195 64.32H16.08C14.651 63.2365 13.8554 61.0014 13.6512 57.9131C13.4314 54.6207 13.892 50.5274 14.6562 46.6069C16.0486 39.4881 18.2261 33.1545 18.6344 31.9925C20.1785 30.3227 21.6127 29.48 23.45 29.48ZM33.5837 29.48H43.55C45.9369 29.48 47.9626 30.3698 49.8312 32.495C51.6999 34.6202 53.3226 38.0277 54.5631 42.9219C55.7565 47.8212 56.772 53.5215 56.7406 57.8294C56.7249 59.9859 56.4213 61.7761 55.9031 62.8544C55.3849 63.9327 54.919 64.32 53.8512 64.32H48.0725C49.8208 62.6136 50.92 60.2372 50.92 57.62C50.92 52.4694 46.6906 48.24 41.54 48.24H38.0644L33.5837 29.48ZM13.735 38.9019C13.1278 41.1265 12.5258 43.5186 12.0181 46.1044C11.2277 50.1558 10.7252 54.3904 10.9712 58.0806C11.1283 60.4099 11.5889 62.5979 12.6044 64.32H10.4687C8.28077 64.32 6.08233 62.9119 5.40186 59.5881C4.7214 56.2643 5.73687 50.8886 10.6362 43.6337C11.7878 41.943 12.7928 40.3727 13.735 38.9019ZM38.6925 50.92H41.54C45.2302 50.92 48.24 53.9298 48.24 57.62C48.24 61.1794 45.4291 64.074 41.9169 64.2781L38.6925 50.92Z" fill="#BD4635"/>
</g>
<defs>
<clipPath id="clip0_1_1871">
<rect width="67" height="67" fill="white"/>
</clipPath>
</defs>
</svg>
