<svg width="36" height="40" viewBox="0 0 36 40" fill="none" xmlns="http://www.w3.org/2000/svg">
<path d="M34.5689 8.77999C34.2913 8.00499 33.847 7.30038 33.2673 6.71592C32.6876 6.13145 31.9866 5.68138 31.2139 5.39749L20.3652 1.18999C18.8427 0.605615 17.1577 0.605615 15.6352 1.18999L4.78642 5.39749C4.02644 5.68978 3.339 6.14362 2.77161 6.72763C2.20421 7.31164 1.77041 8.01189 1.50017 8.77999C0.303388 12.1774 -0.0958614 15.8046 0.333307 19.381C0.762475 22.9574 2.00856 26.3872 3.97517 29.405C6.60189 33.2288 10.1608 36.3192 14.3152 38.3837C15.4793 38.9711 16.765 39.2772 18.0689 39.2772C19.3728 39.2772 20.6586 38.9711 21.8227 38.3837C25.0116 36.7878 27.8674 34.5992 30.2377 31.935C30.4784 31.6597 30.5998 31.3 30.5753 30.9351C30.5508 30.5703 30.3824 30.23 30.107 29.9894C29.8317 29.7487 29.4721 29.6272 29.1072 29.6517C28.7423 29.6762 28.4021 29.8447 28.1614 30.12C26.0244 32.5238 23.4483 34.4979 20.5714 35.9362C19.7966 36.3321 18.939 36.5385 18.0689 36.5385C17.1989 36.5385 16.3412 36.3321 15.5664 35.9362C11.831 34.0824 8.62789 31.3098 6.25767 27.8787C4.5131 25.2139 3.40591 22.1829 3.022 19.021C2.63808 15.859 2.98777 12.6512 4.04392 9.64624C4.19458 9.25592 4.42903 8.90341 4.73076 8.61356C5.03248 8.32372 5.39412 8.1036 5.79017 7.96874L16.6252 3.74749C17.5122 3.41776 18.4882 3.41776 19.3752 3.74749L30.2102 7.96874C30.6062 8.1036 30.9679 8.32372 31.2696 8.61356C31.5713 8.90341 31.8058 9.25592 31.9564 9.64624C33.509 14.1876 33.509 19.1161 31.9564 23.6575C31.889 23.8285 31.8566 24.0114 31.8611 24.1951C31.8656 24.3789 31.9069 24.5599 31.9826 24.7275C32.0582 24.895 32.1667 25.0457 32.3016 25.1706C32.4365 25.2955 32.5951 25.392 32.768 25.4546C32.9409 25.5171 33.1245 25.5443 33.3081 25.5347C33.4917 25.525 33.6715 25.4786 33.8368 25.3982C34.0022 25.3178 34.1497 25.2051 34.2707 25.0667C34.3918 24.9283 34.4838 24.7671 34.5414 24.5925C36.3051 19.4708 36.3148 13.9078 34.5689 8.77999Z" fill="#BD4735"/>
<path d="M16.2263 29.625H19.7738C20.3962 29.6214 20.9922 29.3725 21.4323 28.9323C21.8725 28.4922 22.1214 27.8962 22.125 27.2738V24.125H25.2738C25.8962 24.1214 26.4922 23.8725 26.9323 23.4323C27.3725 22.9922 27.6214 22.3962 27.625 21.7738V18.2263C27.6214 17.6038 27.3725 17.0078 26.9323 16.5677C26.4922 16.1275 25.8962 15.8786 25.2738 15.875H22.125V12.7263C22.1214 12.1038 21.8725 11.5078 21.4323 11.0677C20.9922 10.6275 20.3962 10.3786 19.7738 10.375H16.2263C15.6038 10.3786 15.0078 10.6275 14.5677 11.0677C14.1275 11.5078 13.8786 12.1038 13.875 12.7263V15.875H10.7263C10.1038 15.8786 9.50782 16.1275 9.06765 16.5677C8.62749 17.0078 8.37861 17.6038 8.375 18.2263V21.7738C8.37861 22.3962 8.62749 22.9922 9.06765 23.4323C9.50782 23.8725 10.1038 24.1214 10.7263 24.125H13.875V27.2738C13.8786 27.8962 14.1275 28.4922 14.5677 28.9323C15.0078 29.3725 15.6038 29.6214 16.2263 29.625ZM11.125 21.375V18.625H15.25C15.6147 18.625 15.9644 18.4801 16.2223 18.2223C16.4801 17.9644 16.625 17.6147 16.625 17.25V13.125H19.375V17.25C19.375 17.6147 19.5199 17.9644 19.7777 18.2223C20.0356 18.4801 20.3853 18.625 20.75 18.625H24.875V21.375H20.75C20.3853 21.375 20.0356 21.5199 19.7777 21.7777C19.5199 22.0356 19.375 22.3853 19.375 22.75V26.875H16.625V22.75C16.625 22.3853 16.4801 22.0356 16.2223 21.7777C15.9644 21.5199 15.6147 21.375 15.25 21.375H11.125Z" fill="#BD4735"/>
</svg>
