<svg width="41" height="36" viewBox="0 0 41 36" fill="none" xmlns="http://www.w3.org/2000/svg">
<path d="M35.9482 7.2H29.2857V3.8592C29.2857 3.3524 29.1842 2.85057 28.987 2.38235C28.7898 1.91413 28.5007 1.48869 28.1363 1.13033C27.7719 0.771973 27.3393 0.487707 26.8632 0.293764C26.3871 0.0998212 25.8768 0 25.3614 0H15.6386C14.5978 0 13.5996 0.406593 12.8637 1.13033C12.1277 1.85407 11.7143 2.83568 11.7143 3.8592V8.64C11.7143 9.02191 11.8686 9.38818 12.1432 9.65823C12.4178 9.92829 12.7902 10.08 13.1786 10.08H35.9482C36.5113 10.08 37.0514 10.3 37.4496 10.6916C37.8477 11.0831 38.0714 11.6142 38.0714 12.168V31.032C38.0714 31.5858 37.8477 32.1169 37.4496 32.5084C37.0514 32.9 36.5113 33.12 35.9482 33.12H5.05179C4.48867 33.12 3.94863 32.9 3.55045 32.5084C3.15227 32.1169 2.92857 31.5858 2.92857 31.032V12.168C2.92857 11.6142 3.15227 11.0831 3.55045 10.6916C3.94863 10.3 4.48867 10.08 5.05179 10.08H7.32143C7.70978 10.08 8.08223 9.92829 8.35683 9.65823C8.63144 9.38818 8.78571 9.02191 8.78571 8.64C8.78571 8.25809 8.63144 7.89182 8.35683 7.62177C8.08223 7.35171 7.70978 7.2 7.32143 7.2H5.05179C3.71316 7.2038 2.43046 7.72843 1.4839 8.65929C0.537344 9.59015 0.00386331 10.8516 0 12.168V31.032C0.00386331 32.3484 0.537344 33.6099 1.4839 34.5407C2.43046 35.4716 3.71316 35.9962 5.05179 36H35.9482C37.2868 35.9962 38.5695 35.4716 39.5161 34.5407C40.4627 33.6099 40.9961 32.3484 41 31.032V12.168C40.9961 10.8516 40.4627 9.59015 39.5161 8.65929C38.5695 7.72843 37.2868 7.2038 35.9482 7.2ZM15.6386 2.88H25.3614C25.4927 2.87806 25.6231 2.90206 25.7448 2.95058C25.8665 2.9991 25.977 3.07116 26.0699 3.16247C26.1628 3.25379 26.236 3.36251 26.2854 3.48219C26.3347 3.60187 26.3591 3.73007 26.3571 3.8592V7.2H14.6429V3.8592C14.6409 3.73007 14.6653 3.60187 14.7146 3.48219C14.764 3.36251 14.8372 3.25379 14.9301 3.16247C15.023 3.07116 15.1335 2.9991 15.2552 2.95058C15.3769 2.90206 15.5073 2.87806 15.6386 2.88Z" fill="#BD4635"/>
<path d="M20.5 15.84C20.1116 15.84 19.7392 15.9917 19.4646 16.2618C19.19 16.5318 19.0357 16.8981 19.0357 17.28V20.16H16.1071C15.7188 20.16 15.3463 20.3117 15.0717 20.5818C14.7971 20.8518 14.6429 21.2181 14.6429 21.6C14.6429 21.9819 14.7971 22.3482 15.0717 22.6182C15.3463 22.8883 15.7188 23.04 16.1071 23.04H19.0357V25.92C19.0357 26.3019 19.19 26.6682 19.4646 26.9382C19.7392 27.2083 20.1116 27.36 20.5 27.36C20.8884 27.36 21.2608 27.2083 21.5354 26.9382C21.81 26.6682 21.9643 26.3019 21.9643 25.92V23.04H24.8929C25.2812 23.04 25.6537 22.8883 25.9283 22.6182C26.2029 22.3482 26.3571 21.9819 26.3571 21.6C26.3571 21.2181 26.2029 20.8518 25.9283 20.5818C25.6537 20.3117 25.2812 20.16 24.8929 20.16H21.9643V17.28C21.9643 16.8981 21.81 16.5318 21.5354 16.2618C21.2608 15.9917 20.8884 15.84 20.5 15.84Z" fill="#BD4635"/>
</svg>
