<svg width="27" height="27" viewBox="0 0 27 27" fill="none" xmlns="http://www.w3.org/2000/svg">
<path d="M16.11 12.8452L13.0515 11.4181C12.7846 11.2942 12.5654 11.4331 12.5654 11.7286V14.4167C12.5654 14.7122 12.7846 14.851 13.0515 14.7271L16.1086 13.3C16.3769 13.1748 16.3769 12.9705 16.11 12.8452ZM13.9271 0C6.70722 0 0.854492 5.85272 0.854492 13.0726C0.854492 20.2925 6.70722 26.1453 13.9271 26.1453C21.147 26.1453 26.9997 20.2925 26.9997 13.0726C26.9997 5.85272 21.147 0 13.9271 0ZM13.9271 18.3834C7.23557 18.3834 7.11846 17.7801 7.11846 13.0726C7.11846 8.36512 7.23557 7.76187 13.9271 7.76187C20.6187 7.76187 20.7358 8.36512 20.7358 13.0726C20.7358 17.7801 20.6187 18.3834 13.9271 18.3834Z" fill="#37373A"/>
</svg>
