<?xml version="1.0" encoding="utf-8"?>
<!-- Svg Vector Icons : http://www.onlinewebfonts.com/icon -->
<!DOCTYPE svg PUBLIC "-//W3C//DTD SVG 1.1//EN" "http://www.w3.org/Graphics/SVG/1.1/DTD/svg11.dtd">
<svg version="1.1" xmlns="http://www.w3.org/2000/svg" xmlns:xlink="http://www.w3.org/1999/xlink" x="0px" y="0px" viewBox="0 0 1000 1000" enable-background="new 0 0 1000 1000" xml:space="preserve">
<metadata> Svg Vector Icons : http://www.onlinewebfonts.com/icon </metadata>
<g><path d="M392.4,180.1c0.6-14,31.1-94.9,5.8-156.5C391.9,5.9,376.1,3,383.7,30c21.3,65.5-7,130.2-5.5,156.9c2.7,82.5,50.6,102.5,50.6,102.5S385.4,234.2,392.4,180.1z"/><path d="M450.9,257.5c0.5-12,26.8-81.6,5-134.6c-5.4-15.2-19-17.7-12.5,5.5c18.3,56.4-6,112-4.7,135c2.3,71,43.5,88.2,43.5,88.2S444.9,304.1,450.9,257.5z"/><path d="M513.5,292.7c0.4-8.3,18.4-56.1,3.4-92.6c-3.7-10.5-13.1-12.2-8.6,3.8c12.6,38.8-4.1,77-3.2,92.8c1.6,48.8,29.9,60.6,29.9,60.6S509.4,324.7,513.5,292.7z"/><path d="M868.6,427.6c0,0-22.4-6.8-34.3-10.1c-11.9-3.3-26.5-5.4-31.9-6c-3.3-0.5-18.2-1.6-21.4-1.5c-0.2,0-0.5,0-0.7,0H165.1c-40.8,0-76.8,37.5-74.2,78.8c0.9,210.1,57.8,312.8,126,405.3H58.6c-26.8,0-48.6,0-48.6,0c0,46.3,29.5,95.9,85,95.9h201.4h344h200.4c64.6,0,92.4-58,92.4-95.8c0,0-21.7-0.1-48.6-0.1H720.2c16.4-23.9,31.5-47.4,45.4-71.6l26.8,6.2c62.7,14.6,152.5-17.5,167.3-89.6L987,606.6C1006.8,510.1,923.7,444.4,868.6,427.6z M276.3,842.2l-6.4,2.4c-16.1,5.3-28.6-9.3-40.2-28c0,0-34.2-57-54.2-125.4c-20-68.4-22.9-138-22.9-138c-1.4-21.2,3.8-42.5,18.2-47.3l6.3-2.1c16.1-5.3,35.1,7.5,37.3,28.9c0,0,2.7,68.9,22.9,138c20.2,69.1,54.2,125.4,54.2,125.4C301.7,816.4,292.2,834.2,276.3,842.2z M910.1,620l-16.2,78.6c-8.3,40.6-56.8,59.8-93.5,54.2c27.2-63.8,45.4-137.1,52.2-234.2C884.3,532,920.5,569.5,910.1,620z"/></g>
</svg>