<?xml version="1.0" encoding="utf-8"?>
<!-- Svg Vector Icons : http://www.onlinewebfonts.com/icon -->
<!DOCTYPE svg PUBLIC "-//W3C//DTD SVG 1.1//EN" "http://www.w3.org/Graphics/SVG/1.1/DTD/svg11.dtd">
<svg version="1.1" xmlns="http://www.w3.org/2000/svg" xmlns:xlink="http://www.w3.org/1999/xlink" x="0px" y="0px" viewBox="0 0 1000 1000" enable-background="new 0 0 1000 1000" xml:space="preserve">
<metadata> Svg Vector Icons : http://www.onlinewebfonts.com/icon </metadata>
<g><path d="M500,10C229.3,10,10,229.4,10,500c0,270.6,219.4,490,490,490c270.7,0,490-219.4,490-490C990,229.4,770.6,10,500,10z M500.2,890.2c-215.4,0-390-174.6-390-390s174.6-390,390-390c215.4,0,390,174.6,390,390C890.2,715.6,715.6,890.2,500.2,890.2z M675.4,530.8H532.7V290.4c0-27-21.9-48.8-48.8-48.8c-26.9,0-48.7,21.8-48.7,48.8v289.2c0,26.9,21.8,48.7,48.7,48.7h191.5c26.9,0,48.8-21.8,48.8-48.7C724.2,552.6,702.3,530.8,675.4,530.8z"/></g>
</svg>