<svg xmlns="http://www.w3.org/2000/svg" viewBox="0 0 300.02 66.72"><defs><style>.cls-1{fill:#424344;}.cls-2{fill:#f62459;}.cls-3{fill:#fff;}</style></defs><title>Ресурс 2</title><g id="Слой_2" data-name="Слой 2"><g id="Слой_1-2" data-name="Слой 1"><path class="cls-1" d="M28,48.94v3.22a1.6,1.6,0,0,1-1.61,1.61H2.21a1.56,1.56,0,0,1-1.14-.47A1.56,1.56,0,0,1,.6,52.17V17.32a1.6,1.6,0,0,1,1.61-1.61H6.27a1.6,1.6,0,0,1,1.61,1.61v28.4A1.6,1.6,0,0,0,9.5,47.33H26.4A1.6,1.6,0,0,1,28,48.94Z" transform="translate(0 -15.03)"/><path class="cls-1" d="M39.87,23.77v6.29a1.6,1.6,0,0,0,1.61,1.61H56.67a1.6,1.6,0,0,1,1.61,1.61v3.38a1.6,1.6,0,0,1-1.61,1.61H41.48a1.6,1.6,0,0,0-1.61,1.61v5.72a1.6,1.6,0,0,0,1.61,1.61H59a1.6,1.6,0,0,1,1.61,1.61v3.33A1.6,1.6,0,0,1,59,53.78H34.2a1.6,1.6,0,0,1-1.61-1.61V17.32a1.6,1.6,0,0,1,1.61-1.61H59a1.6,1.6,0,0,1,1.61,1.61v3.22A1.6,1.6,0,0,1,59,22.16H41.48a1.6,1.6,0,0,0-1.61,1.61Z" transform="translate(0 -15.03)"/><path class="cls-1" d="M105.09,34.59q-.05,1-.08,2.08a7.54,7.54,0,0,1-.08,1.2A16.71,16.71,0,0,1,103,44.52a18.39,18.39,0,0,1-4.21,5.25,18.72,18.72,0,0,1-5.93,3.48,20.24,20.24,0,0,1-7.07,1.25,19,19,0,0,1-7.65-1.56,20.2,20.2,0,0,1-6.29-4.26,20,20,0,0,1-4.26-6.24A19,19,0,0,1,66,34.8a19.59,19.59,0,0,1,1.56-7.7,19.8,19.8,0,0,1,1.85-3.38,20.34,20.34,0,0,1,2.42-2.91,21.53,21.53,0,0,1,6.29-4.21,19.51,19.51,0,0,1,23.09,5.93,1.33,1.33,0,0,1,.29,1.14,1.5,1.5,0,0,1-.7,1l-3.54,2.13a1.53,1.53,0,0,1-1.22.21,2.31,2.31,0,0,1-1.12-.62,18.91,18.91,0,0,0-1.53-1.56,10.62,10.62,0,0,0-1.79-1.3,11.1,11.1,0,0,0-5.83-1.66,11.79,11.79,0,0,0-4.84,1,12.63,12.63,0,0,0-4,2.86,14.58,14.58,0,0,0-2.7,4.11,12.57,12.57,0,0,0-1,4.94,12.33,12.33,0,0,0,1,4.94A14.57,14.57,0,0,0,77,43.85a11.7,11.7,0,0,0,4,2.81,10.88,10.88,0,0,0,4.84,1.09,12.63,12.63,0,0,0,7.13-2.29,12.57,12.57,0,0,0,2.65-2.6,7.46,7.46,0,0,0,1-1.82,1,1,0,0,0,0-1.07,1.2,1.2,0,0,0-1-.44H84.75a1.6,1.6,0,0,1-1.61-1.61V34.59A1.6,1.6,0,0,1,84.75,33h18.72a1.6,1.6,0,0,1,1.61,1.61Z" transform="translate(0 -15.03)"/><path class="cls-1" d="M106.44,52.38l18-36a1.18,1.18,0,0,1,2.08,0l18,36a1,1,0,0,1,.08,1,1,1,0,0,1-.91.42H139a2.55,2.55,0,0,1-1.35-.42,2.24,2.24,0,0,1-.94-1L135.2,49.2a2.76,2.76,0,0,0-1-1,2.44,2.44,0,0,0-1.33-.42H118.14a2.57,2.57,0,0,0-1.35.42,2.24,2.24,0,0,0-.94,1l-1.51,3.07a2.63,2.63,0,0,1-1,1,2.43,2.43,0,0,1-1.33.42h-4.73a1,1,0,0,1-.91-.42A1.05,1.05,0,0,1,106.44,52.38Zm15.24-10.92h7.7a.93.93,0,0,0,.91-.44,1.11,1.11,0,0,0,0-1l-4.06-8.58q-.26-.62-.68-.62t-.68.62L120.74,40a1.09,1.09,0,0,0,0,1A1,1,0,0,0,121.68,41.46Z" transform="translate(0 -15.03)"/><path class="cls-1" d="M176,48.94v3.22a1.6,1.6,0,0,1-1.61,1.61H150.18a1.6,1.6,0,0,1-1.61-1.61V17.32a1.6,1.6,0,0,1,1.61-1.61h4.06a1.6,1.6,0,0,1,1.61,1.61v28.4a1.6,1.6,0,0,0,1.61,1.61h16.9A1.6,1.6,0,0,1,176,48.94Z" transform="translate(0 -15.03)"/><path class="cls-1" d="M225.75,48.94v3.22a1.6,1.6,0,0,1-1.61,1.61H200a1.6,1.6,0,0,1-1.61-1.61V17.32A1.6,1.6,0,0,1,200,15.71H204a1.6,1.6,0,0,1,1.61,1.61v28.4a1.6,1.6,0,0,0,1.61,1.61h16.9a1.6,1.6,0,0,1,1.61,1.61Z" transform="translate(0 -15.03)"/><path class="cls-1" d="M227.2,52.38l18-36a1.18,1.18,0,0,1,2.08,0l18,36a1,1,0,0,1,.08,1,1,1,0,0,1-.91.42h-4.73a2.55,2.55,0,0,1-1.35-.42,2.23,2.23,0,0,1-.94-1L256,49.2a2.76,2.76,0,0,0-1-1,2.44,2.44,0,0,0-1.33-.42H238.9a2.57,2.57,0,0,0-1.35.42,2.24,2.24,0,0,0-.94,1l-1.51,3.07a2.62,2.62,0,0,1-1,1,2.43,2.43,0,0,1-1.33.42h-4.73a1,1,0,0,1-.91-.42A1.05,1.05,0,0,1,227.2,52.38Zm15.24-10.92h7.7A.93.93,0,0,0,251,41a1.11,1.11,0,0,0,0-1L247,31.42q-.26-.62-.68-.62t-.68.62L241.51,40a1.09,1.09,0,0,0,0,1A1,1,0,0,0,242.44,41.46Z" transform="translate(0 -15.03)"/><path class="cls-1" d="M298,28.76a11.08,11.08,0,0,1-1.25,2.39,6.63,6.63,0,0,1-2,1.82,5.52,5.52,0,0,1-1.2.62q-.52.16-.47.23a1.75,1.75,0,0,0,.62.23q.73.26,1.35.52a8,8,0,0,1,2.44,1.92,9.34,9.34,0,0,1,1.82,2.76,7.93,7.93,0,0,1,.68,3.28,13.45,13.45,0,0,1-.94,5.31,9,9,0,0,1-2.55,3.48,8.66,8.66,0,0,1-3.75,1.87q-1.09.26-2.24.42a17.61,17.61,0,0,1-2.39.16h-16a1.6,1.6,0,0,1-1.61-1.61V17.32a1.6,1.6,0,0,1,1.61-1.61h15.13q1.2,0,2.24.1t2.08.31a8.82,8.82,0,0,1,3.54,1.66A7.19,7.19,0,0,1,297.57,21a12.82,12.82,0,0,1,.88,5.25A7.34,7.34,0,0,1,298,28.76Zm-18.51,2.44h7.33a4.24,4.24,0,0,0,1.92-.42,4.35,4.35,0,0,0,1.35-1.09,4.76,4.76,0,0,0,.83-1.56,5.11,5.11,0,0,0,.26-1.72,4.3,4.3,0,0,0-.31-1.61,4.13,4.13,0,0,0-.83-1.35,4.84,4.84,0,0,0-1.2-.94,3.14,3.14,0,0,0-1.51-.36h-7.85a1.6,1.6,0,0,0-1.61,1.61V29.6a1.6,1.6,0,0,0,1.61,1.61Zm10.45,15.66a4.18,4.18,0,0,0,1.46-1.2,5.17,5.17,0,0,0,1-1.66,4.27,4.27,0,0,0,.36-1.82,4.32,4.32,0,0,0-1.4-3.22,5.49,5.49,0,0,0-4-1.3h-7.91a1.6,1.6,0,0,0-1.61,1.61v6.45a1.6,1.6,0,0,0,1.61,1.61h8.69A3.37,3.37,0,0,0,289.93,46.86Z" transform="translate(0 -15.03)"/><rect class="cls-2" y="44.23" width="299" height="22.49"/><path class="cls-3" d="M81.21,67.72q0,.86-1.15.86H78.19v5.86q0,1.29-1,1.29t-1-1.31V68.15q0-1.29,1-1.29h2.85Q81.21,66.85,81.21,67.72Z" transform="translate(0 -15.03)"/><path class="cls-3" d="M90.61,71.29a4.75,4.75,0,0,1-1.09,3.18,3.75,3.75,0,0,1-3,1.34,3.78,3.78,0,0,1-3-1.36,5.15,5.15,0,0,1,0-6.35,3.78,3.78,0,0,1,3-1.38,3.74,3.74,0,0,1,3,1.36A4.82,4.82,0,0,1,90.61,71.29Zm-4.1-2.75a1.81,1.81,0,0,0-1.61.88,3.45,3.45,0,0,0-.47,1.86,3.42,3.42,0,0,0,.48,1.86,1.78,1.78,0,0,0,1.6.9,1.76,1.76,0,0,0,1.6-.9,3.89,3.89,0,0,0,0-3.7A1.78,1.78,0,0,0,86.51,68.53Z" transform="translate(0 -15.03)"/><path class="cls-3" d="M100.16,74.42q0,1.31-1,1.31t-1-1.32V68.58H95.87a.58.58,0,0,0-.66.65v4.25A2.63,2.63,0,0,1,94.78,75a1.65,1.65,0,0,1-1.42.69,3.5,3.5,0,0,1-1-.1.71.71,0,0,1-.54-.74.74.74,0,0,1,.34-.7,1.87,1.87,0,0,1,.82-.13q.21,0,.32-.57a3.54,3.54,0,0,0,.06-.72V69.15a2.31,2.31,0,0,1,.58-1.78,2.73,2.73,0,0,1,1.86-.52h3.44q.94,0,.94,1.28Z" transform="translate(0 -15.03)"/><path class="cls-3" d="M110.43,71.29a4.75,4.75,0,0,1-1.09,3.18,3.75,3.75,0,0,1-3,1.34,3.78,3.78,0,0,1-3-1.36,5.15,5.15,0,0,1,0-6.35,3.78,3.78,0,0,1,3-1.38,3.74,3.74,0,0,1,3,1.36A4.82,4.82,0,0,1,110.43,71.29Zm-4.1-2.75a1.81,1.81,0,0,0-1.61.88,3.45,3.45,0,0,0-.47,1.86,3.42,3.42,0,0,0,.48,1.86,1.78,1.78,0,0,0,1.6.9,1.76,1.76,0,0,0,1.6-.9,3.89,3.89,0,0,0,0-3.7A1.78,1.78,0,0,0,106.33,68.53Z" transform="translate(0 -15.03)"/><path class="cls-3" d="M119.5,73.06q0,2.58-3.34,2.58h-2.42a1,1,0,0,1-1.1-1.14V68q0-1.17,1.09-1.17H116q3.09,0,3.09,2.38A1.92,1.92,0,0,1,118,71a2.44,2.44,0,0,1,1.06.82A2,2,0,0,1,119.5,73.06Zm-4.88-4.78v2.18h1.17q1.3,0,1.3-1.1t-1.28-1.07Zm2.85,4.78q0-1.22-1.58-1.22h-1.27V74.2h1.27Q117.47,74.2,117.47,73.06Z" transform="translate(0 -15.03)"/><path class="cls-3" d="M129.28,74.42q0,1.31-1,1.31t-1-1.31V71.84h-3.58v2.58q0,1.31-1,1.31t-1-1.31V68.11q0-1.31,1-1.31t1,1.3v2.21h3.58V68.12q0-1.31,1-1.31t1,1.29Z" transform="translate(0 -15.03)"/><path class="cls-3" d="M139.66,71.29a4.75,4.75,0,0,1-1.09,3.18,3.75,3.75,0,0,1-3,1.34,3.78,3.78,0,0,1-3-1.36,5.15,5.15,0,0,1,0-6.35,3.78,3.78,0,0,1,3-1.38,3.74,3.74,0,0,1,3,1.36A4.82,4.82,0,0,1,139.66,71.29Zm-4.1-2.75a1.81,1.81,0,0,0-1.61.88,3.45,3.45,0,0,0-.47,1.86,3.42,3.42,0,0,0,.48,1.86,1.78,1.78,0,0,0,1.6.9,1.76,1.76,0,0,0,1.6-.9,3.89,3.89,0,0,0,0-3.7A1.78,1.78,0,0,0,135.57,68.53Z" transform="translate(0 -15.03)"/><path class="cls-3" d="M152.09,74.9a.81.81,0,0,1-.29.66,1.06,1.06,0,0,1-.7.24q-.83,0-1-1l-.83-5.1s-.61,1.78-1.76,5.26q-.29.88-1,.88t-1-.88l-1.73-5.26s-.3,1.73-.85,5.12q-.16,1-1,1a1.06,1.06,0,0,1-.7-.24.79.79,0,0,1-.29-.64,10.14,10.14,0,0,1,.21-1.39l1.08-5.61a1.21,1.21,0,0,1,1.3-1.11,1.33,1.33,0,0,1,1.4,1l1.53,4.75h.06l1.56-4.75a1.33,1.33,0,0,1,1.39-1,1.2,1.2,0,0,1,1.29,1.1l1.07,5.6A10.16,10.16,0,0,1,152.09,74.9Z" transform="translate(0 -15.03)"/><path class="cls-3" d="M160.06,67.75a1.8,1.8,0,0,1-.14.64l-3.86,10.06q-.32.85-.94.85a.92.92,0,0,1-.69-.26,1,1,0,0,1-.26-.7,1.71,1.71,0,0,1,.15-.67l1.11-2.73-2.65-6.62a1.41,1.41,0,0,1-.11-.54,1,1,0,0,1,.27-.7.92.92,0,0,1,.69-.28q.69,0,1,.9l1.79,4.82,1.73-4.94q.27-.77.91-.77A.85.85,0,0,1,160.06,67.75Z" transform="translate(0 -15.03)"/><path class="cls-3" d="M174.64,74.42q0,1.31-1,1.31t-1-1.32V68.58h-2.29a.58.58,0,0,0-.66.65v4.25a2.63,2.63,0,0,1-.43,1.56,1.65,1.65,0,0,1-1.42.69,3.5,3.5,0,0,1-1-.1.71.71,0,0,1-.54-.74.74.74,0,0,1,.34-.7,1.87,1.87,0,0,1,.82-.13q.21,0,.32-.57a3.53,3.53,0,0,0,.06-.72V69.15a2.31,2.31,0,0,1,.58-1.78,2.73,2.73,0,0,1,1.86-.52h3.44q.94,0,.94,1.28Z" transform="translate(0 -15.03)"/><path class="cls-3" d="M179.53,64.68a1.17,1.17,0,0,1-.34.85,1.13,1.13,0,0,1-.84.35,1.2,1.2,0,0,1-1.2-1.2,1.13,1.13,0,0,1,.35-.84,1.17,1.17,0,0,1,.85-.34,1.2,1.2,0,0,1,1.18,1.18Zm-.18,9.75q0,1.31-1,1.31t-1-1.31V68.11q0-1.31,1-1.31t1,1.29Z" transform="translate(0 -15.03)"/><path class="cls-3" d="M189.15,74.94a.71.71,0,0,1-.27.57,1,1,0,0,1-.64.22,1.41,1.41,0,0,1-1-.56L184,71.64v2.79q0,1.31-1,1.31t-1-1.31V68.1q0-1.29,1-1.29t1,1.31v2l2.88-2.85a1.38,1.38,0,0,1,1-.48.87.87,0,0,1,.62.23.78.78,0,0,1,.25.6,1.25,1.25,0,0,1-.48.89l-2.5,2.31,3,3.11A1.37,1.37,0,0,1,189.15,74.94Z" transform="translate(0 -15.03)"/><path class="cls-3" d="M198.41,74.42q0,1.31-1,1.31a.74.74,0,0,1-.78-.52c0-.14-.09-.33-.16-.57h0a2.7,2.7,0,0,1-2.21,1.09,3.64,3.64,0,0,1-1.52-.32,3.85,3.85,0,0,1-1.84-1.72,5.11,5.11,0,0,1-.58-2.47,5,5,0,0,1,.61-2.47,3.86,3.86,0,0,1,1.84-1.7,3.46,3.46,0,0,1,1.44-.32,2.91,2.91,0,0,1,2.27,1.06h0v0a3.94,3.94,0,0,1,.14-.42.79.79,0,0,1,.8-.56q1,0,1,1.29Zm-4-5.81a1.72,1.72,0,0,0-1.57.88,3.46,3.46,0,0,0-.45,1.83,3.12,3.12,0,0,0,.46,1.73,1.74,1.74,0,0,0,1.52.84,1.79,1.79,0,0,0,1.6-.83,3.23,3.23,0,0,0,.46-1.81,3.32,3.32,0,0,0-.45-1.8A1.77,1.77,0,0,0,194.4,68.61Z" transform="translate(0 -15.03)"/><path class="cls-3" d="M209.12,71.27a5.06,5.06,0,0,1-1,3.14,3.41,3.41,0,0,1-2.86,1.42,2.78,2.78,0,0,1-2.18-1h0v3.06q0,1.36-1,1.36t-1-1.36V68.12q0-1.31,1-1.31a.85.85,0,0,1,.86.59,3.19,3.19,0,0,0,.13.4,2.56,2.56,0,0,1,2.26-1,3.39,3.39,0,0,1,2.86,1.37A4.92,4.92,0,0,1,209.12,71.27Zm-2,0a3.3,3.3,0,0,0-.45-1.79,1.72,1.72,0,0,0-1.55-.85,1.87,1.87,0,0,0-1.6.79,2.88,2.88,0,0,0-.51,1.75v.4a2.61,2.61,0,0,0,.54,1.66,1.89,1.89,0,0,0,1.55.74,1.76,1.76,0,0,0,1.58-.87A3.54,3.54,0,0,0,207.09,71.29Z" transform="translate(0 -15.03)"/><path class="cls-3" d="M222.43,71.29a4.84,4.84,0,0,1-1,3.14,3.9,3.9,0,0,1-5.7.21,4.61,4.61,0,0,1-1.15-2.8h-1.28v2.62q0,1.31-1,1.31t-1-1.31V68.11q0-1.31,1-1.31t1,1.29v2.26h1.31a4.41,4.41,0,0,1,1.26-2.62,3.87,3.87,0,0,1,5.58.36A5,5,0,0,1,222.43,71.29Zm-2,0a3.83,3.83,0,0,0-.39-1.82,1.71,1.71,0,0,0-3,0,3.84,3.84,0,0,0-.39,1.82,3.81,3.81,0,0,0,.39,1.81,1.63,1.63,0,0,0,1.51.88Q220.4,74,220.4,71.27Z" transform="translate(0 -15.03)"/></g></g></svg>