<svg xmlns="http://www.w3.org/2000/svg" viewBox="0 0 449.6 164.96"><defs><style>.cls-1{fill:#202020;}.cls-2{fill:#d9e3db;}</style></defs><title>Ресурс 1</title><g id="Слой_2" data-name="Слой 2"><g id="Слой_1-2" data-name="Слой 1"><path class="cls-1" d="M52,44H49.18V36H25.37V6h2.86V33.52H46V6h2.86V33.52H52Z" transform="translate(0 -4.96)"/><path class="cls-1" d="M73.58,28.85a9.81,9.81,0,0,1-3.11,5.73,9,9,0,0,1-6.13,2.08,9.14,9.14,0,0,1-7.2-3.07,11.92,11.92,0,0,1-2.71-8.19A12.53,12.53,0,0,1,57.18,17a8.89,8.89,0,0,1,7.12-3.25,8.31,8.31,0,0,1,7,3.23,12.88,12.88,0,0,1,2.46,8v.76H57.12A10.29,10.29,0,0,0,58.94,32a6.35,6.35,0,0,0,5.48,2.5q5.33,0,6.59-5.67Zm-2.44-5.21A8.91,8.91,0,0,0,69.09,18a6.26,6.26,0,0,0-4.87-2,6,6,0,0,0-5,2.14,10.86,10.86,0,0,0-2.12,5.54Z" transform="translate(0 -4.96)"/><path class="cls-1" d="M95.38,36H92.73V25.79H80.43V36H77.78V14.36h2.65v9.2H92.73v-9.2h2.65Z" transform="translate(0 -4.96)"/><path class="cls-1" d="M117,16.59h-8V36H106.3V16.59h-8V14.36H117Z" transform="translate(0 -4.96)"/><path class="cls-1" d="M122.38,14.36v4.16a8,8,0,0,1,7.73-4.79,8.81,8.81,0,0,1,7.08,3.15,12.5,12.5,0,0,1,2.67,8.36,12.35,12.35,0,0,1-2.65,8.25,8.73,8.73,0,0,1-7,3.13q-5.46,0-7.64-4.66V44H120V14.36Zm12.79,4.09a7,7,0,0,0-10.75-.06,10.72,10.72,0,0,0-2,6.8,10.41,10.41,0,0,0,2,6.72,6.56,6.56,0,0,0,5.4,2.48,6.45,6.45,0,0,0,5.31-2.5,10.36,10.36,0,0,0,2-6.66A10.69,10.69,0,0,0,135.17,18.46Z" transform="translate(0 -4.96)"/><path class="cls-1" d="M42.42,77.92H39.77V58.56H27.47V77.92H24.82V56.33h17.6Z" transform="translate(0 -4.96)"/><path class="cls-1" d="M50.36,56.33v4.16a8,8,0,0,1,7.73-4.79,8.81,8.81,0,0,1,7.08,3.15,12.5,12.5,0,0,1,2.67,8.36,12.35,12.35,0,0,1-2.65,8.25,8.73,8.73,0,0,1-7,3.13q-5.46,0-7.64-4.66V86H48V56.33Zm12.79,4.09a7,7,0,0,0-10.75-.06,10.72,10.72,0,0,0-2,6.8,10.41,10.41,0,0,0,2,6.72,6.56,6.56,0,0,0,5.4,2.48,6.45,6.45,0,0,0,5.31-2.5,10.36,10.36,0,0,0,2-6.66A10.69,10.69,0,0,0,63.14,60.43Z" transform="translate(0 -4.96)"/><path class="cls-1" d="M91.3,75.78v2a6.36,6.36,0,0,1-2.1.34,2.31,2.31,0,0,1-2.27-1,6.35,6.35,0,0,1-.55-2.9,9,9,0,0,1-8.15,4.33,7.74,7.74,0,0,1-5.19-1.6,5.54,5.54,0,0,1-1.87-4.45q0-5.84,8-6.68l1.18-.1,1.11-.1.92-.1.84-.1.67-.13a4.7,4.7,0,0,0,.63-.17l.48-.19a3.51,3.51,0,0,0,.46-.23,2.32,2.32,0,0,0,.76-2.06A4.19,4.19,0,0,0,84.84,59a7,7,0,0,0-4.2-1.05,6.26,6.26,0,0,0-4.18,1.24A5.53,5.53,0,0,0,74.76,63H72.24a7.08,7.08,0,0,1,2.44-5.38,9.49,9.49,0,0,1,6.26-1.89,9.48,9.48,0,0,1,5.82,1.6A5.43,5.43,0,0,1,88.87,62V73.72a11.59,11.59,0,0,0,0,1.2,1.14,1.14,0,0,0,.36.67,1.41,1.41,0,0,0,1,.31A3.83,3.83,0,0,0,91.3,75.78Zm-5-9.62a2.78,2.78,0,0,1-1.24.69,12.36,12.36,0,0,1-1.58.4q-.71.13-2.44.34l-.63.08a20.27,20.27,0,0,0-2.21.38,12.59,12.59,0,0,0-2,.69,3.71,3.71,0,0,0-1.68,1.34A3.78,3.78,0,0,0,74,72.21a3.69,3.69,0,0,0,1.34,3,5.49,5.49,0,0,0,3.61,1.11,7.75,7.75,0,0,0,5.21-1.83,6,6,0,0,0,2.14-4.81Z" transform="translate(0 -4.96)"/><path class="cls-1" d="M112.43,71.87a5.33,5.33,0,0,1-2,4.49,9.26,9.26,0,0,1-5.75,1.55H94.54V56.33h10.12a8.56,8.56,0,0,1,5.12,1.32,4.43,4.43,0,0,1,1.81,3.8,4.68,4.68,0,0,1-3.74,5v.08Q112.43,67.29,112.43,71.87Zm-3.49-9.74q0-3.57-4.58-3.57H97.18v7.06h7.18a5.41,5.41,0,0,0,3.4-.92A3.08,3.08,0,0,0,108.94,62.13Zm.84,9.45q0-3.91-5.42-3.91H97.18v8h7.18Q109.78,75.69,109.78,71.58Z" transform="translate(0 -4.96)"/><path class="cls-1" d="M126,55.7a9.4,9.4,0,0,1,7.41,3.11,12.22,12.22,0,0,1,2.75,8.4q0,5.25-2.73,8.29a9.48,9.48,0,0,1-7.43,3,9.61,9.61,0,0,1-7.5-3.09,12,12,0,0,1-2.79-8.34,12,12,0,0,1,2.79-8.32A9.58,9.58,0,0,1,126,55.7Zm5.46,4.72a7.31,7.31,0,0,0-11,0,10.21,10.21,0,0,0-2.06,6.7,10.33,10.33,0,0,0,2,6.76A6.86,6.86,0,0,0,126,76.37a6.67,6.67,0,0,0,5.46-2.48,10.34,10.34,0,0,0,2-6.72A10.29,10.29,0,0,0,131.46,60.43Z" transform="translate(0 -4.96)"/><path class="cls-1" d="M158.42,71.87a5.33,5.33,0,0,1-2,4.49,9.26,9.26,0,0,1-5.75,1.55H140.53V56.33h10.12a8.56,8.56,0,0,1,5.12,1.32,4.43,4.43,0,0,1,1.81,3.8,4.68,4.68,0,0,1-3.74,5v.08Q158.42,67.29,158.42,71.87Zm-3.49-9.74q0-3.57-4.58-3.57h-7.18v7.06h7.18a5.41,5.41,0,0,0,3.4-.92A3.08,3.08,0,0,0,154.93,62.13Zm.84,9.45q0-3.91-5.42-3.91h-7.18v8h7.18Q155.77,75.69,155.77,71.58Z" transform="translate(0 -4.96)"/><path class="cls-1" d="M172,55.7a9.4,9.4,0,0,1,7.41,3.11,12.22,12.22,0,0,1,2.75,8.4q0,5.25-2.73,8.29a9.48,9.48,0,0,1-7.43,3,9.61,9.61,0,0,1-7.5-3.09,12,12,0,0,1-2.79-8.34,12,12,0,0,1,2.79-8.32A9.58,9.58,0,0,1,172,55.7Zm5.46,4.72a7.31,7.31,0,0,0-11,0,10.21,10.21,0,0,0-2.06,6.7,10.33,10.33,0,0,0,2,6.76A6.86,6.86,0,0,0,172,76.37a6.67,6.67,0,0,0,5.46-2.48,10.34,10.34,0,0,0,2-6.72A10.29,10.29,0,0,0,177.45,60.43Z" transform="translate(0 -4.96)"/><path class="cls-1" d="M204.12,77.92h-2.65V59.44L189.79,77.92h-3.28V56.33h2.65V74.81l11.68-18.48h3.28Zm-14.78-30H191a3.74,3.74,0,0,0,1.34,2.52,4.57,4.57,0,0,0,3,.92,4.75,4.75,0,0,0,3-.9,4,4,0,0,0,1.47-2.54h1.64q-1,5.46-6.13,5.46A5.72,5.72,0,0,1,191.16,52,6.49,6.49,0,0,1,189.33,47.93Z" transform="translate(0 -4.96)"/><path class="cls-1" d="M239.19,77.92h-2.65V58.56H224.23V77.92h-2.65V56.33h17.6Z" transform="translate(0 -4.96)"/><path class="cls-1" d="M253.8,55.7a9.4,9.4,0,0,1,7.41,3.11,12.22,12.22,0,0,1,2.75,8.4q0,5.25-2.73,8.29a9.48,9.48,0,0,1-7.43,3,9.61,9.61,0,0,1-7.5-3.09,12,12,0,0,1-2.79-8.34,12,12,0,0,1,2.79-8.32A9.58,9.58,0,0,1,253.8,55.7Zm5.46,4.72a7.31,7.31,0,0,0-11,0,10.21,10.21,0,0,0-2.06,6.7,10.33,10.33,0,0,0,2,6.76,6.86,6.86,0,0,0,5.61,2.48,6.67,6.67,0,0,0,5.46-2.48,10.34,10.34,0,0,0,2-6.72A10.29,10.29,0,0,0,259.26,60.43Z" transform="translate(0 -4.96)"/><path class="cls-1" d="M291.43,77.92h-2.65V60.15h-.12l-7.6,17.77h-2.35l-7.6-17.77H271V77.92h-2.65V56.33h3.53l8.06,18.61,8-18.61h3.53Z" transform="translate(0 -4.96)"/><path class="cls-1" d="M306,55.7a9.4,9.4,0,0,1,7.41,3.11,12.22,12.22,0,0,1,2.75,8.4q0,5.25-2.73,8.29a9.48,9.48,0,0,1-7.43,3,9.61,9.61,0,0,1-7.5-3.09,12,12,0,0,1-2.79-8.34,12,12,0,0,1,2.79-8.32A9.58,9.58,0,0,1,306,55.7Zm5.46,4.72a7.31,7.31,0,0,0-11,0,10.21,10.21,0,0,0-2.06,6.7,10.33,10.33,0,0,0,2,6.76A6.86,6.86,0,0,0,306,76.37a6.67,6.67,0,0,0,5.46-2.48,10.33,10.33,0,0,0,2-6.72A10.28,10.28,0,0,0,311.47,60.43Z" transform="translate(0 -4.96)"/><path class="cls-1" d="M320.41,77.92V56.33h2.65V75.69h10.12V56.33h2.65V75.69h10.12V56.33h2.65V75.69h3v9.11h-2.65V77.92Z" transform="translate(0 -4.96)"/><path class="cls-1" d="M372.49,77.92h-2.65V59.44L358.17,77.92h-3.28V56.33h2.65V74.81l11.68-18.48h3.28Z" transform="translate(0 -4.96)"/><path class="cls-1" d="M43,112.16A10.16,10.16,0,0,1,40,118.23a8.55,8.55,0,0,1-6.2,2.29,9.25,9.25,0,0,1-7.27-3.07,11.79,11.79,0,0,1-2.73-8.15,12.46,12.46,0,0,1,2.75-8.46,9.22,9.22,0,0,1,7.33-3.17,9.07,9.07,0,0,1,6.07,2,8.28,8.28,0,0,1,2.79,5.46H40.11Q39.06,99.85,34,99.85a6.54,6.54,0,0,0-5.4,2.5,10.51,10.51,0,0,0-2,6.74,10.74,10.74,0,0,0,1.93,6.74,6.24,6.24,0,0,0,5.21,2.5,6.24,6.24,0,0,0,4.45-1.62,7.47,7.47,0,0,0,2.14-4.56Z" transform="translate(0 -4.96)"/><path class="cls-1" d="M63.38,98.3l-8.48,22.39a25.44,25.44,0,0,1-2.77,5.84,4.24,4.24,0,0,1-3.61,1.55,14.17,14.17,0,0,1-2.31-.21v-2.31a8.22,8.22,0,0,0,1.89.29,2.75,2.75,0,0,0,2.41-1.18,19.15,19.15,0,0,0,1.87-4.07q.21-.59.34-.88L44,98.3h2.9l5.84,14.87q.34.88,1.3,3.82,1.09-3.57,1.3-4.12L60.69,98.3Z" transform="translate(0 -4.96)"/><path class="cls-1" d="M69,98.3v4.16a8,8,0,0,1,7.73-4.79,8.81,8.81,0,0,1,7.08,3.15,12.5,12.5,0,0,1,2.67,8.36,12.35,12.35,0,0,1-2.65,8.25,8.73,8.73,0,0,1-7,3.13q-5.46,0-7.64-4.66V128H66.57V98.3Zm12.79,4.09A7,7,0,0,0,71,102.33a10.72,10.72,0,0,0-2,6.8,10.41,10.41,0,0,0,2,6.72,6.56,6.56,0,0,0,5.4,2.48,6.45,6.45,0,0,0,5.31-2.5,10.36,10.36,0,0,0,2-6.66A10.69,10.69,0,0,0,81.75,102.4Z" transform="translate(0 -4.96)"/><path class="cls-1" d="M93.49,98.3v4.16a8,8,0,0,1,7.73-4.79,8.81,8.81,0,0,1,7.08,3.15,12.5,12.5,0,0,1,2.67,8.36,12.35,12.35,0,0,1-2.65,8.25,8.73,8.73,0,0,1-7,3.13q-5.46,0-7.64-4.66V128H91.1V98.3Zm12.79,4.09a7,7,0,0,0-10.75-.06,10.72,10.72,0,0,0-2,6.8,10.41,10.41,0,0,0,2,6.72,6.56,6.56,0,0,0,5.4,2.48,6.45,6.45,0,0,0,5.31-2.5,10.36,10.36,0,0,0,2-6.66A10.69,10.69,0,0,0,106.28,102.4Z" transform="translate(0 -4.96)"/><path class="cls-1" d="M124.69,97.67a9.4,9.4,0,0,1,7.41,3.11,12.22,12.22,0,0,1,2.75,8.4q0,5.25-2.73,8.29a9.48,9.48,0,0,1-7.43,3,9.61,9.61,0,0,1-7.5-3.09,12,12,0,0,1-2.79-8.34,12,12,0,0,1,2.79-8.32A9.58,9.58,0,0,1,124.69,97.67Zm5.46,4.72a7.31,7.31,0,0,0-11,0,10.21,10.21,0,0,0-2.06,6.7,10.33,10.33,0,0,0,2,6.76,6.86,6.86,0,0,0,5.61,2.48,6.67,6.67,0,0,0,5.46-2.48,10.34,10.34,0,0,0,2-6.72A10.29,10.29,0,0,0,130.16,102.4Z" transform="translate(0 -4.96)"/><path class="cls-1" d="M153.8,100.53H142.13v19.36h-2.65V98.3H153.8Z" transform="translate(0 -4.96)"/><path class="cls-1" d="M174.34,117.75v2a6.36,6.36,0,0,1-2.1.34,2.31,2.31,0,0,1-2.27-1,6.35,6.35,0,0,1-.55-2.9,9,9,0,0,1-8.15,4.33,7.74,7.74,0,0,1-5.19-1.6,5.54,5.54,0,0,1-1.87-4.45q0-5.84,8-6.68l1.18-.1,1.11-.1.92-.1.84-.1.67-.13a4.7,4.7,0,0,0,.63-.17l.48-.19a3.51,3.51,0,0,0,.46-.23,2.32,2.32,0,0,0,.76-2.06,4.19,4.19,0,0,0-1.43-3.61,7,7,0,0,0-4.2-1.05,6.26,6.26,0,0,0-4.18,1.24,5.53,5.53,0,0,0-1.7,3.84h-2.52a7.08,7.08,0,0,1,2.44-5.38,11.35,11.35,0,0,1,12.07-.29,5.43,5.43,0,0,1,2.12,4.62v11.76a11.59,11.59,0,0,0,0,1.2,1.14,1.14,0,0,0,.36.67,1.41,1.41,0,0,0,1,.31A3.83,3.83,0,0,0,174.34,117.75Zm-5-9.62a2.78,2.78,0,0,1-1.24.69,12.36,12.36,0,0,1-1.58.4q-.71.13-2.44.34l-.63.08a20.27,20.27,0,0,0-2.21.38,12.59,12.59,0,0,0-2,.69,3.71,3.71,0,0,0-1.68,1.34,3.78,3.78,0,0,0-.57,2.12,3.69,3.69,0,0,0,1.34,3,5.49,5.49,0,0,0,3.61,1.11,7.75,7.75,0,0,0,5.21-1.83,6,6,0,0,0,2.14-4.81Z" transform="translate(0 -4.96)"/><path class="cls-1" d="M193.79,100.53h-8v19.36h-2.65V100.53h-8V98.3h18.69Z" transform="translate(0 -4.96)"/><path class="cls-1" d="M214.24,119.89h-2.65V109.72H199.29v10.16h-2.65V98.3h2.65v9.2h12.31V98.3h2.65Z" transform="translate(0 -4.96)"/><path class="cls-1" d="M219.53,98.3h2.65v8.48h7a6.94,6.94,0,0,1,5,1.76,7.15,7.15,0,0,1,0,9.6,7,7,0,0,1-5,1.74h-9.66Zm13.86,15a4,4,0,0,0-1.28-3.19,5.17,5.17,0,0,0-3.55-1.13h-6.38v8.65h6.38a5.22,5.22,0,0,0,3.57-1.11A4.06,4.06,0,0,0,233.39,113.34Zm6.72-15h2.65v21.59h-2.65Z" transform="translate(0 -4.96)"/><path class="cls-1" d="M271.15,119.89H268.5V102.12h-.13l-7.6,17.77h-2.35l-7.6-17.77h-.13v17.77H248V98.3h3.53l8.06,18.61,8-18.61h3.53Z" transform="translate(0 -4.96)"/><path class="cls-1" d="M311.68,119.89H309V102.12h-.13l-7.6,17.77H299l-7.6-17.77h-.13v17.77h-2.65V98.3h3.53l8.06,18.61,8-18.61h3.53Z" transform="translate(0 -4.96)"/><path class="cls-1" d="M336,117.75v2a6.36,6.36,0,0,1-2.1.34,2.31,2.31,0,0,1-2.27-1,6.35,6.35,0,0,1-.55-2.9,9,9,0,0,1-8.15,4.33,7.74,7.74,0,0,1-5.19-1.6,5.54,5.54,0,0,1-1.87-4.45q0-5.84,8-6.68l1.18-.1,1.11-.1.92-.1.84-.1.67-.13a4.71,4.71,0,0,0,.63-.17l.48-.19a3.51,3.51,0,0,0,.46-.23,2.32,2.32,0,0,0,.76-2.06,4.2,4.2,0,0,0-1.43-3.61,7,7,0,0,0-4.2-1.05,6.26,6.26,0,0,0-4.18,1.24,5.53,5.53,0,0,0-1.7,3.84h-2.52a7.08,7.08,0,0,1,2.44-5.38,11.35,11.35,0,0,1,12.08-.29,5.43,5.43,0,0,1,2.12,4.62v11.76a11.59,11.59,0,0,0,0,1.2,1.13,1.13,0,0,0,.36.67,1.41,1.41,0,0,0,1,.31A3.83,3.83,0,0,0,336,117.75Zm-5-9.62a2.78,2.78,0,0,1-1.24.69,12.37,12.37,0,0,1-1.57.4q-.71.13-2.44.34l-.63.08a20.25,20.25,0,0,0-2.21.38,12.57,12.57,0,0,0-2,.69,3.71,3.71,0,0,0-1.68,1.34,3.78,3.78,0,0,0-.57,2.12,3.69,3.69,0,0,0,1.34,3,5.48,5.48,0,0,0,3.61,1.11,7.76,7.76,0,0,0,5.21-1.83,6,6,0,0,0,2.14-4.81Z" transform="translate(0 -4.96)"/><path class="cls-1" d="M355.44,100.53h-8v19.36h-2.65V100.53h-8V98.3h18.69Z" transform="translate(0 -4.96)"/><path class="cls-1" d="M375.56,112.79a9.8,9.8,0,0,1-3.11,5.73,9,9,0,0,1-6.13,2.08,9.14,9.14,0,0,1-7.2-3.07,11.92,11.92,0,0,1-2.71-8.19,12.53,12.53,0,0,1,2.75-8.38,8.89,8.89,0,0,1,7.12-3.25,8.31,8.31,0,0,1,7,3.23,12.88,12.88,0,0,1,2.46,8v.76H359.09a10.28,10.28,0,0,0,1.83,6.24,6.35,6.35,0,0,0,5.48,2.5q5.33,0,6.59-5.67Zm-2.44-5.21a8.91,8.91,0,0,0-2.06-5.65,6.26,6.26,0,0,0-4.87-2,6,6,0,0,0-5,2.14,10.85,10.85,0,0,0-2.12,5.54Z" transform="translate(0 -4.96)"/><path class="cls-1" d="M382.32,98.3v4.16A8,8,0,0,1,390,97.67a8.81,8.81,0,0,1,7.08,3.15,12.5,12.5,0,0,1,2.67,8.36,12.35,12.35,0,0,1-2.65,8.25,8.73,8.73,0,0,1-7,3.13q-5.46,0-7.64-4.66V128h-2.56V98.3Zm12.79,4.09a7,7,0,0,0-10.75-.06,10.72,10.72,0,0,0-2,6.8,10.41,10.41,0,0,0,2,6.72,6.56,6.56,0,0,0,5.4,2.48,6.45,6.45,0,0,0,5.31-2.5,10.37,10.37,0,0,0,2-6.66A10.69,10.69,0,0,0,395.11,102.4Z" transform="translate(0 -4.96)"/><path class="cls-1" d="M421,119.89h-2.65v-9.07H413l-7.6,9.07h-3.44l8-9.16a7.43,7.43,0,0,1-4.68-1.83,5.69,5.69,0,0,1-1.74-4.39,5.93,5.93,0,0,1,1.79-4.54,6.68,6.68,0,0,1,4.77-1.68H421Zm-2.65-19.36h-7.64a4.83,4.83,0,0,0-3.34,1.07,4.26,4.26,0,0,0,0,5.92,4.83,4.83,0,0,0,3.34,1.07h7.64Z" transform="translate(0 -4.96)"/><path class="cls-1" d="M449.6,119.89H447V102.12h-.13l-7.6,17.77h-2.35l-7.6-17.77h-.13v17.77H426.5V98.3H430l8.06,18.61,8-18.61h3.53Z" transform="translate(0 -4.96)"/><path class="cls-1" d="M42.42,161.86H39.77V143.38L28.1,161.86H24.82V140.27h2.65v18.48l11.68-18.48h3.28Z" transform="translate(0 -4.96)"/><path class="cls-1" d="M80.34,168.74H77.7v-6.89H60.31v6.89H57.66v-9.11h2.56q3-5.5,3-16.59v-2.77H77.32v19.36h3Zm-5.67-9.11V142.49h-8.9v1.43q0,10.16-2.81,15.71Z" transform="translate(0 -4.96)"/><path class="cls-1" d="M92.9,139.64a9.4,9.4,0,0,1,7.41,3.11,12.22,12.22,0,0,1,2.75,8.4q0,5.25-2.73,8.29a9.48,9.48,0,0,1-7.43,3,9.61,9.61,0,0,1-7.5-3.09,13.81,13.81,0,0,1,0-16.65A9.58,9.58,0,0,1,92.9,139.64Zm5.46,4.72a7.31,7.31,0,0,0-11,0,10.21,10.21,0,0,0-2.06,6.7,10.33,10.33,0,0,0,2,6.76,6.86,6.86,0,0,0,5.61,2.48,6.67,6.67,0,0,0,5.46-2.48,12.14,12.14,0,0,0,0-13.46Z" transform="translate(0 -4.96)"/><path class="cls-1" d="M125,161.86h-2.65V151.69H110.08v10.16h-2.65V140.27h2.65v9.2h12.31v-9.2H125Z" transform="translate(0 -4.96)"/><path class="cls-1" d="M139.65,139.64a9.4,9.4,0,0,1,7.41,3.11,12.22,12.22,0,0,1,2.75,8.4q0,5.25-2.73,8.29a9.48,9.48,0,0,1-7.43,3,9.61,9.61,0,0,1-7.5-3.09,13.81,13.81,0,0,1,0-16.65A9.58,9.58,0,0,1,139.65,139.64Zm5.46,4.72a7.31,7.31,0,0,0-11,0,10.21,10.21,0,0,0-2.06,6.7,10.33,10.33,0,0,0,2,6.76,6.86,6.86,0,0,0,5.61,2.48,6.67,6.67,0,0,0,5.46-2.48,12.14,12.14,0,0,0,0-13.46Z" transform="translate(0 -4.96)"/><path class="cls-1" d="M156.74,140.27v4.16a8,8,0,0,1,7.73-4.79,8.81,8.81,0,0,1,7.08,3.15,12.5,12.5,0,0,1,2.67,8.36,12.35,12.35,0,0,1-2.65,8.25,8.73,8.73,0,0,1-7,3.13q-5.46,0-7.64-4.66v12.05h-2.56V140.27Zm12.79,4.09a7,7,0,0,0-10.75-.06,10.72,10.72,0,0,0-2,6.8,10.41,10.41,0,0,0,2,6.72,6.56,6.56,0,0,0,5.4,2.48,6.45,6.45,0,0,0,5.31-2.5,10.36,10.36,0,0,0,2-6.66A10.69,10.69,0,0,0,169.53,144.36Z" transform="translate(0 -4.96)"/><path class="cls-1" d="M197.69,159.71v2a6.36,6.36,0,0,1-2.1.34,2.31,2.31,0,0,1-2.27-1,6.35,6.35,0,0,1-.55-2.9,9,9,0,0,1-8.15,4.33,7.74,7.74,0,0,1-5.19-1.6,5.54,5.54,0,0,1-1.87-4.45q0-5.84,8-6.68l1.18-.1,1.11-.1.92-.1.84-.1.67-.13a4.7,4.7,0,0,0,.63-.17l.48-.19a3.51,3.51,0,0,0,.46-.23,2.32,2.32,0,0,0,.76-2.06,4.19,4.19,0,0,0-1.43-3.61,7,7,0,0,0-4.2-1.05,6.26,6.26,0,0,0-4.18,1.24,5.53,5.53,0,0,0-1.7,3.84h-2.52a7.08,7.08,0,0,1,2.44-5.38,11.35,11.35,0,0,1,12.07-.29,5.43,5.43,0,0,1,2.12,4.62v11.76a11.59,11.59,0,0,0,0,1.2,1.14,1.14,0,0,0,.36.67,1.41,1.41,0,0,0,1,.31A3.83,3.83,0,0,0,197.69,159.71Zm-5-9.62a2.78,2.78,0,0,1-1.24.69,12.36,12.36,0,0,1-1.58.4q-.71.13-2.44.34l-.63.08a20.27,20.27,0,0,0-2.21.38,12.59,12.59,0,0,0-2,.69,3.71,3.71,0,0,0-1.68,1.34,3.78,3.78,0,0,0-.57,2.12,3.69,3.69,0,0,0,1.34,3,5.49,5.49,0,0,0,3.61,1.11,7.75,7.75,0,0,0,5.21-1.83,6,6,0,0,0,2.14-4.81Z" transform="translate(0 -4.96)"/><path class="cls-1" d="M224,161.86h-2.65V144.09h-.13l-7.6,17.77H211.3l-7.6-17.77h-.13v17.77h-2.65V140.27h3.53l8.06,18.61,8-18.61H224Z" transform="translate(0 -4.96)"/><path class="cls-1" d="M250.69,139.64a9.4,9.4,0,0,1,7.41,3.11,12.22,12.22,0,0,1,2.75,8.4q0,5.25-2.73,8.29a9.48,9.48,0,0,1-7.43,3,9.61,9.61,0,0,1-7.5-3.09,13.81,13.81,0,0,1,0-16.65A9.58,9.58,0,0,1,250.69,139.64Zm5.46,4.72a7.31,7.31,0,0,0-11,0,10.21,10.21,0,0,0-2.06,6.7,10.33,10.33,0,0,0,2,6.76,6.86,6.86,0,0,0,5.61,2.48,6.67,6.67,0,0,0,5.46-2.48,12.14,12.14,0,0,0,0-13.46Z" transform="translate(0 -4.96)"/><path class="cls-1" d="M274.47,139.64a9.4,9.4,0,0,1,7.41,3.11,12.22,12.22,0,0,1,2.75,8.4q0,5.25-2.73,8.29a9.48,9.48,0,0,1-7.43,3,9.61,9.61,0,0,1-7.5-3.09,13.81,13.81,0,0,1,0-16.65A9.58,9.58,0,0,1,274.47,139.64Zm5.46,4.72a7.31,7.31,0,0,0-11,0,10.21,10.21,0,0,0-2.06,6.7,10.33,10.33,0,0,0,2,6.76,6.86,6.86,0,0,0,5.61,2.48,6.67,6.67,0,0,0,5.46-2.48,12.13,12.13,0,0,0,0-13.46Z" transform="translate(0 -4.96)"/><path class="cls-1" d="M309.45,168.74h-2.65v-6.89H288.87V140.27h2.65v19.36h12.31V140.27h2.65v19.36h3Z" transform="translate(0 -4.96)"/><path class="cls-1" d="M330.37,161.86h-2.65V143.38L316,161.86h-3.28V140.27h2.65v18.48l11.68-18.48h3.28Z" transform="translate(0 -4.96)"/><path class="cls-1" d="M352,142.49h-8v19.36h-2.65V142.49h-8v-2.23H352Z" transform="translate(0 -4.96)"/><path class="cls-1" d="M363.29,139.64a9.4,9.4,0,0,1,7.41,3.11,12.22,12.22,0,0,1,2.75,8.4q0,5.25-2.73,8.29a9.48,9.48,0,0,1-7.43,3,9.61,9.61,0,0,1-7.5-3.09,13.81,13.81,0,0,1,0-16.65A9.58,9.58,0,0,1,363.29,139.64Zm5.46,4.72a7.31,7.31,0,0,0-11,0,10.21,10.21,0,0,0-2.06,6.7,10.33,10.33,0,0,0,2,6.76,6.86,6.86,0,0,0,5.61,2.48,6.67,6.67,0,0,0,5.46-2.48,12.13,12.13,0,0,0,0-13.46Z" transform="translate(0 -4.96)"/><path class="cls-1" d="M395.72,155.81a5.33,5.33,0,0,1-2,4.49,9.25,9.25,0,0,1-5.75,1.55H377.83V140.27h10.12a8.56,8.56,0,0,1,5.12,1.32,4.43,4.43,0,0,1,1.81,3.8,4.68,4.68,0,0,1-3.74,5v.08Q395.72,151.23,395.72,155.81Zm-3.49-9.74q0-3.57-4.58-3.57h-7.18v7.06h7.18a5.41,5.41,0,0,0,3.4-.92A3.08,3.08,0,0,0,392.23,146.06Zm.84,9.45q0-3.91-5.42-3.91h-7.18v8h7.18Q393.07,159.63,393.07,155.51Z" transform="translate(0 -4.96)"/><rect class="cls-2" width="15" height="160"/></g></g></svg>