<?xml version="1.0" encoding="iso-8859-1"?>
<!-- Generator: Adobe Illustrator 19.0.0, SVG Export Plug-In . SVG Version: 6.00 Build 0)  -->
<svg version="1.1" id="Capa_1" xmlns="http://www.w3.org/2000/svg" xmlns:xlink="http://www.w3.org/1999/xlink" x="0px" y="0px"
	 viewBox="0 0 512 512" style="enable-background:new 0 0 512 512;" xml:space="preserve">
<g>
	<g>
		<path d="M451,120c-5.257,0-10.307,0.906-15,2.57V75c0-24.813-20.187-45-45-45c-5.857,0-11.449,1.137-16.586,3.181
			C369.209,14.085,351.723,0,331,0c-20.718,0-38.211,14.075-43.421,33.164C282.446,31.123,276.852,30,271,30
			c-24.813,0-44.9,20.187-44.9,44.984c-0.001,0.521-0.021,20.152-0.038,47.576c-4.684-1.655-9.819-2.56-15.062-2.56
			c-20.718,0-38.211,14.075-43.421,33.164C162.446,151.123,156.852,150,151,150c-24.813,0-45,20.187-45,45
			c0,1.159,0.001,96.642,0.083,162.448l-13.266-13.266c-16.635-16.636-43.565-17.589-61.276-2.198
			c-17.651,15.252-20.619,41.741-6.88,60.553l50.741,78.599c0.19,0.295,0.391,0.583,0.602,0.864c14.088,18.785,36.519,30,60,30H301
			c41.355,0,75-33.645,75-75v-46h45c41.355,0,75-33.645,75-75V165C496,140.187,475.813,120,451,120z M256,75c0-8.271,6.729-15,15-15
			s15,6.729,15,15v77.58c-4.695-1.665-9.742-2.58-15-2.58c-5.279,0-10.344,0.921-15.055,2.598
			C255.964,110.596,255.999,75.705,256,75z M346,437c0,24.813-20.187,45-45,45H136.004c-13.926,0-27.236-6.574-35.705-17.611
			c-53.725-83.222-50.801-78.731-51.294-79.388c-4.711-6.279-3.767-15.203,2.182-20.344c5.905-5.131,14.873-4.805,20.417,0.738
			l38.935,38.935c4.295,4.295,10.756,5.577,16.364,3.245c5.609-2.332,9.058-7.814,9.043-13.889
			C135.802,335.755,135.9,196.401,135.9,195c0-8.271,6.829-15,15.1-15s15,6.729,15,15v121c0,8.284,6.716,15,15,15s15-6.716,15-15
			V165c0-8.271,6.729-15,15-15c7.879,0,14.504,6.11,15.1,13.839c-0.033,97.462,0,71.995,0,152.161c0,8.284,6.616,15,14.9,15
			s15-6.716,15-15V195c0-8.271,6.729-15,15-15s15,6.729,15,15v121c0,8.284,6.716,15,15,15s15-6.716,15-15v-30
			c0-8.271,6.729-15,15-15s15,6.729,15,15V437z M466,316c0,24.813-20.187,45-45,45h-45v-75c0-24.813-20.187-45-45-45
			c-5.257,0-10.307,0.906-15,2.57c0-4.821,0-175.163,0-198.57c0-8.271,6.729-15,15-15s15,6.729,15,15v150c0,8.284,6.716,15,15,15
			s15-6.716,15-15V75c0-8.271,6.729-15,15-15s15,6.729,15,15v120c0,8.284,6.716,15,15,15s15-6.716,15-15v-30c0-8.271,6.729-15,15-15
			s15,6.729,15,15V316z"/>
	</g>
</g>
<g>
	<g>
		<path d="M101.607,64.394l-60-60c-5.857-5.858-15.355-5.858-21.213,0c-5.858,5.858-5.858,15.355,0,21.213l60,60
			c5.857,5.858,15.356,5.858,21.213,0C107.465,79.749,107.465,70.252,101.607,64.394z"/>
	</g>
</g>
<g>
	<g>
		<path d="M151,0c-8.284,0-15,6.716-15,15v60c0,8.284,6.716,15,15,15s15-6.716,15-15V15C166,6.716,159.284,0,151,0z"/>
	</g>
</g>
<g>
	<g>
		<path d="M91,120H31c-8.284,0-15,6.716-15,15s6.716,15,15,15h60c8.284,0,15-6.716,15-15S99.284,120,91,120z"/>
	</g>
</g>
<g>
</g>
<g>
</g>
<g>
</g>
<g>
</g>
<g>
</g>
<g>
</g>
<g>
</g>
<g>
</g>
<g>
</g>
<g>
</g>
<g>
</g>
<g>
</g>
<g>
</g>
<g>
</g>
<g>
</g>
</svg>
