<svg xmlns="http://www.w3.org/2000/svg" xmlns:xlink="http://www.w3.org/1999/xlink" viewBox="0 0 125.72 125.71"><defs><style>.cls-1{fill:url(#Безымянный_градиент_20);}</style><linearGradient id="Безымянный_градиент_20" y1="62.86" x2="125.72" y2="62.86" gradientUnits="userSpaceOnUse"><stop offset="0" stop-color="#f7c4cd"/><stop offset="0.25" stop-color="#eec9d4"/><stop offset="0.66" stop-color="#d4d7e7"/><stop offset="1" stop-color="#bae6fa"/></linearGradient></defs><title>bgfon</title><g id="Слой_2" data-name="Слой 2"><g id="Слой_1-2" data-name="Слой 1"><path class="cls-1" d="M29,86a1.37,1.37,0,0,0-.07-.31,15.11,15.11,0,0,0-6.3-6.86,8.2,8.2,0,0,0-3-1,4.53,4.53,0,0,0-2.47.26,2.44,2.44,0,0,0-1.54,2.46,1.66,1.66,0,0,0,2.16,1.65c.17,0,.33-.09.5-.12a.81.81,0,0,1,1,1,2.34,2.34,0,0,1-2.91,1.7,3,3,0,0,1-1.41-1,3.9,3.9,0,0,1-.62-4,4,4,0,0,1,3.21-2.59,6.36,6.36,0,0,1,2.92.25,1,1,0,0,0,.37.06l-1-.67c-2.93-2-5.87-4-9-5.75-.81-.46-1.68-.82-2.52-1.23a3.2,3.2,0,0,1-.58-.31.82.82,0,0,1-.3-.89A.78.78,0,0,1,8.18,68a6.9,6.9,0,0,1,1,.06,1.28,1.28,0,0,0,.5-1.48,2.38,2.38,0,0,0-.62-1,4.32,4.32,0,0,0-2.88-1.35,2.89,2.89,0,0,0-2.1.67,1.11,1.11,0,0,0-.46.75l.39.13a1,1,0,0,1,.61,1.37,1.33,1.33,0,0,1-1.3.86,1.3,1.3,0,0,1-1.21-1A2.49,2.49,0,0,1,3,64.31a3.81,3.81,0,0,1,2.22-.92,5,5,0,0,1,4.53,1.85,3.71,3.71,0,0,1,.62,1.16,1.8,1.8,0,0,1-.48,1.91s0,.06.07.08a28,28,0,0,0,5.62,2,12.45,12.45,0,0,0,1.94.24,2.28,2.28,0,0,0,1.43-.42,1.79,1.79,0,0,0,.75-2,4.73,4.73,0,0,0-4.85-3.39,1.55,1.55,0,0,0-.93.42.53.53,0,0,0-.14.67.45.45,0,0,0,.57.22A6.55,6.55,0,0,1,15.2,66a.85.85,0,0,1,.86,1.22,1.38,1.38,0,0,1-2,.61,2.55,2.55,0,0,1-1-1.36,1.53,1.53,0,0,1,.83-1.89,3.5,3.5,0,0,1,2-.29,5.11,5.11,0,0,1,3.05,1.52,1.12,1.12,0,0,0,.78.36c.56,0,1.13,0,1.69,0a1.24,1.24,0,0,0,.86-.47.53.53,0,0,0,.1-.66,1.35,1.35,0,0,1-1.63-.6A1.24,1.24,0,0,1,21,62.86a1.24,1.24,0,0,1-.32-1.62,1.32,1.32,0,0,1,1.57-.57.5.5,0,0,0-.09-.69,1.69,1.69,0,0,0-1.23-.51,13.94,13.94,0,0,0-1.4.07,1,1,0,0,0-.64.33,4.94,4.94,0,0,1-3.67,1.57A3.87,3.87,0,0,1,14,61.2a1.56,1.56,0,0,1-.8-2.39,3.47,3.47,0,0,1,.78-.88,1.35,1.35,0,0,1,1.91.27A1,1,0,0,1,16,59.28a.83.83,0,0,1-.94.42,6,6,0,0,1-.72-.14.47.47,0,0,0-.58.18.51.51,0,0,0,.07.65,1.43,1.43,0,0,0,.94.46A4.11,4.11,0,0,0,17.88,60a4.79,4.79,0,0,0,1.78-2.48,1.78,1.78,0,0,0-.83-2.1A3,3,0,0,0,17,55a14.22,14.22,0,0,0-3.76.93c-1.13.42-2.24.89-3.36,1.35a6.06,6.06,0,0,1,.48.83A2,2,0,0,1,10.08,60a4.78,4.78,0,0,1-3.45,2.31,4.35,4.35,0,0,1-3.57-.8,2.48,2.48,0,0,1-1-2.23,2.13,2.13,0,0,1,.16-.68,1.28,1.28,0,0,1,1.42-.76A1.35,1.35,0,0,1,4.73,59a.93.93,0,0,1-.6,1c-.15.07-.32.12-.49.18a1.15,1.15,0,0,0,.52.79,3.1,3.1,0,0,0,2.63.55,4.4,4.4,0,0,0,2.3-1.27,2.41,2.41,0,0,0,.62-1,1.31,1.31,0,0,0-.56-1.52c-.19,0-.4.1-.6.12A.9.9,0,0,1,8,56.06l.1,0a28.78,28.78,0,0,0,5.49-3c2.35-1.51,4.67-3.09,7-4.64l.18-.14c-.61.12-1.23.28-1.86.35a4.21,4.21,0,0,1-4.77-3.12,3.89,3.89,0,0,1,1.21-4,2.29,2.29,0,0,1,3.87,1,.83.83,0,0,1-1.05,1.06,4.4,4.4,0,0,0-.87-.14,1.56,1.56,0,0,0-1.64,1.39,2.44,2.44,0,0,0,1.15,2.57,3.87,3.87,0,0,0,2.2.5,8,8,0,0,0,3.48-1,14.49,14.49,0,0,0,5.22-4.82c.43-.64.78-1.34,1.15-2a1.66,1.66,0,0,0,.1-.38h0c-.56.53-1.1,1.1-1.7,1.59a5.26,5.26,0,0,1-2.78,1.19,2.71,2.71,0,0,1-3.21-2.58A4.46,4.46,0,0,1,22,37a2.16,2.16,0,0,1,.49-.54,1.46,1.46,0,0,1,1.7-.09,1.65,1.65,0,0,1,.73,1.59c-.12.69-.6.9-1.33.54a3.46,3.46,0,0,0-.34.3,2.42,2.42,0,0,0-.59,1.37,1.36,1.36,0,0,0,1,1.53,2.37,2.37,0,0,0,1.74-.08,7.3,7.3,0,0,0,1.38-.78A10.1,10.1,0,0,0,29,38.5c.06-.08.1-.16.17-.28h-.42a1.78,1.78,0,0,1-1.54-.72,3,3,0,0,1-.69-1.69,1.78,1.78,0,0,1,.13-.82.89.89,0,0,1,.93-.54.86.86,0,0,1,.81.61.92.92,0,0,1-.29,1c-.18.16-.4.28-.39.58a.92.92,0,0,0,.91.93,1.78,1.78,0,0,0,1.17-.48c0-.53-.06-1.07-.1-1.61a23.72,23.72,0,0,0-1-5.36,13.11,13.11,0,0,1-.32-1.36c-.08-.41.09-.59.51-.52a8.06,8.06,0,0,1,1.22.27,25.08,25.08,0,0,0,6.61,1.16H37a1.93,1.93,0,0,0,.25,0,7.28,7.28,0,0,0,.35-.88.9.9,0,0,0-.75-1.11.56.56,0,0,0-.62.23,1.33,1.33,0,0,1-.28.29.93.93,0,0,1-1.29-1.31,1.13,1.13,0,0,1,1.05-.43,3.31,3.31,0,0,1,1.8.71,1.94,1.94,0,0,1,.7,2,.57.57,0,0,0,.13,0,10.12,10.12,0,0,0,2.89-2.88,3.09,3.09,0,0,0,.56-2,2.7,2.7,0,0,0-.26-.91,1.16,1.16,0,0,0-1.12-.66,2.36,2.36,0,0,0-1.91.91c0,.06,0,.1,0,.11.43.5.1,1.24-.72,1.26a1.62,1.62,0,0,1-1.56-1,1.53,1.53,0,0,1,.44-1.72,4.26,4.26,0,0,1,4.58-.48,2.45,2.45,0,0,1,1.22,2,4.86,4.86,0,0,1-.84,3,9.36,9.36,0,0,1-1.58,1.85l-.4.36.16,0a14.7,14.7,0,0,0,7.41-7.17,6.94,6.94,0,0,0,.7-3.11,3.56,3.56,0,0,0-.55-1.93,2.37,2.37,0,0,0-2.45-1.1,1.63,1.63,0,0,0-1.46,2c0,.19.09.38.13.58a.82.82,0,0,1-1.05,1A2.31,2.31,0,0,1,41,16.07a3.35,3.35,0,0,1,1.13-1.3,4.11,4.11,0,0,1,6.38,2.53,6.26,6.26,0,0,1-.18,3l-.13.46h0v0a1.08,1.08,0,0,0,.15-.15c2-2.91,4-5.82,5.78-8.85A21.32,21.32,0,0,0,56,8.24,1.76,1.76,0,0,1,56.1,8a.89.89,0,0,1,1.69.5,6,6,0,0,1-.13.69,1.25,1.25,0,0,0,1.4.58,2.61,2.61,0,0,0,.71-.3,4.16,4.16,0,0,0,1.7-4.17,2.66,2.66,0,0,0-.62-1.21,1.12,1.12,0,0,0-.7-.42L60,4a1,1,0,0,1-1.37.63A1.32,1.32,0,0,1,58.9,2.1,2.52,2.52,0,0,1,61.4,3a4,4,0,0,1,.94,2.48,5,5,0,0,1-1.86,4.28,3.57,3.57,0,0,1-.39.28,2.13,2.13,0,0,1-2.71-.16c0,.08-.1.16-.13.24a27.77,27.77,0,0,0-1.92,5.27,14.32,14.32,0,0,0-.28,2,2.37,2.37,0,0,0,.37,1.48,1.82,1.82,0,0,0,2.12.8A4.76,4.76,0,0,0,60.87,15a2.65,2.65,0,0,0-.25-.84,1,1,0,0,0-.32-.35.48.48,0,0,0-.59,0,.44.44,0,0,0-.16.52,6.39,6.39,0,0,1,.16.76.85.85,0,0,1-.39.93.93.93,0,0,1-1-.07,1.36,1.36,0,0,1-.47-1.73A2.35,2.35,0,0,1,59.43,13a1.53,1.53,0,0,1,1.76,1,3.78,3.78,0,0,1,.19,2.18,5.1,5.1,0,0,1-1.48,2.76,1.08,1.08,0,0,0-.36.74c0,.52-.06,1,0,1.55a1.45,1.45,0,0,0,.48,1,.55.55,0,0,0,.69.12,1.36,1.36,0,0,1,.61-1.63,1.24,1.24,0,0,1,1.58.34,1.24,1.24,0,0,1,1.52-.37A1.36,1.36,0,0,1,65,22.3a.57.57,0,0,0,.69-.14,1.42,1.42,0,0,0,.47-1,15.3,15.3,0,0,0-.08-1.76.91.91,0,0,0-.27-.46,5.38,5.38,0,0,1-1.51-2.79,4,4,0,0,1,.11-2A1.6,1.6,0,0,1,67,13.27a3.31,3.31,0,0,1,.78.72,1.37,1.37,0,0,1-.32,1.93.93.93,0,0,1-1.08.08.85.85,0,0,1-.38-.93,5.71,5.71,0,0,1,.15-.72.45.45,0,0,0-.19-.58.52.52,0,0,0-.65.08A1.59,1.59,0,0,0,64.84,15a4.48,4.48,0,0,0,1.89,3.86,3.88,3.88,0,0,0,1.64.82,1.79,1.79,0,0,0,1.91-.82,2.71,2.71,0,0,0,.39-1.55A9.43,9.43,0,0,0,70.3,15a31.51,31.51,0,0,0-1.92-5.08l0-.06s-.05,0-.07,0a2,2,0,0,1-2.46.23,4.38,4.38,0,0,1-1.55-1.45,4.94,4.94,0,0,1-.61-4.48,4.19,4.19,0,0,1,.72-1.24,2.44,2.44,0,0,1,2.47-.83,1.32,1.32,0,0,1,0,2.59.94.94,0,0,1-1.14-.58c-.06-.14-.11-.3-.16-.46a1,1,0,0,0-.69.39,2.64,2.64,0,0,0-.7,1.64,4.11,4.11,0,0,0,1.55,3.59,2.69,2.69,0,0,0,1,.48,1.23,1.23,0,0,0,1.36-.6c0-.19-.1-.38-.13-.57a.94.94,0,0,1,.6-1.07A.89.89,0,0,1,69.66,8c1.64,3.94,4.18,7.34,6.49,10.87.36.55.73,1.08,1.1,1.62a2.36,2.36,0,0,0,.24.26l0,.06,0,0A7.69,7.69,0,0,1,77.09,18a4.11,4.11,0,0,1,7-2.72,3.46,3.46,0,0,1,.44.55,2.28,2.28,0,0,1-1.22,3.41.85.85,0,0,1-1.18-1.06,5.28,5.28,0,0,0,.12-1,1.38,1.38,0,0,0-.87-1.27,2.41,2.41,0,0,0-3.07.95,4,4,0,0,0-.5,2.57,10,10,0,0,0,2.35,5.18,15.45,15.45,0,0,0,5.43,4.3l.34.15h.11l-.47-.43a8,8,0,0,1-2-2.76,4.59,4.59,0,0,1-.33-2.06,2.62,2.62,0,0,1,2.33-2.41,4.48,4.48,0,0,1,3.19.66,1.67,1.67,0,0,1,.74.89,1.41,1.41,0,0,1-.34,1.54,1.52,1.52,0,0,1-1.56.44c-.57-.15-.7-.63-.36-1.27a2.16,2.16,0,0,0-1.37-.89,1.46,1.46,0,0,0-1.93,1.4,2.76,2.76,0,0,0,.25,1.48,7.74,7.74,0,0,0,.7,1.17A10.5,10.5,0,0,0,87.2,29l.29.18a.36.36,0,0,0,0-.12,1.84,1.84,0,0,1,.82-2A3.3,3.3,0,0,1,90,26.46a1.17,1.17,0,0,1,1,.35.93.93,0,0,1-1.28,1.35L89.56,28a.67.67,0,0,0-.9-.25.93.93,0,0,0-.57.95,1.92,1.92,0,0,0,.48,1h.49a25.1,25.1,0,0,0,6.61-1.15,8.51,8.51,0,0,1,1.22-.28c.46-.08.65.11.54.56-.23,1-.49,1.91-.74,2.86A26.45,26.45,0,0,0,96,37.12a1.68,1.68,0,0,0,1.17.49.9.9,0,0,0,.89-.78.56.56,0,0,0-.24-.61,1.19,1.19,0,0,1-.25-.22.93.93,0,0,1,0-1.28.94.94,0,0,1,1.28,0,1.07,1.07,0,0,1,.39.88,3.07,3.07,0,0,1-.89,2.13,1.68,1.68,0,0,1-1.37.53h-.39a1,1,0,0,0,.08.18A10.54,10.54,0,0,0,99.26,41a3.43,3.43,0,0,0,1.8.72,3.23,3.23,0,0,0,1.12-.13,1.26,1.26,0,0,0,.9-1.41,2.31,2.31,0,0,0-.93-1.75l-.2.1a.72.72,0,0,1-1.09-.49,1.61,1.61,0,0,1,.58-1.65,1.44,1.44,0,0,1,1.66-.1,1.89,1.89,0,0,1,.56.52,4.28,4.28,0,0,1,.63,3.7,2.6,2.6,0,0,1-2.92,1.91A5.66,5.66,0,0,1,98,41c-.45-.4-.86-.85-1.29-1.27h0a1.41,1.41,0,0,0,.07.31,15,15,0,0,0,6.3,6.86,7.89,7.89,0,0,0,3.54,1.07,4,4,0,0,0,2-.39,2.35,2.35,0,0,0,1.37-2.38,1.65,1.65,0,0,0-2.15-1.65c-.17,0-.33.09-.5.12a.81.81,0,0,1-1-1,2.34,2.34,0,0,1,2.91-1.7,3,3,0,0,1,1.41,1,3.9,3.9,0,0,1,.62,4,4,4,0,0,1-3.21,2.59,6.4,6.4,0,0,1-2.92-.25,1,1,0,0,0-.37-.06l1,.67c2.9,2,5.81,3.95,8.86,5.7a18.79,18.79,0,0,0,2.66,1.29,2.09,2.09,0,0,1,.55.3.82.82,0,0,1,.3.89.78.78,0,0,1-.69.63,6.91,6.91,0,0,1-1-.06,1.28,1.28,0,0,0-.5,1.48,2.37,2.37,0,0,0,.62,1,4.32,4.32,0,0,0,2.88,1.35,2.9,2.9,0,0,0,2.1-.67,1.11,1.11,0,0,0,.46-.75l-.42-.15a1,1,0,0,1-.59-1.32,1.33,1.33,0,0,1,1.31-.9,1.3,1.3,0,0,1,1.21,1,2.49,2.49,0,0,1-.84,2.6,3.82,3.82,0,0,1-2.22.92A5,5,0,0,1,116,60.5a3.71,3.71,0,0,1-.63-1.16,1.8,1.8,0,0,1,.47-1.94s0-.06-.07-.08a28.22,28.22,0,0,0-5.62-2,12.57,12.57,0,0,0-1.87-.24,2.38,2.38,0,0,0-1.42.36,1.79,1.79,0,0,0-.83,2.1,4.72,4.72,0,0,0,4.84,3.35,1.53,1.53,0,0,0,.93-.41.53.53,0,0,0,.14-.67.45.45,0,0,0-.57-.22,6.56,6.56,0,0,1-.87.16.85.85,0,0,1-.86-1.21,1.38,1.38,0,0,1,2-.61,2.55,2.55,0,0,1,1,1.36,1.52,1.52,0,0,1-.8,1.87,3.43,3.43,0,0,1-2,.31,5.09,5.09,0,0,1-3.05-1.52,1.12,1.12,0,0,0-.78-.36c-.56,0-1.13,0-1.69,0a1.24,1.24,0,0,0-.86.46.52.52,0,0,0-.1.66,1.36,1.36,0,0,1,1.64.63c.25.47.16.87-.34,1.57a1.23,1.23,0,0,1,.3,1.59,1.31,1.31,0,0,1-1.57.57.5.5,0,0,0,.09.69,1.69,1.69,0,0,0,1.23.51,13.84,13.84,0,0,0,1.4-.07,1,1,0,0,0,.64-.32,4.94,4.94,0,0,1,3.67-1.57,3.87,3.87,0,0,1,1.22.23,1.56,1.56,0,0,1,.81,2.39,3.47,3.47,0,0,1-.77.88,1.35,1.35,0,0,1-1.93-.3.94.94,0,0,1-.1-1.08.83.83,0,0,1,.92-.39c.24,0,.48.09.72.14s.48,0,.6-.2a.52.52,0,0,0-.11-.64,1.5,1.5,0,0,0-.92-.44,3.89,3.89,0,0,0-2.3.38A5,5,0,0,0,106.14,68a1.85,1.85,0,0,0,1.32,2.59,4.59,4.59,0,0,0,1.35.1,11.6,11.6,0,0,0,2.74-.59,35.76,35.76,0,0,0,4.3-1.71.37.37,0,0,0,0-.11,1.85,1.85,0,0,1-.33-2.19,4.38,4.38,0,0,1,2.49-2.3,4.7,4.7,0,0,1,4.18.16,2.59,2.59,0,0,1,1.5,2.52,2.17,2.17,0,0,1-.16.72,1.28,1.28,0,0,1-1.42.76,1.35,1.35,0,0,1-1.09-1.2.93.93,0,0,1,.59-1c.15-.07.32-.12.49-.18a1.1,1.1,0,0,0-.46-.74,2.89,2.89,0,0,0-2.1-.67,4.32,4.32,0,0,0-2.88,1.34,2.38,2.38,0,0,0-.62,1,1.31,1.31,0,0,0,.56,1.52c.19,0,.39-.09.6-.12a.9.9,0,0,1,.52,1.72l-.1,0a28.57,28.57,0,0,0-5.46,2.95c-2.37,1.52-4.71,3.11-7.06,4.68l-.15.12c.61-.12,1.23-.28,1.86-.35a4.21,4.21,0,0,1,4.78,3.12,3.89,3.89,0,0,1-1.21,4,2.79,2.79,0,0,1-.6.42,2.3,2.3,0,0,1-3.25-1.38.84.84,0,0,1,1.07-1.13,5.3,5.3,0,0,0,1,.12,1.38,1.38,0,0,0,1.3-.88,2.41,2.41,0,0,0-.82-3,3.73,3.73,0,0,0-2.32-.6,8.1,8.1,0,0,0-4,1.27,15.14,15.14,0,0,0-5.95,6.66,1.5,1.5,0,0,0-.07.31h0A10.73,10.73,0,0,1,99,84a4.7,4.7,0,0,1,3.17-.77,2.4,2.4,0,0,1,1.9,1.36,3.81,3.81,0,0,1,.25,2.7,3.92,3.92,0,0,1-.76,1.63,1.48,1.48,0,0,1-1.65.55,1.52,1.52,0,0,1-1.1-1.35,1.39,1.39,0,0,1,0-.51.72.72,0,0,1,1.13-.5l.16.08a3.67,3.67,0,0,0,.35-.31,2.42,2.42,0,0,0,.59-1.37,1.35,1.35,0,0,0-1-1.53,2.44,2.44,0,0,0-1.8.11,7.11,7.11,0,0,0-1.34.78,10.17,10.17,0,0,0-2.16,2.27l-.14.22a.32.32,0,0,0,0,.09H97a1.78,1.78,0,0,1,1.56.69,3,3,0,0,1,.72,1.75,1.69,1.69,0,0,1-.13.79.89.89,0,0,1-.93.54.86.86,0,0,1-.81-.61.92.92,0,0,1,.29-1c.18-.16.4-.28.39-.58a.92.92,0,0,0-.87-.93,1.78,1.78,0,0,0-1.21.48c0,.55.07,1.12.11,1.68a23.58,23.58,0,0,0,1.07,5.39A11.29,11.29,0,0,1,97.45,97c.07.34-.1.54-.45.49a9.52,9.52,0,0,1-1.3-.28A23,23,0,0,0,92,96.29c-1-.12-2-.2-3.06-.29a3.41,3.41,0,0,0-.43,0,7.64,7.64,0,0,0-.36.91A.9.9,0,0,0,88.88,98a.56.56,0,0,0,.62-.23,1.33,1.33,0,0,1,.28-.29.93.93,0,0,1,1.29,1.31,1.11,1.11,0,0,1-1.09.42,4.5,4.5,0,0,1-1-.27,2.08,2.08,0,0,1-1.43-2.4,1.74,1.74,0,0,0-.22.11,10.28,10.28,0,0,0-2.73,2.73,3.17,3.17,0,0,0-.62,2.09,2.75,2.75,0,0,0,.28.94,1.13,1.13,0,0,0,1.06.62,2.36,2.36,0,0,0,1.94-.91c0-.06,0-.1,0-.11-.43-.5-.1-1.24.72-1.26a1.62,1.62,0,0,1,1.55,1A1.53,1.53,0,0,1,89,103.5a4.25,4.25,0,0,1-4.58.48,2.45,2.45,0,0,1-1.22-2,4.89,4.89,0,0,1,.86-3,10.31,10.31,0,0,1,2-2.18.73.73,0,0,0-.16,0,14.76,14.76,0,0,0-7.36,7A7.12,7.12,0,0,0,77.8,107a3.6,3.6,0,0,0,.51,1.87,2.38,2.38,0,0,0,2.45,1.18,1.64,1.64,0,0,0,1.5-2c0-.22-.11-.43-.14-.65a.79.79,0,0,1,.88-1l.22,0a2.29,2.29,0,0,1,1.41,3.31,3.7,3.7,0,0,1-2.77,1.84,4.13,4.13,0,0,1-4.76-4,7.89,7.89,0,0,1,.4-2.76l0-.05v.06a1,1,0,0,0-.17.16c-2,2.94-4,5.88-5.84,8.95a20.89,20.89,0,0,0-1.73,3.43,1.78,1.78,0,0,1-.18.36.89.89,0,0,1-1,.4.88.88,0,0,1-.64-.85,6.17,6.17,0,0,1,.11-.82,1.24,1.24,0,0,0-1.34-.58,2.6,2.6,0,0,0-.75.3,4.14,4.14,0,0,0-1.72,4.17,2.61,2.61,0,0,0,.71,1.31.91.91,0,0,0,.62.31c.05-.15.09-.29.15-.43a1,1,0,0,1,1.23-.61,1.33,1.33,0,0,1,1,1.32,1.31,1.31,0,0,1-1.11,1.26,2.51,2.51,0,0,1-2.5-.85,4,4,0,0,1-.95-2.44A5,5,0,0,1,65.25,116a2.75,2.75,0,0,1,1.31-.64,1.82,1.82,0,0,1,1.8.62c.5-1.25,1-2.42,1.43-3.61a14.69,14.69,0,0,0,.83-3.22,4.21,4.21,0,0,0,0-1.62A1.91,1.91,0,0,0,68.89,106a2,2,0,0,0-.87.13A4.8,4.8,0,0,0,64.86,110,2.32,2.32,0,0,0,65,111.4a1.72,1.72,0,0,0,.43.53.45.45,0,0,0,.58,0,.43.43,0,0,0,.14-.5,6.94,6.94,0,0,1-.16-.8.83.83,0,0,1,.38-.9.92.92,0,0,1,1,0,1.36,1.36,0,0,1,.52,1.75,2.34,2.34,0,0,1-1.69,1.26,1.44,1.44,0,0,1-1.51-.65,2.61,2.61,0,0,1-.44-1.39,4.43,4.43,0,0,1,1.24-3.52,2.93,2.93,0,0,0,.71-2.45,1.76,1.76,0,0,0-.44-1.15.6.6,0,0,0-.75-.19,1.38,1.38,0,0,1-.66,1.67c-.48.24-.86.14-1.54-.36a1.23,1.23,0,0,1-1.56.33,1.36,1.36,0,0,1-.61-1.63.55.55,0,0,0-.69.12,1.41,1.41,0,0,0-.48,1,15,15,0,0,0,.08,1.77.9.9,0,0,0,.27.46,5.37,5.37,0,0,1,1.52,2.82,4,4,0,0,1-.09,1.9,1.62,1.62,0,0,1-2.63.91,1.93,1.93,0,0,1-1-1.32,1.37,1.37,0,0,1,1-1.49.82.82,0,0,1,1,.81,4.45,4.45,0,0,1-.14.91c-.07.32,0,.49.17.62a.54.54,0,0,0,.7-.12,1.64,1.64,0,0,0,.43-1.11A4.49,4.49,0,0,0,59,106.84a4.29,4.29,0,0,0-1.46-.78,1.81,1.81,0,0,0-2.12.8,2.39,2.39,0,0,0-.37,1.52,15,15,0,0,0,.31,2.08,28.74,28.74,0,0,0,2,5.4s.07,0,.08,0a2,2,0,0,1,2.4-.27,4.52,4.52,0,0,1,2,2.15,5,5,0,0,1,.25,3.81,3.55,3.55,0,0,1-.87,1.4,2.51,2.51,0,0,1-2.36.67,1.3,1.3,0,0,1-1.08-1.28,1.33,1.33,0,0,1,1-1.3,1,1,0,0,1,1.2.6c.06.14.09.28.14.43a.85.85,0,0,0,.67-.35,2.61,2.61,0,0,0,.74-1.66A4.13,4.13,0,0,0,60,116.43a1.65,1.65,0,0,0-1.61-.42,1.18,1.18,0,0,0-.71.55,6.84,6.84,0,0,1,.13.69.9.9,0,0,1-.4.86.86.86,0,0,1-1.11-.13,1.25,1.25,0,0,1-.26-.4,29,29,0,0,0-3-5.49c-1.51-2.35-3.09-4.67-4.64-7a2.5,2.5,0,0,0-.16-.2h0c.11.5.26,1,.33,1.51a4.64,4.64,0,0,1-1,3.86,4.09,4.09,0,0,1-6,.21,3.47,3.47,0,0,1-.4-.49,2.28,2.28,0,0,1,1.13-3.47.93.93,0,0,1,1,.12.92.92,0,0,1,.21,1,4.92,4.92,0,0,0-.12,1,1.4,1.4,0,0,0,.89,1.29,2.41,2.41,0,0,0,3-.89,3.88,3.88,0,0,0,.55-2.59,9.89,9.89,0,0,0-2.35-5.22,15.45,15.45,0,0,0-5.43-4.31l-.34-.15H39.7c.09.1.17.2.26.28a9.45,9.45,0,0,1,1.69,2,4.92,4.92,0,0,1,.84,2.64,2.63,2.63,0,0,1-2.32,2.79,4.49,4.49,0,0,1-3.19-.65,1.71,1.71,0,0,1-.71-.79,1.41,1.41,0,0,1,.24-1.59,1.53,1.53,0,0,1,1.61-.5.71.71,0,0,1,.46,1.1l-.08.15a2.26,2.26,0,0,0,2.3.92,1.58,1.58,0,0,0,1-1.47,3.12,3.12,0,0,0-.39-1.71,9.58,9.58,0,0,0-3.1-3.22.3.3,0,0,0-.1,0,2.56,2.56,0,0,1-3,2.6,1,1,0,0,1-.75-.9.91.91,0,0,1,.57-.91,1,1,0,0,1,1.13.33l.21.26a.84.84,0,0,0,1-.17.82.82,0,0,0,.27-.9c-.1-.3-.23-.59-.36-.89h-.6A25.07,25.07,0,0,0,30,97.16a8,8,0,0,1-1.22.27c-.44.07-.62-.12-.51-.55.23-1,.48-1.91.74-2.86a26.13,26.13,0,0,0,.7-5.27,1.53,1.53,0,0,0,0-.2,1.74,1.74,0,0,0-1.17-.46.9.9,0,0,0-.86.77.57.57,0,0,0,.23.62,1.28,1.28,0,0,1,.29.28.92.92,0,0,1,0,1.19.93.93,0,0,1-1.21.14,1,1,0,0,1-.48-.91A3,3,0,0,1,27.4,88a1.64,1.64,0,0,1,1.31-.48l.4,0a.77.77,0,0,0-.06-.17,10.49,10.49,0,0,0-2.62-2.69,3.9,3.9,0,0,0-1.8-.72,2.17,2.17,0,0,0-1.26.22,1.28,1.28,0,0,0-.74,1.23,2.31,2.31,0,0,0,1,1.85l.18-.09a.72.72,0,0,1,1.09.48,1.61,1.61,0,0,1-.54,1.63,1.43,1.43,0,0,1-1.66.14,2,2,0,0,1-.62-.57,4.31,4.31,0,0,1-.65-3.53,2.64,2.64,0,0,1,3-2.05,5.74,5.74,0,0,1,3.24,1.48c.47.41.9.88,1.35,1.32h0Zm.91-56.63,0,0v0a4,4,0,0,0,.4.31,6.15,6.15,0,0,0,4.23.75,1.23,1.23,0,0,0-.31-.09,25.56,25.56,0,0,1-4-.9A3.08,3.08,0,0,0,29.88,29.41Zm66,0c-.15,0-.31,0-.46.09-.91.23-1.81.47-2.72.69-.48.11-1,.17-1.53.27a6.21,6.21,0,0,0,3-.16,4.44,4.44,0,0,0,1.73-.89h0Zm-66,66.88c.15,0,.31,0,.46-.09.91-.23,1.81-.47,2.72-.69.48-.11,1-.17,1.45-.25a5.8,5.8,0,0,0-2.92.14,4.43,4.43,0,0,0-1.73.89h0Zm66,0v0A3.23,3.23,0,0,0,95.5,96a6.15,6.15,0,0,0-4.29-.79,1.23,1.23,0,0,0,.31.09,25.61,25.61,0,0,1,4,.91A3,3,0,0,0,95.84,96.3ZM54.07,13.17l-.35.48c-2.35,3.35-4.58,6.78-7,10.06a18.48,18.48,0,0,1-7.32,6.06l-.2.11s0,.05.07.06l.25.05a10.42,10.42,0,0,1,4.32,1.73A3.53,3.53,0,0,1,45.17,33h2.08a.05.05,0,0,0,0,0l0-.07a2.43,2.43,0,0,1,0-2.81c.16-.26.25-.56.4-.83a2.32,2.32,0,0,1,.46-.65,1.07,1.07,0,0,1,1.28-.12,1,1,0,0,1,.56,1.08,1.16,1.16,0,0,1-1.4,1c-.17,0-.33-.08-.48-.12a1.1,1.1,0,0,0-.55.64,1.53,1.53,0,0,0,.32,1.52,3.17,3.17,0,0,0,1.72,1.17l.09-.34a3.38,3.38,0,0,1,1.07-1.73,1.62,1.62,0,0,1,1.12-.42.68.68,0,0,1,.68.47.65.65,0,0,1-.27.75,3.62,3.62,0,0,1-.72.38,1.46,1.46,0,0,0-1,1.53l.28.21a9.31,9.31,0,0,1,3.76,6.62,11.38,11.38,0,0,1-.84,5.54l-.17.44.07,0,1.27-1.67a4,4,0,0,0,.67-1.31,4.9,4.9,0,0,1,.5-1.1.56.56,0,0,1,.84-.21c.2.44-.12.83-.13,1.26A10.67,10.67,0,0,0,59,45.48a3.9,3.9,0,0,0,.78.23,2.29,2.29,0,0,0,2.5-1.23.29.29,0,0,0,0-.07,7.1,7.1,0,0,1,.1-3.87.85.85,0,0,0,0-.5,7.2,7.2,0,0,0-2.09-3A.7.7,0,0,0,60,36.9a7.25,7.25,0,0,1-2.35-1.06.42.42,0,0,0-.51,0c.06.11.12.21.16.31a1.57,1.57,0,0,1-1.57,2.27,1.87,1.87,0,0,1-1.68-1.74,2.14,2.14,0,0,1,1.41-2.13l.35-.12c-.4-.46-.8-.88-1.16-1.33a11.32,11.32,0,0,1-2.39-4.67,5.75,5.75,0,0,1,.12-3.25,2.37,2.37,0,0,1,2.37-1.67,5.49,5.49,0,0,1,2.91.84,2.35,2.35,0,0,1,1.13,2,2,2,0,0,1-1.17,2,1.42,1.42,0,0,1-2-1.13c0-.13,0-.27,0-.4a1.79,1.79,0,0,0-.69-1.26c-.77-.59-1.35-.42-1.65.51a4,4,0,0,0-.1,2,10.72,10.72,0,0,0,2.61,4.92l.7.21a5,5,0,0,0,2.7.11A3.84,3.84,0,0,0,61.3,32a1.67,1.67,0,0,0,.42-1.26.9.9,0,0,0-.66-.81.92.92,0,0,0-1,.38c.11.15.24.3.35.46a.81.81,0,0,1-.62,1.32,2.05,2.05,0,0,1-1.46-.41,1.43,1.43,0,0,1-.07-2.3,2.72,2.72,0,0,1,2.07-.64,2,2,0,0,1,1.89,2.42,2.74,2.74,0,0,1-.65,1.39,4.71,4.71,0,0,1-4.31,1.63l-.22,0,0,.07a3.13,3.13,0,0,0,.47.25,9,9,0,0,1,5.15,4.42l.2.38.12-.22a9,9,0,0,1,5.27-4.59,2.39,2.39,0,0,0,.44-.26l0-.07a4.8,4.8,0,0,1-3.12-.47,3.66,3.66,0,0,1-2-2.31,2,2,0,0,1,.81-2.27,2.7,2.7,0,0,1,3.26.43,1.42,1.42,0,0,1-.12,2.05,2.07,2.07,0,0,1-1.39.51.84.84,0,0,1-.71-1.45l.27-.36A1,1,0,0,0,64.52,30,.91.91,0,0,0,64,31a1.88,1.88,0,0,0,.13.54,2.33,2.33,0,0,0,1,1.12,4.7,4.7,0,0,0,3.11.71c.6-.07,1.18-.25,1.73-.36a12.32,12.32,0,0,0,2.33-3.73,5.15,5.15,0,0,0,.38-2.46,3.92,3.92,0,0,0-.32-1.16.71.71,0,0,0-1.1-.36,1.79,1.79,0,0,0-1.07,1.49,5.86,5.86,0,0,1-.08.59,1.32,1.32,0,0,1-1.29,1.07A1.85,1.85,0,0,1,67,26.88a2.44,2.44,0,0,1,1.24-2.66,6.36,6.36,0,0,1,2.24-.72,2.51,2.51,0,0,1,3,1.86,4.48,4.48,0,0,1,.16.72,6.87,6.87,0,0,1-.33,3.14,13,13,0,0,1-3,4.82l-.33.34.38.13A2.13,2.13,0,0,1,71.6,36a1.9,1.9,0,0,1-1.16,2.25,1.63,1.63,0,0,1-1.8-.41,1.58,1.58,0,0,1-.2-1.83l.12-.25a.56.56,0,0,0-.61.11,7.14,7.14,0,0,1-2.18,1,.87.87,0,0,0-.35.19A7.13,7.13,0,0,0,63.35,40a1.07,1.07,0,0,0,0,.6,7.42,7.42,0,0,1,.23,3c0,.3-.11.6-.17.9a2.25,2.25,0,0,0,1.92,1.22,3.38,3.38,0,0,0,1.33-.25c.67-.28,1.3-.65,1.94-1a2.7,2.7,0,0,0,.32-.23c0-.44-.34-.84-.12-1.27.39-.14.63-.09.83.24a3.68,3.68,0,0,1,.45,1A4.69,4.69,0,0,0,71,45.88l.9,1.17c.06.08.14.16.21.23A.71.71,0,0,0,72,47a12.12,12.12,0,0,1-.93-4,9.41,9.41,0,0,1,3.11-7.72c.31-.28.65-.53,1-.8a1.46,1.46,0,0,0-1-1.51,3.45,3.45,0,0,1-.66-.33.69.69,0,0,1-.32-.8.71.71,0,0,1,.76-.47,1.69,1.69,0,0,1,1.07.45,3.42,3.42,0,0,1,1,1.71l.1.35a3.05,3.05,0,0,0,1.62-1.08,2.53,2.53,0,0,0,.44-.8,1.22,1.22,0,0,0-.6-1.47,5,5,0,0,1-.54.13,1.17,1.17,0,0,1-1.28-.79,1.11,1.11,0,0,1,.49-1.28,1.18,1.18,0,0,1,1.48.25,1.38,1.38,0,0,1,.21.3c.23.47.46,1,.69,1.43a2.26,2.26,0,0,1-.09,2.26l-.13.25h2.09a5.19,5.19,0,0,1,.33-.47,2.87,2.87,0,0,1,.4-.38,10.37,10.37,0,0,1,4.26-2.05l1-.21-.08-.08-.13-.07A16.5,16.5,0,0,1,80.05,25c-1.32-1.63-2.53-3.34-3.74-5-1.58-2.23-3.11-4.5-4.66-6.76h0c0,.12,0,.24,0,.36.16.77.37,1.54.48,2.31a5.32,5.32,0,0,1-.34,3,2.9,2.9,0,0,1-2.11,1.74,3.18,3.18,0,0,1-2.3-.46L67,19.9a15.48,15.48,0,0,1,0,1.57,2.07,2.07,0,0,1-2.19,1.92,2.34,2.34,0,0,1-1.92-.84,2.28,2.28,0,0,1-1.8.84,2.08,2.08,0,0,1-2.31-2,14,14,0,0,1,0-1.49c-.32.17-.67.38-1,.53A2.89,2.89,0,0,1,53.9,19a4.59,4.59,0,0,1-.43-1.86A11.25,11.25,0,0,1,54,13.64a4.25,4.25,0,0,0,.08-.46h0Zm0,99.37h0c0-.12,0-.24,0-.36-.16-.77-.37-1.54-.48-2.31a5.32,5.32,0,0,1,.34-3A2.9,2.9,0,0,1,56,105.08a3.18,3.18,0,0,1,2.3.46l.45.28a15.52,15.52,0,0,1,0-1.57,2.07,2.07,0,0,1,2.19-1.92,2.33,2.33,0,0,1,1.9.81,2.65,2.65,0,0,1,1.83-.81,2.09,2.09,0,0,1,2.31,2,14,14,0,0,1,0,1.49c.32-.17.67-.38,1-.53a2.89,2.89,0,0,1,3.82,1.48,4.59,4.59,0,0,1,.43,1.86,11.25,11.25,0,0,1-.51,3.46,4.25,4.25,0,0,0-.08.46h0l.22-.3c2.4-3.4,4.66-6.91,7.16-10.24a18.51,18.51,0,0,1,7.32-6.06l.2-.1s0-.05-.07-.06l-.29-.06a10.48,10.48,0,0,1-4.41-1.81,3.2,3.2,0,0,1-1.22-1.23h-2.1a.73.73,0,0,0,.05.12,2.41,2.41,0,0,1,0,2.72c-.17.3-.28.63-.45.93a2.2,2.2,0,0,1-.48.64,1.07,1.07,0,0,1-1.28.08,1,1,0,0,1-.52-1.1,1.16,1.16,0,0,1,1.35-1c.18,0,.36.09.53.13a1,1,0,0,0,.54-.64,1.51,1.51,0,0,0-.31-1.52,3.19,3.19,0,0,0-1.72-1.17l-.09.34a3.41,3.41,0,0,1-1,1.71,1.66,1.66,0,0,1-1.11.45.7.7,0,0,1-.72-.47.67.67,0,0,1,.29-.77,3.46,3.46,0,0,1,.69-.35,1.46,1.46,0,0,0,1-1.53l-.22-.17a9.3,9.3,0,0,1-3.82-6.63,11.2,11.2,0,0,1,.69-5.2c.1-.27.21-.54.32-.82a.8.8,0,0,0-.28.24l-1.05,1.38a4,4,0,0,0-.67,1.31,4.92,4.92,0,0,1-.5,1.1.57.57,0,0,1-.85.21c-.2-.44.12-.83.13-1.31-.6-.33-1.2-.68-1.82-1a5,5,0,0,0-1.19-.4,2.28,2.28,0,0,0-2.5,1.23.51.51,0,0,0,0,.1,7.08,7.08,0,0,1-.09,3.8,1,1,0,0,0,0,.57,7.2,7.2,0,0,0,2.07,2.93.7.7,0,0,0,.28.17,7.23,7.23,0,0,1,2.35,1.06.43.43,0,0,0,.52,0c-.07-.13-.14-.25-.19-.37a1.57,1.57,0,0,1,.45-1.87,1.68,1.68,0,0,1,2,0,1.83,1.83,0,0,1,.78,1.77,2.08,2.08,0,0,1-1.26,1.71c-.15.07-.31.12-.49.19.4.45.8.87,1.16,1.32a11.33,11.33,0,0,1,2.39,4.67,5.75,5.75,0,0,1-.12,3.25A2.36,2.36,0,0,1,71,102.24a5.49,5.49,0,0,1-2.91-.84,2.35,2.35,0,0,1-1.13-2,2,2,0,0,1,1.17-2,1.42,1.42,0,0,1,2,1.13c0,.13,0,.27,0,.4a1.79,1.79,0,0,0,.69,1.26c.77.59,1.35.42,1.65-.5a4,4,0,0,0,.1-2A10.71,10.71,0,0,0,70,92.8l-.7-.21a5,5,0,0,0-2.7-.11,4,4,0,0,0-2.06,1.09A1.76,1.76,0,0,0,64,95a.9.9,0,0,0,.66.81.91.91,0,0,0,1-.38c-.12-.16-.26-.32-.37-.49a.8.8,0,0,1,.61-1.28,2,2,0,0,1,1.47.39,1.43,1.43,0,0,1,.09,2.32,2.72,2.72,0,0,1-2.07.64,2,2,0,0,1-1.89-2.42,2.72,2.72,0,0,1,.62-1.36,4.7,4.7,0,0,1,4.33-1.66l.22,0a1.06,1.06,0,0,0-.45-.32,9,9,0,0,1-5.15-4.42l-.19-.36-.07.07-.07.13a9,9,0,0,1-5.27,4.59,2.45,2.45,0,0,0-.44.26,5.45,5.45,0,0,1,3.13.52,3.68,3.68,0,0,1,2,2.32,2,2,0,0,1-.75,2.23,2.67,2.67,0,0,1-3.35-.41,1.42,1.42,0,0,1,.16-2,2.08,2.08,0,0,1,1.36-.49.84.84,0,0,1,.72,1.45l-.29.38a1,1,0,0,0,1.11.29.86.86,0,0,0,.55-.95,2.14,2.14,0,0,0-.2-.74,2.39,2.39,0,0,0-1-1A4.88,4.88,0,0,0,57,92.44c-.43.09-.86.22-1.29.34a12.07,12.07,0,0,0-2.34,3.83,5,5,0,0,0-.33,2.32,4,4,0,0,0,.34,1.2.69.69,0,0,0,1,.35A1.8,1.8,0,0,0,55.55,99a5.8,5.8,0,0,1,.08-.62,1.31,1.31,0,0,1,1.24-1,1.84,1.84,0,0,1,1.88,1.51,2.44,2.44,0,0,1-1.23,2.66,6.35,6.35,0,0,1-2.24.72,2.51,2.51,0,0,1-3-1.86,4.49,4.49,0,0,1-.16-.72,6.86,6.86,0,0,1,.33-3.14,13,13,0,0,1,3-4.85l.3-.32-.41-.14a2.12,2.12,0,0,1-1.32-1.5,1.9,1.9,0,0,1,1.19-2.27,1.62,1.62,0,0,1,1.79.45,1.58,1.58,0,0,1,.18,1.8l-.13.25a.55.55,0,0,0,.61-.1,7.2,7.2,0,0,1,2.18-1,1,1,0,0,0,.38-.21,7.45,7.45,0,0,0,2-2.83,1,1,0,0,0,0-.71,6.87,6.87,0,0,1-.24-3c0-.3.11-.6.17-.88a2.34,2.34,0,0,0-2.76-1.16,9.25,9.25,0,0,0-2.46,1.18c-.1.06-.19.15-.31.23a4.4,4.4,0,0,1,.17.61,4.52,4.52,0,0,1,0,.63c-.43.15-.67.11-.87-.22a4.65,4.65,0,0,1-.49-1.07,4.22,4.22,0,0,0-.72-1.4l-.78-1c-.15-.19-.31-.38-.46-.56a.64.64,0,0,0,.06.33,12.21,12.21,0,0,1,.93,4.05,9.34,9.34,0,0,1-2.36,6.92c-.51.58-1.12,1.07-1.72,1.63a1.43,1.43,0,0,0,1,1.45,3.62,3.62,0,0,1,.72.38.64.64,0,0,1,.27.75.68.68,0,0,1-.68.47A1.62,1.62,0,0,1,50.72,94a3.28,3.28,0,0,1-1-1.56l-.15-.52a2.93,2.93,0,0,0-1.59,1,2.74,2.74,0,0,0-.47.82,1.22,1.22,0,0,0,.59,1.47,4.93,4.93,0,0,1,.62-.13,1.16,1.16,0,0,1,1.18.72,1.11,1.11,0,0,1-1.68,1.31,1.85,1.85,0,0,1-.49-.58c-.23-.41-.41-.84-.62-1.26a2.27,2.27,0,0,1-.25-1.64,8.11,8.11,0,0,1,.39-1h-2a9.24,9.24,0,0,1-.82.85,10.2,10.2,0,0,1-4.26,2.06l-1.06.22.25.13a16.54,16.54,0,0,1,6.3,4.8c1.32,1.63,2.53,3.34,3.74,5C51,108,52.52,110.29,54.07,112.54Zm-6.8-40.43h0a1.72,1.72,0,0,0-.22-.27c-.31-.25-.62-.49-.93-.73a5.34,5.34,0,0,0-2-1.09,3.35,3.35,0,0,1-.8-.37,1,1,0,0,1-.32-.3c-.16-.23-.12-.43.14-.7l1.12.23a1.22,1.22,0,0,0,.15-.19c.38-.73.78-1.45,1.14-2.2a2.58,2.58,0,0,0,.2-.86,2.27,2.27,0,0,0-1.28-2.26,7.36,7.36,0,0,1-4.16-.15A7.25,7.25,0,0,0,37,65.46a.71.71,0,0,0-.14.26,7.19,7.19,0,0,1-1.07,2.34.43.43,0,0,0,0,.49l.34-.17a1.53,1.53,0,0,1,1.64.16,1.5,1.5,0,0,1,.59,1.58A1.8,1.8,0,0,1,37,71.59a2.1,2.1,0,0,1-2.44-1.34l-.15-.38-.25.23a14.1,14.1,0,0,1-2.66,2.06,9.27,9.27,0,0,1-3.79,1.39,5.14,5.14,0,0,1-2.76-.33,2.27,2.27,0,0,1-1.42-2,5.21,5.21,0,0,1,.87-3.2,2.32,2.32,0,0,1,2.3-1.06,1.9,1.9,0,0,1,1.72,1.54,1.38,1.38,0,0,1-1.16,1.65l-.51.06a1.77,1.77,0,0,0-1.43,1,.77.77,0,0,0,.38,1.22,2.35,2.35,0,0,0,.45.17,4,4,0,0,0,1.58.11,8.43,8.43,0,0,0,3.39-1.3A11,11,0,0,0,32.93,70c.08-.26.14-.47.2-.69a5,5,0,0,0,.15-2.45,4.18,4.18,0,0,0-1-2.18A1.88,1.88,0,0,0,30.87,64a.92.92,0,0,0-.9.59,1,1,0,0,0,.33,1.07l.43-.33a.85.85,0,0,1,.9-.13.84.84,0,0,1,.47.78,2.14,2.14,0,0,1-.35,1.3,1.45,1.45,0,0,1-2.43.1,2.77,2.77,0,0,1-.56-2.16A2,2,0,0,1,31,63.46a2.93,2.93,0,0,1,1.42.59,4.67,4.67,0,0,1,1.76,4.11c0,.15,0,.31,0,.46l.09,0a2.9,2.9,0,0,0,.23-.43A9,9,0,0,1,39,63l.24-.14s0-.05,0-.06L39,62.7a9,9,0,0,1-4.51-5.2,2.86,2.86,0,0,0-.23-.43.52.52,0,0,0-.06.31,4.71,4.71,0,0,1-.63,3,3.59,3.59,0,0,1-2.1,1.77,2,2,0,0,1-2.3-.7,2.66,2.66,0,0,1,.41-3.38,1.43,1.43,0,0,1,1.95.08,2.06,2.06,0,0,1,.59,1.55.84.84,0,0,1-.47.82.86.86,0,0,1-.93-.15l-.4-.31A1,1,0,0,0,30,61.21a1,1,0,0,0,1.09.51A2.06,2.06,0,0,0,32.31,61a4.55,4.55,0,0,0,1-2.71,6.61,6.61,0,0,0-.44-2.58,11,11,0,0,0-4.36-2.48A7.31,7.31,0,0,0,27,53a2.5,2.5,0,0,0-1.38.35.72.72,0,0,0-.34,1.06,1.77,1.77,0,0,0,1.44,1.09c.18,0,.37,0,.55.06a1.37,1.37,0,0,1,1.16,1.65A1.82,1.82,0,0,1,27,58.71a2.4,2.4,0,0,1-2.7-1,5.45,5.45,0,0,1-.84-3,2.34,2.34,0,0,1,1.61-2.3,4.18,4.18,0,0,1,.78-.22,6.7,6.7,0,0,1,3.21.25,12.91,12.91,0,0,1,5,3.07l.34.32.14-.38a2.12,2.12,0,0,1,1.31-1.28,1.91,1.91,0,0,1,2.45,1.08,1.62,1.62,0,0,1-.38,1.8,1.59,1.59,0,0,1-1.82.23l-.28-.13a.55.55,0,0,0,.1.59,6.17,6.17,0,0,1,.9,1.89,1.94,1.94,0,0,0,.59,1c.17.16.34.33.51.48a7,7,0,0,0,2.41,1.37,7.18,7.18,0,0,1,4.16-.15,2.29,2.29,0,0,0,1.25-2.45,8.36,8.36,0,0,0-1.44-3.08c-.44,0-.8.32-1.22.18a.54.54,0,0,1,.14-.85,3.29,3.29,0,0,1,1-.47,5.15,5.15,0,0,0,1.84-1L47,53.85a1.73,1.73,0,0,0,.22-.27h0l0,0-.41.15a11.35,11.35,0,0,1-5.91.81,9.29,9.29,0,0,1-6.29-3.73l-.24-.31-.28,0a1.39,1.39,0,0,0-1.24,1,2.12,2.12,0,0,1-.3.59.69.69,0,0,1-.82.34.72.72,0,0,1-.47-.8,1.69,1.69,0,0,1,.45-1,3.35,3.35,0,0,1,1.64-1l.4-.12a3,3,0,0,0-1-1.61,2.58,2.58,0,0,0-.69-.42,1.27,1.27,0,0,0-1.6.56c0,.14.09.29.12.45a1.16,1.16,0,0,1-1.31,1.4,1.09,1.09,0,0,1-.9-.91,1.22,1.22,0,0,1,.68-1.28c.49-.25,1-.49,1.49-.72a2.24,2.24,0,0,1,2.19.1l.26.14v-2a8.68,8.68,0,0,1-.84-.8,10.14,10.14,0,0,1-2-4.11c-.09-.38-.16-.77-.24-1.15h0a1.76,1.76,0,0,0-.11.19,17.31,17.31,0,0,1-4.1,5.69,39.15,39.15,0,0,1-4.24,3.28c-2.58,1.83-5.21,3.6-7.82,5.4L13.2,54a.76.76,0,0,0,.34,0c.88-.18,1.76-.4,2.64-.52A4.78,4.78,0,0,1,19,53.9a2.88,2.88,0,0,1,1.71,2.3,3.19,3.19,0,0,1-.47,2c-.11.19-.22.37-.36.6l.52-.09a3.33,3.33,0,0,1,1.64.13,2,2,0,0,1,1.37,1.92,2.4,2.4,0,0,1-.81,2,2.7,2.7,0,0,1,.8,2.2,1.87,1.87,0,0,1-1.07,1.66,3.42,3.42,0,0,1-1.17.31,8,8,0,0,1-1.24-.07c.18.35.4.69.55,1.06A2.88,2.88,0,0,1,19,71.79a4.71,4.71,0,0,1-1,.33,6.88,6.88,0,0,1-2.94-.05c-.62-.12-1.24-.29-1.86-.44a2,2,0,0,0,.38.32c3.34,2.36,6.78,4.58,10.06,7a18.62,18.62,0,0,1,6.1,7.33c0,.07.08.14.14.26,0-.2.07-.34.1-.48a10.39,10.39,0,0,1,1.9-4.49A2.8,2.8,0,0,1,33,80.56V78.47h0l-.1,0a2.39,2.39,0,0,1-2.69,0c-.31-.18-.65-.3-1-.47a2.1,2.1,0,0,1-.54-.37,1.1,1.1,0,0,1-.25-1.2,1,1,0,0,1,.87-.71,1.16,1.16,0,0,1,1.26,1.44c0,.15-.08.31-.12.44a1.32,1.32,0,0,0,1.77.46,3.06,3.06,0,0,0,1.57-2L33.38,76a3.33,3.33,0,0,1-1.63-1,1.61,1.61,0,0,1-.43-1.11.68.68,0,0,1,.46-.69.64.64,0,0,1,.77.29,4.43,4.43,0,0,1,.41.82,1.12,1.12,0,0,0,.52.6,1.9,1.9,0,0,0,.95.26c.23-.29.44-.58.67-.84a9.6,9.6,0,0,1,9.35-3.08A14.88,14.88,0,0,1,47.27,72.12ZM78.45,53.6h0a1.74,1.74,0,0,0,.22.27c.31.25.62.49.93.73a5.3,5.3,0,0,0,2,1.08,3.13,3.13,0,0,1,.77.35,1.1,1.1,0,0,1,.35.32c.16.23.12.43-.14.7l-1.14-.24a9.52,9.52,0,0,0-1.4,2.82,2.39,2.39,0,0,0-.07.47,2.29,2.29,0,0,0,1.3,2.23,7.14,7.14,0,0,1,4.12.15,7.27,7.27,0,0,0,3.28-2.23.71.71,0,0,0,.14-.26,7.19,7.19,0,0,1,1.07-2.34.43.43,0,0,0,0-.49l-.41.19A1.57,1.57,0,0,1,87.33,56a1.73,1.73,0,0,1,.47-1.32,2,2,0,0,1,3.38.69c.06.13.1.27.17.45l.28-.26a14.18,14.18,0,0,1,2.73-2.09A9.2,9.2,0,0,1,98,52.15a5.29,5.29,0,0,1,2.62.27,2.31,2.31,0,0,1,1.56,2.17,5.24,5.24,0,0,1-.87,3.12,2.32,2.32,0,0,1-2.3,1.06,1.9,1.9,0,0,1-1.72-1.54,1.38,1.38,0,0,1,1.16-1.65l.51-.06a1.77,1.77,0,0,0,1.43-1,.77.77,0,0,0-.38-1.22,2.36,2.36,0,0,0-.45-.17A4,4,0,0,0,98,53.05a8.46,8.46,0,0,0-3.42,1.32,11,11,0,0,0-1.82,1.37c-.07.24-.12.43-.18.62a5.1,5.1,0,0,0-.17,2.52,4.19,4.19,0,0,0,1,2.18,1.87,1.87,0,0,0,1.39.67.92.92,0,0,0,.9-.59,1,1,0,0,0-.33-1.07L95,60.4a.83.83,0,0,1-1.38-.65,2.15,2.15,0,0,1,.31-1.24,1.46,1.46,0,0,1,2.52-.1A2.85,2.85,0,0,1,97,60.14a2.06,2.06,0,0,1-2.31,2.12,3,3,0,0,1-1.42-.59,4.68,4.68,0,0,1-1.76-4.11c0-.15,0-.31,0-.46l-.09,0c-.08.16-.17.31-.24.47s-.2.59-.33.86a9.17,9.17,0,0,1-4,4.24l-.42.22.29.16a9,9,0,0,1,4.51,5.2,2.92,2.92,0,0,0,.23.43.5.5,0,0,0,.06-.31A4.63,4.63,0,0,1,92,65.61a3.7,3.7,0,0,1,2.22-2,2,2,0,0,1,2.34.69,2.66,2.66,0,0,1-.41,3.38,1.43,1.43,0,0,1-1.95-.08A2.07,2.07,0,0,1,93.61,66a.84.84,0,0,1,.47-.82.86.86,0,0,1,.93.15l.4.31a1,1,0,0,0,.33-1.07.9.9,0,0,0-.9-.58,1.94,1.94,0,0,0-.61.12,2.42,2.42,0,0,0-1.19,1.07,5,5,0,0,0-.69,2.28,6.61,6.61,0,0,0,.43,2.5,10.74,10.74,0,0,0,4.37,2.52,7.56,7.56,0,0,0,1.61.19,2.48,2.48,0,0,0,1.41-.37.7.7,0,0,0,.32-1A1.77,1.77,0,0,0,99,70.18c-.18,0-.37,0-.55-.06a1.37,1.37,0,0,1-1.15-1.65A1.82,1.82,0,0,1,98.7,67a2.4,2.4,0,0,1,2.7,1,5.45,5.45,0,0,1,.84,3,2.34,2.34,0,0,1-1.61,2.3,4.21,4.21,0,0,1-.78.22,6.59,6.59,0,0,1-3-.19,12.72,12.72,0,0,1-5.17-3.13l-.34-.32-.14.38a2.12,2.12,0,0,1-1.31,1.28,1.91,1.91,0,0,1-2.45-1.08,1.62,1.62,0,0,1,.38-1.8,1.59,1.59,0,0,1,1.82-.23l.28.13c.11-.25,0-.41-.1-.59A16.31,16.31,0,0,1,89,66.11,2.59,2.59,0,0,0,88.28,65c-.15-.14-.3-.29-.46-.43a7,7,0,0,0-2.41-1.37,7.18,7.18,0,0,1-4.16.15A2.29,2.29,0,0,0,80,65.84a8.37,8.37,0,0,0,1.44,3.08c.43-.06.8-.32,1.21-.18a.54.54,0,0,1-.14.85,3.29,3.29,0,0,1-1,.47,5.15,5.15,0,0,0-1.84,1l-1.05.82a1.71,1.71,0,0,0-.22.27h0l0,0,.52-.19a11.26,11.26,0,0,1,5.84-.77A9.29,9.29,0,0,1,91.12,75l.19.22.27,0a1.39,1.39,0,0,0,1.24-1,2.14,2.14,0,0,1,.3-.59.69.69,0,0,1,.82-.35.72.72,0,0,1,.47.79A1.69,1.69,0,0,1,94,75a3.35,3.35,0,0,1-1.64,1l-.41.12A3.11,3.11,0,0,0,93,77.84a2.25,2.25,0,0,0,.6.35,1.27,1.27,0,0,0,1.58-.51,5,5,0,0,1-.11-.87,1.12,1.12,0,0,1,1.24-1.05,1.1,1.1,0,0,1,1,1.26,1.22,1.22,0,0,1-.71,1l-1.39.67a2.27,2.27,0,0,1-2.29-.09,2.21,2.21,0,0,0-.23-.11v2.1a2,2,0,0,1,.88.75,10.38,10.38,0,0,1,2,4.38l.18.91.12-.24a16.78,16.78,0,0,1,4.9-6.4c1.52-1.23,3.12-2.37,4.72-3.5,2.18-1.53,4.39-3,6.58-4.53l.38-.28c-.51.08-1,.22-1.47.32s-1,.18-1.5.23a5.18,5.18,0,0,1-2.72-.37,2.9,2.9,0,0,1-1.52-3.95c.12-.27.28-.52.42-.78l.09-.19c-.45,0-.88.08-1.31.07a2.14,2.14,0,0,1-2.13-1.62,2.72,2.72,0,0,1,.27-1.94,4.56,4.56,0,0,1,.48-.61,2.4,2.4,0,0,1-.8-2.1,1.91,1.91,0,0,1,1.22-1.79,3.28,3.28,0,0,1,1.07-.23,9.28,9.28,0,0,1,1.2.07c-.16-.28-.33-.55-.47-.84A2.93,2.93,0,0,1,107,53.77a4.9,4.9,0,0,1,2.48-.28c.89.13,1.76.34,2.65.51l.34.09a1.71,1.71,0,0,0-.39-.35c-3.35-2.36-6.8-4.59-10.09-7.06a18.52,18.52,0,0,1-6.07-7.31,2.63,2.63,0,0,0-.15-.24c0,.19-.07.34-.09.48a10.31,10.31,0,0,1-1.78,4.3,3.21,3.21,0,0,1-1.24,1.24v2.09l.1,0a2.42,2.42,0,0,1,2.78,0,6.71,6.71,0,0,0,.86.41,1.41,1.41,0,0,1,.75.63,1.15,1.15,0,0,1-.24,1.42,1.1,1.1,0,0,1-1.4,0,1.18,1.18,0,0,1-.42-1.26c0-.14.08-.28.11-.4a1.32,1.32,0,0,0-1.71-.49,3.05,3.05,0,0,0-1.64,2l.44.12A3.3,3.3,0,0,1,94,50.74a1.54,1.54,0,0,1,.39,1.16.65.65,0,0,1-.46.61.61.61,0,0,1-.72-.23,3.18,3.18,0,0,1-.39-.71,1.46,1.46,0,0,0-1.53-1c-.22.27-.43.57-.66.83a9.6,9.6,0,0,1-9.34,3.08A15,15,0,0,1,78.45,53.6ZM58.84,58.84c0,.34-.07.69-.14,1a2.23,2.23,0,0,1-2.1,1.91,4,4,0,0,1-1.86-.21c-.58-.21-1.14-.5-1.72-.76a.3.3,0,0,0,0,.08,2,2,0,0,1-1.07,1.26,3.58,3.58,0,0,1-2.58.34,2.82,2.82,0,0,1-.93-.43,1.48,1.48,0,0,1-.62-1.42,1.3,1.3,0,0,1,.89-1.17,1.21,1.21,0,0,1,1.38.36,4.48,4.48,0,0,1,.46.75A.9.9,0,0,0,52,61a1,1,0,0,0,.38-1,3,3,0,0,0-.63-1.32,6.32,6.32,0,0,0-2.93-1.93,6.78,6.78,0,0,0-3.09-.16,5.19,5.19,0,0,1,1.38,3.28,3.56,3.56,0,0,1-1.54,3.07l.24.2a3.41,3.41,0,0,1,1.3,2.59,4.87,4.87,0,0,1-1.13,3.25l-.23.29a6.25,6.25,0,0,0,5.94-2,3,3,0,0,0,.68-1.34.91.91,0,0,0-1-1.22,2.48,2.48,0,0,0-.33.06.6.6,0,0,0-.46.43,2.46,2.46,0,0,1-.34.65,1.3,1.3,0,0,1-1.51.47,1.37,1.37,0,0,1-.88-1.37,1.65,1.65,0,0,1,1.12-1.51,3.48,3.48,0,0,1,2.53,0A2.23,2.23,0,0,1,53,64.92s0,0,.07.05l.27-.18a5,5,0,0,1,3.27-.84,2.2,2.2,0,0,1,2.08,1.89c.07.35.1.7.14,1,.41.06.81.1,1.2.19a2.09,2.09,0,0,1,1.61,1.48,3.36,3.36,0,0,1,.11,1.61,5.28,5.28,0,0,1-1,2.53,2.13,2.13,0,0,1,1.62,1.55,5.92,5.92,0,0,1,.25,1.45,2.5,2.5,0,0,1-.4,1.48,1.61,1.61,0,0,1-1.75.75,1.28,1.28,0,0,1-1-.91,1.2,1.2,0,0,1,.36-1.32,2.9,2.9,0,0,1,.79-.47.64.64,0,0,0,.43-.5,2.41,2.41,0,0,0,0-.59.75.75,0,0,0-.7-.73,1.89,1.89,0,0,0-.59,0A3.15,3.15,0,0,0,58,74.53a6.25,6.25,0,0,0-1.57,5.17c0,.09,0,.18.07.3a5.07,5.07,0,0,1,3.24-1.37,3.53,3.53,0,0,1,3.09,1.56,3.52,3.52,0,0,1,3.06-1.56A5.08,5.08,0,0,1,69.16,80l.05,0a.23.23,0,0,0,0-.07,6.25,6.25,0,0,0-1.9-5.69,3,3,0,0,0-.78-.55,2.74,2.74,0,0,0-.92-.26.84.84,0,0,0-1,1c0,.09,0,.17,0,.26a.7.7,0,0,0,.51.61,2.32,2.32,0,0,1,.72.43A1.22,1.22,0,0,1,66.28,77a1.28,1.28,0,0,1-1,.94,1.63,1.63,0,0,1-1.85-1,3.4,3.4,0,0,1-.12-2.49,2.3,2.3,0,0,1,1.63-1.76s0,0,0-.06l-.19-.27a5.06,5.06,0,0,1-.85-3.16,2.23,2.23,0,0,1,2-2.2c.32-.06.65-.08,1-.12,0-.35.07-.7.14-1a2.23,2.23,0,0,1,2.1-1.91,4,4,0,0,1,1.86.21c.58.21,1.14.5,1.74.77l0,0a.58.58,0,0,0,0-.1,2,2,0,0,1,1.07-1.26,3.58,3.58,0,0,1,2.58-.34,2.82,2.82,0,0,1,.93.43,1.48,1.48,0,0,1,.62,1.42A1.29,1.29,0,0,1,77,66.26a1.21,1.21,0,0,1-1.38-.36,4.49,4.49,0,0,1-.46-.75.9.9,0,0,0-1.45-.39,1,1,0,0,0-.38,1A3,3,0,0,0,74,67.12,6.32,6.32,0,0,0,76.93,69a6.69,6.69,0,0,0,3,.17c-1.59-2.19-2.09-4.33.17-6.39l-.2-.17a3.41,3.41,0,0,1-1.3-2.59,4.87,4.87,0,0,1,1.13-3.25l.24-.3a6.29,6.29,0,0,0-6,2,2.87,2.87,0,0,0-.68,1.34.91.91,0,0,0,1,1.22,2.45,2.45,0,0,0,.33-.06.6.6,0,0,0,.46-.43,2.46,2.46,0,0,1,.34-.65,1.3,1.3,0,0,1,1.51-.47,1.37,1.37,0,0,1,.88,1.37,1.65,1.65,0,0,1-1.12,1.51,3.48,3.48,0,0,1-2.53,0,2.23,2.23,0,0,1-1.59-1.56s0,0-.06,0h0l-.24.17a5,5,0,0,1-3.3.83,2.19,2.19,0,0,1-2-1.88c-.07-.35-.1-.7-.14-1-.41-.06-.81-.1-1.2-.19a2.09,2.09,0,0,1-1.61-1.48A3.37,3.37,0,0,1,64,55.57,5.29,5.29,0,0,1,65,53a2.13,2.13,0,0,1-1.62-1.55A5.9,5.9,0,0,1,63.15,50a2.5,2.5,0,0,1,.4-1.48,1.61,1.61,0,0,1,1.75-.75,1.28,1.28,0,0,1,1,.91A1.2,1.2,0,0,1,65.92,50a2.9,2.9,0,0,1-.79.47.64.64,0,0,0-.43.5,2.4,2.4,0,0,0,0,.59.74.74,0,0,0,.7.73,1.89,1.89,0,0,0,.59,0,3.15,3.15,0,0,0,1.74-1.12A6.25,6.25,0,0,0,69.25,46c0-.09,0-.18-.07-.3a5.1,5.1,0,0,1-3.24,1.37,3.53,3.53,0,0,1-3.09-1.56,3.51,3.51,0,0,1-3.06,1.56,5.09,5.09,0,0,1-3.25-1.35.53.53,0,0,0-.06.12,6.24,6.24,0,0,0,1.9,5.69,2.79,2.79,0,0,0,.85.58,2.91,2.91,0,0,0,1.07.22.74.74,0,0,0,.76-.79,2.37,2.37,0,0,0,0-.44.7.7,0,0,0-.5-.61,2.32,2.32,0,0,1-.72-.43,1.22,1.22,0,0,1-.38-1.31,1.28,1.28,0,0,1,1-.94,1.63,1.63,0,0,1,1.85,1,3.4,3.4,0,0,1,.12,2.49A2.3,2.3,0,0,1,60.78,53s0,0,0,.06l.19.27a5,5,0,0,1,.83,3.3,2.19,2.19,0,0,1-1.82,2C59.59,58.76,59.22,58.78,58.84,58.84ZM87,93c-.17-.27-.26-.46-.39-.63a1.7,1.7,0,0,1-.38-1.13.91.91,0,0,1,1-.9,1.21,1.21,0,0,1,1.05,1.56c-.07.29-.17.57-.24.85a1.65,1.65,0,0,1-1,1.19,5.29,5.29,0,0,1-1,.28c-.31.06-.64.07-1,.11.21.06.34.11.47.13,1,.16,2,.31,3,.49a2.92,2.92,0,0,0,1.28-.06,10.15,10.15,0,0,1,1.13-.21,7.55,7.55,0,0,1,3.65.26l.59.22c-.05-.15-.1-.24-.12-.35a14.16,14.16,0,0,1-.41-1.83,9.71,9.71,0,0,1,.27-3.23,2.16,2.16,0,0,0,.1-.76c-.17-1.2-.36-2.39-.55-3.58a2.18,2.18,0,0,0-.1-.32,5.56,5.56,0,0,1-.36,1.9,1.59,1.59,0,0,1-.89.94,8.87,8.87,0,0,1-1.39.39,1.18,1.18,0,0,1-1.34-.9.92.92,0,0,1,.78-1.16,1.61,1.61,0,0,1,1.21.35c.18.13.38.24.55.35a1,1,0,0,0,.45-.68,5.49,5.49,0,0,0,0-2.74,5.56,5.56,0,0,0-.88-2l-.17.37A4.27,4.27,0,0,1,90,84.14a5,5,0,0,1-5.11-.9,2.65,2.65,0,0,1-.84-1.61,2,2,0,0,1,1.69-2.32,1.21,1.21,0,0,1,1.46,1.28c0,.1,0,.19,0,.28a.89.89,0,0,0,.21.13c.68.16,1.36.35,2.05.45a1.19,1.19,0,0,0,1.13-.52,4.25,4.25,0,0,0,.59-1.09,3.72,3.72,0,0,0,0-2.12,6.94,6.94,0,0,0-2-3.42,8.18,8.18,0,0,0-6.17-2.48,11.84,11.84,0,0,0-5.43,1.64,1,1,0,0,0-.13.12l.4.06a12.5,12.5,0,0,1,1.47.33,5.92,5.92,0,0,1,3.38,2.72,2.5,2.5,0,0,1,.33,2c-.08.29-.25.56-.36.85a1.59,1.59,0,0,1-2,1l-.33-.08c.05.19.1.32.13.45a1.43,1.43,0,0,1-.44,1.49,3.59,3.59,0,0,1-1.83.81h0a3.24,3.24,0,0,1-2.17-.81,6.29,6.29,0,0,1-2.27-3.63c-.09-.39-.13-.79-.21-1.23-.09.14-.16.24-.21.35a12.54,12.54,0,0,0-1.17,2.91,9.27,9.27,0,0,0-.3,3.74,8.51,8.51,0,0,0,3.18,5.46,6,6,0,0,0,3.38,1.45,3.38,3.38,0,0,0,2.26-.54,1.51,1.51,0,0,0,.74-1.55c-.08-.53-.22-1.06-.35-1.59a2.57,2.57,0,0,0-.22-.47h-.27A1.17,1.17,0,0,1,79.31,86a2,2,0,0,1,1.77-1.88,2.55,2.55,0,0,1,2.37,1.09,5.19,5.19,0,0,1,.89,1.9,4.32,4.32,0,0,1-2.46,5.2l-.33.16a.58.58,0,0,0,.09.1,5.71,5.71,0,0,0,4.57.78A4.93,4.93,0,0,0,87,93ZM81.54,33.28l.44.2a4.31,4.31,0,0,1,2.46,4.75,5,5,0,0,1-1.22,2.58,2.46,2.46,0,0,1-2.17.82,2,2,0,0,1-1.74-2,1.15,1.15,0,0,1,1.21-1.1h.37A2.87,2.87,0,0,0,81.1,38c.12-.43.22-.86.31-1.29a1.66,1.66,0,0,0-1-2,3.68,3.68,0,0,0-2.52-.3,6.78,6.78,0,0,0-3.6,2.07,8.17,8.17,0,0,0-2.47,6.46,12,12,0,0,0,1.63,5.17.6.6,0,0,0,.11.1,6.94,6.94,0,0,1,1.23-3.55,5.08,5.08,0,0,1,2.44-2,2.13,2.13,0,0,1,1.89.14,2.5,2.5,0,0,0,.37.16,1.58,1.58,0,0,1,1,2l-.1.36.39-.11a1.5,1.5,0,0,1,1.7.6,9.4,9.4,0,0,1,.65,1.52,1.21,1.21,0,0,1,0,.51,3.23,3.23,0,0,1-.62,1.56,6.35,6.35,0,0,1-4.48,2.66l-.51.06a10.07,10.07,0,0,0,3.09,1.38,9.3,9.3,0,0,0,4.17.27,8.58,8.58,0,0,0,4.78-2.71,6.48,6.48,0,0,0,1.78-3.51A3.48,3.48,0,0,0,90.84,45a1.41,1.41,0,0,0-1.32-.74,19.77,19.77,0,0,0-2.05.45.79.79,0,0,0-.21.14,1,1,0,0,0,0,.19,1.24,1.24,0,0,1-1.64,1.32,2.06,2.06,0,0,1-1.51-2.29,2.72,2.72,0,0,1,1.16-1.87,5.42,5.42,0,0,1,1.88-.85,4.32,4.32,0,0,1,5.16,2.48l.16.35a1.29,1.29,0,0,0,.12-.13A5.86,5.86,0,0,0,93.42,40a3.66,3.66,0,0,0-.22-.78,2.41,2.41,0,0,0-.3-.44c-.23.15-.42.26-.6.39a1.61,1.61,0,0,1-1.17.36.92.92,0,0,1-.79-1.24,1.15,1.15,0,0,1,.88-.81,3.41,3.41,0,0,1,2.36.75,1.54,1.54,0,0,1,.27.4,4.24,4.24,0,0,1,.29.83c.08.4.1.81.15,1.29a3.39,3.39,0,0,0,.11-.38c.19-1.19.38-2.39.56-3.58a1.53,1.53,0,0,0,0-.48c-.1-.58-.25-1.16-.31-1.75A7.23,7.23,0,0,1,95,30.8a1.5,1.5,0,0,0,.05-.19l-.25.09a6.81,6.81,0,0,1-2.64.49,13.41,13.41,0,0,1-2.85-.4,1.28,1.28,0,0,0-.44,0c-.87.11-1.74.23-2.6.37-.42.07-.83.17-1.25.26v.09h.4a4.07,4.07,0,0,1,1.61.38,1.67,1.67,0,0,1,.89,1c.1.32.19.64.27,1a1.25,1.25,0,0,1-.58,1.43,1,1,0,0,1-1.06,0,.94.94,0,0,1-.42-.89,1.77,1.77,0,0,1,.42-1c.13-.17.31-.33.24-.58C86.11,32,83.2,32,81.54,33.28Zm-36.71,54a4,4,0,0,0-.23.54c-.11.39-.2.79-.28,1.19a1.68,1.68,0,0,0,1,2.07,3.7,3.7,0,0,0,2.49.28,6.79,6.79,0,0,0,3.6-2.07,8.17,8.17,0,0,0,2.46-6.46,12,12,0,0,0-1.64-5.17s-.06-.06-.12-.11a6.66,6.66,0,0,1-1.24,3.59A5,5,0,0,1,48.45,83a2.13,2.13,0,0,1-1.89-.14,2.15,2.15,0,0,0-.34-.15,1.58,1.58,0,0,1-1-2c0-.09,0-.18.08-.32l-.39.11a1.5,1.5,0,0,1-1.7-.6,9.39,9.39,0,0,1-.65-1.52,1.21,1.21,0,0,1,0-.51,3.23,3.23,0,0,1,.62-1.56,6.35,6.35,0,0,1,4.48-2.66l.51-.06A10.83,10.83,0,0,0,44.34,72a8.78,8.78,0,0,0-3.42-.1,8.6,8.6,0,0,0-4.78,2.71,6.49,6.49,0,0,0-1.78,3.51,3.5,3.5,0,0,0,.49,2.52,1.49,1.49,0,0,0,1.27.78A5.86,5.86,0,0,0,38.31,81a.89.89,0,0,0,.15-.11,1.41,1.41,0,0,0,0-.22,1.23,1.23,0,0,1,1.6-1.3,2.06,2.06,0,0,1,1.55,2.32,2.72,2.72,0,0,1-1.15,1.83,5.41,5.41,0,0,1-1.87.85,4.32,4.32,0,0,1-5.17-2.47l-.16-.36a1.77,1.77,0,0,0-.13.16,5.86,5.86,0,0,0-.86,4,3.88,3.88,0,0,0,.22.82,2.48,2.48,0,0,0,.3.45c.24-.16.44-.28.62-.41a1.59,1.59,0,0,1,1.18-.34.92.92,0,0,1,.78,1.19,1.12,1.12,0,0,1-1.11.88,3.62,3.62,0,0,1-2-.62,1.41,1.41,0,0,1-.41-.51,3.52,3.52,0,0,1-.31-.86c-.08-.4-.1-.81-.15-1.27a1.41,1.41,0,0,0-.07.2c-.15.82-.3,1.65-.44,2.47a4.65,4.65,0,0,0,0,2.37,2.84,2.84,0,0,1,.11.54,7.82,7.82,0,0,1-.38,4.33.7.7,0,0,0,0,.18A6.65,6.65,0,0,1,34,94.55c.79.08,1.58.25,2.37.37a1.4,1.4,0,0,0,.4,0c1-.14,2-.28,3-.43.3,0,.6-.14.9-.21v-.07h-.41a4.1,4.1,0,0,1-1.57-.37,1.67,1.67,0,0,1-.9-1c-.1-.33-.2-.66-.28-1A1.25,1.25,0,0,1,38,90.46a1,1,0,0,1,1.09,0,.93.93,0,0,1,.44.92,1.79,1.79,0,0,1-.4,1,5.07,5.07,0,0,0-.31.53c1,1,4.47.65,5.34-.47l-.41-.18a4.31,4.31,0,0,1-2.45-4.75,5,5,0,0,1,1.22-2.57,2.45,2.45,0,0,1,2.17-.81,2,2,0,0,1,1.73,2.05,1.15,1.15,0,0,1-1.21,1.09Zm3.39-35.11-.4-.06a12.54,12.54,0,0,1-1.44-.32A5.93,5.93,0,0,1,43,49a2.49,2.49,0,0,1-.33-2c.09-.3.26-.58.37-.88a1.59,1.59,0,0,1,2-1l.36.1-.11-.39a1.45,1.45,0,0,1,.43-1.56,3.55,3.55,0,0,1,1.83-.81h0a3.27,3.27,0,0,1,2.2.84A6.3,6.3,0,0,1,51.94,47c.09.39.13.78.21,1.23l.18-.29a12.31,12.31,0,0,0,1.29-3.29,9.26,9.26,0,0,0,.22-3.42,8.41,8.41,0,0,0-2.29-4.63,6.93,6.93,0,0,0-3.73-2.2,3.61,3.61,0,0,0-2.71.41,1.49,1.49,0,0,0-.79,1,5.05,5.05,0,0,0,.51,2.64h.3a1.16,1.16,0,0,1,1.29,1.24,2,2,0,0,1-1.74,1.9,2.55,2.55,0,0,1-2.41-1.09,5.18,5.18,0,0,1-.88-1.86,4.32,4.32,0,0,1,2.46-5.23l.39-.19c-.4-.2-.71-.39-1-.54a5.6,5.6,0,0,0-3.58-.34,1.25,1.25,0,0,0-.81.46,4.9,4.9,0,0,0,.32.53,1.73,1.73,0,0,1,.4,1.16.91.91,0,0,1-1,.89,1.21,1.21,0,0,1-1-1.53c0-.23.15-.45.19-.68a1.91,1.91,0,0,1,1.6-1.59c.45-.1.92-.14,1.39-.21a2.75,2.75,0,0,0-.33-.1l-2.26-.39a5,5,0,0,0-2.55,0h-.07a7.82,7.82,0,0,1-4.69-.34s-.06,0-.11,0l.08.22a6.45,6.45,0,0,1,.47,2.23,12,12,0,0,1-.35,3.15,1.51,1.51,0,0,0,0,.55c.17,1.16.35,2.32.54,3.47a2.46,2.46,0,0,0,.1.34c.11-.56.18-1.14.34-1.71a1.52,1.52,0,0,1,.93-1.08,8.49,8.49,0,0,1,1.38-.39,1.18,1.18,0,0,1,1.34.9.92.92,0,0,1-.78,1.16,1.61,1.61,0,0,1-1.21-.35c-.18-.13-.38-.25-.55-.35a1,1,0,0,0-.45.68,5.82,5.82,0,0,0,.83,4.68l.06,0,.14-.3a4.27,4.27,0,0,1,2.2-2.25,5,5,0,0,1,5.15.88,2.65,2.65,0,0,1,.84,1.61,2,2,0,0,1-1.69,2.32,1.21,1.21,0,0,1-1.46-1.28c0-.1,0-.19,0-.28a.89.89,0,0,0-.21-.13c-.68-.16-1.36-.35-2.05-.45a1.19,1.19,0,0,0-1.13.52,4.25,4.25,0,0,0-.59,1.09,3.71,3.71,0,0,0,0,2.12,6.94,6.94,0,0,0,2,3.42,8.18,8.18,0,0,0,6.13,2.48,11.83,11.83,0,0,0,5.47-1.64A1,1,0,0,0,48.21,52.13Zm8.66,13a1.72,1.72,0,0,0-.25-.15,2.42,2.42,0,0,0-1.24-.06,3.28,3.28,0,0,0-2.72,1.9,3.7,3.7,0,0,1-.53.84,7.73,7.73,0,0,1-5.25,2.87l-.23,0a48.53,48.53,0,0,1,8.51,8.52,6,6,0,0,1,.46-2.16,7.06,7.06,0,0,1,3.58-4,1.11,1.11,0,0,0,.18-.12,3.59,3.59,0,0,0,1.41-3.35,2.26,2.26,0,0,0-.18-.56,4.3,4.3,0,0,0-.38.6,1.59,1.59,0,0,1-1.74.76,1.57,1.57,0,0,1-1.18-1.49c0-.11,0-.21,0-.3-1.18-.18-1.68-.54-1.82-1.31S55.68,65.81,56.87,65.14ZM70.57,79.09a48.55,48.55,0,0,1,8.53-8.54,6.19,6.19,0,0,1-2.21-.48,7.08,7.08,0,0,1-4-3.55,1.24,1.24,0,0,0-.14-.22,3.59,3.59,0,0,0-3.43-1.38,1.86,1.86,0,0,0-.46.16,2.55,2.55,0,0,0,.53.34,1.61,1.61,0,0,1,.83,1.74,1.57,1.57,0,0,1-1.49,1.22l-.32,0c0,.18,0,.32,0,.47a1.53,1.53,0,0,1-2.15,1.23,1.75,1.75,0,0,1-.88-.91l-.16-.36H65.1a1.56,1.56,0,0,0-.17.47A6.16,6.16,0,0,0,65,70.61a3.15,3.15,0,0,0,1.86,2.45,3.64,3.64,0,0,1,.81.51,7.85,7.85,0,0,1,2.84,4.87C70.54,78.65,70.54,78.85,70.57,79.09Zm0-32.46a1.59,1.59,0,0,0,0,.16,6.13,6.13,0,0,1-.64,2.45,6.85,6.85,0,0,1-3.38,3.57,1.09,1.09,0,0,0-.18.12,3.59,3.59,0,0,0-1.42,3.34,2.4,2.4,0,0,0,.18.58,5.62,5.62,0,0,0,.42-.66,1.55,1.55,0,0,1,2.88.76c0,.11,0,.21,0,.33l.47,0a1.54,1.54,0,0,1,1.28,2.07,1.72,1.72,0,0,1-.93,1l-.36.17v.09a1.82,1.82,0,0,0,.46.16,4.4,4.4,0,0,0,1,0,3.25,3.25,0,0,0,2.78-1.92,3.3,3.3,0,0,1,.45-.72,7.73,7.73,0,0,1,5.27-3l.29,0A48.52,48.52,0,0,1,70.57,46.63Zm-15.41,0a48.59,48.59,0,0,1-8.5,8.51l.12,0a7.43,7.43,0,0,1,3.77,1.39,6.16,6.16,0,0,1,2.16,2.39,3.55,3.55,0,0,0,3.71,1.84,2.5,2.5,0,0,0,.44-.18c-.87-.42-1.51-.94-1.37-1.94s.89-1.34,1.82-1.37c0-.17,0-.32,0-.46a1.51,1.51,0,0,1,1-1.3,1.45,1.45,0,0,1,1.6.37,4.06,4.06,0,0,1,.47.7c0,.07.08.16.13.23h.09a3,3,0,0,0,.17-.58A3.79,3.79,0,0,0,60,53.55a2.64,2.64,0,0,0-.9-.75,6.45,6.45,0,0,1-2.52-2.17A7.51,7.51,0,0,1,55.16,46.62ZM82.6,78.22l.07,0a1.81,1.81,0,0,0-.12-.51,4.6,4.6,0,0,0-.62-.91,6.67,6.67,0,0,0-3.25-1.88,5.24,5.24,0,0,0-2.63,0A1.42,1.42,0,0,0,74.87,76a6.67,6.67,0,0,0-.15.8A6.4,6.4,0,0,0,77,82.1a3.19,3.19,0,0,0,.79.47,1.51,1.51,0,0,0,.44.07,1.68,1.68,0,0,1-.53-2.09,1.58,1.58,0,0,1,2.18-.74,1.61,1.61,0,0,1,2.78-1.6ZM47.55,82.66a2.05,2.05,0,0,0,.6-.15,5.26,5.26,0,0,0,1-.73,6.6,6.6,0,0,0,1.62-2.7A5.09,5.09,0,0,0,51,76.49c-.26-1.29-.41-1.54-1.79-1.72a6.18,6.18,0,0,0-5.66,2.32,2.63,2.63,0,0,0-.38.71,1.72,1.72,0,0,0,0,.46c.74-.73,1.31-.93,2-.66a1.59,1.59,0,0,1,.87,2.2c1.16-.21,1.73,0,2.12.65S48.27,81.79,47.55,82.66ZM78.19,43.15v-.09a1.54,1.54,0,0,0-.48.1,5.24,5.24,0,0,0-1,.68,6.59,6.59,0,0,0-1.79,3.05,5.17,5.17,0,0,0,0,2.92,1.26,1.26,0,0,0,1,1,6.84,6.84,0,0,0,1.34.21,6.46,6.46,0,0,0,4.83-2.19,3.46,3.46,0,0,0,.5-.81,1.7,1.7,0,0,0,.09-.47l-.06,0a1.6,1.6,0,0,1-2.77-1.61,1.6,1.6,0,0,1-1.64-2.74Zm-35.1,4.36a1.61,1.61,0,0,0,.42,1.14,6,6,0,0,0,1.91,1.55,5.65,5.65,0,0,0,3.81.74c1.3-.24,1.43-.43,1.71-1.64a2.27,2.27,0,0,0,.06-.36,6.41,6.41,0,0,0-2.25-5.35,3.12,3.12,0,0,0-.79-.46,1.3,1.3,0,0,0-.42,0,.22.22,0,0,0,.07.15,1.59,1.59,0,0,1,.43,2,1.55,1.55,0,0,1-1.88.7,1.54,1.54,0,0,0-.24,0c.23,1.06.06,1.66-.59,2.06S44,48.28,43.09,47.51ZM29.45,95.77c.81-.66,1.49-3.64,1-4.42Zm0-65.83,1,4.43A5.64,5.64,0,0,0,29.45,29.94ZM96.27,95.79l-1-4.48A5.81,5.81,0,0,0,96.27,95.79Zm0-65.87c-.85.84-1.46,3.52-1,4.45Zm29.45,33a1.09,1.09,0,0,0-1.05-1.11,1.09,1.09,0,0,0,0,2.19A1.09,1.09,0,0,0,125.72,62.87ZM0,62.85a1.09,1.09,0,0,0,1.07,1.1,1.09,1.09,0,0,0,0-2.19A1.09,1.09,0,0,0,0,62.85Zm64,61.79a1.09,1.09,0,1,0-1.09,1.07A1.07,1.07,0,0,0,64,124.65ZM64,1.06a1.09,1.09,0,0,0-2.18,0,1.09,1.09,0,0,0,2.18,0ZM98,44.94a.91.91,0,0,0-.9.93.89.89,0,0,0,.92.87.9.9,0,0,0,.88-.91A.89.89,0,0,0,98,44.94Zm0,34a.89.89,0,0,0-.89.89.91.91,0,0,0,.93.9.89.89,0,0,0,.87-.91A.9.9,0,0,0,97.94,79Zm5.84-27.41a.82.82,0,0,0,.82.82.93.93,0,0,0,.92-.91.82.82,0,0,0-.85-.79A.89.89,0,0,0,103.78,51.56Zm0,22.6a.89.89,0,0,0,.87.87.82.82,0,0,0,.87-.81.94.94,0,0,0-.9-.9A.82.82,0,0,0,103.78,74.16Zm-4-27.1a.8.8,0,1,0-.07,1.6.8.8,0,1,0,.07-1.6Zm.77,30.78a.79.79,0,0,0-.82-.8.8.8,0,1,0,0,1.6A.79.79,0,0,0,100.59,77.85Zm2.07-28a.68.68,0,0,0-.67-.73.79.79,0,0,0-.84.66c0,.36.31.65.77.67A.66.66,0,0,0,102.66,49.89Zm-1.5,26a.79.79,0,0,0,.81.69.69.69,0,0,0,.69-.7.66.66,0,0,0-.71-.64A.73.73,0,0,0,101.15,75.86ZM95.5,43.52a.71.71,0,1,0,.7-.67A.68.68,0,0,0,95.5,43.52Zm1.42,38.63a.71.71,0,0,0-1.42,0,.68.68,0,0,0,.72.68A.69.69,0,0,0,96.92,82.15ZM28.67,79.9a.89.89,0,0,0-.86-.92.9.9,0,0,0-.94.85.89.89,0,0,0,.84.94A.91.91,0,0,0,28.67,79.9Zm0-34a.91.91,0,0,0-.92-.91.89.89,0,0,0-.88.9.9.9,0,0,0,.9.89A.89.89,0,0,0,28.67,45.85Zm-8.47,5.6a.94.94,0,0,0,.91.93.83.83,0,0,0,.83-.81.89.89,0,0,0-.88-.9A.82.82,0,0,0,20.2,51.46Zm0,22.77a.82.82,0,0,0,.86.81.89.89,0,0,0,.88-.87.82.82,0,0,0-.84-.84A.94.94,0,0,0,20.2,74.22Zm6.55,3.62A.8.8,0,0,0,26,77a.8.8,0,1,0,0,1.6A.8.8,0,0,0,26.75,77.84Zm0-30a.8.8,0,0,0-.81-.79.8.8,0,1,0,0,1.6A.8.8,0,0,0,26.75,47.85Zm-2.18,2a.77.77,0,0,0-.79-.72.69.69,0,0,0-.72.68.65.65,0,0,0,.68.66A.75.75,0,0,0,24.57,49.88Zm-.81,25.33a.65.65,0,0,0-.7.69.69.69,0,0,0,.71.65.78.78,0,0,0,.8-.7A.74.74,0,0,0,23.76,75.21Zm5,7a.69.69,0,0,0,.68.69.68.68,0,0,0,.74-.66.71.71,0,0,0-1.42,0Zm.68-39.32a.69.69,0,1,0,.74.66A.68.68,0,0,0,29.48,42.85ZM79.86,97a.9.9,0,0,0,0,1.8.87.87,0,0,0,.9-.88A.9.9,0,0,0,79.86,97ZM45,98a.87.87,0,0,0,.88.86A.9.9,0,1,0,45,98ZM75,104.69a.89.89,0,0,0-.86-.92.83.83,0,0,0-.85.8.92.92,0,0,0,.89.94A.8.8,0,0,0,75,104.69Zm-22.65-.09a.82.82,0,0,0-.82-.83.88.88,0,0,0-.89.89.81.81,0,0,0,.79.85A.92.92,0,0,0,52.39,104.6Zm26.27-4.8A.81.81,0,1,0,77,99.75a.81.81,0,1,0,1.61.05ZM47.88,99a.81.81,0,0,0,0,1.62.82.82,0,0,0,.82-.82A.81.81,0,0,0,47.88,99Zm28,2.18c-.35,0-.62.35-.63.81a.66.66,0,0,0,.65.7.69.69,0,0,0,.68-.72A.76.76,0,0,0,75.84,101.15Zm-26,1.51a.66.66,0,0,0,.64-.71c0-.46-.29-.8-.64-.8a.77.77,0,0,0-.69.81A.69.69,0,0,0,49.87,102.66ZM82.18,95.5a.71.71,0,0,0-.69.71.69.69,0,0,0,.7.7.7.7,0,0,0,.69-.71A.69.69,0,0,0,82.18,95.5Zm-39.33.73a.7.7,0,0,0,.71.69.69.69,0,0,0,.68-.72.71.71,0,0,0-.71-.69A.69.69,0,0,0,42.85,96.22ZM79,27.78a.9.9,0,0,0,1.79,0,.87.87,0,0,0-.88-.9A.9.9,0,0,0,79,27.78Zm-34,0a.9.9,0,1,0,.88-.9A.87.87,0,0,0,45,27.77Zm28.38-6.65a.82.82,0,0,0,.83.81A.88.88,0,0,0,75,21a.81.81,0,0,0-.8-.83A.92.92,0,0,0,73.33,21.12ZM50.68,21a.88.88,0,0,0,.88.9.82.82,0,0,0,.83-.81.92.92,0,0,0-.91-.92A.81.81,0,0,0,50.68,21ZM47.07,25.9a.81.81,0,1,0,.82-.78A.81.81,0,0,0,47.07,25.9Zm30.81-.78a.82.82,0,0,0-.84.8.81.81,0,1,0,1.61,0A.82.82,0,0,0,77.88,25.12Zm-28-2.07a.69.69,0,0,0-.72.68.78.78,0,0,0,.66.83c.36,0,.64-.31.66-.78A.67.67,0,0,0,49.89,23.05Zm26,0a.66.66,0,0,0-.65.7c0,.46.28.81.63.82a.76.76,0,0,0,.7-.8A.69.69,0,0,0,75.87,23.05Zm7,6.46a.7.7,0,0,0-.69-.71.69.69,0,0,0-.7.7.71.71,0,0,0,.69.72A.69.69,0,0,0,82.87,29.51Zm-40,0a.69.69,0,0,0,.7.7.71.71,0,0,0,.69-.72.69.69,0,0,0-.7-.7A.7.7,0,0,0,42.85,29.51Zm8.8,40.82a1.21,1.21,0,1,0,1.21,1.23A1.22,1.22,0,0,0,51.65,70.34Zm2.51,2.51a1.22,1.22,0,1,0,1.21,1.23A1.21,1.21,0,0,0,54.16,72.85Zm19.89-.08a1.21,1.21,0,1,0-1.19-1.21A1.22,1.22,0,0,0,74.05,72.77Zm-2.49,2.52a1.22,1.22,0,0,0,0-2.44,1.22,1.22,0,0,0-1.22,1.22A1.2,1.2,0,0,0,71.56,75.29Zm2.52-19.92a1.21,1.21,0,1,0-1.23-1.21A1.22,1.22,0,0,0,74.09,55.37Zm-2.55-5a1.2,1.2,0,0,0-1.19,1.21,1.21,1.21,0,1,0,2.42,0A1.21,1.21,0,0,0,71.54,50.42ZM51.66,52.95a1.21,1.21,0,1,0,1.19,1.2A1.21,1.21,0,0,0,51.66,52.95Zm2.47-2.52a1.22,1.22,0,0,0,0,2.44,1.22,1.22,0,0,0,1.2-1.24A1.2,1.2,0,0,0,54.13,50.42Z"/></g></g></svg>