<svg xmlns="http://www.w3.org/2000/svg" viewBox="0 0 276.35 234.96"><defs><style>.cls-1{fill:#b8e6fe;}.cls-1,.cls-2,.cls-3{fill-rule:evenodd;}.cls-2,.cls-4{fill:#f7c3cc;}.cls-3{fill:#c0c1c2;}</style></defs><title>Ресурс 1</title><g id="Слой_2" data-name="Слой 2"><g id="_1" data-name="1"><path class="cls-1" d="M223.77,105c-.78-3.85-1.57-7.7-2.48-11.51A117.24,117.24,0,0,0,218,82.19a100.31,100.31,0,0,0-4.43-10.63,98.23,98.23,0,0,0-5.57-10A57.26,57.26,0,0,0,202.42,54a25.88,25.88,0,0,0-5.69-4.88,18.4,18.4,0,0,0-6-2.26,58,58,0,0,0-7.17-.85l-.93-.07c-5.25-.39-11.58-.87-17.46-2.76a42.39,42.39,0,0,1-8.54-3.88,46.4,46.4,0,0,1-7.76-5.76,78,78,0,0,1-5.59-5.88,59.21,59.21,0,0,0-5.58-5.77,31.35,31.35,0,0,0-6.11-4.08A39.39,39.39,0,0,0,124.22,15a40.42,40.42,0,0,0-8-1.41,59.58,59.58,0,0,0-10.12.2,113.35,113.35,0,0,0-27.6,6.37,89.51,89.51,0,0,0-14,6.65A91.14,91.14,0,0,0,51,36.4,117.82,117.82,0,0,0,38.44,49.12,124.91,124.91,0,0,0,27.62,63.81a110.24,110.24,0,0,0-7.48,14.14,106,106,0,0,0-5.27,14.88,89.6,89.6,0,0,0-3.19,24.72A106.53,106.53,0,0,0,12.42,129c.44,3.79,1.07,7.56,1.85,11.35S16,148,17.13,151.79A91.31,91.31,0,0,0,21.32,163a92.43,92.43,0,0,0,5.75,10.65c2.15,3.44,4.49,6.77,6.93,10s5,6.26,7.7,9.14A93.15,93.15,0,0,0,50.4,201a105.26,105.26,0,0,0,9.17,6.73c3.58,2.35,7.22,4.48,10.64,6.29a98.3,98.3,0,0,0,9.21,4.35A86,86,0,0,0,89,221.57a110.26,110.26,0,0,0,11.67,2.55,101.53,101.53,0,0,0,23.89,1.1,108.69,108.69,0,0,0,12.31-1.55A96.47,96.47,0,0,0,147.78,221a106.88,106.88,0,0,0,10.34-3.81c3.5-1.49,7-3.17,10.45-5s6.51-3.7,9.57-5.76a104.33,104.33,0,0,0,8.64-6.5,106.15,106.15,0,0,0,8-7.4c2.41-2.48,4.63-5,6.66-7.5s3.89-5,5.55-7.35,3.13-4.64,4.46-6.86,2.49-4.36,3.53-6.48,1.88-4,2.66-6c.85-2.14,1.6-4.25,2.24-6.29,1.22-3.86,2.06-7.42,2.91-11l1.38.31v0c-.85,3.58-1.7,7.17-2.93,11.08-.64,2-1.4,4.17-2.28,6.38-.8,2-1.69,4-2.7,6.1s-2.25,4.35-3.58,6.59-2.83,4.53-4.51,6.94-3.56,4.91-5.61,7.44-4.31,5.09-6.75,7.6a107.61,107.61,0,0,1-8.08,7.5,105.68,105.68,0,0,1-8.75,6.59c-3.09,2.08-6.35,4-9.69,5.84s-7,3.57-10.56,5.08a108.27,108.27,0,0,1-10.48,3.86,97.84,97.84,0,0,1-11.1,2.73,110.05,110.05,0,0,1-12.47,1.58,103.1,103.1,0,0,1-24.21-1.12,111.71,111.71,0,0,1-11.82-2.59,87.39,87.39,0,0,1-9.71-3.28,99.62,99.62,0,0,1-9.34-4.42c-3.42-1.82-7.1-4-10.75-6.37a106.78,106.78,0,0,1-9.3-6.82,94.57,94.57,0,0,1-8.83-8.34c-2.76-2.95-5.33-6-7.79-9.25s-4.84-6.59-7-10.07A93.84,93.84,0,0,1,20,163.58a92.73,92.73,0,0,1-4.24-11.38c-1.17-3.85-2.11-7.72-2.9-11.56S11.45,133,11,129.16a107.93,107.93,0,0,1-.74-11.59,90.72,90.72,0,0,1,3.23-25.1,107.36,107.36,0,0,1,5.34-15.08,111.62,111.62,0,0,1,7.58-14.32A126.36,126.36,0,0,1,37.37,48.2,119.26,119.26,0,0,1,50.1,35.33,92.5,92.5,0,0,1,63.7,25.58,90.92,90.92,0,0,1,78,18.82a114.46,114.46,0,0,1,28-6.46,61,61,0,0,1,10.35-.21,41.84,41.84,0,0,1,8.33,1.46,40.82,40.82,0,0,1,7.68,3,32.74,32.74,0,0,1,6.38,4.26,60.39,60.39,0,0,1,5.72,5.91,76.63,76.63,0,0,0,5.49,5.78,45,45,0,0,0,7.52,5.59,41,41,0,0,0,8.25,3.75c5.71,1.84,11.95,2.31,17.13,2.7l.93.07a58.75,58.75,0,0,1,7.35.88A19.8,19.8,0,0,1,197.46,48a27.28,27.28,0,0,1,6,5.14,58.69,58.69,0,0,1,5.76,7.71A99.67,99.67,0,0,1,214.87,71a101.69,101.69,0,0,1,4.49,10.78,118.72,118.72,0,0,1,3.3,11.47c.92,3.85,1.71,7.7,2.49,11.55Z"/><path class="cls-1" d="M196.55,196.55a111.8,111.8,0,1,1,32-91.79h5.69a117.32,117.32,0,1,0-1.63,36h-5.78A111.6,111.6,0,0,1,196.55,196.55Z"/><path class="cls-2" d="M60.16,142.61a3.71,3.71,0,0,0-1.3-.29,2.55,2.55,0,0,0-1,.18,2.52,2.52,0,0,0-1.2.92,3.21,3.21,0,0,0-.51,1.57v2.3c0,.12,0,.2-.14.2h-.12a.61.61,0,0,0-.61.61v0a.61.61,0,0,0,.61.61H56c.1,0,.2,0,.2.24v7.31a.61.61,0,0,0,.61.61h.06a.61.61,0,0,0,.61-.61V149c0-.16.06-.22.18-.22h1a.61.61,0,0,0,.61-.61v0a.61.61,0,0,0-.61-.61h-.94c-.12,0-.2,0-.2-.18V145a1.73,1.73,0,0,1,.35-1,1.47,1.47,0,0,1,1.14-.49,2,2,0,0,1,.83.29.61.61,0,0,0,.9-.26.69.69,0,0,0-.49-.92Zm9.34,8.59c0,.29,0,.79-.59.79H61.38c-.28,0-.33.08-.31.37A3.92,3.92,0,0,0,64.74,156a3.52,3.52,0,0,0,2.5-1.08c.45-.55.73-.75,1.18-.47a.64.64,0,0,1,.08,1,3.1,3.1,0,0,1-.24.26,4.78,4.78,0,0,1-3.52,1.47,5,5,0,0,1-5-5,5,5,0,0,1,8.49-3.5,4.32,4.32,0,0,1,1.24,2.52Zm-1.73-.47c.41,0,.29-.18.18-.37a3,3,0,0,0-.61-.77,3.5,3.5,0,0,0-5.21,0,4.69,4.69,0,0,0-.69.86c-.14.26,0,.28.28.28Zm7.12-2.85s0,0,0-.06a.85.85,0,0,0-1-.24,6,6,0,0,0-1.28,1.18c-.06.08-.18.12-.18-.06v-.61a.63.63,0,0,0-.63-.61h0a.61.61,0,0,0-.61.61v8.22a.6.6,0,0,0,.61.59h0a.6.6,0,0,0,.61-.59l0-4.11c0-2.1.92-2.5,2.36-3.5a.69.69,0,0,0,.18-.83Zm4.6-.39h-.92a.22.22,0,0,1-.24-.26v-4.09a.62.62,0,0,0-.61-.61h0a.62.62,0,0,0-.61.61v4c0,.2-.08.31-.24.31H75.9a.61.61,0,0,0-.61.61v0a.61.61,0,0,0,.61.61h.94c.16,0,.22.08.22.24v7.31a.61.61,0,0,0,.61.61h0a.61.61,0,0,0,.61-.61V149c0-.18.06-.22.26-.22h.9a.61.61,0,0,0,.61-.61v0a.61.61,0,0,0-.61-.61Zm2.87,0h0a.61.61,0,0,0-.61.61v8.2a.61.61,0,0,0,.61.61h0a.61.61,0,0,0,.61-.61v-8.2a.61.61,0,0,0-.61-.61Zm3.22-5h0a.61.61,0,0,0-.61.61v13.14a.61.61,0,0,0,.61.61h0a.61.61,0,0,0,.61-.61V143.15a.61.61,0,0,0-.61-.61Zm3.22,5h0a.61.61,0,0,0-.61.61v8.2a.61.61,0,0,0,.61.61h0a.61.61,0,0,0,.61-.61v-8.2a.61.61,0,0,0-.61-.61Zm6.41,0h-.92a.22.22,0,0,1-.24-.26v-4.09a.62.62,0,0,0-.61-.61h0a.62.62,0,0,0-.61.61v4c0,.2-.08.31-.24.31h-.92a.61.61,0,0,0-.61.61v0a.61.61,0,0,0,.61.61h.94c.16,0,.22.08.22.24v7.31a.61.61,0,0,0,.61.61h0a.61.61,0,0,0,.61-.61V149c0-.18.06-.22.26-.22h.9a.61.61,0,0,0,.61-.61v0a.61.61,0,0,0-.61-.61Zm4.52,11,5-10.59a.27.27,0,0,0-.28-.41h-.51a.8.8,0,0,0-.67.41l-2.38,5.62c-.22.47-.16.49-.39,0l-2.36-5.62a.8.8,0,0,0-.67-.41H97a.27.27,0,0,0-.28.41l3.11,6.62a.74.74,0,0,1,0,.84l-1.49,3.13a.27.27,0,0,0,.26.43h.51a.77.77,0,0,0,.67-.43Zm21.72-4.15a3.71,3.71,0,0,1-3,1.63,3.77,3.77,0,0,1,0-7.55,3.73,3.73,0,0,1,2.87,1.43c.31.39.43.26.43,0v-1.08a.52.52,0,0,0-.16-.39,5,5,0,1,0,0,7.69.48.48,0,0,0,.18-.41v-1.22c0-.33-.2-.22-.31-.06Zm1.47-2.12a5,5,0,0,0,5,4.93,4.56,4.56,0,0,0,3.52-1.57c0-.06.18-.1.18.14v.59a.61.61,0,0,0,.61.59h0a.61.61,0,0,0,.61-.61v-8.2a.61.61,0,0,0-.61-.61h0a.61.61,0,0,0-.61.61v.57c0,.25-.2.19-.26.09a4.5,4.5,0,0,0-3.48-1.51,5,5,0,0,0-5,5Zm1.26,0a3.72,3.72,0,1,1,7.43,0,3.73,3.73,0,0,1-3.68,3.75,3.78,3.78,0,0,1-3.75-3.75Zm14.49-4.34s0,0,0-.06a.85.85,0,0,0-1-.24,6,6,0,0,0-1.28,1.18c-.06.08-.18.12-.18-.06v-.61a.63.63,0,0,0-.63-.61h0a.61.61,0,0,0-.61.61v8.22a.6.6,0,0,0,.61.59h0a.6.6,0,0,0,.61-.59l0-4.11c0-2.1.92-2.5,2.36-3.5a.69.69,0,0,0,.18-.83Zm10.14,3.32a4.32,4.32,0,0,0-1.24-2.52,5,5,0,0,0-8.49,3.5,5,5,0,0,0,5,5,4.78,4.78,0,0,0,3.52-1.47,3.1,3.1,0,0,0,.24-.26.64.64,0,0,0-.08-1c-.45-.28-.73-.08-1.18.47a3.52,3.52,0,0,1-2.5,1.08,3.92,3.92,0,0,1-3.68-3.62c0-.29,0-.37.31-.37h7.53c.55,0,.63-.49.59-.79Zm-1.73-.47H141c-.31,0-.41,0-.28-.28a4.7,4.7,0,0,1,.69-.86,3.5,3.5,0,0,1,5.21,0,3,3,0,0,1,.61.77c.12.2.24.37-.18.37Zm10.81,1.49a5,5,0,0,0,5,4.93,4.56,4.56,0,0,0,3.52-1.57c0-.06.18-.1.18.14v.59a.61.61,0,0,0,.61.59h0a.61.61,0,0,0,.61-.61v-8.2a.61.61,0,0,0-.61-.61h0a.61.61,0,0,0-.61.61v.57c0,.25-.2.19-.26.09a4.5,4.5,0,0,0-3.48-1.51,5,5,0,0,0-5,5Zm1.26,0a3.72,3.72,0,1,1,7.43,0A3.73,3.73,0,0,1,162.9,156a3.78,3.78,0,0,1-3.75-3.75Zm19.75-4.74h-.06a.61.61,0,0,0-.61.61v.55c0,.28-.14.2-.16.18a5,5,0,0,0-3.64-1.57,4.86,4.86,0,0,0-5,5,4.64,4.64,0,0,0,5,4.93,4.82,4.82,0,0,0,3.72-1.69c.08-.12.2.59.08,1a4,4,0,0,1-1.1,1.57,3,3,0,0,1-2,.92c-.33,0-.83.18-.77.81a.71.71,0,0,0,.88.57,4.78,4.78,0,0,0,2.77-1.38,4.68,4.68,0,0,0,1.43-3.44V148.1a.61.61,0,0,0-.59-.61ZM174.44,156a3.53,3.53,0,0,1-3.7-3.75,3.74,3.74,0,1,1,3.7,3.75Zm16.39-4.78a4.32,4.32,0,0,0-1.24-2.52,5,5,0,0,0-8.49,3.5,5,5,0,0,0,5,5,4.78,4.78,0,0,0,3.52-1.47,3.1,3.1,0,0,0,.24-.26.64.64,0,0,0-.08-1c-.45-.28-.73-.08-1.18.47a3.52,3.52,0,0,1-2.5,1.08,3.92,3.92,0,0,1-3.68-3.62c0-.29,0-.37.31-.37h7.53c.55,0,.63-.49.59-.79Zm-1.73-.47H183c-.31,0-.41,0-.28-.28a4.69,4.69,0,0,1,.69-.86,3.5,3.5,0,0,1,5.21,0,3,3,0,0,1,.61.77c.12.2.24.37-.18.37Zm7.25-3.48a3.41,3.41,0,0,0-2.52.94c-.06.06-.16,0-.16-.06v-.06a.58.58,0,0,0-.59-.59H193a.6.6,0,0,0-.61.59l0,8.22a.61.61,0,0,0,.61.61h.06a.61.61,0,0,0,.61-.61v-5.42c0-1.63.86-2.44,2.65-2.44a2.68,2.68,0,0,1,2.83,2.79v5.07a.61.61,0,0,0,.61.61h0a.61.61,0,0,0,.61-.61v-5.15c0-3-2.3-3.89-4.09-3.89Zm13.7,7.1a3.71,3.71,0,0,1-3,1.63,3.77,3.77,0,0,1,0-7.55,3.73,3.73,0,0,1,2.87,1.43c.31.39.43.26.43,0v-1.08a.53.53,0,0,0-.16-.39,5,5,0,1,0,0,7.69.48.48,0,0,0,.18-.41v-1.22c0-.33-.2-.22-.31-.06Zm4.13,4.15,5-10.59a.27.27,0,0,0-.28-.41h-.51a.8.8,0,0,0-.67.41l-2.38,5.62c-.22.47-.16.49-.39,0l-2.36-5.62a.8.8,0,0,0-.67-.41h-.51a.27.27,0,0,0-.28.41l3.11,6.62a.74.74,0,0,1,0,.84l-1.49,3.13a.27.27,0,0,0,.26.43h.51A.77.77,0,0,0,214.18,158.5Z"/><path class="cls-3" d="M122.93,110.6a1.16,1.16,0,0,0-1.15-.73,1.19,1.19,0,0,0-1.15.73l-10.71,25.54a1.18,1.18,0,0,0,.65,1.53l.08,0a1.21,1.21,0,0,0,1.57-.61l2.91-6.92a.86.86,0,0,1,.92-.61h11.43a.89.89,0,0,1,.92.5c.15.34,2.94,7,2.94,7a1.21,1.21,0,0,0,1.57.61l.08,0a1.15,1.15,0,0,0,.65-1.53L122.93,110.6Zm-6.31,16c.11-.27,3.6-9.08,4.78-11.65.31-.65.46-.65.73,0,1.07,2.57,4.59,11.15,4.78,11.54s.11.61-.42.61h-9.41c-.42,0-.57-.15-.46-.5Zm33.27,8.76H139c-.34,0-.42-.11-.42-.46V111.06a1.19,1.19,0,0,0-1.19-1.19h-.11a1.19,1.19,0,0,0-1.19,1.19v25.58a1.19,1.19,0,0,0,1.19,1.19h12.66a1.19,1.19,0,0,0,1.19-1.19v-.11a1.19,1.19,0,0,0-1.19-1.19Zm18.4,0h-12c-.34,0-.42-.11-.42-.46v-9.71c0-.34.11-.42.5-.42h9.79a1.19,1.19,0,0,0,1.19-1.19v-.08a1.19,1.19,0,0,0-1.19-1.19h-9.87c-.34,0-.42-.11-.42-.5v-9.06c0-.31.11-.42.5-.42h11.24a1.19,1.19,0,0,0,1.19-1.19v-.08a1.19,1.19,0,0,0-1.19-1.19h-13a1.16,1.16,0,0,0-1.15,1.19v25.59a1.16,1.16,0,0,0,1.15,1.19h13.77a1.19,1.19,0,0,0,1.19-1.19v-.11a1.19,1.19,0,0,0-1.19-1.19Zm26.2-25.47a1.42,1.42,0,0,0-1,.34s-8,9.61-8.57,10.34c-.88,1-.84,1.19-1.68.19l-8.72-10.53a1.33,1.33,0,0,0-1-.34,1.19,1.19,0,0,0-1.19,1.19v25.57a1.19,1.19,0,0,0,1.19,1.19h.11a1.19,1.19,0,0,0,1.19-1.19V115.38c0-.84.27-1,.73-.38,2,2.49,7.42,9.11,7.53,9.27a1.31,1.31,0,0,0,.88.34,1.23,1.23,0,0,0,.88-.34c.27-.23,5.62-6.93,7.57-9.34.42-.54.69-.54.69.46v21.25a1.19,1.19,0,0,0,1.19,1.19h.11a1.19,1.19,0,0,0,1.19-1.19V111.06a1.19,1.19,0,0,0-1.19-1.19Zm71.06.73a1.16,1.16,0,0,0-1.15-.73,1.19,1.19,0,0,0-1.15.73l-10.71,25.54a1.18,1.18,0,0,0,.65,1.53l.08,0a1.21,1.21,0,0,0,1.57-.61l2.91-6.92a.86.86,0,0,1,.92-.61H270.1a.89.89,0,0,1,.92.5c.15.34,2.94,7,2.94,7a1.21,1.21,0,0,0,1.57.61l.08,0a1.15,1.15,0,0,0,.65-1.53L265.54,110.6Zm-6.31,16c.11-.27,3.6-9.08,4.78-11.65.31-.65.46-.65.73,0,1.07,2.57,4.59,11.15,4.78,11.54s.11.61-.42.61h-9.41C259.27,127.08,259.12,126.93,259.23,126.58Z"/><path class="cls-1" d="M248.95,109.91h-.11a1.19,1.19,0,0,0-1.19,1.19v20c0,1-.19,1.34-.84.34s-14.46-21-14.46-21a1.23,1.23,0,0,0-1.53-.38,1.32,1.32,0,0,0-.73,1.11v25.51a1.19,1.19,0,0,0,1.19,1.19h.11a1.19,1.19,0,0,0,1.19-1.19v-19.7c0-1.19.34-1.34,1-.46l14.3,20.8a1.21,1.21,0,0,0,1.49.42,1.24,1.24,0,0,0,.8-1.11V111.09A1.19,1.19,0,0,0,248.95,109.91Z"/><ellipse class="cls-4" cx="164.83" cy="30.14" rx="6.51" ry="10.93" transform="translate(50.7 152.83) rotate(-57.43)"/><circle class="cls-4" cx="213.1" cy="123.67" r="14.64"/></g></g></svg>