<svg xmlns="http://www.w3.org/2000/svg" viewBox="0 0 384.6 372.19"><defs><style>.cls-1{fill:none;stroke:#fff;stroke-miterlimit:22.93;stroke-width:14.17px;}.cls-2{fill:#fff;fill-rule:evenodd;}</style></defs><title>partlogo</title><g id="Слой_2" data-name="Слой 2"><g id="_1" data-name="1"><polyline class="cls-1" points="170.41 90.71 170.56 7.09 7.71 7.09 7.71 125.66"/><path class="cls-1" d="M11.81,151c9.8,13.94,19.6,27.88,32.53,40s29,22.31,45.06,32.53c17.28-10.22,34.56-20.45,48.07-31.64s23.25-23.37,28.06-35.08,4.7-23,4.65-28.68-.06-5.93-.06-6.12"/><path class="cls-2" d="M30.76,352.56a20.65,20.65,0,0,0-1-6.73A14,14,0,0,0,27,341a11.57,11.57,0,0,0-4.17-3,13.17,13.17,0,0,0-5.15-1,13.21,13.21,0,0,0-5.15,1,11.57,11.57,0,0,0-4.17,3,14,14,0,0,0-2.76,4.87,20.65,20.65,0,0,0-1,6.73,20.33,20.33,0,0,0,1,6.73,14.17,14.17,0,0,0,2.78,4.85,11.41,11.41,0,0,0,4.17,2.94,13.24,13.24,0,0,0,5.17,1,13,13,0,0,0,5.12-1A11.47,11.47,0,0,0,27,364.14a14,14,0,0,0,2.76-4.85,20.59,20.59,0,0,0,1-6.73Zm4.59,0a24.25,24.25,0,0,1-1.24,7.9,18,18,0,0,1-3.55,6.19A16.27,16.27,0,0,1,25,370.73a17.54,17.54,0,0,1-7.28,1.46,18.2,18.2,0,0,1-7.46-1.46,15.89,15.89,0,0,1-5.57-4.07,17.86,17.86,0,0,1-3.49-6.19A24.77,24.77,0,0,1,0,352.56a24.14,24.14,0,0,1,1.25-7.94A18.43,18.43,0,0,1,4.8,338.4a16.13,16.13,0,0,1,5.56-4.06,17.66,17.66,0,0,1,7.32-1.46,18,18,0,0,1,7.41,1.46,15.94,15.94,0,0,1,5.56,4.06,18,18,0,0,1,3.49,6.22A24.93,24.93,0,0,1,35.35,352.56Z"/><path class="cls-2" d="M57.8,337.81q-1.25,7.46-2.6,12.9t-2.64,9.24a36.43,36.43,0,0,1-2.63,6.13,13.51,13.51,0,0,1-2.83,3.63A8,8,0,0,1,44,371.44a13.31,13.31,0,0,1-3.5.45c-.32,0-.63,0-.93,0a4.23,4.23,0,0,1-.77-.14v-4.49a8,8,0,0,0,1.16.09,10.1,10.1,0,0,0,1.5-.12,4.72,4.72,0,0,0,1.58-.56,7.23,7.23,0,0,0,1.66-1.37,11.86,11.86,0,0,0,1.71-2.55,32.65,32.65,0,0,0,1.72-4.09,59.69,59.69,0,0,0,1.72-6c.57-2.34,1.13-5.08,1.7-8.21s1.1-6.75,1.63-10.82H71.29v37.86H66.64V337.81Z"/><polygon class="cls-2" points="85.56 367.32 105.03 367.32 105.03 371.49 80.9 371.49 80.9 333.63 103.98 333.63 103.98 337.81 85.56 337.81 85.56 350.04 101.94 350.04 101.94 354.21 85.56 354.21 85.56 367.32"/><polygon class="cls-2" points="117.61 350.04 137.44 350.04 137.44 333.63 142.09 333.63 142.09 371.49 137.44 371.49 137.44 354.21 117.61 354.21 117.61 371.49 112.96 371.49 112.96 333.63 117.61 333.63 117.61 350.04"/><path class="cls-2" d="M178,333.63h4.66v37.86H178V354.37q0-9.39.37-14.28h-.16q-2.53,4.1-6.85,10.3l-14.91,21.1h-4.66V333.63h4.65v19.12q0,7.28-.37,12.28h.17q2.44-4,6.84-10.3Z"/><path class="cls-2" d="M230.3,333.63v5.8H210.93v8.9c1.73-.14,3.28-.2,4.66-.2a35.19,35.19,0,0,1,7.78.75,16.26,16.26,0,0,1,5.45,2.18A9.21,9.21,0,0,1,232,354.6a10.46,10.46,0,0,1,1.06,4.78,10.63,10.63,0,0,1-1.89,6.18,12.22,12.22,0,0,1-5.74,4.25,21.52,21.52,0,0,1-4.87,1.25,47.16,47.16,0,0,1-6.81.43H204V333.63Zm-19.36,32.06h3.29a33.51,33.51,0,0,0,4.7-.3,12.9,12.9,0,0,0,3.68-1,5.94,5.94,0,0,0,2.4-1.9,5,5,0,0,0,.86-3,4.45,4.45,0,0,0-2.51-4.15q-2.52-1.38-8.11-1.37c-1.35,0-2.79.08-4.32.22Z"/><path class="cls-2" d="M261.91,361.87H247.53l-3.68,9.62h-7.41l15.08-37.86h6.36l15.08,37.86h-7.36l-3.68-9.62Zm-7.25-19.13q-2,5.91-3.61,9.9l-1.29,3.43h9.9l-1.29-3.42q-1.57-4-3.61-9.91Z"/><path class="cls-2" d="M304.68,333.63v5.8H285.31v8.9c1.73-.14,3.28-.2,4.66-.2a35.19,35.19,0,0,1,7.78.75,16.26,16.26,0,0,1,5.45,2.18,9.21,9.21,0,0,1,3.21,3.54,10.47,10.47,0,0,1,1.06,4.78,10.63,10.63,0,0,1-1.89,6.18,12.21,12.21,0,0,1-5.74,4.25,21.51,21.51,0,0,1-4.87,1.25,47.16,47.16,0,0,1-6.81.43h-9.82V333.63Zm-19.36,32.06h3.3a33.52,33.52,0,0,0,4.7-.3,12.9,12.9,0,0,0,3.68-1,5.94,5.94,0,0,0,2.4-1.9,5,5,0,0,0,.86-3,4.45,4.45,0,0,0-2.51-4.15q-2.52-1.38-8.11-1.37c-1.35,0-2.79.08-4.32.22Z"/><path class="cls-2" d="M377.62,371.49V357.26a36.16,36.16,0,0,1-4.24,1,26.8,26.8,0,0,1-4.63.43,20.08,20.08,0,0,1-4.66-.48,11.29,11.29,0,0,1-3.41-1.38,8.25,8.25,0,0,1-2.32-2.19,10.89,10.89,0,0,1-1.41-2.9,15.15,15.15,0,0,1-.58-3c-.11-1.11-.15-2.33-.15-3.67v-11.4h7v11.52a25.45,25.45,0,0,0,.12,2.58,7.56,7.56,0,0,0,.43,2,4.22,4.22,0,0,0,2,2.41,8,8,0,0,0,3.76.73,22.78,22.78,0,0,0,4.21-.41,34,34,0,0,0,3.94-1v-17.8h7v37.86Z"/><path class="cls-2" d="M340.47,333.63h7.3v37.86h-7V354.06q0-3.25.34-10.49H341q-1.95,3.3-6.81,10.21l-12.4,17.71h-7.3V333.63h7v17.43q0,4.16-.34,10.46h.12q1.82-3,6.7-10Z"/><path class="cls-2" d="M0,316.83l8.15-20.06h2.12l8.18,20.06H15.79l-2.35-6H5l-2.36,6Zm9.19-17q-1.35,3.75-2.57,6.82l-.77,1.91h6.71l-.77-1.92q-1.24-3.12-2.53-6.81Z"/><path class="cls-2" d="M35.57,299a32.51,32.51,0,0,1-1,4.78,29.82,29.82,0,0,1-1.49,4.05,26.72,26.72,0,0,1-1.93,3.53c-.72,1.1-1.48,2.18-2.3,3.22v.06H40V299Zm-9.18,15.64a33.31,33.31,0,0,0,2.33-3.43,28.27,28.27,0,0,0,2-4,35.57,35.57,0,0,0,1.5-4.75,41.72,41.72,0,0,0,.94-5.66h9.3v17.85h2.42v8.85H42.39v-6.64H27.87v6.64H25.41v-8.85Z"/><path class="cls-2" d="M65.2,306.47a5.75,5.75,0,0,1,1.67.49,4.48,4.48,0,0,1,1.27.92,3.88,3.88,0,0,1,.82,1.33,5.08,5.08,0,0,1,.29,1.76,5.73,5.73,0,0,1-.21,1.47,5,5,0,0,1-.69,1.5,5.84,5.84,0,0,1-1.26,1.34,6.48,6.48,0,0,1-1.93,1,9.6,9.6,0,0,1-2,.42,25,25,0,0,1-2.59.12H55.47V296.76h4.94l1.24,0c.37,0,.71,0,1,.07s.6.07.86.11.52.1.76.15a7.28,7.28,0,0,1,1.69.7,4.89,4.89,0,0,1,1.29,1.06,4.61,4.61,0,0,1,.82,1.39,5,5,0,0,1,.29,1.7,5.58,5.58,0,0,1-.17,1.41,3.89,3.89,0,0,1-.55,1.24,4.14,4.14,0,0,1-1,1,5.49,5.49,0,0,1-1.48.75v.06Zm-3.57-1a9.62,9.62,0,0,0,1.24-.07,5.12,5.12,0,0,0,.94-.2A3,3,0,0,0,65.45,304a3.4,3.4,0,0,0,.52-1.88,2.91,2.91,0,0,0-.54-1.81,3.19,3.19,0,0,0-1.69-1,6.85,6.85,0,0,0-1.31-.24c-.5,0-1.09-.07-1.76-.07H57.93v6.48Zm-3.71,2.21v6.94h2.95a17.61,17.61,0,0,0,1.94-.1,7.65,7.65,0,0,0,1.53-.31,4.13,4.13,0,0,0,1.17-.57,3.25,3.25,0,0,0,.77-.78,2.83,2.83,0,0,0,.42-.9,3.65,3.65,0,0,0,.13-1,4.19,4.19,0,0,0-.13-1.06,2.55,2.55,0,0,0-.45-.9,2.84,2.84,0,0,0-.8-.7,4.17,4.17,0,0,0-1.25-.46,6.69,6.69,0,0,0-1-.15q-.58,0-1.43,0Z"/><path class="cls-2" d="M94.13,306.79a11,11,0,0,0-.53-3.57,7.43,7.43,0,0,0-1.46-2.58,6.11,6.11,0,0,0-2.2-1.57,7.2,7.2,0,0,0-5.43,0,6.11,6.11,0,0,0-2.2,1.57,7.42,7.42,0,0,0-1.46,2.58,11,11,0,0,0-.53,3.57,10.81,10.81,0,0,0,.54,3.56,7.52,7.52,0,0,0,1.47,2.57,6,6,0,0,0,2.2,1.56,7,7,0,0,0,2.73.53,6.83,6.83,0,0,0,2.7-.53,6.06,6.06,0,0,0,2.18-1.56,7.43,7.43,0,0,0,1.46-2.57,11,11,0,0,0,.53-3.56Zm2.42,0A12.89,12.89,0,0,1,95.9,311,9.53,9.53,0,0,1,94,314.27a8.59,8.59,0,0,1-2.93,2.16,9.23,9.23,0,0,1-3.84.77,9.58,9.58,0,0,1-3.94-.77,8.39,8.39,0,0,1-2.94-2.16A9.48,9.48,0,0,1,78.53,311a13.18,13.18,0,0,1-.64-4.19,12.84,12.84,0,0,1,.66-4.21,9.78,9.78,0,0,1,1.87-3.3,8.51,8.51,0,0,1,2.94-2.15,9.29,9.29,0,0,1,3.86-.77,9.45,9.45,0,0,1,3.91.77,8.42,8.42,0,0,1,2.94,2.15,9.55,9.55,0,0,1,1.84,3.3A13.26,13.26,0,0,1,96.56,306.79Z"/><polygon class="cls-2" points="107.2 316.83 107.2 296.76 109.66 296.76 109.66 306.68 109.69 306.68 118.89 296.76 121.35 296.76 112 306.75 121.9 316.83 119.45 316.83 109.69 307 109.66 307 109.66 316.83 107.2 316.83"/><path class="cls-2" d="M128.55,316.83l8.15-20.06h2.12L147,316.83h-2.66l-2.35-6h-8.45l-2.36,6Zm9.19-17q-1.35,3.75-2.57,6.82l-.77,1.91h6.71l-.77-1.92q-1.24-3.12-2.53-6.81Z"/><polygon class="cls-2" points="161.33 316.83 158.87 316.83 158.87 298.98 152.17 298.98 152.17 296.76 168.03 296.76 168.03 298.98 161.33 298.98 161.33 316.83"/><path class="cls-2" d="M185.81,298.54a9.2,9.2,0,0,0-3.15.53,7.06,7.06,0,0,0-2.55,1.59,7.54,7.54,0,0,0-1.7,2.63,9.86,9.86,0,0,0-.62,3.65,10.16,10.16,0,0,0,.58,3.59,6.38,6.38,0,0,0,4.19,4,10.79,10.79,0,0,0,3.33.48c.34,0,.69,0,1.06-.05s.75-.08,1.13-.14.75-.13,1.11-.22a9.3,9.3,0,0,0,1-.27v2.14a10.19,10.19,0,0,1-2.05.53,15.42,15.42,0,0,1-2.4.18,13,13,0,0,1-4.44-.7,8.73,8.73,0,0,1-3.24-2,8.43,8.43,0,0,1-2-3.19,13.61,13.61,0,0,1,0-8.58,9.59,9.59,0,0,1,2.06-3.38,9.35,9.35,0,0,1,3.25-2.2,11.18,11.18,0,0,1,4.3-.79c.42,0,.84,0,1.25.05s.8.09,1.18.15.72.14,1,.23a7.72,7.72,0,0,1,.82.28v2.15a16.49,16.49,0,0,0-2-.48A12.38,12.38,0,0,0,185.81,298.54Z"/><path class="cls-2" d="M202.79,304.78l1.12-.07.74,0,.83,0c.66,0,1.28,0,1.88.06a15.2,15.2,0,0,1,1.66.19,9.55,9.55,0,0,1,2.5.76,5.87,5.87,0,0,1,1.73,1.22,4.67,4.67,0,0,1,1,1.63,5.82,5.82,0,0,1,.33,2,6.84,6.84,0,0,1-.21,1.62,5.11,5.11,0,0,1-.74,1.64,5.73,5.73,0,0,1-1.45,1.44,7.65,7.65,0,0,1-2.29,1.07,12.79,12.79,0,0,1-2.06.39c-.79.09-1.72.14-2.77.15h-4.72V296.76h2.46v8Zm0,9.84h2.56a14.75,14.75,0,0,0,2.56-.19,7.75,7.75,0,0,0,1.81-.51,4.53,4.53,0,0,0,1.19-.73,3.2,3.2,0,0,0,.7-.88,3.08,3.08,0,0,0,.31-.91,5,5,0,0,0,.08-.85,3.6,3.6,0,0,0-.21-1.23,2.83,2.83,0,0,0-.66-1,3.81,3.81,0,0,0-1.16-.78,7.09,7.09,0,0,0-1.73-.5,10.65,10.65,0,0,0-1.31-.14c-.47,0-1,0-1.52,0l-.71,0-.72,0-1.19.1Z"/><polygon class="cls-2" points="224.84 316.83 224.84 296.76 227.3 296.76 227.3 306.68 227.33 306.68 236.53 296.76 238.99 296.76 229.64 306.75 239.54 316.83 237.09 316.83 227.33 307 227.3 307 227.3 316.83 224.84 316.83"/><polygon class="cls-2" points="252.01 314.61 262.29 314.61 262.29 316.83 249.56 316.83 249.56 296.76 261.74 296.76 261.74 298.98 252.01 298.98 252.01 305.46 260.66 305.46 260.66 307.67 252.01 307.67 252.01 314.61"/><path class="cls-2" d="M290,304.66a18.47,18.47,0,0,1,4.16.4,8.59,8.59,0,0,1,2.85,1.16,4.54,4.54,0,0,1,1.63,1.84,5.65,5.65,0,0,1,.52,2.45A6.87,6.87,0,0,1,299,312a4.88,4.88,0,0,1-.56,1.45,5.23,5.23,0,0,1-1.1,1.32,6.55,6.55,0,0,1-1.74,1.08,11.62,11.62,0,0,1-2.52.73,19.18,19.18,0,0,1-3.43.27h-4.74V296.76h13V299H287.37v5.8l.47,0,.63,0,.74,0,.78,0Zm-2.62,10h2.55a15.17,15.17,0,0,0,2.6-.19,7.92,7.92,0,0,0,1.82-.51,4,4,0,0,0,1.18-.73,3.26,3.26,0,0,0,.67-.86,2.88,2.88,0,0,0,.31-.91,6.81,6.81,0,0,0,.09-.87,3.36,3.36,0,0,0-.36-1.58,3,3,0,0,0-1.15-1.17,6.31,6.31,0,0,0-2-.72,16.12,16.12,0,0,0-3-.25l-.89,0-.59,0-.5,0-.63.07Z"/><path class="cls-2" d="M333.74,306.79a14.07,14.07,0,0,1-.58,4.09,9.73,9.73,0,0,1-1.7,3.3,8,8,0,0,1-2.76,2.21,8.36,8.36,0,0,1-3.74.8,8.77,8.77,0,0,1-3.68-.73,7.7,7.7,0,0,1-2.7-2,9.33,9.33,0,0,1-1.71-3,13.37,13.37,0,0,1-.72-3.77h-4.19v9.16h-2.46V296.76h2.46v8.69h4.24a13.05,13.05,0,0,1,.83-3.62,9.29,9.29,0,0,1,1.75-2.88,7.68,7.68,0,0,1,2.65-1.9,9.39,9.39,0,0,1,7.33.12,7.76,7.76,0,0,1,2.76,2.21,9.59,9.59,0,0,1,1.67,3.31,14.52,14.52,0,0,1,.56,4.11Zm-2.58,0a12.32,12.32,0,0,0-.46-3.53,7.9,7.9,0,0,0-1.29-2.59,5.49,5.49,0,0,0-2-1.59,6,6,0,0,0-5,0,5.55,5.55,0,0,0-2,1.59,7.9,7.9,0,0,0-1.29,2.59,13.74,13.74,0,0,0,0,7.06,7.85,7.85,0,0,0,1.29,2.58,5.58,5.58,0,0,0,2,1.58A5.84,5.84,0,0,0,325,315a5.66,5.66,0,0,0,2.47-.54,5.52,5.52,0,0,0,2-1.58,7.84,7.84,0,0,0,1.28-2.58A12.23,12.23,0,0,0,331.16,306.79Z"/><path class="cls-2" d="M346.68,316.83h-2.46V296.76h5.56a16.83,16.83,0,0,1,2.3.15,10,10,0,0,1,1.94.47,5.58,5.58,0,0,1,2.73,1.93,5.25,5.25,0,0,1,.93,3.16,5.74,5.74,0,0,1-.6,2.69,5.29,5.29,0,0,1-1.76,1.95,8.45,8.45,0,0,1-2.8,1.18,16,16,0,0,1-3.74.4c-.67,0-1.36,0-2.08-.09v8.23Zm0-10.47,1,.09,1,0a13.71,13.71,0,0,0,2.93-.27,5.73,5.73,0,0,0,2-.78,3.13,3.13,0,0,0,1.11-1.26,4,4,0,0,0,.34-1.69,3.13,3.13,0,0,0-.56-1.92,3.48,3.48,0,0,0-1.59-1.14,6.52,6.52,0,0,0-1.48-.34,16.67,16.67,0,0,0-1.94-.1h-2.83Z"/><path class="cls-2" d="M382.18,306.79a11,11,0,0,0-.53-3.57,7.43,7.43,0,0,0-1.46-2.58,6.11,6.11,0,0,0-2.2-1.57,7.2,7.2,0,0,0-5.43,0,6.11,6.11,0,0,0-2.2,1.57,7.43,7.43,0,0,0-1.46,2.58,11,11,0,0,0-.53,3.57,10.81,10.81,0,0,0,.54,3.56,7.52,7.52,0,0,0,1.47,2.57,6,6,0,0,0,2.2,1.56,7,7,0,0,0,2.73.53,6.83,6.83,0,0,0,2.7-.53,6.05,6.05,0,0,0,2.18-1.56,7.43,7.43,0,0,0,1.46-2.57,11,11,0,0,0,.53-3.56Zm2.42,0a12.88,12.88,0,0,1-.65,4.19,9.54,9.54,0,0,1-1.87,3.28,8.59,8.59,0,0,1-2.93,2.16,9.23,9.23,0,0,1-3.84.77,9.58,9.58,0,0,1-3.94-.77,8.4,8.4,0,0,1-2.94-2.16,9.47,9.47,0,0,1-1.84-3.28,13.17,13.17,0,0,1-.64-4.19,12.83,12.83,0,0,1,.66-4.21,9.78,9.78,0,0,1,1.87-3.3,8.51,8.51,0,0,1,2.94-2.15,9.29,9.29,0,0,1,3.86-.77,9.45,9.45,0,0,1,3.91.77,8.42,8.42,0,0,1,2.94,2.15,9.55,9.55,0,0,1,1.84,3.3A13.25,13.25,0,0,1,384.6,306.79Z"/><path class="cls-2" d="M194,.79v91.5c42.1,0,84.2,0,107.3.5s27.2,1.5,30.95,3.05a74.11,74.11,0,0,1,10.55,5.75,58.89,58.89,0,0,1-9.85,9.8,56.51,56.51,0,0,1-15,8c-5.1,1.7-9.6,2-30.15,2.15s-57.15.15-93.75.15v101.7c44.4-.1,88.8-.2,113.85-1.05s30.75-2.45,36.7-5.4a75.3,75.3,0,0,0,17.2-12,73.84,73.84,0,0,0,12.05-14.7,54.38,54.38,0,0,0,7.1-16A110.65,110.65,0,0,0,384,152.54a90.28,90.28,0,0,0-1-19,65.74,65.74,0,0,0-3.65-13.25,80.94,80.94,0,0,0-4-8.45l-11.4,14.4c2.1,6.8,4.2,13.6,4.85,20.65a54.06,54.06,0,0,1-2.25,21,62.59,62.59,0,0,1-9.5,18.1A51.78,51.78,0,0,1,342,200.29c-6.6,4-15.2,7.1-37.55,8.3s-58.45.5-94.55-.2v-72.6c35.3,1.2,70.6,2.4,93.25.4s32.65-7.2,39.3-11.85a46.8,46.8,0,0,0,13.1-13.4,68.7,68.7,0,0,0,8.55-16.85,89.27,89.27,0,0,0,4.55-23.95,60.69,60.69,0,0,0-3.5-23.45,63.82,63.82,0,0,0-13.45-22.55c-6.3-6.65-14.5-11.85-21.9-15.4a71.8,71.8,0,0,0-20.4-6.45c-6.4-1-12.6-1.1-25.75-1s-33.25.25-49.35.2-28.2-.35-40.3-.65Zm13.8,13.8c31.4.2,62.8.4,81.05.9s23.35,1.3,28.15,3.1a49.8,49.8,0,0,1,13.75,8.2,51.61,51.61,0,0,1,12.1,13.45,57.43,57.43,0,0,1,6.55,18.1,53.07,53.07,0,0,1,.85,16.8,49.32,49.32,0,0,1-3.85,12.65,94.08,94.08,0,0,0-11.12-6.45,51.62,51.62,0,0,0-10.5-3.3c-3.37-.75-6.63-1.35-26.1-1.65s-55.18-.3-90.88-.3Z"/></g></g></svg>