<svg xmlns="http://www.w3.org/2000/svg" xmlns:xlink="http://www.w3.org/1999/xlink" viewBox="0 0 35 40"><defs><style>.cls-1{fill:url(#Безымянный_градиент_20);}</style><linearGradient id="Безымянный_градиент_20" x1="-148.86" y1="-93.64" x2="-108.86" y2="-93.64" gradientTransform="translate(-76.14 148.86) rotate(90)" gradientUnits="userSpaceOnUse"><stop offset="0" stop-color="#f7c4cd"/><stop offset="0.25" stop-color="#eec9d4"/><stop offset="0.66" stop-color="#d4d7e7"/><stop offset="1" stop-color="#bae6fa"/></linearGradient></defs><title>titlea</title><g id="Слой_2" data-name="Слой 2"><g id="Слой_1-2" data-name="Слой 1"><path class="cls-1" d="M33.3,25.44a1.41,1.41,0,0,0,.55-1.61,2.56,2.56,0,0,0-1.18-1.36A4.15,4.15,0,0,0,31.25,22l-.23,0s0,0,0,0c.17.22,0,.47-.47.54a1.93,1.93,0,0,1-1.3-.2.57.57,0,0,1-.28-.78,1.63,1.63,0,0,1,1.36-.8,4.22,4.22,0,0,1,2.39.29A3.42,3.42,0,0,1,35,23.52a2,2,0,0,1-.22,1.3c-.59,1-1.79,1.62-3.53,1.75A8,8,0,0,1,27.6,26l-.39-.16.07.13a6.8,6.8,0,0,1,1,3.15A2.25,2.25,0,0,1,28,30.44a2.42,2.42,0,0,1-1.59,1c-.8.2-1,1-.38,1.35a.92.92,0,0,0,.23.09c.33.08.51,0,.49-.22s0-.19-.05-.28c0-.25.26-.41.64-.35s.71.37.62.66-.77.66-1.43.62a1.49,1.49,0,0,1-.94-.35.87.87,0,0,1-.23-1.26l0-.07-.18,0a5.83,5.83,0,0,0-3.16,1.65.82.82,0,0,0-.27.8c.13.44.87.63,1.43.35a.93.93,0,0,1,.29-.65,1,1,0,0,1,.22-.18.62.62,0,0,1,.76.09.61.61,0,0,1-.11.89,1.07,1.07,0,0,1-.53.23,4.33,4.33,0,0,1-1.39,0c-.72-.11-1.16-.48-1.19-1a1.19,1.19,0,0,1,.33-.84A5.61,5.61,0,0,1,24,31.57l.16-.06,0,0c-2.34-.61-3-1.79-2.74-3.25l-.07.06-.07.09A11.24,11.24,0,0,1,17,31.62a12.81,12.81,0,0,1-4.21,1,12.64,12.64,0,0,1-5.66-.81,8.5,8.5,0,0,1-3.55-2.5c-.22-.26-.39-.54-.6-.81s-.36-.42-.54-.64h0v8.94h0l.1-.17a8.35,8.35,0,0,1,2.06-2.45,6.31,6.31,0,0,1,1.8-1,5,5,0,0,1,1.44-.32,2.66,2.66,0,0,1,1.87.5,2.17,2.17,0,0,1,.84,1.31,2.77,2.77,0,0,1-.9,2.46,1.82,1.82,0,0,1-.69.46,1.72,1.72,0,0,1-2-.4c-.23-.36.07-.67.69-.69l.54,0a1.23,1.23,0,0,0,.74-.21,2.22,2.22,0,0,0,.84-1,1.51,1.51,0,0,0-.07-1.42,1.61,1.61,0,0,0-1.33-.75,3.35,3.35,0,0,0-1.23.12,4.73,4.73,0,0,0-1.8.94,6,6,0,0,0-1.4,1.71c-.17.29-.32.58-.47.87l0,0,.14-.12a11.42,11.42,0,0,1,2.75-1.79A5.48,5.48,0,0,1,7,34.64a1.13,1.13,0,0,1,.91,0c.29.15.36.36.26.58a.78.78,0,0,1-.7.39,1,1,0,0,1-.69-.16l-.15-.12-.36.1a5.64,5.64,0,0,0-1.57.85,6.43,6.43,0,0,0-1.78,2,2,2,0,0,0-.21,1.09.87.87,0,0,1-.08.34C2.53,40,2.32,40,2,40s-.33-.12-.34-.29a4.75,4.75,0,0,1,0-.78,26.59,26.59,0,0,0,.1-3.46c0-2.72,0-5.44,0-8.16a2,2,0,0,0-.09-.53A1,1,0,0,1,1.73,26a.35.35,0,0,0,0-.17c0-1.15,0-2.3,0-3.45a9.5,9.5,0,0,0-.14-1,3.58,3.58,0,0,1,0-1.2.56.56,0,0,0,0-.24,4.34,4.34,0,0,1,0-1.83,2.8,2.8,0,0,0,.06-.51q0-1.68,0-3.37A.61.61,0,0,0,1.7,14a1,1,0,0,1,0-.81.91.91,0,0,0,.06-.29q0-4.62,0-9.24c0-.58,0-1.16,0-1.75,0-.15,0-.3,0-.45,0-.36,0-.73,0-1.09C1.7.13,1.83,0,2,0s.5,0,.57.22a.87.87,0,0,1,.08.33A2.2,2.2,0,0,0,3,1.92,6.89,6.89,0,0,0,4.9,3.82a5.53,5.53,0,0,0,1.34.69l.35.1.14-.1a1,1,0,0,1,.68-.17.82.82,0,0,1,.71.38.43.43,0,0,1-.26.59,1.1,1.1,0,0,1-.91,0,10.93,10.93,0,0,1-1.12-.5A10.8,10.8,0,0,1,3.59,3.3l-.12-.1s0,.05,0,.07A9.08,9.08,0,0,0,4.64,5.14a5.08,5.08,0,0,0,1.46,1.2,4.35,4.35,0,0,0,1.62.53A2.06,2.06,0,0,0,9.5,6.36a1.35,1.35,0,0,0,.36-.7,1.85,1.85,0,0,0-.65-1.72,2.59,2.59,0,0,0-.31-.24,1.2,1.2,0,0,0-.72-.2l-.59,0c-.55,0-.84-.31-.67-.64a1.63,1.63,0,0,1,1.92-.48,1.67,1.67,0,0,1,.56.3c1.09,1,1.51,2.11.85,3.31a2.11,2.11,0,0,1-.67.72,2.93,2.93,0,0,1-2.17.38,5.41,5.41,0,0,1-1.6-.51,7.14,7.14,0,0,1-2-1.47A8.51,8.51,0,0,1,2.5,3.32l-.09-.15-.05,0v8.95a3.29,3.29,0,0,0,.59-.62A7.77,7.77,0,0,1,4.49,9.7a10.19,10.19,0,0,1,5-2.2,13.22,13.22,0,0,1,6.25.43,12.15,12.15,0,0,1,4,2.14,9.09,9.09,0,0,1,1.59,1.6l.11.13c0-.14,0-.25-.06-.36a2.18,2.18,0,0,1,.43-1.58A3.65,3.65,0,0,1,24,8.56l.19-.05L24,8.44a6,6,0,0,1-2.25-1.35,1.37,1.37,0,0,1-.48-1c0-.6.59-1,1.54-1a5.69,5.69,0,0,1,1,.05c.45.06.73.25.8.53a1.13,1.13,0,0,1,0,.5c0,.14-.18.23-.4.26a.65.65,0,0,1-.53-.15,1,1,0,0,1-.38-.61l0-.14a1.2,1.2,0,0,0-1.3.12.53.53,0,0,0-.11.63,1.55,1.55,0,0,0,.28.43A5.81,5.81,0,0,0,25.2,8.32l.2,0a2.13,2.13,0,0,1-.18-.42,1,1,0,0,1,.6-1.06,1.86,1.86,0,0,1,2,.22c.22.25.15.55-.17.74a.93.93,0,0,1-.51.12c-.3,0-.49-.15-.46-.35s0-.23.06-.35-.11-.21-.34-.19a.86.86,0,0,0-.5.2c-.42.35-.29.93.26,1.19l.18.06a2.23,2.23,0,0,1,1.82,1.41,3.09,3.09,0,0,1,.07,1.46,7.14,7.14,0,0,1-1,2.71.42.42,0,0,0,0,.07l.24-.1a8.22,8.22,0,0,1,3.3-.66c1.88,0,3.37.67,4,1.74a2,2,0,0,1,.26,1c0,1.14-.74,2.07-2.18,2.77a4.33,4.33,0,0,1-2.32.37,2.24,2.24,0,0,1-1.29-.48,1,1,0,0,1-.25-.3c-.32-.63.34-1.14,1.45-1.05.51,0,.72.26.58.59a2.1,2.1,0,0,0,.26,0c.25-.06.5-.11.73-.19,1.13-.36,2.35-1.54,1.81-2.69a1.56,1.56,0,0,0-.49-.6h0a.86.86,0,0,0,0,.16,1.05,1.05,0,0,1,0,.94,2.3,2.3,0,0,1-2,1.06,1.57,1.57,0,0,1-1.21-.28.4.4,0,0,1-.13-.58.84.84,0,0,1,.67-.32,1,1,0,0,1,.94.38c.05.08.09.17.13.25a.67.67,0,0,0,.4,0,1.22,1.22,0,0,0,.7-.34.87.87,0,0,0,0-1.27,3.17,3.17,0,0,0-.35-.35A1.29,1.29,0,0,0,32,14a6.37,6.37,0,0,0-3.17.06,6.82,6.82,0,0,0-1.21.44l.19.06a2.84,2.84,0,0,1,.9.45.63.63,0,0,1,.23.88c-.07.12-.18.23-.26.35a3.59,3.59,0,0,0-.25.38.8.8,0,0,1-.82.29c-.34-.05-.56-.27-.49-.49A.71.71,0,0,1,27.9,16l.19,0c.52-.26.56-.69.1-1a2.66,2.66,0,0,0-1.08-.37,9,9,0,0,0-3.32,3.19l.17-.1a4.82,4.82,0,0,1,1.7-.63c1.52-.23,2.33.4,2.55,1a.57.57,0,0,1,0,.48,1.48,1.48,0,0,1-1.76.39c-.49-.21-.6-.65-.24-.94a.8.8,0,0,1,.6-.14c.09-.17,0-.34-.29-.44a1.9,1.9,0,0,0-.9-.06,2.61,2.61,0,0,0-1,.36,3.81,3.81,0,0,0-.48.34,4.88,4.88,0,0,0-1.34,1.69.32.32,0,0,0,0,.26,4.91,4.91,0,0,0,1.34,1.69,3.18,3.18,0,0,0,1,.59,2.47,2.47,0,0,0,1,.13c.42,0,.71-.21.69-.44a.29.29,0,0,0,0-.08c-.44,0-.66-.09-.78-.36s0-.58.44-.74a1.74,1.74,0,0,1,1.4.09.63.63,0,0,1,.35.81,2.21,2.21,0,0,1-2.53,1,4.84,4.84,0,0,1-1.62-.57,2.8,2.8,0,0,0-.28-.14,9.37,9.37,0,0,0,3.3,3.18l.36-.07a2.51,2.51,0,0,0,.79-.32c.32-.21.38-.41.18-.67a3.42,3.42,0,0,0-.26-.28l-.22,0c-.39,0-.72-.09-.8-.33s.15-.44.49-.49a.79.79,0,0,1,.83.31,2.25,2.25,0,0,0,.21.32c.09.12.21.24.28.37.2.33.11.63-.24.91a2.78,2.78,0,0,1-.84.42l-.2.07s0,0,0,0a7,7,0,0,0,2.94.64A5.3,5.3,0,0,0,32.16,26a1.18,1.18,0,0,0,.34-.16,1.32,1.32,0,0,0,.69-1.12.93.93,0,0,0-.5-.74,1.19,1.19,0,0,0-.88-.17l-.1.2a.81.81,0,0,1-.62.42c-.62.13-1.2-.21-1.08-.61a1.06,1.06,0,0,1,1-.54,1.94,1.94,0,0,1,.43,0c1.09.15,1.89.57,2,1.33a1.18,1.18,0,0,1-.12.73.44.44,0,0,0,0,.11h0Zm-29-15-.08,0,0,0,0-.05.28-.16a11.71,11.71,0,0,1,3.7-1.54A10,10,0,0,1,12,8.54c1.87.28,3.21,1,3.88,2.12A1.31,1.31,0,0,1,16,12a.27.27,0,0,0,0,.24,2.08,2.08,0,0,0,1.15,1,2.66,2.66,0,0,0,.48.15,1.74,1.74,0,0,0,.78,0c.18,0,.31-.11.33-.24a.5.5,0,0,1,.07-.16,1.09,1.09,0,0,1,1.2-.36c.47.13.67.48.42.79a1.14,1.14,0,0,1-.69.37c-.34.07-.68.13-1,.17a3.51,3.51,0,0,1-1.35-.09,3,3,0,0,1-1.88-1.22l-.09-.13c-.18.07-.34.15-.51.2a4,4,0,0,1-2.39.09,3.33,3.33,0,0,1-1.7-1.12.47.47,0,0,1,0-.58,1.26,1.26,0,0,1,1.56-.24,1.22,1.22,0,0,1,.48.43.36.36,0,0,0,.09.11A2.82,2.82,0,0,0,14,12a1.07,1.07,0,0,0,1.21-.37.89.89,0,0,0,.1-.37,1.42,1.42,0,0,0-.53-1.13,6,6,0,0,0-4.44-1.3,10,10,0,0,0-2.93.59A9.9,9.9,0,0,0,3.29,12a3.19,3.19,0,0,0-.93,2c0,.71,0,1.42,0,2.13l0,0L2.46,16a8,8,0,0,1,1.22-1.77,5.68,5.68,0,0,1,1.22-1,4.69,4.69,0,0,1,1.84-.66,3,3,0,0,1,2.39.52l.46.4a.39.39,0,0,1,.08.12,2.84,2.84,0,0,0,2.25,1.19,1.44,1.44,0,0,0,.72-.08c.12,0,.22-.11.15-.21s-.39-.08-.57-.13c-.39-.11-.52-.35-.34-.59a1.26,1.26,0,0,1,1.58-.1c.58.44.28,1.12-.58,1.31a3.17,3.17,0,0,1-1,0,4.9,4.9,0,0,1-1.78-.59l-.13-.07a7.32,7.32,0,0,1-.07.88c0,.22-.19.44-.24.66a1.08,1.08,0,0,1-.37.51A4.71,4.71,0,0,0,7.91,18.3a.67.67,0,0,0,0,.55.84.84,0,0,0,.78.36A.36.36,0,0,0,9,19.1l-.32-.17c-.31-.19-.3-.49,0-.66a1.06,1.06,0,0,1,1.05.05.48.48,0,0,1,.22.36c0,.36-.42.71-1,.79A1.6,1.6,0,0,1,7.48,19a.85.85,0,0,1-.11-.77,4.23,4.23,0,0,1,1-1.58l.12-.13-.13,0c-.59-.15-.72-.58-.25-.85a1.94,1.94,0,0,1,.36-.15,1,1,0,0,0,.45-.27,1.1,1.1,0,0,0,.27-1h0l-.07.11a2.78,2.78,0,0,1-1.16.94,3.25,3.25,0,0,1-1.24.32c-.87,0-1.5-.41-1.27-.94a1.52,1.52,0,0,1,1.08-.71,1.13,1.13,0,0,1,1.25.35c.18.34-.12.71-.65.8a1.14,1.14,0,0,1-.93-.22l-.11-.09c-.11.29.07.47.51.5h.27c1.11,0,2.3-.83,2-1.66-.12-.36-.44-.56-1-.66a3,3,0,0,0-1.47.12,3.72,3.72,0,0,0-1.17.61,5.09,5.09,0,0,0-1.09,1.16A10.94,10.94,0,0,0,2.73,17.7c-.07.21-.12.42-.18.63a.55.55,0,0,0,.18-.14,5.78,5.78,0,0,1,1.46-1.11,3.24,3.24,0,0,1,1.39-.38A1.65,1.65,0,0,1,7,17.21a.7.7,0,0,1,0,.85,1,1,0,0,1-.6.39c-.58.16-1.22,0-1.34-.41s.13-.62.64-.65l0,0c0-.11-.06-.16-.19-.19a1.4,1.4,0,0,0-.76,0,2.57,2.57,0,0,0-.84.44A5,5,0,0,0,2.79,19s0,0,0,.05l.29-.14a2.41,2.41,0,0,1,1.29-.22,1.44,1.44,0,0,1,1.13.54c.11.18.07.36-.15.5a.94.94,0,0,1-.92,0,.31.31,0,0,1,0-.56l.14-.1a2.71,2.71,0,0,0-.29-.13.86.86,0,0,0-.48,0,1.82,1.82,0,0,0-1.3.94.29.29,0,0,0,0,.24A1.8,1.8,0,0,0,3.63,21a2,2,0,0,0,.38.08.53.53,0,0,0,.5-.18l-.13-.09a.29.29,0,0,1,0-.49.9.9,0,0,1,.75-.14c.3.07.48.26.44.46a.68.68,0,0,1-.39.45,2.33,2.33,0,0,1-1.73.14c-.22-.07-.43-.17-.66-.26a.44.44,0,0,0,0,.07,4.58,4.58,0,0,0,.85,1,6.48,6.48,0,0,0,.75.54,1.74,1.74,0,0,0,.73.24,1.08,1.08,0,0,0,.5,0c.11,0,.18-.1.12-.19a.76.76,0,0,1-.55-.16c-.37-.34-.06-.85.58-.94a1.4,1.4,0,0,1,1.12.29.71.71,0,0,1,.24.64c-.05.43-.47.75-1.09.84a2.71,2.71,0,0,1-.91,0A3.55,3.55,0,0,1,4,22.78a6,6,0,0,1-1.23-1l-.13-.13a.06.06,0,0,0,0,.06,8.79,8.79,0,0,0,.68,1.87,9.16,9.16,0,0,0,1.33,2.09,4.4,4.4,0,0,0,1,.88,3.69,3.69,0,0,0,1.33.49,2.57,2.57,0,0,0,.87,0c.92-.16,1.15-.51,1.07-1S8.15,25,7.17,24.77a2.49,2.49,0,0,0-.65,0c-.42,0-.61.24-.45.49l.1-.09a1,1,0,0,1,.72-.22,1,1,0,0,1,.81.35.43.43,0,0,1-.13.65,1.13,1.13,0,0,1-.93.2,1.56,1.56,0,0,1-1.24-.76c-.19-.45.25-.86,1-.92a2.76,2.76,0,0,1,.63,0,3.18,3.18,0,0,1,1.65.77,7.25,7.25,0,0,1,.54.59,3.5,3.5,0,0,0-.05-.59,1,1,0,0,0-.83-.74.93.93,0,0,1-.3-.15c-.37-.27-.22-.66.31-.8l.15,0-.08-.09a5.34,5.34,0,0,1-.83-1.09,1.49,1.49,0,0,1-.26-.94.87.87,0,0,1,.46-.65,1.78,1.78,0,0,1,1.29-.2,1,1,0,0,1,.86.64.41.41,0,0,1-.15.45,1,1,0,0,1-.74.2.64.64,0,0,1-.55-.3c-.09-.19,0-.35.23-.49L8.89,21,9,20.91a.63.63,0,0,0-.55-.11c-.37.08-.57.25-.59.49a1.16,1.16,0,0,0,.07.55,5,5,0,0,0,1.41,1.87,1.08,1.08,0,0,1,.22.28c.05.09.07.19.12.29a2.21,2.21,0,0,1,.21,1.28,1.1,1.1,0,0,0,0,.12l.2-.1a5.06,5.06,0,0,1,1.5-.54,3.27,3.27,0,0,1,1.31,0c.83.19,1.11.89.52,1.31a1.24,1.24,0,0,1-.62.21,1,1,0,0,1-1-.39c-.11-.22,0-.41.34-.51.14,0,.29-.07.44-.1l.18,0c0-.13,0-.17-.17-.22a1.63,1.63,0,0,0-.72-.07,4,4,0,0,0-1.7.61,1.3,1.3,0,0,0-.5.53.61.61,0,0,1-.12.18c-.11.11-.25.21-.37.32A2.82,2.82,0,0,1,7,27.49a4.67,4.67,0,0,1-2.07-.68,5.66,5.66,0,0,1-1.28-1.08A8.08,8.08,0,0,1,2.46,24l-.07-.12a.08.08,0,0,0,0,.07c0,.67,0,1.33,0,2a2.66,2.66,0,0,0,.52,1.52,8.54,8.54,0,0,0,3.37,2.68,10.85,10.85,0,0,0,4,1.06,7.13,7.13,0,0,0,3.45-.58,2.56,2.56,0,0,0,1.55-1.51.84.84,0,0,0-.11-.77,1,1,0,0,0-.79-.34,2.58,2.58,0,0,0-1.55.63h0a3.65,3.65,0,0,1-.42.4,1.28,1.28,0,0,1-1,.16c-.41-.1-.61-.3-.65-.57a.61.61,0,0,1,.21-.5,3.92,3.92,0,0,1,1.23-.86A3,3,0,0,1,13.21,27a4.31,4.31,0,0,1,2,.33l.21.09a2.18,2.18,0,0,1,.63-.74,4.2,4.2,0,0,1,3.86-.49.78.78,0,0,1,.62.51c.07.26-.16.52-.54.61a1.17,1.17,0,0,1-1.05-.21.54.54,0,0,1-.17-.27c0-.19-.19-.28-.54-.32a2,2,0,0,0-.93.13A2.12,2.12,0,0,0,16,27.76.3.3,0,0,0,16,28a1.09,1.09,0,0,1,.08.87c-.37,1.16-1.46,2-3.19,2.41a9.36,9.36,0,0,1-4.12.07,11.8,11.8,0,0,1-4.24-1.65l-.28-.16,0-.05h0l.05,0a.41.41,0,0,0,.06.09,8.63,8.63,0,0,0,3.05,1.94,12,12,0,0,0,5,.77,11.75,11.75,0,0,0,4.17-1,10.12,10.12,0,0,0,4-3,3.75,3.75,0,0,0,.83-1.73,2.72,2.72,0,0,0-1.06-2.59,4.38,4.38,0,0,0-2.18-1,3.86,3.86,0,0,0-1.34,0c-.49.09-.75.28-.78.6a1.27,1.27,0,0,0,.06.44c0,.16.18.26.46.29s.57.15.64.37-.07.4-.34.53a1.84,1.84,0,0,1-1,.14,1.62,1.62,0,0,1-1.18-.63,1.35,1.35,0,0,1-.19-1.22,1.57,1.57,0,0,1,.85-.95l.07,0a.21.21,0,0,0,0,0,.28.28,0,0,0,0-.06,2.49,2.49,0,0,0-1.78-1.62,3.4,3.4,0,0,0-1.75-.14,1.24,1.24,0,0,0-.65.28c-.14.14-.14.28,0,.38s.49,0,.72,0c.47,0,.8.26.84.53s-.21.54-.65.65a1.57,1.57,0,0,1-1.49-.34,1.22,1.22,0,0,1-.2-.35c-.27-.71.29-1.3,1.41-1.49a4.27,4.27,0,0,1,1.9.08,3,3,0,0,1,2.23,1.76l.05.14.26-.06-.08-.14a.66.66,0,0,1-.09-.47,2.08,2.08,0,0,1,1.41-1.26,2.92,2.92,0,0,1,1.41-.16,3.76,3.76,0,0,1,1.36.42c.27.14.51.31.76.47s.44.49.25.75a1.32,1.32,0,0,1-1.11.39,1,1,0,0,1-.91-.51c-.08-.27.15-.53.57-.66l.19-.06a2,2,0,0,0-1.58-.53,2.19,2.19,0,0,0-1.81,1,.65.65,0,0,0,.09.66,6.15,6.15,0,0,1,4.63,1.52.29.29,0,0,0,0-.12,8.78,8.78,0,0,1,.55-3.62.31.31,0,0,0,0-.19c-.07-.25-.17-.5-.24-.75a8.56,8.56,0,0,1-.3-2.81c0-.05,0-.11,0-.16h0a5,5,0,0,1-1.95,1.17,6.84,6.84,0,0,1-2.65.34.66.66,0,0,0-.13.53c.16.57.7.93,1.55,1.12A2.23,2.23,0,0,0,19.84,19l.1-.11-.24-.07c-.39-.12-.6-.38-.53-.63a.87.87,0,0,1,.8-.51,1.44,1.44,0,0,1,1.17.32.45.45,0,0,1-.09.74,8.28,8.28,0,0,1-.88.55,4.3,4.3,0,0,1-.8.31,3.09,3.09,0,0,1-2-.07,2.57,2.57,0,0,1-1.23-.88.74.74,0,0,1,0-.91l0-.08-.27-.05,0,.12A2.85,2.85,0,0,1,14,19.36a4.32,4.32,0,0,1-2.33.17,1.65,1.65,0,0,1-1.33-.82.93.93,0,0,1,.22-1,1.63,1.63,0,0,1,1.63-.27c.36.13.54.37.48.63a.8.8,0,0,1-.75.49,4.71,4.71,0,0,1-.6,0l-.19,0a.27.27,0,0,0,0,.43,1.3,1.3,0,0,0,.65.26,3.48,3.48,0,0,0,1.8-.17,2.71,2.71,0,0,0,1.6-1.31,2.59,2.59,0,0,0,.12-.37c-.69-.43-.92-.71-1-1.24a1.31,1.31,0,0,1,.34-1.1,1.67,1.67,0,0,1,1.08-.51,1.7,1.7,0,0,1,1.2.23c.41.29.22.69-.36.8l-.18,0a.37.37,0,0,0-.32.17.79.79,0,0,0-.12.53c0,.32.3.51.79.6a3.61,3.61,0,0,0,1.12,0,4.42,4.42,0,0,0,2.48-1.06,2.68,2.68,0,0,0,1-2.54A4.46,4.46,0,0,0,20,11a10.51,10.51,0,0,0-3.92-2.6,12.12,12.12,0,0,0-7-.55A9.25,9.25,0,0,0,4.3,10.38.2.2,0,0,0,4.27,10.44Zm17.65,17,.15-.12a2.2,2.2,0,0,1,.68-.39,2.65,2.65,0,0,1,2,.1.86.86,0,0,1,.47,1.23.79.79,0,0,1-.27.26c-.4.24-1,.1-1-.19s-.22-.24-.44-.3a.89.89,0,0,0-.42.47c-.42,1,.41,2,1.89,2.32a2.18,2.18,0,0,0,2.53-.76L27.6,30a2.67,2.67,0,0,0,.15-1.45,6.67,6.67,0,0,0-.66-2.13c-.1-.2-.21-.4-.32-.6a1.86,1.86,0,0,1-.87.63,2.46,2.46,0,0,1-1.4.15,5.58,5.58,0,0,1-1.42-.48.61.61,0,0,1-.36-.4c-.08-.33.3-.64.82-.67s1,.22,1,.56a1.8,1.8,0,0,1-.05.25.21.21,0,0,0,0,.17,1.14,1.14,0,0,0,1,.21,1.46,1.46,0,0,0,.79-.42c.17-.19.1-.4-.12-.55-.4-.28-.81-.56-1.16-.87a11.43,11.43,0,0,1-2.54-3.14l-.1-.16,0,.14A10.85,10.85,0,0,0,22,24.51a5.69,5.69,0,0,0,.12.87,2.86,2.86,0,0,1,0,1.24C22.11,26.91,22,27.19,21.92,27.49Zm4.82-13.28.06-.08.17-.31a6.07,6.07,0,0,0,.8-3.09,1.77,1.77,0,0,0-.37-1,2.12,2.12,0,0,0-1.95-.61c-1.3.15-2.35.91-2.42,1.76a1.18,1.18,0,0,0,.23.86.53.53,0,0,0,.31.23c.23-.07.38-.16.44-.32s.44-.35.8-.24a.65.65,0,0,1,.43.31,1.2,1.2,0,0,1,.12.44c0,.55-.6,1-1.47,1.06a2.49,2.49,0,0,1-1.76-.48l-.21-.17a.33.33,0,0,0,0,.16,2.93,2.93,0,0,1,.21,1.76A6,6,0,0,0,22,15a11.39,11.39,0,0,0,.14,3.16c0,.22.1.45.15.67a.27.27,0,0,0,.11-.11c.19-.31.37-.62.57-.92a10.63,10.63,0,0,1,3.24-3.17.19.19,0,0,0,.09-.09.37.37,0,0,0-.12-.43,2.68,2.68,0,0,0-.56-.32,1.18,1.18,0,0,0-1,.08c-.14.08-.21.16-.13.27a.31.31,0,0,1,0,.15c0,.24-.12.43-.45.55a1.29,1.29,0,0,1-1,0c-.32-.14-.45-.34-.4-.58a.67.67,0,0,1,.46-.45c.34-.14.69-.27,1.06-.37a2.48,2.48,0,0,1,1.69.11A1.52,1.52,0,0,1,26.75,14.21ZM0,20q0,.62,0,1.25c0,5.32,0,10.63,0,15.95a12.19,12.19,0,0,0,0,2.27.23.23,0,0,0,.26.2c.15,0,.25-.07.25-.2s0-.11,0-.17a3.87,3.87,0,0,0,.07-.52c0-.73-.05-1.46-.06-2.19q0-7.09,0-14.17,0-8.53,0-17.07c0-1.24,0-2.49.05-3.73A6.36,6.36,0,0,0,.61.52C.6.42.5.35.36.35S.12.42.11.52A2.9,2.9,0,0,0,.05.9c0,.26,0,.53,0,.79,0,.67,0,1.34,0,2q0,4.12,0,8.24t0,8ZM13.3,6.76c.47,0,.85-.23.85-.52s-.38-.52-.83-.52-.83.23-.84.52S12.84,6.75,13.3,6.76Zm0,27.53c.45,0,.84-.23.85-.51s-.36-.53-.83-.53-.83.23-.83.52S12.84,34.28,13.3,34.29Zm7.28-26.2c-.42,0-.76.21-.76.47s.34.49.77.49.75-.21.75-.48S21,8.09,20.58,8.09Zm.75,23.35c0-.27-.33-.48-.74-.49s-.77.22-.77.49.34.48.76.48S21.34,31.7,21.34,31.44ZM15.95,7.08c.25-.08.4-.21.4-.4s-.16-.3-.41-.38a2,2,0,0,0-.41-.08.83.83,0,0,0-.64.18.3.3,0,0,0,0,.44,1,1,0,0,0,.78.29A2.58,2.58,0,0,0,15.95,7.08Zm-.47,26.7c.48,0,.87-.22.87-.47s-.36-.45-.78-.45-.81.23-.8.49S15.08,33.78,15.48,33.78ZM4.74,7.08c0-.29-.37-.53-.79-.53s-.66.2-.66.43.38.48.84.47S4.74,7.31,4.74,7.08ZM4.12,32.54c-.47,0-.84.21-.84.48s.3.43.67.43.79-.24.79-.53S4.49,32.54,4.12,32.54Zm0-24.71c-.34,0-.59.17-.59.38s.29.39.64.39.6-.17.59-.38S4.43,7.82,4.08,7.83Zm0,24.35c.35,0,.63-.18.63-.4s-.27-.38-.6-.38-.63.18-.63.4S3.76,32.17,4.09,32.17ZM18.5,7.88c.32,0,.58-.17.58-.38s-.27-.38-.6-.37-.6.17-.59.38S18.17,7.89,18.5,7.88Zm.58,24.6c0-.2-.28-.37-.6-.36s-.6.17-.6.38.28.38.61.37S19.09,32.69,19.08,32.48Zm-3.37-12c.42,0,.74-.21.74-.49s-.33-.48-.75-.48S15,19.72,15,20,15.29,20.48,15.71,20.48ZM7.09,10.56c-.4,0-.73.21-.73.46s.31.44.7.44.72-.21.72-.47S7.48,10.56,7.09,10.56ZM7.78,29c0-.26-.34-.46-.73-.46s-.7.2-.69.45.34.46.75.45S7.79,29.24,7.78,29Zm-1.54-.82c0-.22-.27-.41-.63-.41s-.65.18-.66.4.27.41.63.41S6.24,28.41,6.25,28.18Zm0-16.36c0-.22-.29-.41-.64-.41S5,11.6,5,11.82s.29.41.64.41S6.25,12.05,6.25,11.83ZM17,9.7c-.33,0-.59.16-.6.36s.25.38.59.39.61-.16.62-.37S17.37,9.7,17,9.7Zm-.6,20.22c0,.21.26.38.59.38s.59-.16.61-.36-.25-.38-.58-.39S16.44,29.71,16.44,29.92ZM8.85,29.5c-.33,0-.61.16-.61.37s.26.37.59.37.59-.16.59-.36S9.17,29.5,8.85,29.5Zm.57-19.36c0-.21-.24-.38-.57-.38s-.61.16-.61.37.26.37.58.37S9.41,10.34,9.42,10.14ZM4.17,27.67c.32,0,.59-.17.59-.39s-.25-.36-.56-.37-.6.17-.6.38S3.85,27.67,4.17,27.67Zm0-14.59c.31,0,.56-.17.56-.37s-.27-.39-.59-.38-.58.17-.58.38S3.87,13.08,4.2,13.08Zm14,15.28c-.31,0-.56.16-.56.35s.27.36.6.36.55-.16.55-.35S18.48,28.35,18.15,28.36Zm0-17.43c-.33,0-.59.17-.59.37s.25.35.57.35.59-.16.58-.37S18.5,10.92,18.18,10.92Z"/></g></g></svg>