<?xml version="1.0" encoding="iso-8859-1"?>
<!-- Generator: Adobe Illustrator 19.0.0, SVG Export Plug-In . SVG Version: 6.00 Build 0)  -->
<svg version="1.1" id="Capa_1" xmlns="http://www.w3.org/2000/svg" xmlns:xlink="http://www.w3.org/1999/xlink" x="0px" y="0px"
	 viewBox="0 0 499.312 499.312" style="enable-background:new 0 0 499.312 499.312;" xml:space="preserve">
<g>
	<g>
		<g>
			<path d="M249.656,216c30.88,0,56-25.128,56-56s-25.12-56-56-56s-56,25.128-56,56S218.776,216,249.656,216z M249.656,120
				c22.056,0,40,17.944,40,40c0,22.056-17.944,40-40,40c-22.056,0-40-17.944-40-40C209.656,137.944,227.6,120,249.656,120z"/>
			<rect x="193.656" width="16" height="56"/>
			<rect x="289.656" width="16" height="56"/>
			<rect x="41.656" y="304" width="16" height="16"/>
			<path d="M449.656,264c-1.504,0-2.992,0.088-4.464,0.224L344.84,163.872c0.488-3.896,0.816-7.84,0.816-11.872V72h-192v80
				c0,4.032,0.328,7.976,0.816,11.872L54.12,264.224c-1.472-0.136-2.96-0.224-4.464-0.224c-26.472,0-48,21.528-48,48
				s21.528,48,48,48c1.504,0,2.992-0.088,4.464-0.224l59.536,59.536v40l40,40L188.968,464l-24-24l12.688-12.688l24,24L236.968,416
				l-40-40h-40l-59.536-59.536c0.136-1.472,0.224-2.96,0.224-4.464c0-1.504-0.088-2.992-0.224-4.464l77.88-77.88L164,218.344
				l-71.704,71.704c-4.584-8.864-11.824-16.104-20.688-20.688l87.04-87.04c12.728,38.112,48.68,65.68,91.008,65.68
				s78.28-27.568,91.016-65.672l87.04,87.04c-8.864,4.584-16.104,11.824-20.688,20.688l-71.704-71.704l-11.312,11.312l77.88,77.88
				c-0.144,1.464-0.232,2.952-0.232,4.456c0,1.504,0.088,2.992,0.224,4.464L342.344,376h-40l-40,40l35.312,35.312l24-24L334.344,440
				l-24,24l35.312,35.312l40-40v-40l59.536-59.536c1.472,0.136,2.96,0.224,4.464,0.224c26.472,0,48-21.528,48-48
				S476.128,264,449.656,264z M190.344,392l24,24l-12.688,12.688l-24-24L142.344,440l24,24l-12.688,12.688l-24-24v-33.376
				L156.968,392H190.344z M92.296,333.952L142.344,384l-20.688,20.688L71.608,354.64C80.464,350.056,87.712,342.808,92.296,333.952z
				 M81.656,312c0,17.648-14.352,32-32,32s-32-14.352-32-32s14.352-32,32-32S81.656,294.352,81.656,312z M329.656,104h-16v16h16v32
				c0,44.112-35.888,80-80,80s-80-35.888-80-80v-32h16v-16h-16V88h160V104z M369.656,452.688l-24,24L332.968,464l24-24
				l-35.312-35.312l-24,24L284.968,416l24-24h33.376l27.312,27.312V452.688z M377.656,404.688L356.968,384l50.048-50.048
				c4.584,8.864,11.824,16.104,20.688,20.688L377.656,404.688z M449.656,344c-17.648,0-32-14.352-32-32s14.352-32,32-32
				s32,14.352,32,32S467.304,344,449.656,344z"/>
			<rect x="441.656" y="304" width="16" height="16"/>
		</g>
	</g>
</g>
<g>
</g>
<g>
</g>
<g>
</g>
<g>
</g>
<g>
</g>
<g>
</g>
<g>
</g>
<g>
</g>
<g>
</g>
<g>
</g>
<g>
</g>
<g>
</g>
<g>
</g>
<g>
</g>
<g>
</g>
</svg>
