<?xml version="1.0" encoding="UTF-8"?>
<!-- Generator: Adobe Illustrator 21.1.0, SVG Export Plug-In . SVG Version: 6.00 Build 0) -->
<svg xmlns="http://www.w3.org/2000/svg" xmlns:xlink="http://www.w3.org/1999/xlink" id="Layer_1" x="0px" y="0px" viewBox="0 0 220 63" style="enable-background:new 0 0 220 63;" xml:space="preserve"> <style type="text/css"> .st0{fill:#3D3D3D;} .st1{fill:#59C341;} </style> <g> <path class="st0" d="M66.9,8.2l3.2-6.4h1.1l-4,7.8h-0.9l-1.6-7.8h1.1L66.9,8.2z"/> <path class="st0" d="M73.7,9.7c-0.7,0-1.3-0.3-1.7-0.8c-0.4-0.5-0.6-1.2-0.5-2V6.7c0.1-0.6,0.2-1.1,0.5-1.6s0.6-0.8,1-1.1 c0.4-0.2,0.8-0.4,1.3-0.3c0.6,0,1.1,0.2,1.4,0.6s0.5,0.9,0.6,1.6c0,0.2,0,0.5,0,0.7L76.2,7h-3.8c-0.1,0.5,0,1,0.3,1.3 c0.2,0.4,0.6,0.6,1.1,0.6c0.6,0,1.1-0.2,1.6-0.8L76,8.6c-0.2,0.4-0.6,0.6-0.9,0.8C74.6,9.6,74.1,9.7,73.7,9.7z M74.3,4.5 c-0.4,0-0.8,0.1-1,0.4c-0.3,0.3-0.5,0.7-0.7,1.3h2.8V6.1c0.1-0.5,0-0.8-0.2-1.1C74.9,4.7,74.6,4.5,74.3,4.5z"/> <path class="st0" d="M81,4.7h-0.5c-0.6,0-1.1,0.3-1.5,0.8l-0.7,4.1h-1l1-5.8h0.9l-0.1,0.7C79.5,4,80,3.7,80.6,3.7 c0.1,0,0.3,0,0.5,0.1L81,4.7z"/> <path class="st0" d="M82.7,9.6h-1l1-5.8h1L82.7,9.6z M83.5,1.7c0.2,0,0.3,0,0.4,0.1C84,1.9,84,2.1,84,2.2c0,0.2-0.1,0.3-0.2,0.4 c-0.1,0.1-0.2,0.2-0.4,0.2c-0.2,0-0.3,0-0.4-0.1s-0.2-0.2-0.2-0.4S83,2,83.1,1.9S83.3,1.7,83.5,1.7z"/> <path class="st0" d="M85.3,9.6l0.9-5h-0.9l0.1-0.8h0.9l0.1-0.7c0.1-0.6,0.3-1,0.7-1.4c0.4-0.3,0.9-0.5,1.4-0.5c0.2,0,0.4,0,0.7,0.1 l-0.1,0.8c-0.2,0-0.3-0.1-0.5-0.1c-0.3,0-0.6,0.1-0.8,0.3c-0.2,0.2-0.3,0.5-0.4,0.8l-0.1,0.6h1.2l-0.1,0.8h-1.2l-0.9,5h-1V9.6z"/> <path class="st0" d="M90.2,9.6h-1l1-5.8h1L90.2,9.6z M91,1.7c0.2,0,0.3,0,0.4,0.1s0.2,0.2,0.2,0.4s-0.1,0.3-0.2,0.4 c-0.1,0.1-0.2,0.2-0.4,0.2c-0.2,0-0.3,0-0.4-0.1s-0.2-0.2-0.2-0.4s0.1-0.3,0.2-0.4S90.8,1.7,91,1.7z"/> <path class="st0" d="M94.8,9.7c-0.7,0-1.3-0.3-1.7-0.8c-0.4-0.5-0.6-1.2-0.5-2V6.7c0.1-0.6,0.2-1.1,0.5-1.6s0.6-0.8,1-1.1 c0.4-0.2,0.8-0.4,1.3-0.3c0.6,0,1.1,0.2,1.4,0.6s0.5,0.9,0.6,1.6c0,0.2,0,0.5,0,0.7l0,0.4h-3.8c-0.1,0.5,0,1,0.3,1.3 c0.2,0.4,0.6,0.6,1.1,0.6c0.6,0,1.1-0.2,1.6-0.8L97,8.6c-0.2,0.4-0.6,0.6-0.9,0.8C95.7,9.6,95.3,9.7,94.8,9.7z M95.4,4.5 c-0.4,0-0.8,0.1-1,0.4c-0.3,0.3-0.5,0.7-0.7,1.3h2.8V6.1c0.1-0.5,0-0.8-0.2-1.1C96.1,4.7,95.8,4.5,95.4,4.5z"/> <path class="st0" d="M98.8,6.7c0.1-0.6,0.2-1.1,0.5-1.6s0.6-0.8,0.9-1.1s0.8-0.3,1.2-0.3c0.6,0,1.1,0.2,1.5,0.7l0.6-3h1l-1.4,8.2 h-0.9l0.1-0.6c-0.5,0.5-1,0.7-1.7,0.7c-0.5,0-1-0.2-1.3-0.6s-0.5-1-0.5-1.6C98.8,7.2,98.8,7,98.8,6.7z M99.8,7.3 c0,0.5,0.1,0.9,0.3,1.2c0.2,0.3,0.5,0.4,0.8,0.4c0.6,0,1.1-0.3,1.5-0.8l0.5-2.7c-0.2-0.5-0.6-0.8-1.2-0.8c-0.4,0-0.7,0.1-1,0.3 c-0.3,0.2-0.5,0.6-0.7,1C99.9,6.3,99.8,6.8,99.8,7.3z"/> <path class="st0" d="M113.7,6.7c-0.1,0.6-0.2,1.1-0.5,1.6s-0.6,0.8-0.9,1.1c-0.4,0.2-0.8,0.3-1.2,0.3c-0.7,0-1.2-0.3-1.6-0.8 l-0.2,0.7h-0.9l1.4-8.2h1l-0.6,3.1c0.5-0.5,1-0.8,1.7-0.8c0.6,0,1,0.2,1.3,0.6s0.5,0.9,0.5,1.6C113.7,6.1,113.7,6.4,113.7,6.7 L113.7,6.7z M112.8,6.2c0-0.5-0.1-0.9-0.3-1.2c-0.2-0.3-0.5-0.4-0.9-0.4c-0.6,0-1.1,0.3-1.5,0.9L109.7,8c0.2,0.6,0.6,0.9,1.2,0.9 c0.4,0,0.7-0.1,1-0.3s0.5-0.6,0.6-1C112.7,7.1,112.8,6.7,112.8,6.2z"/> <path class="st0" d="M117,8.1l2.1-4.3h1.1l-3.4,6.8c-0.5,0.9-1.1,1.4-1.8,1.4c-0.1,0-0.3,0-0.6-0.1l0.1-0.8h0.3 c0.3,0,0.6-0.1,0.8-0.2s0.4-0.4,0.6-0.7l0.3-0.7l-1-5.7h1L117,8.1z"/> </g> <g> <path class="st0" d="M82.7,26.3H70.5v8.5h11.7v5H70.5v16.9h-5.3V21.3h17.5V26.3z"/> <path class="st1" d="M92.5,39c0,3.9,1.3,7.2,3.9,9.7c2.6,2.6,5.6,3.9,9,3.9c3.7,0,6.8-1.3,9.3-3.9c2.6-2.6,3.9-5.8,3.9-9.5 c0-3.9-1.3-6.9-3.7-9.5c-2.4-2.6-5.6-3.9-9.2-3.9c-3.7,0-6.8,1.3-9.3,3.9C93.8,32.1,92.5,35.3,92.5,39 M87.2,38.8 c0-5,1.8-9.3,5.5-12.9c3.5-3.5,7.9-5.5,13-5.5c5,0,9.3,1.8,12.9,5.5c3.5,3.7,5.5,8,5.5,13c0,5.1-1.8,9.5-5.5,13s-8,5.3-13.2,5.3 c-4.5,0-8.5-1.6-12.2-4.8C89.1,49.3,87.2,44.6,87.2,38.8"/> <path class="st0" d="M171.2,52h2.4c2.4,0,4.3-0.3,6-0.8c1.6-0.5,3.1-1.4,4.3-2.6c2.6-2.4,3.9-5.6,3.9-9.5s-1.3-7.1-3.9-9.5 c-2.3-2.1-5.8-3.2-10.3-3.2h-2.4C171.2,26.3,171.2,52,171.2,52z M165.9,56.8V21.3h7.4c3.5,0,6.3,0.3,8.4,1.1c2.3,0.6,4.2,1.9,6,3.5 c3.7,3.4,5.5,7.7,5.5,13.2s-1.9,9.8-5.6,13.2c-1.9,1.6-3.9,2.9-6,3.5c-1.9,0.6-4.7,1-8.2,1C173.1,56.8,165.9,56.8,165.9,56.8z M203.4,41.6l-11.6-20.3h6.1l8,14.2l8-14.2h6.1l-11.6,20.3v15.3h-5.3L203.4,41.6z M154.5,21.3v26.2l-20.6-26.2h-5.1v35.6h5.3V30.6 l20.6,26.2h5.1V21.3H154.5z"/> </g> <g> <path class="st1" d="M30.9,28.8l-6.3,3.9l-6.3-3.9V21l6.3-3.9l6.3,3.9C30.9,21,30.9,28.8,30.9,28.8z"/> <path class="st0" d="M30.9,55l-6.3,3.9L18.3,55v-7.7l6.3-3.9l6.3,3.9C30.9,47.2,30.9,55,30.9,55z M45.4,55l-6.3,3.9L32.8,55v-7.7 l6.3-3.9l6.3,3.9V55z M16.3,55l-6.6,3.9L3.3,55v-7.7l6.6-3.9l6.6,3.9L16.3,55z M23.7,42l-6.3,3.9L11.1,42v-7.7l6.3-3.9l6.3,3.9V42z M38.1,42l-6.3,3.9L25.5,42v-7.7l6.3-3.9l6.3,3.9V42z"/> <path class="st0" d="M24.6,15.2l7.9,4.8v8.7l7.2,4.5V42l7.2,4.5V56L39,60.8l-7.2-4.5l-7.2,4.5l-7.2-4.5l-7.6,4.5L1.6,56v-9.7 l7.7-4.7V33l7.2-4.5V20L24.6,15.2 M24.6,13.2l-9.7,6v8.5l-7.2,4.5v8.5L0,45.3v11.4l9.8,5.8l7.6-4.5l7.2,4.5l7.2-4.5l7.2,4.5l9.5-6 V45.5L41.3,41v-8.7l-7.2-4.5v-8.5L24.6,13.2L24.6,13.2z"/> </g> </svg>