<svg xmlns="http://www.w3.org/2000/svg" viewBox="0 0 868.49 270.31"><defs><style>.cls-1,.cls-7,.cls-8,.cls-9{stroke:#000;stroke-miterlimit:10;}.cls-1{stroke-width:1.22px;}.cls-2{fill:#e4decb;}.cls-3{fill:#fff;}.cls-4{fill:#bb7354;}.cls-5{fill:#95aabe;}.cls-6{fill:#e59d5d;}.cls-7,.cls-9{fill:none;}.cls-7,.cls-8{stroke-width:1.42px;}.cls-8{fill:#cb9576;}.cls-9{stroke-width:0.01px;}.cls-10{fill:#1b1c1c;}.cls-11{fill:#ac4d3a;}.cls-12{fill:#567693;}</style></defs><title>logo1</title><g id="Слой_2" data-name="Слой 2"><g id="Слой_1-2" data-name="Слой 1"><path class="cls-1" d="M782.94,206.93s20.48,5.53,26.55-11-4.61-55.44-.8-70.32c6.27-24.51,17.45-42.5,48.78-46.56,0,0-11.71,37.37,1.09,57.66s11.9,57,.27,76.53-29.13,37.41-59.18,28.25-31-29.38-31-29.38Z"/><path class="cls-2" d="M811.24,186.52s.9,11.27-8,17.81c0,0,9,8.36,10.76,17.78s-1.58,21.79-1.58,21.79A42.68,42.68,0,0,0,845,231.29s1.95-14.47-9.84-28.72S811.24,186.52,811.24,186.52Z"/><path class="cls-2" d="M864.38,149.83s-8.88-5.5-24.18-5.48-31.36,5.48-31.36,5.48l2.32,24.32s19.71-2.77,33.27,1,22.17,15.15,22.17,15.15S870.21,162.93,864.38,149.83Z"/><path class="cls-2" d="M832.79,123.09a102.21,102.21,0,0,1,20.94.9s-1.14-14.85-1.09-16c0,0-21.8-11-38.56,1.68,0,0-6.58,14.57-6.23,23.8C807.85,133.43,822.36,123.88,832.79,123.09Z"/><path d="M859.07,136.41c-12.5-19.81-1.14-56.78-1-57.15l.29-.91-.95.12c-33.87,4.39-43.71,25.19-49.3,47-1.75,6.86-.5,18.57.83,31,1.6,14.95,3.26,30.4,0,39.28-3.48,9.47-11.9,11.46-18.34,11.46a32.15,32.15,0,0,1-7.48-.87l-.19,0-14.86,5.42,0,.45c0,.21,1.29,20.77,31.4,29.94a53.93,53.93,0,0,0,15.66,2.5c17.35,0,31.81-10.15,44.22-31C871.64,192.91,871.51,156.13,859.07,136.41ZM858.3,213c-12.34,20.75-26.06,30.42-43.17,30.42a52.73,52.73,0,0,1-15.3-2.44c-26.8-8.17-30.11-25.41-30.49-28.39l13.63-5a33.54,33.54,0,0,0,7.6.86c6.83,0,15.76-2.13,19.49-12.26,3.37-9.15,1.69-24.75.08-39.83-1.32-12.29-2.56-23.9-.86-30.54,5.43-21.2,14.94-41.42,47.33-46-1.75,6-10.41,38.49,1.43,57.25C870.27,156.45,870.39,192.62,858.3,213Z"/><path class="cls-2" d="M736.73,259.85H698.43c-6.57-1-10-5.47-11.74-9.39a21.58,21.58,0,0,1-1.81-8.83V143.8c-24.74-2.75-49.39-31.65-49.39-31.65,25.92-6.68,38.78-40.42,38.78-40.42s-5.11-4.91-5.11-17.28c0-23.17,20-51.84,20-51.84C708.45,13.8,729.85,44,729.85,44H743.6S765,13.8,784.25,2.61c0,0,20,28.67,20,51.84,0,12.37-5.11,17.28-5.11,17.28s11.88,33.74,37.8,40.42c0,0-23.66,28.9-48.41,31.65v97.84a21.58,21.58,0,0,1-1.81,8.83c-1.76,3.92-5.17,8.34-11.74,9.39Z"/><ellipse cx="736.24" cy="122.1" rx="12.83" ry="6.35"/><ellipse class="cls-3" cx="732.57" cy="119.64" rx="4.16" ry="2.55"/><path d="M751.26,128.46l0,.39a2.78,2.78,0,0,1-.18,1.16,5.34,5.34,0,0,1-.94,1.58,7.79,7.79,0,0,1-1.77,1.57c-.35.25-.74.46-1.14.7s-.84.42-1.29.6a18,18,0,0,1-2.89,1,23.05,23.05,0,0,1-3.19.6c-1.11.12-2.18.19-3.36.21l-1.62-.06c-.56,0-1.13-.08-1.68-.15a23.64,23.64,0,0,1-3.18-.6,18.12,18.12,0,0,1-2.89-1c-.45-.18-.88-.4-1.29-.6s-.79-.45-1.14-.7a7.81,7.81,0,0,1-1.77-1.57A5.33,5.33,0,0,1,722,130a2.87,2.87,0,0,1-.18-1.16l0-.4H722l0,.38a3,3,0,0,0,.31,1,4.81,4.81,0,0,0,1,1.31,8.45,8.45,0,0,0,1.77,1.26,14.92,14.92,0,0,0,2.37,1,21.42,21.42,0,0,0,2.79.76,27.81,27.81,0,0,0,3.06.46c1,.1,2.12.14,3.2.15s2.14,0,3.19-.15a27.81,27.81,0,0,0,3.06-.46,21.43,21.43,0,0,0,2.79-.76,14.92,14.92,0,0,0,2.37-1,8.45,8.45,0,0,0,1.77-1.26,4.81,4.81,0,0,0,1-1.31,3,3,0,0,0,.31-1l0-.38Z"/><path class="cls-4" d="M738,161.94,727.69,223s.12,2,1,2.65,7.93,3.2,11.22.65h0l10.29-61.54s-6.4-.45-7.47-1.2a33.11,33.11,0,0,0-4.18-2Z"/><path class="cls-5" d="M725,161.75s7.92,1.87,12,.46l.33,1.31-10,61.58a7.13,7.13,0,0,1-6.5,1.1c-3.73-1.23-7.37-3.66-6.75-4.82Z"/><path class="cls-6" d="M713.34,160.15,702,220s.78,2.95,5.87,4,6.2-.23,6.2-.23L725,160.86a44.44,44.44,0,0,1-6.1.65,32.57,32.57,0,0,1-5.37-2Z"/><path class="cls-7" d="M757,150c-7,1.51-8.31-2.14-8.31-2.14l-35.32,11.36L702,220s.35,4.44,12.07,3.73l10.87-62s8.37,1.77,12.69.27"/><path class="cls-7" d="M713.34,159.26c3.37,3.9,11.62,1.6,11.62,1.6l32.56-11s2.74,3.28,11.62,1.45"/><path class="cls-7" d="M714.05,222.7s5.5,6.13,13.3,2.4l10.29-63.57"/><path class="cls-7" d="M727.59,223.66s.48,5.62,12.37,2.64l10.29-61.54"/><polygon class="cls-8" points="739.56 226.27 774.16 213.49 783.98 152.33 750.26 164.04 739.56 226.27"/><path class="cls-7" d="M783.43,152.46c-.35,0-12.69.15-13.4-1.45l-31.12,10.53s7.31,4,12.16,2.35"/><polygon points="774.65 160.81 757.24 167.71 757.54 167.34 748.65 210.91 756.56 167.16 756.61 166.89 756.86 166.79 774.12 159.49 774.77 159.22 775.31 160.55 774.65 160.81"/><path d="M731.42,214.54l.14,0s0,.06,0,.12l-.11.39q.78.4,1.45.7a5.52,5.52,0,0,0,1.16.4l.9.15,1.12.16.15,0a.39.39,0,0,1,.17.07s0,.08,0,.16-.19.17-.5.14l-.69-.07-.6-.07-.74-.12a7,7,0,0,1-1.52-.51q-.46-.21-1.07-.56l-.17.54q-.1.32-.13.45a2.94,2.94,0,0,0,0,.67q0,.31,0,.61a15.54,15.54,0,0,0,2.26,1,17.66,17.66,0,0,0,2.28.7.33.33,0,0,1,.18.11.21.21,0,0,1,.05.19c0,.05-.07.08-.19.08a1.92,1.92,0,0,1-.43,0q-.3-.06-.87-.22l-1.16-.35q-.6-.19-1.45-.49l-.72-.26,0,.13a.43.43,0,0,1-.07.18.15.15,0,0,1-.16,0c-.05,0-.1-.07-.13-.18a1,1,0,0,1-.06-.28.46.46,0,0,1-.23-.12.21.21,0,0,1-.07-.2.46.46,0,0,1,.11-.25.29.29,0,0,1,.21-.07,3.83,3.83,0,0,1,0-.62,4.7,4.7,0,0,1,.07-.66,8.08,8.08,0,0,1,.38-1.29Q731.3,214.51,731.42,214.54Z"/><path d="M735.46,213a2.49,2.49,0,0,1,1.08.53q.59.48.5.92a.67.67,0,0,1-.26.42.63.63,0,0,1-.51.09q-.49-.1-.45-.3c0-.12.09-.17.21-.15l.26,0a.47.47,0,0,0,.22,0,.16.16,0,0,0,.13-.13.55.55,0,0,0-.25-.51,2.31,2.31,0,0,0-1.08-.46.47.47,0,0,0-.39.08.5.5,0,0,0-.2.3.71.71,0,0,0,0,.4,1.67,1.67,0,0,0,.3.46l.3.12a8.12,8.12,0,0,0,1,.26l.62.12.46.08a7.33,7.33,0,0,0,.79.11l.5,0a1,1,0,0,0,.38-.07.5.5,0,0,1,.23,0,.53.53,0,0,1,.28.11s0,.14,0,.28-.11.18-.26.21a1.37,1.37,0,0,1-.54,0l-1.53-.21-1.36-.27q-.4-.08-.85-.21l-1.11-.32h-.2l-.25,0a.29.29,0,0,1-.19-.09.25.25,0,0,1,0-.18.26.26,0,0,1,.17-.19.47.47,0,0,1,.27,0l.74.15a1.42,1.42,0,0,1-.21-.37.92.92,0,0,1,0-.49.85.85,0,0,1,.4-.54A1.05,1.05,0,0,1,735.46,213Z"/><path d="M737,207.69s.13.11.24.29a3.53,3.53,0,0,1,.32.68,4.73,4.73,0,0,1,.23,1,3,3,0,0,1,0,.88.62.62,0,0,1-.49.49,2.61,2.61,0,0,1-1.17,0,5.53,5.53,0,0,1,.65.57q.47.5.4.85a.46.46,0,0,1-.26.39,1.22,1.22,0,0,1-.6,0,2.64,2.64,0,0,1-1.14-.61,1.34,1.34,0,0,1-.62-1.27,1,1,0,0,1,.12-.34.91.91,0,0,1,.24-.22q0-.09.15-.14a.61.61,0,0,1,.32,0l.63.15.54.13a1.43,1.43,0,0,0,.5,0,.38.38,0,0,0,.29-.34,2.46,2.46,0,0,0,.05-.51,2.8,2.8,0,0,0-.16-.87,4.33,4.33,0,0,0-.36-.78,1.16,1.16,0,0,1-.1-.21A.17.17,0,0,1,737,207.69Zm-1.69,3.2-.11,0q-.21,0-.24.14t.4.77a1.78,1.78,0,0,0,.8.52,1.39,1.39,0,0,0,.3,0c.09,0,.13,0,.14-.06s-.22-.42-.74-.88Z"/><path d="M737.1,205.5a2,2,0,0,1,.93.41.81.81,0,0,1,.3.81,1,1,0,0,1-.32.58,1.07,1.07,0,0,1-.66.24,4.82,4.82,0,0,1-.89,0q-.48-.06-.92-.15l.07.13a.24.24,0,0,1-.08.29.18.18,0,0,1-.14.06q-.09,0-.25-.29l-.16-.3-.56-.08-.74-.12a3.58,3.58,0,0,1-1.55-.56.74.74,0,0,1-.22-.74.55.55,0,0,1,.31-.41,2.74,2.74,0,0,1,1.06-.12h.19l.2,0a2.07,2.07,0,0,1,1.17.68,2.37,2.37,0,0,1,.52.93l.38.07.39.07a5.13,5.13,0,0,0,.62.09,4.86,4.86,0,0,0,.62,0,.54.54,0,0,0,.35-.11.53.53,0,0,0,.22-.35.42.42,0,0,0-.23-.45,1.71,1.71,0,0,0-.61-.23,1.11,1.11,0,0,0-.7.11c-.25.12-.39.26-.42.42a1.08,1.08,0,0,1-.09.27.15.15,0,0,1-.18.08.32.32,0,0,1-.18-.1.21.21,0,0,1-.05-.19,1.24,1.24,0,0,1,.68-.87A1.39,1.39,0,0,1,737.1,205.5Zm-3.77.12a3.05,3.05,0,0,0-.61,0q-.36.06-.39.22t.27.34a5,5,0,0,0,1.11.31l.47.11.7.18a2,2,0,0,0-.45-.66,1.67,1.67,0,0,0-.87-.51Z"/><path d="M736.78,202.41a.21.21,0,0,1,.17.18.58.58,0,0,1,0,.23,1.93,1.93,0,0,1,.39,0,2.09,2.09,0,0,1,.38,0,1.78,1.78,0,0,1,.88.48,1,1,0,0,1,.37.91,1,1,0,0,1-.35.58.8.8,0,0,1-.6.18l-.51-.07a3,3,0,0,1-.47-.13,3.92,3.92,0,0,1-.44-.2,1.17,1.17,0,0,1-.34-.29q-.17-.2-.15-.29a.17.17,0,0,1,.22-.16.66.66,0,0,1,.23.12l.27.19a2.72,2.72,0,0,0,.51.23,4.86,4.86,0,0,0,.61.17.46.46,0,0,0,.35-.07.47.47,0,0,0,.21-.33q0-.21-.23-.45a1.24,1.24,0,0,0-.6-.31,4,4,0,0,0-.6-.08.85.85,0,0,0-.33,0,1.32,1.32,0,0,1-.17.25.26.26,0,0,1-.24.11q-.3-.06-.29-.31a.41.41,0,0,1,.16-.33,1.5,1.5,0,0,1,.29-.17c0-.1.06-.19.08-.3S736.7,202.4,736.78,202.41Z"/><path d="M740,200.09l.18,0a3.33,3.33,0,0,1,.48.12,4.13,4.13,0,0,1,.49.24,2.07,2.07,0,0,1,.86.86,1.46,1.46,0,0,1,.14,1,1.17,1.17,0,0,1-.48.79.74.74,0,0,1-.57.14q-.25,0-.21-.22s.06-.09.14-.12l.25-.09a1,1,0,0,0,.31-.21.64.64,0,0,0,.16-.33,1,1,0,0,0-.12-.75,2.48,2.48,0,0,0-.61-.59,1.89,1.89,0,0,0-.47-.24,3.9,3.9,0,0,0-.55-.15q-.63-.13-.86.16a.72.72,0,0,0-.1.16.91.91,0,0,0-.06.19c0,.11,0,.19,0,.23s0,.11-.08.12a.29.29,0,0,1-.14,0c-.09,0-.13-.06-.14-.12a.85.85,0,0,0-.21-.48.77.77,0,0,0-.44-.26.82.82,0,0,0-.31,0,.24.24,0,0,0-.23.19.76.76,0,0,0,.23.64,4.33,4.33,0,0,0,.37.34l.09.09a.2.2,0,0,1,0,.15c0,.06,0,.09,0,.09l-.13,0a1.2,1.2,0,0,1-.69-.53,1.09,1.09,0,0,1-.26-.84.65.65,0,0,1,.41-.53,1.05,1.05,0,0,1,1,.19,1.12,1.12,0,0,1,.32.44.79.79,0,0,1,.42-.55A1.21,1.21,0,0,1,740,200.09Z"/><path d="M739.79,193.45q.11,0,.33.42a4.12,4.12,0,0,1,.34.78,3.7,3.7,0,0,1,.15.73,2,2,0,0,1,0,.6,1.49,1.49,0,0,1-.31.72,1,1,0,0,1-.55.3l-.29,0h-.31l0,.12v.09l0,.18c0,.06,0,.13,0,.19l-.16.79.13,0,.13,0h.6a.42.42,0,0,1,.21.1.23.23,0,0,1,0,.22c0,.13-.13.21-.3.22a2.33,2.33,0,0,1-.6-.05l-.31-.06a.25.25,0,0,1-.34.22q-.09,0-.08-.3l-.47-.12-.33-.09a.34.34,0,0,1-.19-.09.28.28,0,0,1,0-.25c0-.08.08-.11.19-.09l.41.07.16,0,.16,0,.17,0,.11-.55,0-.12,0-.1.05-.26c0-.09,0-.17,0-.26l0-.08-.58-.13a.77.77,0,0,1-.35-.14.2.2,0,0,1-.08-.2c0-.11.19-.14.51-.07l.71.12a2.07,2.07,0,0,0,.51,0,1.19,1.19,0,0,0,.57-.16.66.66,0,0,0,.22-.42,1.81,1.81,0,0,0,0-.4,4.36,4.36,0,0,0-.11-.69,4.87,4.87,0,0,0-.41-1,.91.91,0,0,1-.13-.33c0-.09.06-.13.12-.11Z"/><path d="M740.69,188.91s.13.11.24.29a3.58,3.58,0,0,1,.32.68,4.73,4.73,0,0,1,.23,1,3,3,0,0,1,0,.88.62.62,0,0,1-.49.49,2.61,2.61,0,0,1-1.17,0,5.45,5.45,0,0,1,.65.57q.47.5.4.85a.46.46,0,0,1-.26.39,1.22,1.22,0,0,1-.6,0,2.64,2.64,0,0,1-1.14-.61,1.34,1.34,0,0,1-.62-1.27,1,1,0,0,1,.12-.34.91.91,0,0,1,.24-.22q0-.09.15-.14a.61.61,0,0,1,.32,0l.63.15.54.13a1.43,1.43,0,0,0,.5,0,.38.38,0,0,0,.29-.34,2.46,2.46,0,0,0,.05-.51,2.8,2.8,0,0,0-.16-.87,4.33,4.33,0,0,0-.36-.78,1.16,1.16,0,0,1-.1-.21A.17.17,0,0,1,740.69,188.91Zm-1.69,3.2-.11,0q-.21,0-.24.14t.4.77a1.78,1.78,0,0,0,.8.52,1.39,1.39,0,0,0,.3,0c.09,0,.13,0,.14-.06s-.22-.42-.74-.88Z"/><path d="M740.83,186.71a2,2,0,0,1,.93.41.81.81,0,0,1,.3.81,1,1,0,0,1-.32.58,1.07,1.07,0,0,1-.66.24,4.82,4.82,0,0,1-.89,0q-.48-.06-.92-.15l.07.13a.24.24,0,0,1-.08.29.18.18,0,0,1-.14.06q-.09,0-.25-.29l-.16-.3-.56-.08-.74-.12a3.58,3.58,0,0,1-1.55-.56.74.74,0,0,1-.22-.74.55.55,0,0,1,.31-.41,2.74,2.74,0,0,1,1.06-.12h.19l.2,0a2.07,2.07,0,0,1,1.17.68,2.37,2.37,0,0,1,.52.93l.38.07.39.07a5.13,5.13,0,0,0,.62.09,4.86,4.86,0,0,0,.62,0,.54.54,0,0,0,.35-.11.53.53,0,0,0,.22-.35.42.42,0,0,0-.23-.45,1.71,1.71,0,0,0-.61-.23,1.11,1.11,0,0,0-.7.11c-.25.12-.39.26-.42.42a1.08,1.08,0,0,1-.09.27.15.15,0,0,1-.18.08.32.32,0,0,1-.18-.1.21.21,0,0,1-.05-.19,1.24,1.24,0,0,1,.68-.87A1.39,1.39,0,0,1,740.83,186.71Zm-3.77.12a3,3,0,0,0-.61,0q-.36.06-.39.22t.27.34a5,5,0,0,0,1.11.31l.47.11.7.18a2,2,0,0,0-.45-.66,1.67,1.67,0,0,0-.87-.51Z"/><path d="M741.94,182.56q.1,0,.21.33c.08.22.16.42.25.61a5.2,5.2,0,0,1,.33,1.13,2.69,2.69,0,0,1,0,1,.83.83,0,0,1-.47.6,1.28,1.28,0,0,1-.84.11,3.26,3.26,0,0,1-1-.41q-.75-.44-.64-1a.92.92,0,0,1,.24-.47.42.42,0,0,1,.4-.15c.11,0,.15.07.14.16s-.07.12-.17.15a.24.24,0,0,0-.18.18q-.07.33.36.62a2.33,2.33,0,0,0,.87.35.93.93,0,0,0,.65-.05.55.55,0,0,0,.26-.4,2.37,2.37,0,0,0,0-.7,4.82,4.82,0,0,0-.22-.93q0-.15-.26-.71a.71.71,0,0,1-.07-.29c0-.07,0-.11.06-.12A.23.23,0,0,1,741.94,182.56Z"/><path d="M743.1,176.54q.2,0,.49.74a2.5,2.5,0,0,1,.2,1.43,1.43,1.43,0,0,1-.69,1l-.72.28a2,2,0,0,1,.37.39.64.64,0,0,1,.15.48.42.42,0,0,1-.13.23.86.86,0,0,1-.29.16,1,1,0,0,1-.27.05l-.31,0h-.27a.15.15,0,0,0-.14.12c0,.06,0,.15.17.25a5.26,5.26,0,0,0,.5.37l.41.27a.39.39,0,0,1,.16.38.15.15,0,0,1-.16.13,1.48,1.48,0,0,1-.37,0l-.23,0-.24-.06-.57-.09-.52-.06a.48.48,0,0,1-.24-.12.21.21,0,0,1-.07-.2q0-.15.49-.17a3.1,3.1,0,0,1,.67.05,2.87,2.87,0,0,1-.39-.4.57.57,0,0,1-.16-.39.68.68,0,0,1,.2-.35.65.65,0,0,1,.4-.19H742c.2,0,.31,0,.32-.09s0-.19-.2-.3a2.25,2.25,0,0,0-.34-.2l-.31-.15a.22.22,0,0,1-.07-.25c0-.12.12-.19.29-.21a1.86,1.86,0,0,0,.38-.08,3,3,0,0,0,.86-.33,1,1,0,0,0,.46-.65,1.82,1.82,0,0,0-.06-.93l-.39-.88C743,176.59,743,176.53,743.1,176.54Z"/><path d="M743.23,174.62a2,2,0,0,1,.93.41.81.81,0,0,1,.3.81,1,1,0,0,1-.32.58,1.07,1.07,0,0,1-.66.24,4.82,4.82,0,0,1-.89,0q-.48-.06-.92-.15l.07.13a.24.24,0,0,1-.08.29.18.18,0,0,1-.14.06q-.09,0-.25-.29l-.16-.3-.56-.08-.74-.12a3.58,3.58,0,0,1-1.55-.56.74.74,0,0,1-.22-.74.56.56,0,0,1,.31-.41,2.74,2.74,0,0,1,1.06-.12h.19l.2,0A2.07,2.07,0,0,1,741,175a2.37,2.37,0,0,1,.52.93l.38.07.39.07a5.13,5.13,0,0,0,.62.09,4.86,4.86,0,0,0,.62,0,.54.54,0,0,0,.35-.11.53.53,0,0,0,.22-.35.42.42,0,0,0-.23-.45,1.71,1.71,0,0,0-.61-.23,1.11,1.11,0,0,0-.7.11c-.25.12-.39.26-.42.42a1.08,1.08,0,0,1-.09.27.15.15,0,0,1-.18.08.32.32,0,0,1-.18-.1.21.21,0,0,1-.05-.19,1.24,1.24,0,0,1,.68-.87A1.39,1.39,0,0,1,743.23,174.62Zm-3.77.12a3,3,0,0,0-.61,0q-.36.06-.39.22t.27.34a5,5,0,0,0,1.11.31l.47.11.7.18a2,2,0,0,0-.45-.66,1.67,1.67,0,0,0-.87-.51Z"/><path d="M742.92,171.52a.21.21,0,0,1,.17.18.58.58,0,0,1,0,.23,1.93,1.93,0,0,1,.39,0,2.1,2.1,0,0,1,.38,0,1.78,1.78,0,0,1,.88.48,1,1,0,0,1,.37.91,1,1,0,0,1-.35.58.8.8,0,0,1-.6.18l-.51-.07a3,3,0,0,1-.47-.13,3.92,3.92,0,0,1-.44-.2,1.16,1.16,0,0,1-.34-.29q-.17-.2-.15-.29a.17.17,0,0,1,.22-.16.66.66,0,0,1,.23.12l.27.19a2.72,2.72,0,0,0,.51.23,4.86,4.86,0,0,0,.61.17.46.46,0,0,0,.35-.07.47.47,0,0,0,.21-.33q0-.21-.23-.45a1.24,1.24,0,0,0-.6-.31,4,4,0,0,0-.6-.08.85.85,0,0,0-.33,0,1.32,1.32,0,0,1-.17.25.26.26,0,0,1-.24.11q-.3-.06-.29-.31a.41.41,0,0,1,.16-.33,1.47,1.47,0,0,1,.29-.17c0-.1.06-.19.08-.3S742.84,171.51,742.92,171.52Z"/><path d="M720.3,161.54"/><path d="M707.89,224"/><path d="M706.65,213.94c.07,0,.1.06.09.15l-.08.26c0,.09,0,.18-.07.29a3.33,3.33,0,0,0,0,.61,4.6,4.6,0,0,0,.07.75,1.83,1.83,0,0,0,.11.39.23.23,0,0,0,.1.12l.09.06a.13.13,0,0,1,0,.12.13.13,0,0,1-.08.11.51.51,0,0,1-.23,0q-.19,0-.27-.62a5,5,0,0,1-.07-.84,3.85,3.85,0,0,1,.06-.75l.07-.37C706.47,214,706.55,213.93,706.65,213.94Zm.45,1.33.51.11.63.14a4.9,4.9,0,0,1,.82.24c.27.11.4.19.39.26s0,.07,0,.07h-.11l-.83-.23-.63-.15-.55-.1-.45-.08a.15.15,0,0,1-.11-.07.15.15,0,0,1,0-.09.15.15,0,0,1,.16-.13Z"/><path d="M709.58,212.38s.09.1.17.27a3.22,3.22,0,0,1,.17.51,2.31,2.31,0,0,1,.06.51,2.34,2.34,0,0,1,0,.48.79.79,0,0,1-.25.45.64.64,0,0,1-.59.15l-.19,0-.21,0-.19,0-.16-.05a.44.44,0,0,1-.23-.24.56.56,0,0,1,0-.35.89.89,0,0,1,.2-.41.39.39,0,0,1,.37-.16.39.39,0,0,1,.27.19.83.83,0,0,1,.09.32c0,.1,0,.19,0,.27l0,.27a.5.5,0,0,0,.34,0,.48.48,0,0,0,.25-.35,1.94,1.94,0,0,0,0-.43,4.17,4.17,0,0,0,0-.48,3.44,3.44,0,0,0-.12-.46l-.07-.23a.26.26,0,0,1,0-.1S709.56,212.38,709.58,212.38Zm-1,1.39a.15.15,0,0,0-.15.08.7.7,0,0,0-.1.26.22.22,0,0,0,0,.13.21.21,0,0,0,.1.1l.21.06.19,0a2,2,0,0,0,0-.24c0-.1,0-.18-.05-.24a.29.29,0,0,0-.08-.14A.24.24,0,0,0,708.59,213.77Z"/><path d="M709,211a.13.13,0,0,1,.1.11.36.36,0,0,1,0,.14l.23,0,.23,0a1.07,1.07,0,0,1,.53.29.59.59,0,0,1,.22.54.57.57,0,0,1-.21.35.48.48,0,0,1-.36.11l-.3,0-.28-.08-.26-.12a.7.7,0,0,1-.2-.17c-.07-.08-.1-.14-.09-.18a.1.1,0,0,1,.13-.09.41.41,0,0,1,.14.07l.16.11a1.64,1.64,0,0,0,.31.14l.37.1a.28.28,0,0,0,.21,0,.29.29,0,0,0,.13-.2c0-.08,0-.17-.14-.27a.75.75,0,0,0-.36-.19l-.36,0a.51.51,0,0,0-.2,0,.77.77,0,0,1-.1.15.16.16,0,0,1-.14.06c-.12,0-.18-.09-.17-.18a.22.22,0,0,1,0-.06.24.24,0,0,1,.09-.14l.17-.1,0-.18C708.91,211,708.94,211,709,211Z"/><path d="M709.79,209.26a1.5,1.5,0,0,1,.65.32q.35.29.3.55a.4.4,0,0,1-.16.25.38.38,0,0,1-.31.05q-.3-.06-.27-.18c0-.07.06-.1.12-.09l.15,0a.28.28,0,0,0,.13,0,.1.1,0,0,0,.08-.08.33.33,0,0,0-.15-.31,1.38,1.38,0,0,0-.65-.28.28.28,0,0,0-.23.05.29.29,0,0,0-.12.18.42.42,0,0,0,0,.24,1,1,0,0,0,.18.28l.18.07a4.92,4.92,0,0,0,.58.15l.37.07.27,0,.47.07.3,0a.56.56,0,0,0,.23,0,.3.3,0,0,1,.14,0,.32.32,0,0,1,.17.07s0,.08,0,.17-.06.11-.15.13a.81.81,0,0,1-.32,0l-.92-.13-.82-.16-.51-.13-.66-.19h-.12l-.15,0a.17.17,0,0,1-.11-.05.15.15,0,0,1,0-.11.16.16,0,0,1,.1-.11.28.28,0,0,1,.16,0l.44.09a.88.88,0,0,1-.12-.22.55.55,0,0,1,0-.3.51.51,0,0,1,.24-.32A.63.63,0,0,1,709.79,209.26Z"/><path d="M708.19,208.06l.09,0a.18.18,0,0,1,0,.15c0,.06-.07.11-.17.16a.44.44,0,0,1-.25.05.2.2,0,0,1-.1-.05.12.12,0,0,1,0-.12.27.27,0,0,1,.18-.18A.48.48,0,0,1,708.19,208.06Zm2.34-1.1c.09,0,.2.19.32.52a1.71,1.71,0,0,1,.13.91l-.1.31a.29.29,0,0,1-.12.17.65.65,0,0,1-.18.06.92.92,0,0,1-.31,0l-.35-.07-.37-.08-.15,0a.61.61,0,0,1-.18-.06.11.11,0,0,1-.05-.12.14.14,0,0,1,.08-.11.55.55,0,0,1,.26,0l.34.07.39.08a.75.75,0,0,0,.33,0q.12,0,.18-.31a1.39,1.39,0,0,0,0-.65l-.25-.6V207A.06.06,0,0,1,710.53,207Z"/><path d="M711.2,203.55s.07.07.14.2a2.67,2.67,0,0,1,.17.36,1.8,1.8,0,0,1,.14.95.67.67,0,0,1-.27.45.58.58,0,0,1-.46.1l-.29-.06a.14.14,0,0,0,0,.07.14.14,0,0,1,0,.07l.12.09.14.14a1.56,1.56,0,0,1,.29.38.71.71,0,0,1,.05.46.56.56,0,0,1-.27.35.55.55,0,0,1-.39.12.24.24,0,0,1-.12-.07.14.14,0,0,1,0-.13.28.28,0,0,1,.06-.14s.08,0,.18,0,.34,0,.38-.23a.5.5,0,0,0-.1-.32,1,1,0,0,0-.28-.32.55.55,0,0,1,0,.16l0,.12a.4.4,0,0,1-.26.32.65.65,0,0,1-.37,0,.52.52,0,0,1-.35-.24.6.6,0,0,1-.07-.46.69.69,0,0,1,.21-.43.44.44,0,0,1,.36-.06h.07l.12.05-.4-.25c-.1-.06-.14-.12-.13-.18a.13.13,0,0,1,0-.08.11.11,0,0,1,.09,0l.49.18.33.11a.59.59,0,0,0,.4,0,.34.34,0,0,0,.14-.24,1.6,1.6,0,0,0-.07-.78,3.39,3.39,0,0,0-.14-.37.68.68,0,0,1-.08-.24C711.09,203.56,711.13,203.54,711.2,203.55Zm-1,2.12q-.25,0-.32.3a.33.33,0,0,0,.06.25.3.3,0,0,0,.17.15.39.39,0,0,0,.22,0,.2.2,0,0,0,.12-.17v-.06a1.68,1.68,0,0,0,0-.19,1,1,0,0,0,0-.17A1.26,1.26,0,0,0,710.19,205.68Z"/><path d="M712.51,200a3.65,3.65,0,0,1,.56.14,2.83,2.83,0,0,1,.44.25,1.45,1.45,0,0,1,.42.44.9.9,0,0,1,.16.67.82.82,0,0,1-.28.5.42.42,0,0,1-.33.11c-.09,0-.13-.06-.11-.14a.13.13,0,0,1,.08-.09l.09,0a.49.49,0,0,0,.19-.12.42.42,0,0,0,.09-.2.76.76,0,0,0-.11-.53,1.09,1.09,0,0,0-.41-.43,2.6,2.6,0,0,0-.41-.2l-.35-.09-.34,0h-.29a.75.75,0,0,1,.36.34.66.66,0,0,1,.08.44.61.61,0,0,1-.16.34.48.48,0,0,1-.43.09,1,1,0,0,1-.53-.32,1.06,1.06,0,0,1-.31-.72s0,0,0,0v0q0-.1.1-.09s.07.08.12.21l.07.2a.73.73,0,0,0,.28.34.89.89,0,0,0,.33.15.25.25,0,0,0,.17,0,.22.22,0,0,0,.11-.16.52.52,0,0,0-.12-.41,1.35,1.35,0,0,0-.28-.28l-.24,0h-.2c-.09,0-.12-.08-.1-.18s.17-.07.47-.08A4,4,0,0,1,712.51,200Z"/><path d="M712.65,197s.09.1.17.27a3.22,3.22,0,0,1,.17.51,2.31,2.31,0,0,1,.06.51,2.34,2.34,0,0,1,0,.48.79.79,0,0,1-.25.45.64.64,0,0,1-.59.15l-.19,0-.21,0-.19,0-.16-.05a.44.44,0,0,1-.23-.24.56.56,0,0,1,0-.35.89.89,0,0,1,.2-.41.39.39,0,0,1,.37-.16.39.39,0,0,1,.27.19.83.83,0,0,1,.09.32c0,.1,0,.19,0,.27l0,.27a.5.5,0,0,0,.34,0,.48.48,0,0,0,.25-.35,1.94,1.94,0,0,0,0-.43,4.17,4.17,0,0,0,0-.48,3.44,3.44,0,0,0-.12-.46l-.07-.23a.26.26,0,0,1,0-.1S712.62,197,712.65,197Zm-1,1.39a.15.15,0,0,0-.15.08.7.7,0,0,0-.1.26.22.22,0,0,0,0,.13.21.21,0,0,0,.1.1l.21.06.19,0a2,2,0,0,0,0-.24c0-.1,0-.18-.05-.24a.29.29,0,0,0-.08-.14A.24.24,0,0,0,711.65,198.35Z"/><path d="M712.51,195.6a1.5,1.5,0,0,1,.65.32q.35.29.3.55a.4.4,0,0,1-.16.25.38.38,0,0,1-.31.05q-.3-.06-.27-.18c0-.07.06-.1.12-.09l.15,0a.28.28,0,0,0,.13,0,.1.1,0,0,0,.08-.08.33.33,0,0,0-.15-.31,1.38,1.38,0,0,0-.65-.28.28.28,0,0,0-.23.05.29.29,0,0,0-.12.18.42.42,0,0,0,0,.24,1,1,0,0,0,.18.28l.18.07a4.92,4.92,0,0,0,.58.15l.37.07.27,0,.47.07.3,0a.56.56,0,0,0,.23,0,.3.3,0,0,1,.14,0,.32.32,0,0,1,.17.07s0,.08,0,.17-.06.11-.15.13a.81.81,0,0,1-.32,0l-.92-.13-.82-.16-.51-.13-.66-.19h-.12l-.15,0a.17.17,0,0,1-.11-.05.15.15,0,0,1,0-.11.16.16,0,0,1,.1-.11.28.28,0,0,1,.16,0l.44.09a.88.88,0,0,1-.12-.22.55.55,0,0,1,0-.3.51.51,0,0,1,.24-.32A.63.63,0,0,1,712.51,195.6Z"/><path d="M713.76,190.6s.07,0,.1.11l.17.41a2,2,0,0,1,.17.57,1.54,1.54,0,0,1,0,.51.49.49,0,0,1-.24.38,1.09,1.09,0,0,1-.63,0,1.27,1.27,0,0,1,.2.2l.25.3.14.16c0,.05.06.09.06.12s-.11.13-.28.14a1.85,1.85,0,0,1-.52,0l-.26,0-.33-.06.34.32a4.17,4.17,0,0,0,.4.34.88.88,0,0,1,.27.27.57.57,0,0,1,.11.43.82.82,0,0,1-.26.47.44.44,0,0,1-.36.14.21.21,0,0,1-.11-.07.15.15,0,0,1,0-.13A.28.28,0,0,1,713,195s.08,0,.16,0a.23.23,0,0,0,.24-.09.48.48,0,0,0,.1-.22c0-.12,0-.23-.21-.34a1.33,1.33,0,0,0-.49-.2.5.5,0,0,0-.34,0,.3.3,0,0,0-.14.21.3.3,0,0,0,0,.2.27.27,0,0,1,0,.16.08.08,0,0,1-.1.07c-.06,0-.11-.08-.16-.19a.61.61,0,0,1,0-.34.52.52,0,0,1,.18-.32.67.67,0,0,1,.56-.08l-.38-.32c-.17-.16-.26-.26-.24-.32a.22.22,0,0,1,.19-.18.93.93,0,0,1,.33,0l.12,0,.11,0,.34,0,.33,0-.26-.27-.22-.24-.19-.17-.19-.2a1.05,1.05,0,0,1-.17-.23.38.38,0,0,1,0-.25.49.49,0,0,1,.13-.25.25.25,0,0,1,.23-.08c.06,0,.09,0,.08.08s0,.06-.1.08-.1.05-.11.09,0,.23.2.33a1.41,1.41,0,0,0,.51.21.54.54,0,0,0,.36,0,.31.31,0,0,0,.16-.22,1.22,1.22,0,0,0,0-.38,2.56,2.56,0,0,0-.13-.51l-.15-.38a.45.45,0,0,1,0-.16A.08.08,0,0,1,713.76,190.6Z"/><path d="M714.3,188s.08.06.14.17a2.13,2.13,0,0,1,.19.41,2.84,2.84,0,0,1,.14.6,1.8,1.8,0,0,1,0,.53.37.37,0,0,1-.29.29,1.55,1.55,0,0,1-.7,0,3.26,3.26,0,0,1,.39.34q.28.3.24.51a.27.27,0,0,1-.16.23.73.73,0,0,1-.36,0,1.58,1.58,0,0,1-.68-.37.8.8,0,0,1-.37-.76.59.59,0,0,1,.07-.2.55.55,0,0,1,.15-.13s0-.06.09-.08a.37.37,0,0,1,.19,0l.38.09.33.08a.88.88,0,0,0,.3,0,.23.23,0,0,0,.17-.21,1.44,1.44,0,0,0,0-.31,1.69,1.69,0,0,0-.1-.52,2.57,2.57,0,0,0-.21-.47l-.06-.13A.1.1,0,0,1,714.3,188Zm-1,1.92-.07,0c-.08,0-.13,0-.15.08s.06.28.24.46a1.06,1.06,0,0,0,.48.31l.18,0c.05,0,.08,0,.08,0s-.13-.25-.44-.53Z"/><path d="M714.38,186.65a1.2,1.2,0,0,1,.56.25.48.48,0,0,1,.18.48.59.59,0,0,1-.19.35.65.65,0,0,1-.4.14,2.92,2.92,0,0,1-.53,0l-.55-.09,0,.08a.15.15,0,0,1,0,.09.15.15,0,0,1-.06.08.1.1,0,0,1-.08,0s-.08-.06-.15-.17l-.1-.18-.33,0-.44-.07a2.16,2.16,0,0,1-.93-.33.44.44,0,0,1-.13-.44.33.33,0,0,1,.19-.24,1.65,1.65,0,0,1,.63-.07h.12l.12,0a1.25,1.25,0,0,1,.7.41,1.43,1.43,0,0,1,.31.56l.23,0,.24,0,.37.05h.37a.33.33,0,0,0,.21-.07.32.32,0,0,0,.13-.21.25.25,0,0,0-.14-.27,1,1,0,0,0-.37-.14.66.66,0,0,0-.42.07c-.15.07-.24.16-.25.25a.61.61,0,0,1-.05.16.09.09,0,0,1-.11,0,.19.19,0,0,1-.11-.06.12.12,0,0,1,0-.11.75.75,0,0,1,.41-.52A.84.84,0,0,1,714.38,186.65Zm-2.26.07a1.91,1.91,0,0,0-.37,0c-.14,0-.22.07-.23.13s0,.14.16.2a3,3,0,0,0,.66.19l.29.07.42.11a1.17,1.17,0,0,0-.27-.39,1,1,0,0,0-.52-.31Z"/><path d="M715.29,183.25c.07,0,.16.16.27.43a1.57,1.57,0,0,1,.11.9.71.71,0,0,1-.13.3.48.48,0,0,1-.33.18l-.27,0h-.25a1.44,1.44,0,0,1,.49.46.74.74,0,0,1,.19.48.4.4,0,0,1-.15.25.6.6,0,0,1-.41.09l-.42-.07-.45-.1a.2.2,0,0,1-.13-.08.15.15,0,0,1,0-.12.11.11,0,0,1,.06-.08.35.35,0,0,1,.19,0l.16,0,.24.06.36.07c.16,0,.25,0,.27-.12s0-.19-.19-.36a1.91,1.91,0,0,0-.37-.34,1,1,0,0,1-.22-.19c-.07-.08-.09-.14-.08-.18s.15-.1.42-.09H715a.46.46,0,0,0,.26-.09.45.45,0,0,0,.12-.26,1.18,1.18,0,0,0,0-.6l-.23-.56s0-.05,0-.06Z"/><path d="M713.72,180.21l.09,0a.18.18,0,0,1,0,.15c0,.06-.07.11-.17.16a.44.44,0,0,1-.25.05.2.2,0,0,1-.1-.05.12.12,0,0,1,0-.12.27.27,0,0,1,.18-.18A.47.47,0,0,1,713.72,180.21Zm2.34-1.1c.09,0,.2.19.32.52a1.71,1.71,0,0,1,.13.91l-.1.31a.29.29,0,0,1-.12.17.65.65,0,0,1-.18.06.92.92,0,0,1-.31,0l-.35-.07-.37-.08-.15,0a.61.61,0,0,1-.18-.06.11.11,0,0,1-.05-.12.14.14,0,0,1,.08-.11.55.55,0,0,1,.26,0l.34.07.39.08a.75.75,0,0,0,.33,0q.12,0,.18-.31a1.39,1.39,0,0,0,0-.65l-.25-.6v-.07A.06.06,0,0,1,716.07,179.12Z"/><path d="M717.17,173.65s.1.08.19.22a2.15,2.15,0,0,1,.2.41,1.78,1.78,0,0,1,.11.5,1.6,1.6,0,0,1,0,.43.72.72,0,0,1-.21.42.91.91,0,0,1-.47.16l-.31,0c-.08,0-.13,0-.14.1s0,.1.11.21a3.67,3.67,0,0,0,.28.32l.14.14q.11.13.1.2c0,.08-.08.12-.19.14h-.31l-.5,0-.39-.05a.22.22,0,0,1-.12-.06s0-.07,0-.14.05-.07.13-.08a1,1,0,0,1,.28,0l.24,0h.41a4.26,4.26,0,0,1-.32-.36,1.26,1.26,0,0,1-.17-.27.37.37,0,0,1,0-.22.29.29,0,0,1,.22-.23,1.89,1.89,0,0,1,.42,0,1.5,1.5,0,0,0,.42,0,.26.26,0,0,0,.18-.2,1.63,1.63,0,0,0,0-.4,2.3,2.3,0,0,0-.07-.46,2.91,2.91,0,0,0-.24-.5.44.44,0,0,1-.08-.18s0-.07,0-.07Z"/><path d="M717.13,172.33a1.5,1.5,0,0,1,.65.32q.35.29.3.55a.4.4,0,0,1-.16.25.38.38,0,0,1-.31.05q-.3-.06-.27-.18c0-.07.06-.1.12-.09l.15,0a.28.28,0,0,0,.13,0,.1.1,0,0,0,.08-.08.33.33,0,0,0-.15-.31,1.38,1.38,0,0,0-.65-.28.28.28,0,0,0-.23.05.29.29,0,0,0-.12.18.42.42,0,0,0,0,.24,1,1,0,0,0,.18.28l.18.07a4.92,4.92,0,0,0,.58.15l.37.07.27,0,.47.07.3,0a.56.56,0,0,0,.23,0,.3.3,0,0,1,.14,0,.32.32,0,0,1,.17.07s0,.08,0,.17-.06.11-.15.13a.81.81,0,0,1-.32,0l-.92-.13-.82-.16-.51-.13-.66-.19h-.12l-.15,0a.17.17,0,0,1-.11-.05.15.15,0,0,1,0-.11.16.16,0,0,1,.1-.11.28.28,0,0,1,.16,0l.44.09a.88.88,0,0,1-.12-.22.55.55,0,0,1,0-.3.51.51,0,0,1,.24-.32A.63.63,0,0,1,717.13,172.33Z"/><path d="M718,169.17s.08.06.14.17a2.13,2.13,0,0,1,.19.41,2.84,2.84,0,0,1,.14.6,1.8,1.8,0,0,1,0,.53.37.37,0,0,1-.29.29,1.55,1.55,0,0,1-.7,0,3.26,3.26,0,0,1,.39.34q.28.3.24.51a.27.27,0,0,1-.16.23.73.73,0,0,1-.36,0,1.58,1.58,0,0,1-.68-.37.8.8,0,0,1-.37-.76.59.59,0,0,1,.07-.2.55.55,0,0,1,.15-.13s0-.06.09-.08a.37.37,0,0,1,.19,0l.38.09.33.08a.88.88,0,0,0,.3,0,.23.23,0,0,0,.17-.21,1.44,1.44,0,0,0,0-.31,1.69,1.69,0,0,0-.1-.52,2.57,2.57,0,0,0-.21-.47l-.06-.13A.1.1,0,0,1,718,169.17Zm-1,1.92-.07,0c-.08,0-.13,0-.15.08s.06.28.24.46a1.06,1.06,0,0,0,.48.31l.18,0c.05,0,.08,0,.08,0s-.13-.25-.44-.53Z"/><path d="M718.11,167.84a1.2,1.2,0,0,1,.56.25.48.48,0,0,1,.18.48.59.59,0,0,1-.19.35.65.65,0,0,1-.4.14,2.92,2.92,0,0,1-.53,0l-.55-.09,0,.08a.15.15,0,0,1,0,.09.15.15,0,0,1-.06.08.1.1,0,0,1-.08,0s-.08-.06-.15-.17l-.1-.18-.33,0-.44-.07a2.16,2.16,0,0,1-.93-.33A.44.44,0,0,1,715,168a.33.33,0,0,1,.19-.24,1.65,1.65,0,0,1,.63-.07h.12l.12,0a1.25,1.25,0,0,1,.7.41,1.43,1.43,0,0,1,.31.56l.23,0,.24,0,.37.05h.37a.33.33,0,0,0,.21-.07.32.32,0,0,0,.13-.21.25.25,0,0,0-.14-.27,1,1,0,0,0-.37-.14.66.66,0,0,0-.42.07c-.15.07-.24.16-.25.25a.61.61,0,0,1-.05.16.09.09,0,0,1-.11,0,.19.19,0,0,1-.11-.06.12.12,0,0,1,0-.11.75.75,0,0,1,.41-.52A.84.84,0,0,1,718.11,167.84Zm-2.26.07a1.91,1.91,0,0,0-.37,0c-.14,0-.22.07-.23.13s0,.14.16.2a3,3,0,0,0,.66.19l.29.07.42.11a1.17,1.17,0,0,0-.27-.39,1,1,0,0,0-.52-.31Z"/><path d="M718.92,164.71s.08.06.14.17a2.13,2.13,0,0,1,.19.41,2.84,2.84,0,0,1,.14.6,1.8,1.8,0,0,1,0,.53.37.37,0,0,1-.29.29,1.55,1.55,0,0,1-.7,0,3.34,3.34,0,0,1,.39.34q.28.3.24.51a.27.27,0,0,1-.16.23.73.73,0,0,1-.36,0,1.58,1.58,0,0,1-.68-.37.8.8,0,0,1-.37-.76.59.59,0,0,1,.07-.2.55.55,0,0,1,.15-.13s0-.06.09-.08a.37.37,0,0,1,.19,0l.38.09.33.08a.88.88,0,0,0,.3,0,.23.23,0,0,0,.17-.21,1.44,1.44,0,0,0,0-.31,1.69,1.69,0,0,0-.1-.52,2.57,2.57,0,0,0-.21-.47l-.06-.13A.1.1,0,0,1,718.92,164.71Zm-1,1.92-.07,0c-.08,0-.13,0-.15.08s.06.28.24.46a1.06,1.06,0,0,0,.48.31l.18,0c.05,0,.08,0,.08,0s-.13-.25-.44-.53Z"/><path d="M723.11,220s.06,0,.05.07l0,.11a1.78,1.78,0,0,1-.35.6,3.62,3.62,0,0,1-.77.76,7.34,7.34,0,0,1-.8.5,3.52,3.52,0,0,1-.54.25l.58.15.8.24a.86.86,0,0,1,.29.09.13.13,0,0,1,.05.15.11.11,0,0,1-.1.08.86.86,0,0,1-.24,0l-.15,0-.16,0-1.33-.35-.93-.22-.44-.08-.31,0a.27.27,0,0,1-.16-.09.18.18,0,0,1,.07-.29.51.51,0,0,1,.32,0l.42.11.75.21-.33-.48c-.12-.18-.21-.32-.27-.42l-.45-.85a1.14,1.14,0,0,1-.18-.5.15.15,0,0,1,.07-.1l0,0a1.79,1.79,0,0,1,.31.46l.52.93a3.92,3.92,0,0,0,.24.36l.34.46a2.69,2.69,0,0,0,.58-.24q.38-.2.81-.48a3.67,3.67,0,0,0,.38-.28c.1-.09.23-.21.38-.37a5,5,0,0,0,.31-.39C723,220.06,723.08,220,723.11,220Z"/><path d="M721.67,217.89a.15.15,0,0,1,.12.13.4.4,0,0,1,0,.16l.27,0,.27,0a1.24,1.24,0,0,1,.62.34.68.68,0,0,1,.26.64.67.67,0,0,1-.25.41.56.56,0,0,1-.42.13l-.35-.05-.33-.09-.31-.14a.83.83,0,0,1-.23-.2c-.08-.09-.11-.16-.11-.21a.12.12,0,0,1,.16-.11.46.46,0,0,1,.16.08l.19.13a1.93,1.93,0,0,0,.36.16l.43.12a.33.33,0,0,0,.24,0,.33.33,0,0,0,.15-.23q0-.15-.16-.32a.87.87,0,0,0-.42-.22,2.91,2.91,0,0,0-.42-.06.59.59,0,0,0-.23,0,.9.9,0,0,1-.12.18.18.18,0,0,1-.17.07c-.14,0-.21-.1-.2-.21a.27.27,0,0,1,0-.07.29.29,0,0,1,.11-.16l.2-.12.06-.21C721.57,217.92,721.61,217.88,721.67,217.89Z"/><path d="M723.33,213.86c.05,0,.13.11.23.3a2.9,2.9,0,0,1,.24.55,2.67,2.67,0,0,1,.11.51,1.47,1.47,0,0,1,0,.42,1,1,0,0,1-.22.5.72.72,0,0,1-.39.21l-.2,0h-.22v.15l0,.12,0,.13-.11.55.09,0,.09,0h.42a.3.3,0,0,1,.15.07.16.16,0,0,1,0,.16c0,.09-.09.14-.21.15a1.65,1.65,0,0,1-.42,0l-.22,0a.18.18,0,0,1-.24.15s-.06-.08-.05-.21l-.33-.08-.23-.06a.24.24,0,0,1-.14-.07.2.2,0,0,1,0-.17c0-.05.06-.08.13-.07l.28,0,.12,0,.12,0,.12,0,.08-.38,0-.09v-.07l0-.18c0-.06,0-.12,0-.18v-.05l-.41-.09a.55.55,0,0,1-.24-.1.14.14,0,0,1-.06-.14q0-.12.36-.05l.5.08a1.5,1.5,0,0,0,.35,0,.82.82,0,0,0,.4-.11.46.46,0,0,0,.16-.29,1.26,1.26,0,0,0,0-.28,3,3,0,0,0-.08-.48,3.38,3.38,0,0,0-.28-.68.65.65,0,0,1-.09-.23c0-.06,0-.09.08-.08Z"/><path d="M723.8,211.42s.09.08.15.23.11.29.17.43a3.61,3.61,0,0,1,.23.79,1.87,1.87,0,0,1,0,.67.58.58,0,0,1-.33.42.89.89,0,0,1-.59.07,2.3,2.3,0,0,1-.72-.28q-.52-.3-.45-.68a.64.64,0,0,1,.17-.33.29.29,0,0,1,.28-.1c.08,0,.11.05.1.11s0,.08-.12.11a.17.17,0,0,0-.13.13c0,.15.05.3.25.44a1.63,1.63,0,0,0,.61.24.65.65,0,0,0,.46,0,.39.39,0,0,0,.18-.28,1.69,1.69,0,0,0,0-.49,3.43,3.43,0,0,0-.15-.65l-.18-.5a.51.51,0,0,1,0-.21s0-.07,0-.08Z"/><path d="M724.61,207.21c.09,0,.21.19.34.52a1.74,1.74,0,0,1,.14,1,1,1,0,0,1-.48.71l-.5.2a1.37,1.37,0,0,1,.26.27.45.45,0,0,1,.1.33.29.29,0,0,1-.09.16.59.59,0,0,1-.2.11l-.19,0-.22,0h-.19a.11.11,0,0,0-.1.08s0,.1.12.18a3.49,3.49,0,0,0,.35.26l.29.19a.27.27,0,0,1,.11.26.11.11,0,0,1-.11.09,1,1,0,0,1-.26,0l-.16,0-.17,0-.4-.06-.36,0a.32.32,0,0,1-.17-.08.14.14,0,0,1,0-.14c0-.07.13-.11.34-.12a2.17,2.17,0,0,1,.47,0,2,2,0,0,1-.27-.28.4.4,0,0,1-.11-.27.47.47,0,0,1,.14-.24.45.45,0,0,1,.28-.13h.32c.14,0,.22,0,.23-.06s0-.13-.14-.21l-.24-.14-.22-.11a.15.15,0,0,1,0-.17c0-.09.09-.14.2-.15a1.25,1.25,0,0,0,.27-.05,2.11,2.11,0,0,0,.6-.23.68.68,0,0,0,.32-.46,1.27,1.27,0,0,0,0-.65l-.27-.61Q724.54,207.19,724.61,207.21Z"/><path d="M725.4,203.74q.12,0,.31.5a1.82,1.82,0,0,1,.13,1.05.82.82,0,0,1-.15.35.56.56,0,0,1-.38.22l-.32,0h-.29a1.67,1.67,0,0,1,.57.54.86.86,0,0,1,.23.56.47.47,0,0,1-.18.3.72.72,0,0,1-.48.11l-.49-.08-.52-.12a.24.24,0,0,1-.15-.09.18.18,0,0,1,0-.14.13.13,0,0,1,.07-.1.41.41,0,0,1,.22,0l.19,0,.28.07.42.08c.19,0,.3,0,.32-.14s-.06-.22-.23-.41a2.24,2.24,0,0,0-.43-.4,1.13,1.13,0,0,1-.26-.22c-.08-.09-.11-.16-.1-.21s.18-.12.49-.1h.47a.43.43,0,0,0,.45-.41,1.38,1.38,0,0,0-.05-.7l-.27-.65s0-.06,0-.07Z"/><path d="M726.15,199.45c.09,0,.21.19.34.52a1.74,1.74,0,0,1,.14,1,1,1,0,0,1-.48.71l-.5.2a1.37,1.37,0,0,1,.26.27.45.45,0,0,1,.1.33.29.29,0,0,1-.09.16.59.59,0,0,1-.2.11l-.19,0-.22,0h-.19a.11.11,0,0,0-.1.08s0,.1.12.18a3.49,3.49,0,0,0,.35.26l.29.19a.27.27,0,0,1,.11.26.11.11,0,0,1-.11.09,1,1,0,0,1-.26,0l-.16,0-.17,0-.4-.06-.36,0a.32.32,0,0,1-.17-.08.14.14,0,0,1,0-.14c0-.07.13-.11.34-.12a2.18,2.18,0,0,1,.47,0,2,2,0,0,1-.27-.28.4.4,0,0,1-.11-.27.47.47,0,0,1,.14-.24.45.45,0,0,1,.28-.13h.32c.14,0,.22,0,.23-.06s0-.13-.14-.21l-.24-.14-.22-.11a.15.15,0,0,1,0-.17c0-.09.09-.14.2-.15a1.25,1.25,0,0,0,.27-.05,2.11,2.11,0,0,0,.6-.23.68.68,0,0,0,.32-.46,1.27,1.27,0,0,0,0-.65l-.27-.61Q726.08,199.43,726.15,199.45Z"/><path d="M726.79,196.06a2.35,2.35,0,0,1,.22.73q.09.41.2,1l.38.08.41.08.28.05a2.26,2.26,0,0,1,1.06.4.61.61,0,0,1,.17.59.56.56,0,0,1-.32.41.94.94,0,0,1-.62.06,1.93,1.93,0,0,1-1.09-.63A2.57,2.57,0,0,1,727,198l-.29,0-.25,0-.09,0-.12,0a4,4,0,0,1,.38.56,1.12,1.12,0,0,1,.21.66.29.29,0,0,1-.18.22l-.28.07-.3.06-.26,0-.19,0h-.16q-.22,0-.18-.24c0-.09.09-.14.22-.14h.38l.37,0c.16,0,.25-.08.27-.16a.7.7,0,0,0-.17-.41L726,198a3,3,0,0,1-.32-.48.11.11,0,0,1,0-.06.11.11,0,0,1,.07-.08.31.31,0,0,1,.17,0l.21.08.18.08.12,0,.22,0,.24,0a6.07,6.07,0,0,1-.21-.87,4,4,0,0,1-.1-.67.1.1,0,0,1,.08-.08Zm1.61,2.27-1-.2a1.38,1.38,0,0,0,.36.53,1.58,1.58,0,0,0,.81.42.82.82,0,0,0,.41,0c.15,0,.23-.11.24-.18s-.06-.23-.26-.34A1.87,1.87,0,0,0,728.4,198.32Z"/><path d="M727.73,193.46a3.42,3.42,0,0,1,.7.25,2.35,2.35,0,0,1,.59.34.51.51,0,0,1,.21.46q0,.14-.21.11s-.09-.05-.12-.13a1.59,1.59,0,0,0-.1-.2,1.1,1.1,0,0,0-.36-.26,4.06,4.06,0,0,0-.48-.22.56.56,0,0,1,.09.2.57.57,0,0,1,0,.23.48.48,0,0,1-.19.28.86.86,0,0,1-.38.16l-.33.06-.31,0,.36.53a1.07,1.07,0,0,1,.24.59.24.24,0,0,1-.16.2,1.45,1.45,0,0,1-.42,0l-.35,0-.33,0-.1,0a.24.24,0,0,1-.15-.09.17.17,0,0,1,0-.14.14.14,0,0,1,.08-.1.32.32,0,0,1,.2,0l.46.07a1.85,1.85,0,0,0,.44,0,3.4,3.4,0,0,0-.25-.41,3.73,3.73,0,0,0-.3-.4l-.15-.2a.24.24,0,0,1,0-.17q0-.12.33-.14l.6,0a1.11,1.11,0,0,0,.39-.12.27.27,0,0,0,.12-.18.41.41,0,0,0-.14-.32c-.11-.13-.16-.21-.15-.24a.12.12,0,0,1,0-.08S727.61,193.43,727.73,193.46Z"/><path d="M725.19,192.09l.11,0a.22.22,0,0,1,0,.18q0,.1-.2.18a.51.51,0,0,1-.29.06.23.23,0,0,1-.12-.06.14.14,0,0,1,0-.14c0-.09.09-.15.21-.21A.55.55,0,0,1,725.19,192.09Zm2.73-1.28q.16,0,.38.61a2,2,0,0,1,.15,1.06l-.12.36a.34.34,0,0,1-.14.2.77.77,0,0,1-.22.07,1.08,1.08,0,0,1-.36,0l-.4-.08-.44-.09-.18,0a.74.74,0,0,1-.21-.07.13.13,0,0,1-.06-.14.16.16,0,0,1,.1-.13.63.63,0,0,1,.31,0l.4.09.45.1a.88.88,0,0,0,.38,0q.14-.06.21-.36a1.61,1.61,0,0,0,0-.76l-.29-.7,0-.08A.07.07,0,0,1,727.92,190.81Z"/><path d="M726.09,188.9a.37.37,0,0,1,.15.1.7.7,0,0,1,.19.28,1.19,1.19,0,0,1,.07.29.8.8,0,0,1,0,.24.74.74,0,0,1-.11.28l-.15.18-.14.11a.5.5,0,0,1-.18.07h-.1a.21.21,0,0,1-.12-.06.13.13,0,0,1,0-.12s0-.07.13-.11l.18-.1.16-.13a.34.34,0,0,0,.1-.18.58.58,0,0,0,0-.2,1,1,0,0,0-.06-.19.82.82,0,0,0-.13-.21c-.06-.07-.08-.12-.08-.14S726,188.89,726.09,188.9Zm2.56-1.52q.12,0,.31.5a1.82,1.82,0,0,1,.13,1.05.83.83,0,0,1-.15.35.56.56,0,0,1-.38.22l-.32,0H728a1.67,1.67,0,0,1,.57.54.86.86,0,0,1,.23.56.47.47,0,0,1-.21.3.67.67,0,0,1-.42.11l-.5-.08-.28-.06-.25-.06a.24.24,0,0,1-.15-.09.18.18,0,0,1,0-.14.13.13,0,0,1,.07-.1.41.41,0,0,1,.22,0l.19,0,.28.07.42.07q.28,0,.32-.16c0-.08-.06-.21-.23-.4a2.53,2.53,0,0,0-.43-.39,1.15,1.15,0,0,1-.26-.22c-.08-.09-.11-.16-.1-.21s.18-.12.49-.1h.47a.43.43,0,0,0,.45-.41,1.38,1.38,0,0,0-.05-.7l-.27-.65s0-.06,0-.07Z"/><path d="M729.3,183.78c.05,0,.13.11.23.3a2.9,2.9,0,0,1,.24.55,2.67,2.67,0,0,1,.11.51,1.47,1.47,0,0,1,0,.42,1,1,0,0,1-.22.5.72.72,0,0,1-.39.21l-.2,0h-.22v.15l0,.12,0,.13-.11.55.09,0,.09,0h.42a.3.3,0,0,1,.15.07.16.16,0,0,1,0,.16c0,.09-.09.14-.21.15a1.65,1.65,0,0,1-.42,0l-.22,0a.18.18,0,0,1-.24.15s-.06-.08-.05-.21l-.33-.08-.23-.06a.24.24,0,0,1-.14-.07.2.2,0,0,1,0-.17c0-.05.06-.08.13-.07l.28,0,.12,0,.12,0,.12,0,.08-.38,0-.09v-.07l0-.18,0-.18v-.05l-.41-.09a.55.55,0,0,1-.24-.1.14.14,0,0,1-.06-.14c0-.08.14-.1.36-.05l.5.08a1.5,1.5,0,0,0,.35,0,.82.82,0,0,0,.4-.11.46.46,0,0,0,.16-.29,1.26,1.26,0,0,0,0-.28,3,3,0,0,0-.08-.48,3.38,3.38,0,0,0-.28-.68.66.66,0,0,1-.09-.23c0-.06,0-.09.08-.08Z"/><path d="M730,181.11s.11.12.19.32a3.8,3.8,0,0,1,.2.6,2.76,2.76,0,0,1,.07.6,2.73,2.73,0,0,1,0,.57.92.92,0,0,1-.29.52.75.75,0,0,1-.68.17l-.22,0-.24,0-.22,0-.19-.06a.51.51,0,0,1-.27-.28.65.65,0,0,1-.05-.4,1,1,0,0,1,.23-.48.45.45,0,0,1,.43-.19.46.46,0,0,1,.32.22,1,1,0,0,1,.11.37c0,.11,0,.22,0,.32l.05.32a.58.58,0,0,0,.39-.06.55.55,0,0,0,.29-.41,2.17,2.17,0,0,0,0-.5,4.53,4.53,0,0,0-.06-.56,3.87,3.87,0,0,0-.13-.54l-.08-.26a.31.31,0,0,1,0-.11A.07.07,0,0,1,730,181.11Zm-1.16,1.62a.17.17,0,0,0-.18.09.82.82,0,0,0-.11.3.25.25,0,0,0,0,.16.25.25,0,0,0,.11.12l.24.07.22.05a2.13,2.13,0,0,0,0-.28c0-.12,0-.21-.06-.28a.33.33,0,0,0-.09-.16A.29.29,0,0,0,728.83,182.73Z"/><path d="M731.14,174.71s.12.09.22.25a2.44,2.44,0,0,1,.24.48,2.06,2.06,0,0,1,.13.58,1.93,1.93,0,0,1,0,.5.83.83,0,0,1-.24.5,1.06,1.06,0,0,1-.54.18l-.36,0c-.1,0-.15.05-.16.11s0,.12.13.24a4.27,4.27,0,0,0,.33.37l.16.17c.09.1.13.18.12.24s-.09.14-.22.16h-.36l-.59,0-.45-.06a.25.25,0,0,1-.14-.06s0-.09,0-.17.06-.08.15-.09a1.13,1.13,0,0,1,.32,0l.28,0h.48a4.92,4.92,0,0,1-.38-.42,1.44,1.44,0,0,1-.2-.31.44.44,0,0,1-.05-.25.34.34,0,0,1,.26-.27,2.13,2.13,0,0,1,.49,0,1.79,1.79,0,0,0,.49-.05.3.3,0,0,0,.21-.24,1.9,1.9,0,0,0,0-.46,2.63,2.63,0,0,0-.09-.54,3.42,3.42,0,0,0-.28-.59.53.53,0,0,1-.09-.21c0-.05,0-.08,0-.08Z"/><path d="M731.09,173.16a1.74,1.74,0,0,1,.76.37c.27.22.39.44.35.65a.46.46,0,0,1-.18.29.44.44,0,0,1-.36.06q-.35-.07-.32-.21t.14-.11l.18,0a.32.32,0,0,0,.15,0,.12.12,0,0,0,.09-.09.39.39,0,0,0-.18-.36,1.62,1.62,0,0,0-.75-.32.33.33,0,0,0-.27.06.35.35,0,0,0-.14.21.51.51,0,0,0,0,.28,1.15,1.15,0,0,0,.21.32l.21.08a5.57,5.57,0,0,0,.68.18l.43.08.32.06a5,5,0,0,0,.55.08l.35,0a.67.67,0,0,0,.27,0,.36.36,0,0,1,.16,0,.38.38,0,0,1,.19.08s0,.1,0,.19-.08.12-.18.15a1,1,0,0,1-.38,0l-1.07-.15-1-.19-.59-.15-.77-.22h-.14l-.17,0a.21.21,0,0,1-.13-.06.18.18,0,0,1,0-.13.18.18,0,0,1,.12-.13.32.32,0,0,1,.19,0l.52.1a1,1,0,0,1-.14-.26.64.64,0,0,1,0-.35.59.59,0,0,1,.28-.38A.74.74,0,0,1,731.09,173.16Z"/><path d="M732.15,169.47s.09.07.17.2a2.47,2.47,0,0,1,.22.48,3.29,3.29,0,0,1,.16.7,2.08,2.08,0,0,1,0,.62.43.43,0,0,1-.34.34,1.82,1.82,0,0,1-.82,0,3.82,3.82,0,0,1,.45.4q.33.35.28.59a.32.32,0,0,1-.18.27.85.85,0,0,1-.42,0,1.85,1.85,0,0,1-.8-.43.94.94,0,0,1-.43-.89.68.68,0,0,1,.08-.24.63.63,0,0,1,.17-.15s0-.07.11-.1a.42.42,0,0,1,.22,0l.44.11.38.09a1,1,0,0,0,.35,0,.27.27,0,0,0,.2-.24,1.69,1.69,0,0,0,0-.36,2,2,0,0,0-.11-.61,3,3,0,0,0-.25-.54.82.82,0,0,1-.07-.15A.12.12,0,0,1,732.15,169.47ZM731,171.71l-.08,0c-.1,0-.15,0-.17.1s.07.33.28.54a1.24,1.24,0,0,0,.56.37l.21,0c.06,0,.09,0,.1,0s-.15-.29-.52-.61Z"/><path d="M732.24,167.95a1.4,1.4,0,0,1,.65.29.56.56,0,0,1,.21.56.69.69,0,0,1-.23.4.75.75,0,0,1-.46.17,3.43,3.43,0,0,1-.62,0l-.64-.11,0,.09a.17.17,0,0,1,0,.11.16.16,0,0,1-.07.09.12.12,0,0,1-.1,0s-.1-.08-.17-.2l-.12-.21-.39-.06-.52-.08a2.51,2.51,0,0,1-1.09-.39.52.52,0,0,1-.15-.52.39.39,0,0,1,.22-.28,1.92,1.92,0,0,1,.74-.09h.14l.14,0a1.45,1.45,0,0,1,.82.48,1.66,1.66,0,0,1,.36.65l.26.05.28,0,.43.06h.43a.38.38,0,0,0,.25-.08.37.37,0,0,0,.15-.24.3.3,0,0,0-.16-.32,1.22,1.22,0,0,0-.43-.16.78.78,0,0,0-.49.08q-.26.12-.3.3a.71.71,0,0,1-.06.19.1.1,0,0,1-.12.05.22.22,0,0,1-.12-.07.15.15,0,0,1,0-.13.87.87,0,0,1,.47-.61A1,1,0,0,1,732.24,167.95Zm-2.64.09a2.19,2.19,0,0,0-.43,0c-.17,0-.26.08-.27.15s0,.17.19.24a3.44,3.44,0,0,0,.77.22l.33.08.49.13a1.4,1.4,0,0,0-.31-.46,1.17,1.17,0,0,0-.61-.36Z"/><path d="M732,165.78a.15.15,0,0,1,.12.13.4.4,0,0,1,0,.16l.27,0,.27,0a1.24,1.24,0,0,1,.62.34.68.68,0,0,1,.26.64.67.67,0,0,1-.25.41.56.56,0,0,1-.42.13l-.35-.05-.33-.09-.31-.14a.83.83,0,0,1-.23-.2c-.08-.09-.11-.16-.11-.21a.12.12,0,0,1,.16-.11.46.46,0,0,1,.16.08l.19.13a1.93,1.93,0,0,0,.36.16l.43.12a.33.33,0,0,0,.24,0,.33.33,0,0,0,.15-.23q0-.15-.16-.32a.87.87,0,0,0-.42-.22,2.91,2.91,0,0,0-.42-.06.59.59,0,0,0-.23,0,.9.9,0,0,1-.12.18.18.18,0,0,1-.17.07c-.14,0-.21-.1-.2-.21a.27.27,0,0,1,0-.07.29.29,0,0,1,.11-.16l.2-.12.06-.21C731.92,165.8,732,165.76,732,165.78Z"/><path d="M837.46,110.25c-22.1-5.69-33.81-32.52-36-38.14,1.61-2.13,4.82-7.65,4.82-17.66,0-23.52-19.55-51.78-20.38-53l-1-1.48-1.56.91c-17.83,10.37-37,36.11-40.67,41.17H730.86C727.2,37,708,11.28,690.19.91L688.63,0l-1,1.48c-.83,1.19-20.38,29.45-20.38,53,0,10,3.19,15.48,4.8,17.63-2.41,5.66-14.88,32.47-37,38.17l-3,.78,2,2.39c1,1.18,24.32,28.23,48.92,32.09v96.12a23.39,23.39,0,0,0,2,9.63c2.66,5.93,7.23,9.57,13.23,10.52l77,0,.15,0c6-1,10.57-4.59,13.23-10.52a23.4,23.4,0,0,0,2-9.63V145.51c24.57-3.87,47-30.95,48-32.12l1.95-2.38Zm-49.11,31.6-1.75.19v25.47L763.55,190a9.13,9.13,0,1,0-16.19,8.27,9.12,9.12,0,0,0,13.12,12.67,9.13,9.13,0,1,0,9-15.28l17.15-16v62a19.51,19.51,0,0,1-1.64,8c-1.92,4.3-5,7-9,8a6.62,6.62,0,0,0,.14-1.29c0-5.87-7.5-10.63-16.74-10.63s-16.74,4.76-16.74,10.63a6.67,6.67,0,0,0,.2,1.55H730.64a6.67,6.67,0,0,0,.2-1.55c0-5.87-7.5-10.63-16.74-10.63s-16.74,4.76-16.74,10.63a6.62,6.62,0,0,0,.14,1.29c-4-1-7.09-3.68-9-8a19.51,19.51,0,0,1-1.64-8v-62l17.15,16a9.13,9.13,0,1,0,9,15.28,9.12,9.12,0,0,0,13.12-12.67A9.13,9.13,0,1,0,709.9,190l-23.05-22.46V142l-1.75-.19c-19.68-2.19-39.72-22-46.06-28.72a45.7,45.7,0,0,0,13.31-7.44c7,5.36,37.44,21.83,53,19.06,16.5-2.95,23-17.87,24.15-21s2.55-21.4-12.37-30.83c-12.41-7.84-33.76-3.46-40.61-1.76l-.82-.82s-4.52-4.64-4.52-15.88c0-19.3,14.62-43,18.65-49.19C708,16.8,728,44.88,728.25,45.18l.59.83h15.78l.59-.83c.21-.29,20.21-28.38,38.46-39.92,4,6.18,18.65,29.89,18.65,49.19,0,11.24-4.47,15.83-4.5,15.87l-.86.83c-6.88-1.7-28.19-6.06-40.59,1.77-14.92,9.43-13.55,27.69-12.37,30.83s7.66,18.07,24.15,21c16.16,2.89,46.93-14.59,52-19.13a44.41,44.41,0,0,0,13.34,7.53C827.4,119.9,808,139.66,788.35,141.85Z"/><path d="M791.91,47.65c-.45-16.26-12.74-30-12.74-30C773.11,21,758.7,44.54,758.7,44.54l28.51,15S792.67,56.6,791.91,47.65Z"/><path d="M693.49,17.69s-12.28,13.7-12.74,30c-.76,8.95,4.7,11.87,4.7,11.87l28.51-15S699.56,21,693.49,17.69Z"/><line class="cls-9" x1="740.76" y1="162.25" x2="770.43" y2="152.03"/><line class="cls-9" x1="742.56" y1="162.72" x2="773.03" y2="152.21"/><line class="cls-9" x1="744.36" y1="163.2" x2="775.63" y2="152.4"/><line class="cls-9" x1="746.16" y1="163.68" x2="778.23" y2="152.59"/><circle class="cls-3" cx="770.24" cy="97.26" r="16.79"/><path d="M770.24,85.72a11.53,11.53,0,0,0-10.69,7.21,4.09,4.09,0,1,1-.53,2,4.06,4.06,0,0,1,0-.49,11.53,11.53,0,1,0,11.17-8.72Z"/><line class="cls-9" x1="726.82" y1="161.37" x2="757.4" y2="150.65"/><line class="cls-9" x1="728.68" y1="161.87" x2="760.07" y2="150.84"/><line class="cls-9" x1="730.53" y1="162.37" x2="762.75" y2="151.04"/><line class="cls-9" x1="732.39" y1="162.87" x2="765.43" y2="151.24"/><line class="cls-9" x1="733.31" y1="163.12" x2="766.77" y2="151.33"/><circle class="cls-3" cx="703.21" cy="97.26" r="16.79"/><path d="M703.21,85.72a11.53,11.53,0,0,0-10.69,7.21,4.09,4.09,0,1,1-.53,2,4.06,4.06,0,0,1,0-.49,11.53,11.53,0,1,0,11.17-8.72Z"/><line class="cls-9" x1="715.85" y1="160.29" x2="749.45" y2="149"/><line class="cls-9" x1="717.87" y1="160.81" x2="751.03" y2="149.61"/><line class="cls-9" x1="719.88" y1="161.33" x2="753.93" y2="149.81"/><path class="cls-10" d="M35.63,230.27a16.13,16.13,0,0,1-2.73,8.7q-3.16,5-7.48,5a8.77,8.77,0,0,1-5.89-2.08,8,8,0,0,1-2.73-5.75v-3.16H8.17a2.58,2.58,0,0,1,.07.72c0,.57-.07,1-.07,1.37q0,.93.14,2.59t.14,2.23A8,8,0,0,1,8.24,242q-.43,1.29-1.51,1.29-1.37,0-2.08-1.8a41.87,41.87,0,0,1-1-6.47,11.41,11.41,0,0,0-.14-2.08,4.43,4.43,0,0,1-2.19-.36,1.44,1.44,0,0,1-.54-1.29,5.43,5.43,0,0,1,.07-1q0-.86,2.59-1.22v-5.39q0-2.52.07-4.67a3.85,3.85,0,0,1,.68-2,2.72,2.72,0,0,1,2.19-.68q1,0,1.15,3t.14,5.57l.22,4.1h8.91a11.92,11.92,0,0,1,.32-2.48q.32-1.47.83-3.16a10.65,10.65,0,0,1,2-3.56q1.51-1.87,2.37-1.87a1.59,1.59,0,0,1,1.8,1.8,6,6,0,0,1-.65,2.3l-1.22,2.73a24.68,24.68,0,0,0-1.11,5,44,44,0,0,0-.4,5.79,4.23,4.23,0,0,0,1.26,3,4.29,4.29,0,0,0,3.27,1.33q1.94,0,3.67-2.87a11.32,11.32,0,0,0,1.73-5.89V230a40.46,40.46,0,0,0-.22-4.74,5.45,5.45,0,0,0-1-2.73,7.54,7.54,0,0,0-2.19-1.33q-1.76-.82-1.76-1.69a4.17,4.17,0,0,1,.58-2.23,1.83,1.83,0,0,1,1.65-.93,5.15,5.15,0,0,1,3.74,1.94,19.72,19.72,0,0,1,2.8,4.24,10.48,10.48,0,0,1,1.15,3.59A35.49,35.49,0,0,1,35.63,230.27Z"/><path class="cls-10" d="M94.64,232.5q0,1-3.2,3.7a38,38,0,0,1-6.4,4.42,34.38,34.38,0,0,1-6.25,2.66,18.83,18.83,0,0,1-5.43.93q-4.6,0-7-1.47a9.43,9.43,0,0,1-3.7-4.42,12.88,12.88,0,0,1-.72-2.55,22.22,22.22,0,0,1-.43-2.84c-.34,0-.71,0-1.11,0l-.83,0H57.91q-.86,0-1.8-.07H48.78a4.7,4.7,0,0,1,0,1.19,4.51,4.51,0,0,0,0,1.19q.29,1.51.5,2.3a19,19,0,0,1,.65,3.09,3.84,3.84,0,0,1-.5,2.08,2.13,2.13,0,0,1-1.94.79q-1.87,0-2.48-2.26a21.38,21.38,0,0,1-.61-5.5v-2.88q-2.59,0-2.59-2.66,0-.86,2.59-1.22,0-1.8.21-4.38t.22-3.09a3.16,3.16,0,0,1,.5-1.91,2.6,2.6,0,0,1,2.16-.68q1.08,0,1.19,1.55t.11,3.77c0,.53,0,1,0,1.55s0,1,0,1.54a11.24,11.24,0,0,0,.07,1.58h9.6q1.19,0,2.41-.07h.72l.14-5.46a7.13,7.13,0,0,1,.61-3.38A1.82,1.82,0,0,1,63.87,219q1.58,0,1.58,4.46,0,3.81.18,6.58a19.28,19.28,0,0,0,.75,4.56q1.08,3.6,2.48,4.85A6,6,0,0,0,73,240.69a16.31,16.31,0,0,0,3.67-.43,39.08,39.08,0,0,0,6-2.23,44.46,44.46,0,0,0,8.05-5.39,8.48,8.48,0,0,1,2.73-1.73q1.22,0,1.22.86Z"/><path class="cls-10" d="M140.57,233.29q0,1.58-5.61,5.25a23.93,23.93,0,0,1-13.15,4.38,10.65,10.65,0,0,1-4.82-1,7.25,7.25,0,0,1-3.74-4.31q-.65-1.94-1.11-4t-.75-3.77a22,22,0,0,1-5.43,8.73q-4.13,4.35-6.65,4.35a6,6,0,0,1-4.24-1.51q-2-1.8-2.59-5.82a59,59,0,0,1-.22-6.47q0-4.89.22-7a3.17,3.17,0,0,1,.79-2.23,2.32,2.32,0,0,1,1.73-.86,1.68,1.68,0,0,1,1.44.68,5.33,5.33,0,0,1,.5,2.84q0,.22-.14,2.52t-.14,3.81v5.61q.22,3.74,2.66,3.74,1.72,0,4.74-4a29.15,29.15,0,0,0,4-6.54,14.85,14.85,0,0,1,2.19-3.88q1.4-1.8,2.48-1.8,1.73,0,2.52,6a46.81,46.81,0,0,0,1.08,6.11,5.55,5.55,0,0,0,6.4,4.67,18.11,18.11,0,0,0,8.91-2.44q3.81-2.59,7.69-5.18.79,0,1,.47A4,4,0,0,1,140.57,233.29Z"/><path class="cls-10" d="M175.72,242.49q0,2.08-3.67,2.08-2.88,0-9.74-5.57l-7.66-6.22-4.46,3.67q-.72.58-4,3.38-3.88,3.38-6.11,3.74a1.06,1.06,0,0,1-.83-.29,1,1,0,0,1-.47-.79q0-.72,3.52-4,1.44-1.37,5.68-4.89,1-.79,2-1.76l2-1.91q-3.67-3.45-7.33-7-1-1-2-2.16a3.3,3.3,0,0,1-1-1.73q0-1.22,1.58-1.22.79,0,3.81,2.52,3.81,3.38,7.69,6.69.65-.5,2.37-2.08l6.33-5.82q1.87-1.8,2.52-2.3a4.15,4.15,0,0,1,1.94-1.08,1.89,1.89,0,0,1,1.26.54,1.71,1.71,0,0,1,.61,1.33q0,.72-1.65,2.3-.58.5-2.23,2.08-1.37,1.22-4.1,4-2.23,2.23-4,3.81,1.36,1.44,3.74,3.59a59.3,59.3,0,0,0,6.11,5,14.68,14.68,0,0,0,3.52,2,9.1,9.1,0,0,0,2.8.4Q175.72,240.84,175.72,242.49Z"/><path class="cls-10" d="M264,232.93q0,.94-2.7,3.49a32.3,32.3,0,0,1-5.57,4.28,27,27,0,0,1-7.15,3.16,24.85,24.85,0,0,1-6.5,1.08q-4.74,0-7-1.83t-3.74-6.5q-.65-2.23-1.22-4.53-.65-1.8-1.87-1.8-.79,0-2.8,2.3a55,55,0,0,0-3.88,5.1q-1.15,1.72-1.72,2.52-1.58,2.09-2.73,2.08-1.8,0-2.59-2.44a42.27,42.27,0,0,1-.83-4.64q-.54-3.7-.93-7.66t-.4-6a3.31,3.31,0,0,1,.47-1.94q.47-.65,2.12-.65,1,0,1.51,1.69a15,15,0,0,1,.5,4.21,27.13,27.13,0,0,0,.22,3.74q.22,1.51,1.22,6.11a65,65,0,0,1,4.39-5.89,18.92,18.92,0,0,1,3.49-3.34,5.7,5.7,0,0,1,3.13-1.33,4.48,4.48,0,0,1,4.1,2.66,27.88,27.88,0,0,1,1.83,6.22,23.3,23.3,0,0,0,1.91,6.15,3.92,3.92,0,0,0,3.59,2.08,24.94,24.94,0,0,0,6-.75A34.88,34.88,0,0,0,253.5,238a44.26,44.26,0,0,0,6.83-5q1.94-1.65,2.44-1.65,1,0,1.11.25A4.68,4.68,0,0,1,264,232.93Z"/><path class="cls-10" d="M282.25,228.4A22.78,22.78,0,0,1,279.38,239q-3.24,6.11-7.4,6.11a6,6,0,0,1-4.24-1.58,5.74,5.74,0,0,1-1.73-4.46q0-4.6,1.87-4.6t1.73,1.58l.07,2.37a4.27,4.27,0,0,0,.47,1.94,1.5,1.5,0,0,0,1.4.93q2.37,0,4.17-3.16,2.23-3.88,2.23-10.5a4.25,4.25,0,0,0-1.44-3.31,4.55,4.55,0,0,0-3.09-1.29,6.49,6.49,0,0,0-3.49,1.11,15.15,15.15,0,0,0-3.63,3.49l-.5,2.88a75,75,0,0,0-.58,9.2q0,1.73.07,5.75t.07,4.24a65.47,65.47,0,0,0,.43,7.3q.43,3.84.5,4.56a8.76,8.76,0,0,0,1.29,3.31,4.64,4.64,0,0,1,.72,2,5,5,0,0,1-.5,2.7q-.5.68-2.44.68-1.51,0-2.34-1.94a12.52,12.52,0,0,1-.83-4.89l-.79-14.09V236.67q0-3.74.36-8,.86-10.21.86-10.5a6.33,6.33,0,0,0-.32-1.83l-.68-2.19a2.63,2.63,0,0,1,.47-1.83,2.25,2.25,0,0,1,1.62-.47,2.37,2.37,0,0,1,2,1.22,4.25,4.25,0,0,1,.83,2.37v6.9a13.1,13.1,0,0,1,2.95-2.52,8.45,8.45,0,0,1,4.38-1.15,7.76,7.76,0,0,1,5.54,2.59A9.67,9.67,0,0,1,282.25,228.4Z"/><path class="cls-10" d="M333.72,232.5q0,.65-2.16,2.66a32.36,32.36,0,0,1-5.54,4.1,42.88,42.88,0,0,1-8.63,3.85,27.14,27.14,0,0,1-8,1.26,5.66,5.66,0,0,1-5.25-3.49q-1.8-3.48-1.8-10.53a50.28,50.28,0,0,1-4,6.83q-3.67,5.1-6.9,5.1-2.95,0-3.92-1.65a11.17,11.17,0,0,1-1-5.39q0-5,3.45-11.29,4.31-7.83,10.28-7.83a8.86,8.86,0,0,1,3.24.43,8.34,8.34,0,0,1,2.37,1.8q.79-.14,1.51,1.11a5.63,5.63,0,0,1,.72,2.84q0,1.94-.21,6t-.22,5.1a13.23,13.23,0,0,0,.5,4.53q.86,2,3.59,2a22.52,22.52,0,0,0,4.67-.43,25.82,25.82,0,0,0,7.55-3,40,40,0,0,0,6.33-4.6,10.76,10.76,0,0,1,1.73-1.29Q333.94,230.85,333.72,232.5ZM301.95,223a3.08,3.08,0,0,0,.21-1.08q0-1.94-1.65-1.94-2.95,0-6.22,5T291,233.08a12.85,12.85,0,0,0,.25,2.73q.25,1.15.83,1.15,1.8,0,6.54-8.2Z"/><path class="cls-10" d="M351.33,229.77a18.36,18.36,0,0,1-2,9.06,7.36,7.36,0,0,1-6.68,4.17,9,9,0,0,1-5.75-1.87,9.87,9.87,0,0,1-3.31-5.54,44.27,44.27,0,0,1-1.22-8.05q-.29-4.38-.29-8.48-.58.5-1,.86a2.28,2.28,0,0,1-1.4.36,2.24,2.24,0,0,1-1.33-.61q-.76-.61-.75-1.11,0-.79,2.16-2.73.93-.86,2.37-2,0-.57-.25-5.14t-.25-6.87q0-11.29,2.23-15a6.8,6.8,0,0,1,6.25-3.31,5.08,5.08,0,0,1,4.21,2.08q1.62,2.09,3,9.27a17.2,17.2,0,0,1,.21,1.76q.07,1,.07,1.83a19,19,0,0,1-4,11.72,21.66,21.66,0,0,1-7.4,6.33v3.52q0,1.8.07,3.67a48,48,0,0,0,.32,5.71,45.12,45.12,0,0,0,1,5.57,5,5,0,0,0,1.62,3,4.86,4.86,0,0,0,3.49,1.33q2.52,0,3.67-2.88a15.84,15.84,0,0,0,.93-5.89,10.19,10.19,0,0,0-2.26-6.07q-2.26-3.05-4.56-3.05a9.61,9.61,0,0,1-2.59-.29,1.33,1.33,0,0,1-1-1.44,2.91,2.91,0,0,1,.61-1.76,1.91,1.91,0,0,1,1.62-.83,11.36,11.36,0,0,1,9.06,4.53A12.74,12.74,0,0,1,351.33,229.77Zm-7.83-33.64a28.12,28.12,0,0,0-1.37-5.46q-1.15-3.09-2.66-3.09-1.73,0-2.55,3t-.83,10.5q0,2.16-.14,4.46-.36,5.82-.36,6.61a18.11,18.11,0,0,0,5.1-5.18,15.29,15.29,0,0,0,3-8.7A11,11,0,0,0,343.5,196.13Z"/><path class="cls-10" d="M377.71,221.43a1.94,1.94,0,0,1-1.29,1.87,5.4,5.4,0,0,1-2.08.36,17.49,17.49,0,0,1,1,3.41,18.88,18.88,0,0,1,.4,3.49,16.23,16.23,0,0,1-2.73,8.77q-3.16,5-7.48,5a8.72,8.72,0,0,1-5.86-2.12,7.32,7.32,0,0,1-2.73-5.07q-.25-2.95-.25-4.67a27.19,27.19,0,0,1,.32-4.49,35.18,35.18,0,0,1,1-4.28,10.72,10.72,0,0,1,2-3.52q1.51-1.87,2.37-1.87,1.8,0,1.8,1.73a6,6,0,0,1-.65,2.3L362.33,225a24.69,24.69,0,0,0-1.11,5,44,44,0,0,0-.4,5.79,4.25,4.25,0,0,0,1.22,3,4.33,4.33,0,0,0,3.31,1.29q1.94,0,3.67-2.87a11.33,11.33,0,0,0,1.72-5.89,37.53,37.53,0,0,0-.32-5.57,7.72,7.72,0,0,0-.9-2.91,11.87,11.87,0,0,1-2.59-1.08,2.39,2.39,0,0,1-1.37-1.94q0-2.8,2.23-3.16a3.9,3.9,0,0,1,.86-.07,3.74,3.74,0,0,1,2.37.93,13.52,13.52,0,0,1,2,2.3q1.36.15,2.8.22Q377.71,220.35,377.71,221.43Z"/><path class="cls-10" d="M406.82,246.45v1.73a30,30,0,0,1-.25,4.53,38,38,0,0,1-1.33,4.82,18.92,18.92,0,0,1-6.18,9.27,13.33,13.33,0,0,1-8.34,2.95q-5.1,0-8-2.87a6.81,6.81,0,0,1-2.23-4.89q0-2.3,1.58-2.3.65,0,1.33,1.08t1.26,2.08a9.27,9.27,0,0,0,2.44,2.41,5.9,5.9,0,0,0,3.23.83,9.15,9.15,0,0,0,6.54-2.44,22.68,22.68,0,0,0,4.17-6.54,17.1,17.1,0,0,0,1.33-4.67,35.78,35.78,0,0,0,.4-5.25q0-5.89-2.95-7.48a6.16,6.16,0,0,0-1.58-.61,8.18,8.18,0,0,0-1.8-.18q-1.51.07-2.16.07c-.62,0-1-.17-1.19-.5a2.7,2.7,0,0,1-.25-1.22q0-1.22.79-1.44a7.81,7.81,0,0,0,4-2.73,7,7,0,0,0,1.58-4.46,7.64,7.64,0,0,0-.43-2.8,2.25,2.25,0,0,0-2.16-1.73q-2.8,0-5.32,3.24a41.14,41.14,0,0,0-2.37,4q-.36.5-.65.93a1.87,1.87,0,0,1-1.37.43c-.53,0-.82,0-.86-.14a5,5,0,0,1-.07-1.22q0-3.3,3.56-7.15t7.08-3.85a6,6,0,0,1,5.46,2.73,9.62,9.62,0,0,1,.07,9.53,10.24,10.24,0,0,1-3.38,3.7,7.25,7.25,0,0,1,5.68,2.77A11,11,0,0,1,406.82,246.45Z"/><path class="cls-10" d="M466.06,232.5q0,1-3.2,3.7a38,38,0,0,1-6.4,4.42,34.38,34.38,0,0,1-6.25,2.66,18.83,18.83,0,0,1-5.43.93q-4.6,0-7-1.47a9.43,9.43,0,0,1-3.7-4.42,12.88,12.88,0,0,1-.72-2.55,22.22,22.22,0,0,1-.43-2.84c-.34,0-.71,0-1.11,0l-.83,0h-1.65q-.86,0-1.8-.07h-7.33a4.7,4.7,0,0,1,0,1.19,4.51,4.51,0,0,0,0,1.19q.29,1.51.5,2.3a19,19,0,0,1,.65,3.09,3.84,3.84,0,0,1-.5,2.08,2.13,2.13,0,0,1-1.94.79q-1.87,0-2.48-2.26a21.38,21.38,0,0,1-.61-5.5v-2.88q-2.59,0-2.59-2.66,0-.86,2.59-1.22,0-1.8.21-4.38t.22-3.09a3.16,3.16,0,0,1,.5-1.91,2.6,2.6,0,0,1,2.16-.68q1.08,0,1.19,1.55t.11,3.77c0,.53,0,1,0,1.55s0,1,0,1.54a11.24,11.24,0,0,0,.07,1.58h9.6q1.19,0,2.41-.07h.72l.14-5.46a7.13,7.13,0,0,1,.61-3.38,1.82,1.82,0,0,1,1.62-1.08q1.58,0,1.58,4.46,0,3.81.18,6.58a19.28,19.28,0,0,0,.75,4.56q1.08,3.6,2.48,4.85a6,6,0,0,0,4.13,1.26,16.31,16.31,0,0,0,3.67-.43,39.08,39.08,0,0,0,6-2.23,44.46,44.46,0,0,0,8.05-5.39,8.48,8.48,0,0,1,2.73-1.73q1.22,0,1.22.86Z"/><path class="cls-10" d="M507.46,232.5q0,.65-2.16,2.66a32.36,32.36,0,0,1-5.54,4.1,42.88,42.88,0,0,1-8.63,3.85,27.14,27.14,0,0,1-8,1.26,5.66,5.66,0,0,1-5.25-3.49q-1.8-3.48-1.8-10.53a50.28,50.28,0,0,1-4,6.83q-3.67,5.1-6.9,5.1-2.95,0-3.92-1.65a11.17,11.17,0,0,1-1-5.39q0-5,3.45-11.29,4.31-7.83,10.28-7.83a8.86,8.86,0,0,1,3.24.43,8.34,8.34,0,0,1,2.37,1.8q.79-.14,1.51,1.11a5.63,5.63,0,0,1,.72,2.84q0,1.94-.21,6t-.22,5.1a13.23,13.23,0,0,0,.5,4.53q.86,2,3.59,2a22.52,22.52,0,0,0,4.67-.43,25.82,25.82,0,0,0,7.55-3,40,40,0,0,0,6.33-4.6,10.76,10.76,0,0,1,1.73-1.29Q507.67,230.85,507.46,232.5ZM475.69,223a3.08,3.08,0,0,0,.21-1.08q0-1.94-1.65-1.94-2.95,0-6.22,5t-3.27,8.09a12.85,12.85,0,0,0,.25,2.73q.25,1.15.83,1.15,1.8,0,6.54-8.2Z"/><path class="cls-10" d="M525.07,229.77a18.36,18.36,0,0,1-2,9.06,7.36,7.36,0,0,1-6.68,4.17,9,9,0,0,1-5.75-1.87,9.87,9.87,0,0,1-3.31-5.54,44.27,44.27,0,0,1-1.22-8.05q-.29-4.38-.29-8.48-.58.5-1,.86a2.28,2.28,0,0,1-1.4.36,2.24,2.24,0,0,1-1.33-.61q-.76-.61-.75-1.11,0-.79,2.16-2.73.93-.86,2.37-2,0-.57-.25-5.14t-.25-6.87q0-11.29,2.23-15a6.8,6.8,0,0,1,6.25-3.31,5.08,5.08,0,0,1,4.21,2.08q1.62,2.09,3,9.27a17.2,17.2,0,0,1,.21,1.76q.07,1,.07,1.83a19,19,0,0,1-4,11.72,21.66,21.66,0,0,1-7.4,6.33v3.52q0,1.8.07,3.67a48,48,0,0,0,.32,5.71,45.12,45.12,0,0,0,1,5.57,5,5,0,0,0,1.62,3,4.86,4.86,0,0,0,3.49,1.33q2.52,0,3.67-2.88a15.84,15.84,0,0,0,.93-5.89,10.19,10.19,0,0,0-2.26-6.07q-2.26-3.05-4.56-3.05a9.61,9.61,0,0,1-2.59-.29,1.33,1.33,0,0,1-1-1.44,2.91,2.91,0,0,1,.61-1.76,1.91,1.91,0,0,1,1.62-.83,11.36,11.36,0,0,1,9.06,4.53A12.74,12.74,0,0,1,525.07,229.77Zm-7.83-33.64a28.12,28.12,0,0,0-1.37-5.46q-1.15-3.09-2.66-3.09-1.73,0-2.55,3t-.83,10.5q0,2.16-.14,4.46-.36,5.82-.36,6.61a18.11,18.11,0,0,0,5.1-5.18,15.29,15.29,0,0,0,3-8.7A11,11,0,0,0,517.23,196.13Z"/><path class="cls-10" d="M567,237a44.5,44.5,0,0,1-1.44,9.67q-1.44,6.07-2.88,8.38-2.44,3.81-5.32,3.81-1.94,0-1.94-2.37a2.36,2.36,0,0,1,1.29-1.87,21.39,21.39,0,0,0,2.37-1.8q1.22-1.29,2.44-5.32a53.48,53.48,0,0,0,1.65-6.76,7.47,7.47,0,0,1-2.34,1.62,7.34,7.34,0,0,1-2.91.54,6.17,6.17,0,0,1-4.1-1.69,11.17,11.17,0,0,1-3-4.42q-.58-1.44-1.58-4.13a37,37,0,0,1-1.29-3.92q-3.38,3.6-5.82,6-4.82,4.6-6.9,4.6a3.08,3.08,0,0,1-3-1.54,19.28,19.28,0,0,1-1.47-5.36q-.29-2-.58-4.57a39.81,39.81,0,0,1-.29-4.35,7.76,7.76,0,0,1,.07-1.29,3.25,3.25,0,0,1,.72-2.16,2.18,2.18,0,0,1,1.73-.86,1.89,1.89,0,0,1,1.51.83,4.12,4.12,0,0,1,.65,2.55q0,3.38.22,6a24.21,24.21,0,0,0,1.22,5.68,44.94,44.94,0,0,0,4.67-4.31A49,49,0,0,0,545,225a24.17,24.17,0,0,1,2.16-2.44,3.14,3.14,0,0,1,2.08-1q1.65,0,2.66,3.92t1.94,7.66a14.51,14.51,0,0,0,2.52,4.67,3.57,3.57,0,0,0,2.59,1.15q1.72,0,3.77-2.55t2.7-2.48a1.54,1.54,0,0,1,1.08.29Q567,234.51,567,237Z"/><path class="cls-10" d="M578.69,200.87a2.88,2.88,0,0,1-.22,1.44q-.5.65-2.23.65-1.37,0-2.87-2.12a6.68,6.68,0,0,1-1.51-3.63,3,3,0,0,1,.5-1.69,1.84,1.84,0,0,1,1.65-.75q1.72,0,3.2,2.16A7.19,7.19,0,0,1,578.69,200.87Zm23.36,31.77q0,2.16-6.83,6.4-7.48,4.6-13.23,4.6-2.44-.29-4.89-.65a4.46,4.46,0,0,1-2.88-1.37A10.11,10.11,0,0,1,572.8,239a14.06,14.06,0,0,1-.65-4.67V229q0-2.8.07-5.82a21.92,21.92,0,0,0-.07-2.37,9.26,9.26,0,0,1,.4-2.91,1.62,1.62,0,0,1,1.69-1.19,2.12,2.12,0,0,1,1.91.93,8.3,8.3,0,0,1,.61,4q0,1.15-.07,5.36t-.07,6q0,4,.65,5,1.08,1.72,5.18,1.72a21.12,21.12,0,0,0,9.63-2.44q4.1-2.73,8.2-5.54h1.08A.89.89,0,0,1,602.05,232.64Z"/><path class="cls-10" d="M620.89,229.77a18.36,18.36,0,0,1-2,9.06,7.36,7.36,0,0,1-6.68,4.17,9,9,0,0,1-5.75-1.87,9.87,9.87,0,0,1-3.31-5.54,44.27,44.27,0,0,1-1.22-8.05q-.29-4.38-.29-8.48-.58.5-1,.86a2.28,2.28,0,0,1-1.4.36,2.24,2.24,0,0,1-1.33-.61q-.76-.61-.75-1.11,0-.79,2.16-2.73.93-.86,2.37-2,0-.57-.25-5.14t-.25-6.87q0-11.29,2.23-15a6.8,6.8,0,0,1,6.25-3.31,5.08,5.08,0,0,1,4.21,2.08q1.62,2.09,3,9.27a17.2,17.2,0,0,1,.21,1.76q.07,1,.07,1.83a19,19,0,0,1-4,11.72,21.66,21.66,0,0,1-7.4,6.33v3.52q0,1.8.07,3.67a48,48,0,0,0,.32,5.71,45.12,45.12,0,0,0,1,5.57,5,5,0,0,0,1.62,3,4.86,4.86,0,0,0,3.49,1.33q2.52,0,3.67-2.88a15.84,15.84,0,0,0,.93-5.89,10.19,10.19,0,0,0-2.26-6.07q-2.26-3.05-4.56-3.05a9.61,9.61,0,0,1-2.59-.29,1.33,1.33,0,0,1-1-1.44,2.91,2.91,0,0,1,.61-1.76,1.91,1.91,0,0,1,1.62-.83,11.36,11.36,0,0,1,9.06,4.53A12.74,12.74,0,0,1,620.89,229.77Zm-7.83-33.64a28.12,28.12,0,0,0-1.37-5.46q-1.15-3.09-2.66-3.09-1.73,0-2.55,3t-.83,10.5q0,2.16-.14,4.46-.36,5.82-.36,6.61a18.11,18.11,0,0,0,5.1-5.18,15.29,15.29,0,0,0,3-8.7A11,11,0,0,0,613.05,196.13Z"/><path class="cls-11" d="M57.84,107a19,19,0,0,1-1.51,5.34q-1.51,3.94-4.31,9.87-6.79,13.91-12.51,24.26a243.77,243.77,0,0,1-14,22.64q-3.78,5.39-3.88,5.5-2.7,3.45-4,3.45-3.24,0-3.24-3.23,0-.86,3.88-6.36,9.92-14,11-16.17-2.26-2.48-6.63-8.46t-8.9-12.45q-5.29-7.66-10.57-15.42-3-4.53-3.13-5.5Q-.39,107,3.39,107q1,0,3.77,4,10.35,14.77,11.54,16.17,2.48,2.91,7.55,9.54T32.93,145q2.37-3.77,6.9-12.62,2.91-5.6,5.88-11.43t6.09-11.86q2.8-5.07,4-5.07a1.77,1.77,0,0,1,1.4,1A3.48,3.48,0,0,1,57.84,107Z"/><path class="cls-11" d="M144.56,113.77a4.34,4.34,0,0,1-.32,2.16q-.75,1-3.34,1-2.05,0-4.31-3.18t-2.26-5.45a4.46,4.46,0,0,1,.75-2.53,2.76,2.76,0,0,1,2.48-1.13q2.59,0,4.8,3.23A10.78,10.78,0,0,1,144.56,113.77Zm35,47.66q0,3.23-10.24,9.6-11.21,6.9-19.84,6.9-3.67-.43-7.33-1-3.34-.65-4.31-2a15.09,15.09,0,0,1-2.16-3.88,21.06,21.06,0,0,1-1-7v-8.09q0-4.21.11-8.73a32.84,32.84,0,0,0-.11-3.56,13.93,13.93,0,0,1,.59-4.37,2.43,2.43,0,0,1,2.53-1.78,3.17,3.17,0,0,1,2.86,1.4q.91,1.4.92,5.93,0,1.73-.11,8t-.11,9q0,5.93,1,7.44,1.62,2.59,7.76,2.59a31.68,31.68,0,0,0,14.45-3.67q6.15-4.1,12.29-8.3h1.62A1.33,1.33,0,0,1,179.6,161.43Z"/><path class="cls-11" d="M300,155.07a34.17,34.17,0,0,1-4.31,16q-4.85,9.17-11.11,9.17a9.07,9.07,0,0,1-6.36-2.37,8.61,8.61,0,0,1-2.59-6.69q0-6.9,2.8-6.9,2.59,0,2.59,2.37l.11,3.56a6.41,6.41,0,0,0,.7,2.91,2.24,2.24,0,0,0,2.1,1.4q3.56,0,6.25-4.74,3.34-5.82,3.34-15.74a6.38,6.38,0,0,0-2.16-5,6.83,6.83,0,0,0-4.64-1.94,9.74,9.74,0,0,0-5.23,1.67,22.75,22.75,0,0,0-5.45,5.23l-.75,4.31a112.73,112.73,0,0,0-.86,13.8q0,2.59.11,8.63t.11,6.36a98.32,98.32,0,0,0,.65,10.94q.65,5.77.75,6.85,0,1.4,1.94,5a7,7,0,0,1,1.08,3q0,3-.75,4t-3.67,1q-2.26,0-3.5-2.91a18.8,18.8,0,0,1-1.24-7.33l-1.19-21.13V167.47q0-5.6.54-12,1.29-15.31,1.29-15.74a9.45,9.45,0,0,0-.48-2.75l-1-3.29a4,4,0,0,1,.7-2.75,3.38,3.38,0,0,1,2.43-.7,3.56,3.56,0,0,1,3,1.83,6.38,6.38,0,0,1,1.24,3.56V146a19.65,19.65,0,0,1,4.42-3.77,12.66,12.66,0,0,1,6.58-1.73q4.42,0,8.3,3.88A14.5,14.5,0,0,1,300,155.07Z"/><path class="cls-11" d="M523.41,160.46q0,2.81-8.63,8.52-9.92,6.58-18.76,6.58-9.6,0-15.42-6.58-4.64-7.44-5.71-8.95a26.93,26.93,0,0,1-4.21,6q-3.13,3.23-6,3.23a5.67,5.67,0,0,1-3.4-1.13,11.72,11.72,0,0,1-3-3.4,13.93,13.93,0,0,1-1.46-3.45q-.59-2-1.13-4.1t-.86-3.56a2.09,2.09,0,0,0-1.94-1.51q-1.29,0-3,3a70.23,70.23,0,0,0-3.61,7.71q-2.26,5.72-2.59,6.25-1.84,3.13-4.64,3.13a2.07,2.07,0,0,1-2.1-1.78,20.59,20.59,0,0,1-.49-5.12v-3.24q0-1.62.11-3.34,0-3.77-.38-7.87t-.59-7.12a6.45,6.45,0,0,1,.92-3.51,2.85,2.85,0,0,1,2.53-1.46q2.15,0,3.56,6.15a42.4,42.4,0,0,1,1.08,9.17,39.11,39.11,0,0,1,4.31-6.25q2.91-3.24,4.85-3.24a9.33,9.33,0,0,1,5.23,1.78,8.93,8.93,0,0,1,3.61,4.91q.11.32,1.4,6,.86,4.1,2,4.1,1.83,0,3.56-3.45a31.11,31.11,0,0,0,1.83-5.18q.54-2.26,1.19-4.64.65-1.62,3.13-1.62t3.67,3.34a25.14,25.14,0,0,0,2,5q3.56,7.44,6.69,10.67a13.36,13.36,0,0,0,10,4.42,24.9,24.9,0,0,0,12.4-3.34l10.78-7.55Q523.41,159.06,523.41,160.46Z"/><path class="cls-12" d="M132.49,161.22q0,1.51-4.8,5.55a57,57,0,0,1-9.6,6.63,51.6,51.6,0,0,1-9.38,4,28.32,28.32,0,0,1-8.14,1.4q-6.9,0-10.51-2.21a14.15,14.15,0,0,1-5.55-6.63,19.28,19.28,0,0,1-1.08-3.83,33.07,33.07,0,0,1-.65-4.26q-.76,0-1.67.05c-.61,0-1,.05-1.24.05H77.39c-.86,0-1.76,0-2.7-.11h-11a6.94,6.94,0,0,1,0,1.78,6.84,6.84,0,0,0,0,1.78q.43,2.26.75,3.45a28.48,28.48,0,0,1,1,4.64,5.76,5.76,0,0,1-.75,3.13,3.19,3.19,0,0,1-2.91,1.19q-2.81,0-3.72-3.4a32.05,32.05,0,0,1-.92-8.25v-4.31q-3.88,0-3.88-4,0-1.29,3.88-1.83,0-2.69.32-6.58t.32-4.64a4.73,4.73,0,0,1,.75-2.86q.75-1,3.24-1,1.62,0,1.78,2.32t.16,5.66q0,1.19-.05,2.32t-.05,2.32a17.06,17.06,0,0,0,.11,2.37h14.4q1.78,0,3.61-.11h1.08l.22-8.19a10.69,10.69,0,0,1,.92-5.07,2.74,2.74,0,0,1,2.43-1.62q2.37,0,2.37,6.69,0,5.72.27,9.87a29,29,0,0,0,1.13,6.85q1.62,5.39,3.72,7.28t6.2,1.89a24.41,24.41,0,0,0,5.5-.65,58.51,58.51,0,0,0,8.95-3.34q3.77-1.62,12.08-8.09,3.34-2.59,4.1-2.59,1.83,0,1.83,1.29Z"/><path class="cls-12" d="M267.48,164.23q0,1.29-5.39,5a74.92,74.92,0,0,1-10.78,6.15A53.13,53.13,0,0,1,240,179.06,53.77,53.77,0,0,1,229,180.3a18,18,0,0,1-11.11-3.56Q212,172.32,212,164.23q0-2.16-.05-4.47t-.05-4.8q0-2.26.11-4.37a28.8,28.8,0,0,1,.43-3.83,10.05,10.05,0,0,1,4.31-6.31,12.8,12.8,0,0,1,7.55-2.53,20.46,20.46,0,0,1,10.14,2.59q5.28,3,5.28,7.66a9,9,0,0,1-3,7,19.13,19.13,0,0,1-6.69,3.45q-3.24,1-6,2l-5.88,2.21a11.42,11.42,0,0,0,2.59,7.33,10.88,10.88,0,0,0,9.06,4.1,43.38,43.38,0,0,0,9.76-1.08,91.34,91.34,0,0,0,10.62-3.23,77,77,0,0,0,9.81-4.64q4.63-2.59,4.75-2.59A6,6,0,0,1,267,163C267.32,163.18,267.48,163.59,267.48,164.23ZM231.9,148.17q0-2-2.43-3.07a16.07,16.07,0,0,0-6.2-1,6.56,6.56,0,0,0-4.74,4q-.22,1.24-.43,5t-.22,4.37a42.64,42.64,0,0,0,5.18-1.73q3.34-1.29,5.18-2.21a6.51,6.51,0,0,0,2.75-2.43A5.63,5.63,0,0,0,231.9,148.17Z"/><path class="cls-12" d="M435,162.4q0,2.37-8.41,7.87-10,6.58-19.73,6.58a16,16,0,0,1-7.22-1.51,10.87,10.87,0,0,1-5.61-6.47q-1-2.91-1.67-6t-1.13-5.66q-1.94,6.58-8.14,13.1t-10,6.52a9.07,9.07,0,0,1-6.36-2.26q-3-2.69-3.88-8.73a88.33,88.33,0,0,1-.32-9.7q0-7.33.32-10.46a4.75,4.75,0,0,1,1.19-3.34,3.48,3.48,0,0,1,2.59-1.29,2.52,2.52,0,0,1,2.16,1q.75,1,.75,4.26,0,.32-.22,3.77t-.22,5.71v8.41q.32,5.61,4,5.61,2.59,0,7.12-5.93a43.8,43.8,0,0,0,6-9.81,22.25,22.25,0,0,1,3.29-5.82q2.1-2.69,3.72-2.7,2.59,0,3.77,9.06a70.24,70.24,0,0,0,1.62,9.17,10.49,10.49,0,0,0,3.23,5.45q2,1.56,6.36,1.56a27.18,27.18,0,0,0,13.37-3.67q5.71-3.88,11.54-7.76,1.19,0,1.51.7A6,6,0,0,1,435,162.4Z"/><path class="cls-12" d="M667.25,160.46q0,2.81-8.63,8.52-9.92,6.58-18.76,6.58-9.6,0-15.42-6.58-4.64-7.44-5.71-8.95a26.93,26.93,0,0,1-4.21,6q-3.13,3.23-6,3.23a5.67,5.67,0,0,1-3.4-1.13,11.72,11.72,0,0,1-3-3.4,13.93,13.93,0,0,1-1.46-3.45q-.59-2-1.13-4.1t-.86-3.56a2.09,2.09,0,0,0-1.94-1.51q-1.29,0-3,3a70.23,70.23,0,0,0-3.61,7.71q-2.26,5.72-2.59,6.25-1.84,3.13-4.64,3.13a2.07,2.07,0,0,1-2.1-1.78,20.59,20.59,0,0,1-.49-5.12v-3.24q0-1.62.11-3.34,0-3.77-.38-7.87t-.59-7.12a6.45,6.45,0,0,1,.92-3.51,2.85,2.85,0,0,1,2.53-1.46q2.15,0,3.56,6.15a42.4,42.4,0,0,1,1.08,9.17,39.11,39.11,0,0,1,4.31-6.25q2.91-3.24,4.85-3.24a9.33,9.33,0,0,1,5.23,1.78,8.93,8.93,0,0,1,3.61,4.91q.11.32,1.4,6,.86,4.1,2,4.1,1.83,0,3.56-3.45a31.11,31.11,0,0,0,1.83-5.18q.54-2.26,1.19-4.64.65-1.62,3.13-1.62t3.67,3.34a25.14,25.14,0,0,0,2,5q3.56,7.44,6.69,10.67a13.36,13.36,0,0,0,10,4.42,24.9,24.9,0,0,0,12.4-3.34l10.78-7.55Q667.25,159.06,667.25,160.46Z"/><path class="cls-6" d="M204.92,157.12q0,8.2-3,13.59-3.56,6.25-10,6.25a13.5,13.5,0,0,1-8.63-2.8,14.81,14.81,0,0,1-5-8.3,66.45,66.45,0,0,1-1.83-12.08q-.43-6.58-.43-12.72-.86.76-1.56,1.29a3.41,3.41,0,0,1-2.1.54,3.37,3.37,0,0,1-2-.92q-1.13-.92-1.13-1.67,0-1.19,3.24-4.1,1.4-1.29,3.56-3,0-.86-.38-7.71t-.38-10.3q0-16.93,3.34-22.43,3-5,9.38-5a7.62,7.62,0,0,1,6.31,3.13q2.43,3.13,4.47,13.91a25.49,25.49,0,0,1,.32,2.64q.11,1.46.11,2.75a28.46,28.46,0,0,1-6,17.58,32.51,32.51,0,0,1-11.11,9.49v5.28q0,2.7.11,5.5a72.06,72.06,0,0,0,.49,8.57,67.56,67.56,0,0,0,1.56,8.36,7.43,7.43,0,0,0,2.43,4.47,7.3,7.3,0,0,0,5.23,2q3.77,0,5.5-4.31a23.77,23.77,0,0,0,1.4-8.84,15.28,15.28,0,0,0-3.4-9.11q-3.4-4.58-6.85-4.58a14.44,14.44,0,0,1-3.88-.43,2,2,0,0,1-1.51-2.16,4.37,4.37,0,0,1,.92-2.64,2.88,2.88,0,0,1,2.43-1.24q8,0,13.59,6.79Q204.92,150.86,204.92,157.12Zm-11.75-50.46a42.28,42.28,0,0,0-2-8.2q-1.73-4.63-4-4.64-2.59,0-3.83,4.53t-1.24,15.74q0,3.24-.22,6.69-.54,8.73-.54,9.92a27.16,27.16,0,0,0,7.66-7.76q4.53-6.58,4.53-13A16.44,16.44,0,0,0,193.16,106.65Z"/><path class="cls-6" d="M359.3,161q.22,1.29-3.83,3.77t-7.6,5a71.53,71.53,0,0,1-14.4,7.49A36.91,36.91,0,0,1,320.7,180a11.35,11.35,0,0,1-9.38-4.74,17.48,17.48,0,0,1-3.67-11,45,45,0,0,1,2.7-15Q314.23,138,321.67,138a12.68,12.68,0,0,1,7,1.94,5.75,5.75,0,0,1,3,5q0,2.26-1.72,2.26-1.4,0-2.48-1.94a3.25,3.25,0,0,0-2.91-1.94q-4.64,0-7.44,6.47a32.08,32.08,0,0,0-2.37,12.62q0,5.82,2.48,8.63a7.57,7.57,0,0,0,6,2.48q3,0,9.38-2.16a66.66,66.66,0,0,0,12-5.39q1.94-1.08,8.84-5.39,2.8-1.72,3.77-1.73,1.4,0,1.73.43A3.13,3.13,0,0,1,359.3,161Z"/><path class="cls-6" d="M580.06,164.23q0,1.29-5.39,5a74.92,74.92,0,0,1-10.78,6.15,53.13,53.13,0,0,1-11.27,3.72,53.77,53.77,0,0,1-11.05,1.24,18,18,0,0,1-11.11-3.56q-5.93-4.42-5.93-12.51,0-2.16-.05-4.47t-.05-4.8q0-2.26.11-4.37a28.79,28.79,0,0,1,.43-3.83,10.05,10.05,0,0,1,4.31-6.31,12.8,12.8,0,0,1,7.55-2.53A20.46,20.46,0,0,1,547,140.51q5.28,3,5.28,7.66a9,9,0,0,1-3,7,19.13,19.13,0,0,1-6.69,3.45q-3.24,1-6,2l-5.88,2.21a11.42,11.42,0,0,0,2.59,7.33,10.88,10.88,0,0,0,9.06,4.1,43.38,43.38,0,0,0,9.76-1.08,91.34,91.34,0,0,0,10.62-3.23,77,77,0,0,0,9.81-4.64q4.63-2.59,4.75-2.59a6,6,0,0,1,2.32.27C579.9,163.18,580.06,163.59,580.06,164.23Zm-35.58-16.07q0-2-2.43-3.07a16.07,16.07,0,0,0-6.2-1,6.56,6.56,0,0,0-4.74,4q-.22,1.24-.43,5t-.22,4.37a42.64,42.64,0,0,0,5.18-1.73q3.34-1.29,5.18-2.21a6.51,6.51,0,0,0,2.75-2.43A5.63,5.63,0,0,0,544.48,148.17Z"/></g></g></svg>