<svg xmlns="http://www.w3.org/2000/svg" viewBox="0 0 236.52 261.82"><defs><style>.cls-1,.cls-7,.cls-8,.cls-9{stroke:#000;stroke-miterlimit:10;}.cls-1{stroke-width:1.22px;}.cls-2{fill:#e4decb;}.cls-3{fill:#fff;}.cls-4{fill:#bb7354;}.cls-5{fill:#95aabe;}.cls-6{fill:#e59d5d;}.cls-7,.cls-9{fill:none;}.cls-7,.cls-8{stroke-width:1.42px;}.cls-8{fill:#cb9576;}.cls-9{stroke-width:0.01px;}</style></defs><title>logo2</title><g id="Слой_2" data-name="Слой 2"><g id="Слой_1-2" data-name="Слой 1"><path class="cls-1" d="M151,206.93s20.48,5.53,26.55-11-4.61-55.44-.8-70.32c6.27-24.51,17.45-42.5,48.78-46.56,0,0-11.71,37.37,1.09,57.66s11.9,57,.27,76.53-29.13,37.41-59.18,28.25-31-29.38-31-29.38Z"/><path class="cls-2" d="M179.28,186.52s.9,11.27-8,17.81c0,0,9,8.36,10.76,17.78s-1.58,21.79-1.58,21.79a42.68,42.68,0,0,0,32.6-12.61s1.95-14.47-9.84-28.72S179.28,186.52,179.28,186.52Z"/><path class="cls-2" d="M232.42,149.83s-8.88-5.5-24.18-5.48-31.36,5.48-31.36,5.48l2.32,24.32s19.71-2.77,33.27,1,22.17,15.15,22.17,15.15S238.25,162.93,232.42,149.83Z"/><path class="cls-2" d="M200.82,123.09a102.21,102.21,0,0,1,20.94.9s-1.14-14.85-1.09-16c0,0-21.8-11-38.56,1.68,0,0-6.58,14.57-6.23,23.8C175.89,133.43,190.4,123.88,200.82,123.09Z"/><path d="M227.11,136.41c-12.5-19.81-1.14-56.78-1-57.15l.29-.91-.95.12c-33.87,4.39-43.71,25.19-49.3,47-1.75,6.86-.5,18.57.83,31,1.6,14.95,3.26,30.4,0,39.28-3.48,9.47-11.9,11.46-18.34,11.46a32.15,32.15,0,0,1-7.48-.87l-.19,0-14.86,5.42,0,.45c0,.21,1.29,20.77,31.4,29.94a53.93,53.93,0,0,0,15.66,2.5c17.35,0,31.81-10.15,44.22-31C239.68,192.91,239.55,156.13,227.11,136.41ZM226.34,213c-12.34,20.75-26.06,30.42-43.17,30.42a52.73,52.73,0,0,1-15.3-2.44c-26.8-8.17-30.11-25.41-30.49-28.39l13.63-5a33.54,33.54,0,0,0,7.6.86c6.83,0,15.76-2.13,19.49-12.26,3.37-9.15,1.69-24.75.08-39.83-1.32-12.29-2.56-23.9-.86-30.54,5.43-21.2,14.94-41.42,47.33-46-1.75,6-10.41,38.49,1.43,57.25C238.3,156.45,238.43,192.62,226.34,213Z"/><path class="cls-2" d="M104.76,259.85H66.47c-6.57-1-10-5.47-11.74-9.39a21.58,21.58,0,0,1-1.81-8.83V143.8C28.18,141,3.53,112.15,3.53,112.15c25.92-6.68,38.78-40.42,38.78-40.42s-5.11-4.91-5.11-17.28c0-23.17,20-51.84,20-51.84C76.49,13.8,97.89,44,97.89,44h13.75S133,13.8,152.29,2.61c0,0,20,28.67,20,51.84,0,12.37-5.11,17.28-5.11,17.28s11.88,33.74,37.8,40.42c0,0-23.66,28.9-48.41,31.65v97.84a21.58,21.58,0,0,1-1.81,8.83c-1.76,3.92-5.17,8.34-11.74,9.39Z"/><ellipse cx="104.27" cy="122.1" rx="12.83" ry="6.35"/><ellipse class="cls-3" cx="100.61" cy="119.64" rx="4.16" ry="2.55"/><path d="M119.3,128.46l0,.39a2.78,2.78,0,0,1-.18,1.16,5.34,5.34,0,0,1-.94,1.58,7.79,7.79,0,0,1-1.77,1.57c-.35.25-.74.46-1.14.7s-.84.42-1.29.6a18,18,0,0,1-2.89,1,23.05,23.05,0,0,1-3.19.6c-1.11.12-2.18.19-3.36.21l-1.62-.06c-.56,0-1.13-.08-1.68-.15a23.64,23.64,0,0,1-3.18-.6,18.12,18.12,0,0,1-2.89-1c-.45-.18-.88-.4-1.29-.6s-.79-.45-1.14-.7A7.81,7.81,0,0,1,91,131.58a5.33,5.33,0,0,1-.95-1.58,2.87,2.87,0,0,1-.18-1.16l0-.4H90l0,.38a3,3,0,0,0,.31,1,4.81,4.81,0,0,0,1,1.31,8.45,8.45,0,0,0,1.77,1.26,14.92,14.92,0,0,0,2.37,1,21.42,21.42,0,0,0,2.79.76,27.81,27.81,0,0,0,3.06.46c1,.1,2.12.14,3.2.15s2.14,0,3.19-.15a27.81,27.81,0,0,0,3.06-.46,21.43,21.43,0,0,0,2.79-.76,14.92,14.92,0,0,0,2.37-1,8.45,8.45,0,0,0,1.77-1.26,4.81,4.81,0,0,0,1-1.31,3,3,0,0,0,.31-1l0-.38Z"/><path class="cls-4" d="M106.05,161.94,95.73,223s.12,2,1,2.65,7.93,3.2,11.22.65h0l10.29-61.54s-6.4-.45-7.47-1.2a33.11,33.11,0,0,0-4.18-2Z"/><path class="cls-5" d="M93,161.75s7.92,1.87,12,.46l.33,1.31-10,61.58a7.13,7.13,0,0,1-6.5,1.1c-3.73-1.23-7.37-3.66-6.75-4.82Z"/><path class="cls-6" d="M81.37,160.15,70.06,220s.78,2.95,5.87,4,6.2-.23,6.2-.23L93,160.86a44.44,44.44,0,0,1-6.1.65,32.57,32.57,0,0,1-5.37-2Z"/><path class="cls-7" d="M125,150c-7,1.51-8.31-2.14-8.31-2.14L81.37,159.26,70.06,220s.35,4.44,12.07,3.73l10.87-62s8.37,1.77,12.69.27"/><path class="cls-7" d="M81.37,159.26c3.37,3.9,11.62,1.6,11.62,1.6l32.56-11s2.74,3.28,11.62,1.45"/><path class="cls-7" d="M82.09,222.7s5.5,6.13,13.3,2.4l10.29-63.57"/><path class="cls-7" d="M95.63,223.66s.48,5.62,12.37,2.64l10.29-61.54"/><polygon class="cls-8" points="107.6 226.27 142.2 213.49 152.02 152.33 118.3 164.04 107.6 226.27"/><path class="cls-7" d="M151.47,152.46c-.35,0-12.69.15-13.4-1.45L107,161.54s7.31,4,12.16,2.35"/><polygon points="142.69 160.81 125.28 167.71 125.58 167.34 116.69 210.91 124.6 167.16 124.64 166.89 124.9 166.79 142.15 159.49 142.81 159.22 143.35 160.55 142.69 160.81"/><path d="M99.46,214.54l.14,0s0,.06,0,.12l-.11.39q.78.4,1.45.7a5.52,5.52,0,0,0,1.16.4l.9.15,1.12.16.15,0a.39.39,0,0,1,.17.07s0,.08,0,.16-.19.17-.5.14l-.69-.07-.6-.07-.74-.12a7,7,0,0,1-1.52-.51q-.46-.21-1.07-.56l-.17.54q-.1.32-.13.45a2.94,2.94,0,0,0,0,.67q0,.31,0,.61a15.54,15.54,0,0,0,2.26,1,17.66,17.66,0,0,0,2.28.7.33.33,0,0,1,.18.11.21.21,0,0,1,.05.19c0,.05-.07.08-.19.08a1.92,1.92,0,0,1-.43,0q-.3-.06-.87-.22l-1.16-.35q-.6-.19-1.45-.49l-.72-.26,0,.13a.43.43,0,0,1-.07.18.15.15,0,0,1-.16,0c-.05,0-.1-.07-.13-.18a1,1,0,0,1-.06-.28.46.46,0,0,1-.23-.12.21.21,0,0,1-.07-.2.46.46,0,0,1,.11-.25.29.29,0,0,1,.21-.07,3.83,3.83,0,0,1,0-.62,4.7,4.7,0,0,1,.07-.66,8.08,8.08,0,0,1,.38-1.29Q99.34,214.51,99.46,214.54Z"/><path d="M103.5,213a2.49,2.49,0,0,1,1.08.53q.59.48.5.92a.67.67,0,0,1-.26.42.63.63,0,0,1-.51.09q-.49-.1-.45-.3c0-.12.09-.17.21-.15l.26,0a.47.47,0,0,0,.22,0,.16.16,0,0,0,.13-.13.55.55,0,0,0-.25-.51,2.31,2.31,0,0,0-1.08-.46.47.47,0,0,0-.39.08.5.5,0,0,0-.2.3.71.71,0,0,0,0,.4,1.67,1.67,0,0,0,.3.46l.3.12a8.12,8.12,0,0,0,1,.26l.62.12.46.08a7.33,7.33,0,0,0,.79.11l.5,0a1,1,0,0,0,.38-.07.5.5,0,0,1,.23,0,.53.53,0,0,1,.28.11s0,.14,0,.28-.11.18-.26.21a1.37,1.37,0,0,1-.54,0l-1.53-.21-1.36-.27q-.4-.08-.85-.21l-1.11-.32h-.2l-.25,0a.29.29,0,0,1-.19-.09.25.25,0,0,1,0-.18.26.26,0,0,1,.17-.19.47.47,0,0,1,.27,0l.74.15a1.42,1.42,0,0,1-.21-.37.92.92,0,0,1,0-.49.85.85,0,0,1,.4-.54A1.05,1.05,0,0,1,103.5,213Z"/><path d="M105,207.69s.13.11.24.29a3.53,3.53,0,0,1,.32.68,4.73,4.73,0,0,1,.23,1,3,3,0,0,1,0,.88.62.62,0,0,1-.49.49,2.61,2.61,0,0,1-1.17,0,5.53,5.53,0,0,1,.65.57q.47.5.4.85a.46.46,0,0,1-.26.39,1.22,1.22,0,0,1-.6,0,2.64,2.64,0,0,1-1.14-.61,1.34,1.34,0,0,1-.62-1.27,1,1,0,0,1,.12-.34.91.91,0,0,1,.24-.22q0-.09.15-.14a.61.61,0,0,1,.32,0l.63.15.54.13a1.43,1.43,0,0,0,.5,0,.38.38,0,0,0,.29-.34,2.46,2.46,0,0,0,.05-.51,2.8,2.8,0,0,0-.16-.87,4.33,4.33,0,0,0-.36-.78,1.16,1.16,0,0,1-.1-.21A.17.17,0,0,1,105,207.69Zm-1.69,3.2-.11,0q-.21,0-.24.14t.4.77a1.78,1.78,0,0,0,.8.52,1.39,1.39,0,0,0,.3,0c.09,0,.13,0,.14-.06s-.22-.42-.74-.88Z"/><path d="M105.13,205.5a2,2,0,0,1,.93.41.81.81,0,0,1,.3.81,1,1,0,0,1-.32.58,1.07,1.07,0,0,1-.66.24,4.82,4.82,0,0,1-.89,0q-.48-.06-.92-.15l.07.13a.24.24,0,0,1-.08.29.18.18,0,0,1-.14.06q-.09,0-.25-.29l-.16-.3-.56-.08-.74-.12a3.58,3.58,0,0,1-1.55-.56.74.74,0,0,1-.22-.74.55.55,0,0,1,.31-.41,2.74,2.74,0,0,1,1.06-.12h.19l.2,0a2.07,2.07,0,0,1,1.17.68,2.37,2.37,0,0,1,.52.93l.38.07.39.07a5.13,5.13,0,0,0,.62.09,4.86,4.86,0,0,0,.62,0,.54.54,0,0,0,.35-.11.53.53,0,0,0,.22-.35.42.42,0,0,0-.23-.45,1.71,1.71,0,0,0-.61-.23,1.11,1.11,0,0,0-.7.11c-.25.12-.39.26-.42.42a1.08,1.08,0,0,1-.09.27.15.15,0,0,1-.18.08.32.32,0,0,1-.18-.1.21.21,0,0,1-.05-.19,1.24,1.24,0,0,1,.68-.87A1.39,1.39,0,0,1,105.13,205.5Zm-3.77.12a3.05,3.05,0,0,0-.61,0q-.36.06-.39.22t.27.34a5,5,0,0,0,1.11.31l.47.11.7.18a2,2,0,0,0-.45-.66,1.67,1.67,0,0,0-.87-.51Z"/><path d="M104.82,202.41a.21.21,0,0,1,.17.18.58.58,0,0,1,0,.23,1.93,1.93,0,0,1,.39,0,2.09,2.09,0,0,1,.38,0,1.78,1.78,0,0,1,.88.48,1,1,0,0,1,.37.91,1,1,0,0,1-.35.58.8.8,0,0,1-.6.18l-.51-.07a3,3,0,0,1-.47-.13,3.92,3.92,0,0,1-.44-.2,1.17,1.17,0,0,1-.34-.29q-.17-.2-.15-.29a.17.17,0,0,1,.22-.16.66.66,0,0,1,.23.12l.27.19a2.72,2.72,0,0,0,.51.23,4.86,4.86,0,0,0,.61.17.46.46,0,0,0,.35-.07.47.47,0,0,0,.21-.33q0-.21-.23-.45a1.24,1.24,0,0,0-.6-.31,4,4,0,0,0-.6-.08.85.85,0,0,0-.33,0,1.32,1.32,0,0,1-.17.25.26.26,0,0,1-.24.11q-.3-.06-.29-.31a.41.41,0,0,1,.16-.33,1.5,1.5,0,0,1,.29-.17c0-.1.06-.19.08-.3S104.74,202.4,104.82,202.41Z"/><path d="M108.07,200.09l.18,0a3.33,3.33,0,0,1,.48.12,4.13,4.13,0,0,1,.49.24,2.07,2.07,0,0,1,.86.86,1.46,1.46,0,0,1,.14,1,1.17,1.17,0,0,1-.48.79.74.74,0,0,1-.57.14q-.25,0-.21-.22s.06-.09.14-.12l.25-.09a1,1,0,0,0,.31-.21.64.64,0,0,0,.16-.33,1,1,0,0,0-.12-.75,2.48,2.48,0,0,0-.61-.59,1.89,1.89,0,0,0-.47-.24,3.9,3.9,0,0,0-.55-.15q-.63-.13-.86.16a.72.72,0,0,0-.1.16.91.91,0,0,0-.06.19c0,.11,0,.19,0,.23s0,.11-.08.12a.29.29,0,0,1-.14,0c-.09,0-.13-.06-.14-.12a.85.85,0,0,0-.21-.48.77.77,0,0,0-.44-.26.82.82,0,0,0-.31,0,.24.24,0,0,0-.23.19.76.76,0,0,0,.23.64,4.33,4.33,0,0,0,.37.34l.09.09a.2.2,0,0,1,0,.15c0,.06,0,.09,0,.09l-.13,0a1.2,1.2,0,0,1-.69-.53,1.09,1.09,0,0,1-.26-.84.65.65,0,0,1,.41-.53,1.05,1.05,0,0,1,1,.19,1.12,1.12,0,0,1,.32.44.79.79,0,0,1,.42-.55A1.21,1.21,0,0,1,108.07,200.09Z"/><path d="M107.83,193.45q.11,0,.33.42a4.12,4.12,0,0,1,.34.78,3.7,3.7,0,0,1,.15.73,2,2,0,0,1,0,.6,1.49,1.49,0,0,1-.31.72,1,1,0,0,1-.55.3l-.29,0h-.31l0,.12v.09l0,.18c0,.06,0,.13,0,.19l-.16.79.13,0,.13,0h.6a.42.42,0,0,1,.21.1.23.23,0,0,1,0,.22c0,.13-.13.21-.3.22a2.33,2.33,0,0,1-.6-.05l-.31-.06a.25.25,0,0,1-.34.22q-.09,0-.08-.3l-.47-.12-.33-.09a.34.34,0,0,1-.19-.09.28.28,0,0,1,0-.25c0-.08.08-.11.19-.09l.41.07.16,0,.16,0,.17,0,.11-.55,0-.12,0-.1.05-.26c0-.09,0-.17,0-.26l0-.08-.58-.13a.77.77,0,0,1-.35-.14.2.2,0,0,1-.08-.2c0-.11.19-.14.51-.07l.71.12a2.07,2.07,0,0,0,.51,0,1.19,1.19,0,0,0,.57-.16.66.66,0,0,0,.22-.42,1.81,1.81,0,0,0,0-.4,4.36,4.36,0,0,0-.11-.69,4.87,4.87,0,0,0-.41-1,.91.91,0,0,1-.13-.33c0-.09.06-.13.12-.11Z"/><path d="M108.73,188.91s.13.11.24.29a3.58,3.58,0,0,1,.32.68,4.73,4.73,0,0,1,.23,1,3,3,0,0,1,0,.88.62.62,0,0,1-.49.49,2.61,2.61,0,0,1-1.17,0,5.45,5.45,0,0,1,.65.57q.47.5.4.85a.46.46,0,0,1-.26.39,1.22,1.22,0,0,1-.6,0,2.64,2.64,0,0,1-1.14-.61,1.34,1.34,0,0,1-.62-1.27,1,1,0,0,1,.12-.34.91.91,0,0,1,.24-.22q0-.09.15-.14a.61.61,0,0,1,.32,0l.63.15.54.13a1.43,1.43,0,0,0,.5,0,.38.38,0,0,0,.29-.34,2.46,2.46,0,0,0,.05-.51,2.8,2.8,0,0,0-.16-.87,4.33,4.33,0,0,0-.36-.78,1.16,1.16,0,0,1-.1-.21A.17.17,0,0,1,108.73,188.91Zm-1.69,3.2-.11,0q-.21,0-.24.14t.4.77a1.78,1.78,0,0,0,.8.52,1.39,1.39,0,0,0,.3,0c.09,0,.13,0,.14-.06s-.22-.42-.74-.88Z"/><path d="M108.86,186.71a2,2,0,0,1,.93.41.81.81,0,0,1,.3.81,1,1,0,0,1-.32.58,1.07,1.07,0,0,1-.66.24,4.82,4.82,0,0,1-.89,0q-.48-.06-.92-.15l.07.13a.24.24,0,0,1-.08.29.18.18,0,0,1-.14.06q-.09,0-.25-.29l-.16-.3-.56-.08-.74-.12a3.58,3.58,0,0,1-1.55-.56.74.74,0,0,1-.22-.74.55.55,0,0,1,.31-.41,2.74,2.74,0,0,1,1.06-.12h.19l.2,0a2.07,2.07,0,0,1,1.17.68,2.37,2.37,0,0,1,.52.93l.38.07.39.07a5.13,5.13,0,0,0,.62.09,4.86,4.86,0,0,0,.62,0,.54.54,0,0,0,.35-.11.53.53,0,0,0,.22-.35.42.42,0,0,0-.23-.45,1.71,1.71,0,0,0-.61-.23,1.11,1.11,0,0,0-.7.11c-.25.12-.39.26-.42.42a1.08,1.08,0,0,1-.09.27.15.15,0,0,1-.18.08.32.32,0,0,1-.18-.1.21.21,0,0,1-.05-.19,1.24,1.24,0,0,1,.68-.87A1.39,1.39,0,0,1,108.86,186.71Zm-3.77.12a3,3,0,0,0-.61,0q-.36.06-.39.22t.27.34a5,5,0,0,0,1.11.31l.47.11.7.18a2,2,0,0,0-.45-.66,1.67,1.67,0,0,0-.87-.51Z"/><path d="M110,182.56q.1,0,.21.33c.08.22.16.42.25.61a5.2,5.2,0,0,1,.33,1.13,2.69,2.69,0,0,1,0,1,.83.83,0,0,1-.47.6,1.28,1.28,0,0,1-.84.11,3.26,3.26,0,0,1-1-.41q-.75-.44-.64-1a.92.92,0,0,1,.24-.47.42.42,0,0,1,.4-.15c.11,0,.15.07.14.16s-.07.12-.17.15a.24.24,0,0,0-.18.18q-.07.33.36.62a2.33,2.33,0,0,0,.87.35.93.93,0,0,0,.65-.05.55.55,0,0,0,.26-.4,2.37,2.37,0,0,0,0-.7,4.82,4.82,0,0,0-.22-.93q0-.15-.26-.71a.71.71,0,0,1-.07-.29c0-.07,0-.11.06-.12A.23.23,0,0,1,110,182.56Z"/><path d="M111.13,176.54q.2,0,.49.74a2.5,2.5,0,0,1,.2,1.43,1.43,1.43,0,0,1-.69,1l-.72.28a2,2,0,0,1,.37.39.64.64,0,0,1,.15.48.42.42,0,0,1-.13.23.86.86,0,0,1-.29.16,1,1,0,0,1-.27.05l-.31,0h-.27a.15.15,0,0,0-.14.12c0,.06,0,.15.17.25a5.26,5.26,0,0,0,.5.37l.41.27a.39.39,0,0,1,.16.38.15.15,0,0,1-.16.13,1.48,1.48,0,0,1-.37,0l-.23,0-.24-.06-.57-.09-.52-.06a.48.48,0,0,1-.24-.12.21.21,0,0,1-.07-.2q0-.15.49-.17a3.1,3.1,0,0,1,.67.05,2.87,2.87,0,0,1-.39-.4.57.57,0,0,1-.16-.39.68.68,0,0,1,.2-.35.65.65,0,0,1,.4-.19h.45c.2,0,.31,0,.32-.09s0-.19-.2-.3a2.25,2.25,0,0,0-.34-.2l-.31-.15a.22.22,0,0,1-.07-.25c0-.12.12-.19.29-.21a1.86,1.86,0,0,0,.38-.08,3,3,0,0,0,.86-.33,1,1,0,0,0,.46-.65,1.82,1.82,0,0,0-.06-.93l-.39-.88C111,176.59,111.07,176.53,111.13,176.54Z"/><path d="M111.27,174.62a2,2,0,0,1,.93.41.81.81,0,0,1,.3.81,1,1,0,0,1-.32.58,1.07,1.07,0,0,1-.66.24,4.82,4.82,0,0,1-.89,0q-.48-.06-.92-.15l.07.13a.24.24,0,0,1-.08.29.18.18,0,0,1-.14.06q-.09,0-.25-.29l-.16-.3-.56-.08-.74-.12a3.58,3.58,0,0,1-1.55-.56.74.74,0,0,1-.22-.74.56.56,0,0,1,.31-.41,2.74,2.74,0,0,1,1.06-.12h.19l.2,0A2.07,2.07,0,0,1,109,175a2.37,2.37,0,0,1,.52.93l.38.07.39.07a5.13,5.13,0,0,0,.62.09,4.86,4.86,0,0,0,.62,0,.54.54,0,0,0,.35-.11.53.53,0,0,0,.22-.35.42.42,0,0,0-.23-.45,1.71,1.71,0,0,0-.61-.23,1.11,1.11,0,0,0-.7.11c-.25.12-.39.26-.42.42a1.08,1.08,0,0,1-.09.27.15.15,0,0,1-.18.08.32.32,0,0,1-.18-.1.21.21,0,0,1-.05-.19,1.24,1.24,0,0,1,.68-.87A1.39,1.39,0,0,1,111.27,174.62Zm-3.77.12a3,3,0,0,0-.61,0q-.36.06-.39.22t.27.34a5,5,0,0,0,1.11.31l.47.11.7.18a2,2,0,0,0-.45-.66,1.67,1.67,0,0,0-.87-.51Z"/><path d="M111,171.52a.21.21,0,0,1,.17.18.58.58,0,0,1,0,.23,1.93,1.93,0,0,1,.39,0,2.1,2.1,0,0,1,.38,0,1.78,1.78,0,0,1,.88.48,1,1,0,0,1,.37.91,1,1,0,0,1-.35.58.8.8,0,0,1-.6.18l-.51-.07a3,3,0,0,1-.47-.13,3.92,3.92,0,0,1-.44-.2,1.16,1.16,0,0,1-.34-.29q-.17-.2-.15-.29a.17.17,0,0,1,.22-.16.66.66,0,0,1,.23.12l.27.19a2.72,2.72,0,0,0,.51.23,4.86,4.86,0,0,0,.61.17.46.46,0,0,0,.35-.07.47.47,0,0,0,.21-.33q0-.21-.23-.45a1.24,1.24,0,0,0-.6-.31,4,4,0,0,0-.6-.08.85.85,0,0,0-.33,0,1.32,1.32,0,0,1-.17.25.26.26,0,0,1-.24.11q-.3-.06-.29-.31a.41.41,0,0,1,.16-.33,1.47,1.47,0,0,1,.29-.17c0-.1.06-.19.08-.3S110.87,171.51,111,171.52Z"/><path d="M88.33,161.54"/><path d="M75.93,224"/><path d="M74.69,213.94c.07,0,.1.06.09.15l-.08.26c0,.09,0,.18-.07.29a3.33,3.33,0,0,0,0,.61,4.6,4.6,0,0,0,.07.75,1.83,1.83,0,0,0,.11.39.23.23,0,0,0,.1.12l.09.06a.13.13,0,0,1,0,.12.13.13,0,0,1-.08.11.51.51,0,0,1-.23,0q-.19,0-.27-.62a5,5,0,0,1-.07-.84,3.85,3.85,0,0,1,.06-.75l.07-.37C74.51,214,74.59,213.93,74.69,213.94Zm.45,1.33.51.11.63.14a4.9,4.9,0,0,1,.82.24c.27.11.4.19.39.26s0,.07,0,.07h-.11l-.83-.23-.63-.15-.55-.1-.45-.08a.15.15,0,0,1-.11-.07.15.15,0,0,1,0-.09.15.15,0,0,1,.16-.13Z"/><path d="M77.62,212.38s.09.1.17.27a3.22,3.22,0,0,1,.17.51,2.31,2.31,0,0,1,.06.51,2.34,2.34,0,0,1,0,.48.79.79,0,0,1-.25.45.64.64,0,0,1-.59.15l-.19,0-.21,0-.19,0-.16-.05a.44.44,0,0,1-.23-.24.56.56,0,0,1,0-.35.89.89,0,0,1,.2-.41.39.39,0,0,1,.37-.16.39.39,0,0,1,.27.19.83.83,0,0,1,.09.32c0,.1,0,.19,0,.27l0,.27a.5.5,0,0,0,.34,0,.48.48,0,0,0,.25-.35,1.94,1.94,0,0,0,0-.43,4.17,4.17,0,0,0,0-.48,3.44,3.44,0,0,0-.12-.46l-.07-.23a.26.26,0,0,1,0-.1S77.59,212.38,77.62,212.38Zm-1,1.39a.15.15,0,0,0-.15.08.7.7,0,0,0-.1.26.22.22,0,0,0,0,.13.21.21,0,0,0,.1.1l.21.06.19,0a2,2,0,0,0,0-.24c0-.1,0-.18-.05-.24a.29.29,0,0,0-.08-.14A.24.24,0,0,0,76.63,213.77Z"/><path d="M77,211a.13.13,0,0,1,.1.11.36.36,0,0,1,0,.14l.23,0,.23,0a1.07,1.07,0,0,1,.53.29.59.59,0,0,1,.22.54.57.57,0,0,1-.21.35.48.48,0,0,1-.36.11l-.3,0-.28-.08-.26-.12a.7.7,0,0,1-.2-.17c-.07-.08-.1-.14-.09-.18a.1.1,0,0,1,.13-.09.41.41,0,0,1,.14.07l.16.11a1.64,1.64,0,0,0,.31.14l.37.1a.28.28,0,0,0,.21,0,.29.29,0,0,0,.13-.2c0-.08,0-.17-.14-.27a.75.75,0,0,0-.36-.19l-.36,0a.51.51,0,0,0-.2,0,.77.77,0,0,1-.1.15.16.16,0,0,1-.14.06c-.12,0-.18-.09-.17-.18a.22.22,0,0,1,0-.06.24.24,0,0,1,.09-.14l.17-.1,0-.18C76.94,211,77,211,77,211Z"/><path d="M77.83,209.26a1.5,1.5,0,0,1,.65.32q.35.29.3.55a.4.4,0,0,1-.16.25.38.38,0,0,1-.31.05q-.3-.06-.27-.18c0-.07.06-.1.12-.09l.15,0a.28.28,0,0,0,.13,0,.1.1,0,0,0,.08-.08.33.33,0,0,0-.15-.31,1.38,1.38,0,0,0-.65-.28.28.28,0,0,0-.23.05.29.29,0,0,0-.12.18.42.42,0,0,0,0,.24,1,1,0,0,0,.18.28l.18.07a4.92,4.92,0,0,0,.58.15l.37.07.27,0,.47.07.3,0a.56.56,0,0,0,.23,0,.3.3,0,0,1,.14,0,.32.32,0,0,1,.17.07s0,.08,0,.17-.06.11-.15.13a.81.81,0,0,1-.32,0l-.92-.13-.82-.16-.51-.13-.66-.19H76.8l-.15,0a.17.17,0,0,1-.11-.05.15.15,0,0,1,0-.11.16.16,0,0,1,.1-.11.28.28,0,0,1,.16,0l.44.09a.88.88,0,0,1-.12-.22.55.55,0,0,1,0-.3.51.51,0,0,1,.24-.32A.63.63,0,0,1,77.83,209.26Z"/><path d="M76.23,208.06l.09,0a.18.18,0,0,1,0,.15c0,.06-.07.11-.17.16a.44.44,0,0,1-.25.05.2.2,0,0,1-.1-.05.12.12,0,0,1,0-.12.27.27,0,0,1,.18-.18A.48.48,0,0,1,76.23,208.06Zm2.34-1.1c.09,0,.2.19.32.52a1.71,1.71,0,0,1,.13.91l-.1.31a.29.29,0,0,1-.12.17.65.65,0,0,1-.18.06.92.92,0,0,1-.31,0l-.35-.07-.37-.08-.15,0a.61.61,0,0,1-.18-.06.11.11,0,0,1-.05-.12.14.14,0,0,1,.08-.11.55.55,0,0,1,.26,0l.34.07.39.08a.75.75,0,0,0,.33,0q.12,0,.18-.31a1.39,1.39,0,0,0,0-.65l-.25-.6V207A.06.06,0,0,1,78.57,207Z"/><path d="M79.23,203.55s.07.07.14.2a2.67,2.67,0,0,1,.17.36,1.8,1.8,0,0,1,.14.95.67.67,0,0,1-.27.45.58.58,0,0,1-.46.1l-.29-.06a.14.14,0,0,0,0,.07.14.14,0,0,1,0,.07l.12.09.14.14a1.56,1.56,0,0,1,.29.38.71.71,0,0,1,.05.46.56.56,0,0,1-.27.35.55.55,0,0,1-.39.12.24.24,0,0,1-.12-.07.14.14,0,0,1,0-.13.28.28,0,0,1,.06-.14s.08,0,.18,0,.34,0,.38-.23a.5.5,0,0,0-.1-.32,1,1,0,0,0-.28-.32.55.55,0,0,1,0,.16l0,.12a.4.4,0,0,1-.26.32.65.65,0,0,1-.37,0,.52.52,0,0,1-.35-.24.6.6,0,0,1-.07-.46.69.69,0,0,1,.21-.43.44.44,0,0,1,.36-.06h.07l.12.05-.4-.25c-.1-.06-.14-.12-.13-.18a.13.13,0,0,1,0-.08.11.11,0,0,1,.09,0l.49.18.33.11a.59.59,0,0,0,.4,0,.34.34,0,0,0,.14-.24,1.6,1.6,0,0,0-.07-.78,3.39,3.39,0,0,0-.14-.37.68.68,0,0,1-.08-.24C79.13,203.56,79.17,203.54,79.23,203.55Zm-1,2.12q-.25,0-.32.3a.33.33,0,0,0,.06.25.3.3,0,0,0,.17.15.39.39,0,0,0,.22,0,.2.2,0,0,0,.12-.17v-.06a1.68,1.68,0,0,0,0-.19,1,1,0,0,0,0-.17A1.26,1.26,0,0,0,78.23,205.68Z"/><path d="M80.55,200a3.65,3.65,0,0,1,.56.14,2.83,2.83,0,0,1,.44.25,1.45,1.45,0,0,1,.42.44.9.9,0,0,1,.16.67.82.82,0,0,1-.28.5.42.42,0,0,1-.33.11c-.09,0-.13-.06-.11-.14a.13.13,0,0,1,.08-.09l.09,0a.49.49,0,0,0,.19-.12.42.42,0,0,0,.09-.2.76.76,0,0,0-.11-.53,1.09,1.09,0,0,0-.41-.43,2.6,2.6,0,0,0-.41-.2l-.35-.09-.34,0h-.29a.75.75,0,0,1,.36.34.66.66,0,0,1,.08.44.61.61,0,0,1-.16.34.48.48,0,0,1-.43.09,1,1,0,0,1-.53-.32,1.06,1.06,0,0,1-.31-.72s0,0,0,0v0q0-.1.1-.09s.07.08.12.21l.07.2a.73.73,0,0,0,.28.34.89.89,0,0,0,.33.15.25.25,0,0,0,.17,0,.22.22,0,0,0,.11-.16.52.52,0,0,0-.12-.41,1.35,1.35,0,0,0-.28-.28l-.24,0h-.2c-.09,0-.12-.08-.1-.18s.17-.07.47-.08A4,4,0,0,1,80.55,200Z"/><path d="M80.68,197s.09.1.17.27a3.22,3.22,0,0,1,.17.51,2.31,2.31,0,0,1,.06.51,2.34,2.34,0,0,1,0,.48.79.79,0,0,1-.25.45.64.64,0,0,1-.59.15l-.19,0-.21,0-.19,0-.16-.05a.44.44,0,0,1-.23-.24.56.56,0,0,1,0-.35.89.89,0,0,1,.2-.41.39.39,0,0,1,.37-.16.39.39,0,0,1,.27.19.83.83,0,0,1,.09.32c0,.1,0,.19,0,.27l0,.27a.5.5,0,0,0,.34,0,.48.48,0,0,0,.25-.35,1.94,1.94,0,0,0,0-.43,4.17,4.17,0,0,0,0-.48,3.44,3.44,0,0,0-.12-.46l-.07-.23a.26.26,0,0,1,0-.1S80.66,197,80.68,197Zm-1,1.39a.15.15,0,0,0-.15.08.7.7,0,0,0-.1.26.22.22,0,0,0,0,.13.21.21,0,0,0,.1.1l.21.06.19,0a2,2,0,0,0,0-.24c0-.1,0-.18-.05-.24a.29.29,0,0,0-.08-.14A.24.24,0,0,0,79.69,198.35Z"/><path d="M80.54,195.6a1.5,1.5,0,0,1,.65.32q.35.29.3.55a.4.4,0,0,1-.16.25.38.38,0,0,1-.31.05q-.3-.06-.27-.18c0-.07.06-.1.12-.09l.15,0a.28.28,0,0,0,.13,0,.1.1,0,0,0,.08-.08.33.33,0,0,0-.15-.31,1.38,1.38,0,0,0-.65-.28.28.28,0,0,0-.23.05.29.29,0,0,0-.12.18.42.42,0,0,0,0,.24,1,1,0,0,0,.18.28l.18.07a4.92,4.92,0,0,0,.58.15l.37.07.27,0,.47.07.3,0a.56.56,0,0,0,.23,0,.3.3,0,0,1,.14,0,.32.32,0,0,1,.17.07s0,.08,0,.17-.06.11-.15.13a.81.81,0,0,1-.32,0l-.92-.13-.82-.16-.51-.13-.66-.19h-.12l-.15,0a.17.17,0,0,1-.11-.05.15.15,0,0,1,0-.11.16.16,0,0,1,.1-.11.28.28,0,0,1,.16,0l.44.09a.88.88,0,0,1-.12-.22.55.55,0,0,1,0-.3.51.51,0,0,1,.24-.32A.63.63,0,0,1,80.54,195.6Z"/><path d="M81.8,190.6s.07,0,.1.11l.17.41a2,2,0,0,1,.17.57,1.54,1.54,0,0,1,0,.51.49.49,0,0,1-.24.38,1.09,1.09,0,0,1-.63,0,1.27,1.27,0,0,1,.2.2l.25.3.14.16c0,.05.06.09.06.12s-.11.13-.28.14a1.85,1.85,0,0,1-.52,0l-.26,0-.33-.06.34.32a4.17,4.17,0,0,0,.4.34.88.88,0,0,1,.27.27.57.57,0,0,1,.11.43.82.82,0,0,1-.26.47.44.44,0,0,1-.36.14.21.21,0,0,1-.11-.07.15.15,0,0,1,0-.13A.28.28,0,0,1,81,195s.08,0,.16,0a.23.23,0,0,0,.24-.09.48.48,0,0,0,.1-.22c0-.12,0-.23-.21-.34a1.33,1.33,0,0,0-.49-.2.5.5,0,0,0-.34,0,.3.3,0,0,0-.14.21.3.3,0,0,0,0,.2.27.27,0,0,1,0,.16.08.08,0,0,1-.1.07c-.06,0-.11-.08-.16-.19a.61.61,0,0,1,0-.34.52.52,0,0,1,.18-.32.67.67,0,0,1,.56-.08l-.38-.32c-.17-.16-.26-.26-.24-.32a.22.22,0,0,1,.19-.18.93.93,0,0,1,.33,0l.12,0,.11,0,.34,0,.33,0-.26-.27-.22-.24-.19-.17-.19-.2a1.05,1.05,0,0,1-.17-.23.38.38,0,0,1,0-.25.49.49,0,0,1,.13-.25.25.25,0,0,1,.23-.08c.06,0,.09,0,.08.08s0,.06-.1.08-.1.05-.11.09,0,.23.2.33a1.41,1.41,0,0,0,.51.21.54.54,0,0,0,.36,0,.31.31,0,0,0,.16-.22,1.22,1.22,0,0,0,0-.38,2.56,2.56,0,0,0-.13-.51l-.15-.38a.45.45,0,0,1,0-.16A.08.08,0,0,1,81.8,190.6Z"/><path d="M82.33,188s.08.06.14.17a2.13,2.13,0,0,1,.19.41,2.84,2.84,0,0,1,.14.6,1.8,1.8,0,0,1,0,.53.37.37,0,0,1-.29.29,1.55,1.55,0,0,1-.7,0,3.26,3.26,0,0,1,.39.34q.28.3.24.51a.27.27,0,0,1-.16.23.73.73,0,0,1-.36,0,1.58,1.58,0,0,1-.68-.37.8.8,0,0,1-.37-.76.59.59,0,0,1,.07-.2.55.55,0,0,1,.15-.13s0-.06.09-.08a.37.37,0,0,1,.19,0l.38.09.33.08a.88.88,0,0,0,.3,0,.23.23,0,0,0,.17-.21,1.44,1.44,0,0,0,0-.31,1.69,1.69,0,0,0-.1-.52,2.57,2.57,0,0,0-.21-.47l-.06-.13A.1.1,0,0,1,82.33,188Zm-1,1.92-.07,0c-.08,0-.13,0-.15.08s.06.28.24.46a1.06,1.06,0,0,0,.48.31l.18,0c.05,0,.08,0,.08,0s-.13-.25-.44-.53Z"/><path d="M82.41,186.65a1.2,1.2,0,0,1,.56.25.48.48,0,0,1,.18.48.59.59,0,0,1-.19.35.65.65,0,0,1-.4.14,2.92,2.92,0,0,1-.53,0l-.55-.09,0,.08a.15.15,0,0,1,0,.09.15.15,0,0,1-.06.08.1.1,0,0,1-.08,0s-.08-.06-.15-.17l-.1-.18-.33,0-.44-.07a2.16,2.16,0,0,1-.93-.33.44.44,0,0,1-.13-.44.33.33,0,0,1,.19-.24,1.65,1.65,0,0,1,.63-.07h.12l.12,0a1.25,1.25,0,0,1,.7.41,1.43,1.43,0,0,1,.31.56l.23,0,.24,0,.37.05h.37a.33.33,0,0,0,.21-.07.32.32,0,0,0,.13-.21.25.25,0,0,0-.14-.27,1,1,0,0,0-.37-.14A.66.66,0,0,0,82,187c-.15.07-.24.16-.25.25a.61.61,0,0,1-.05.16.09.09,0,0,1-.11,0,.19.19,0,0,1-.11-.06.12.12,0,0,1,0-.11.75.75,0,0,1,.41-.52A.84.84,0,0,1,82.41,186.65Zm-2.26.07a1.91,1.91,0,0,0-.37,0c-.14,0-.22.07-.23.13s0,.14.16.2a3,3,0,0,0,.66.19l.29.07.42.11a1.17,1.17,0,0,0-.27-.39,1,1,0,0,0-.52-.31Z"/><path d="M83.32,183.25c.07,0,.16.16.27.43a1.57,1.57,0,0,1,.11.9.71.71,0,0,1-.13.3.48.48,0,0,1-.33.18l-.27,0h-.25a1.44,1.44,0,0,1,.49.46.74.74,0,0,1,.19.48.4.4,0,0,1-.15.25.6.6,0,0,1-.41.09l-.42-.07-.45-.1a.2.2,0,0,1-.13-.08.15.15,0,0,1,0-.12.11.11,0,0,1,.06-.08.35.35,0,0,1,.19,0l.16,0,.24.06.36.07c.16,0,.25,0,.27-.12s0-.19-.19-.36a1.91,1.91,0,0,0-.37-.34,1,1,0,0,1-.22-.19c-.07-.08-.09-.14-.08-.18s.15-.1.42-.09h.41a.46.46,0,0,0,.26-.09.45.45,0,0,0,.12-.26,1.18,1.18,0,0,0,0-.6l-.23-.56s0-.05,0-.06Z"/><path d="M81.76,180.21l.09,0a.18.18,0,0,1,0,.15c0,.06-.07.11-.17.16a.44.44,0,0,1-.25.05.2.2,0,0,1-.1-.05.12.12,0,0,1,0-.12.27.27,0,0,1,.18-.18A.47.47,0,0,1,81.76,180.21Zm2.34-1.1c.09,0,.2.19.32.52a1.71,1.71,0,0,1,.13.91l-.1.31a.29.29,0,0,1-.12.17.65.65,0,0,1-.18.06.92.92,0,0,1-.31,0l-.35-.07-.37-.08-.15,0a.61.61,0,0,1-.18-.06.11.11,0,0,1-.05-.12.14.14,0,0,1,.08-.11.55.55,0,0,1,.26,0l.34.07.39.08a.75.75,0,0,0,.33,0q.12,0,.18-.31a1.39,1.39,0,0,0,0-.65l-.25-.6v-.07A.06.06,0,0,1,84.1,179.12Z"/><path d="M85.21,173.65s.1.08.19.22a2.15,2.15,0,0,1,.2.41,1.78,1.78,0,0,1,.11.5,1.6,1.6,0,0,1,0,.43.72.72,0,0,1-.21.42.91.91,0,0,1-.47.16l-.31,0c-.08,0-.13,0-.14.1s0,.1.11.21a3.67,3.67,0,0,0,.28.32l.14.14q.11.13.1.2c0,.08-.08.12-.19.14h-.31l-.5,0-.39-.05a.22.22,0,0,1-.12-.06s0-.07,0-.14.05-.07.13-.08a1,1,0,0,1,.28,0l.24,0h.41a4.26,4.26,0,0,1-.32-.36,1.26,1.26,0,0,1-.17-.27.37.37,0,0,1,0-.22.29.29,0,0,1,.22-.23,1.89,1.89,0,0,1,.42,0,1.5,1.5,0,0,0,.42,0,.26.26,0,0,0,.18-.2,1.63,1.63,0,0,0,0-.4,2.3,2.3,0,0,0-.07-.46,2.91,2.91,0,0,0-.24-.5.44.44,0,0,1-.08-.18s0-.07,0-.07Z"/><path d="M85.17,172.33a1.5,1.5,0,0,1,.65.32q.35.29.3.55a.4.4,0,0,1-.16.25.38.38,0,0,1-.31.05q-.3-.06-.27-.18c0-.07.06-.1.12-.09l.15,0a.28.28,0,0,0,.13,0,.1.1,0,0,0,.08-.08.33.33,0,0,0-.15-.31,1.38,1.38,0,0,0-.65-.28.28.28,0,0,0-.23.05.29.29,0,0,0-.12.18.42.42,0,0,0,0,.24,1,1,0,0,0,.18.28l.18.07a4.92,4.92,0,0,0,.58.15l.37.07.27,0,.47.07.3,0a.56.56,0,0,0,.23,0,.3.3,0,0,1,.14,0,.32.32,0,0,1,.17.07s0,.08,0,.17-.06.11-.15.13a.81.81,0,0,1-.32,0l-.92-.13-.82-.16-.51-.13-.66-.19h-.12l-.15,0a.17.17,0,0,1-.11-.05.15.15,0,0,1,0-.11.16.16,0,0,1,.1-.11.28.28,0,0,1,.16,0l.44.09a.88.88,0,0,1-.12-.22.55.55,0,0,1,0-.3.51.51,0,0,1,.24-.32A.63.63,0,0,1,85.17,172.33Z"/><path d="M86.07,169.17s.08.06.14.17a2.13,2.13,0,0,1,.19.41,2.84,2.84,0,0,1,.14.6,1.8,1.8,0,0,1,0,.53.37.37,0,0,1-.29.29,1.55,1.55,0,0,1-.7,0,3.26,3.26,0,0,1,.39.34q.28.3.24.51a.27.27,0,0,1-.16.23.73.73,0,0,1-.36,0,1.58,1.58,0,0,1-.68-.37.8.8,0,0,1-.37-.76.59.59,0,0,1,.07-.2.55.55,0,0,1,.15-.13s0-.06.09-.08a.37.37,0,0,1,.19,0l.38.09.33.08a.88.88,0,0,0,.3,0,.23.23,0,0,0,.17-.21,1.44,1.44,0,0,0,0-.31,1.69,1.69,0,0,0-.1-.52,2.57,2.57,0,0,0-.21-.47l-.06-.13A.1.1,0,0,1,86.07,169.17Zm-1,1.92-.07,0c-.08,0-.13,0-.15.08s.06.28.24.46a1.06,1.06,0,0,0,.48.31l.18,0c.05,0,.08,0,.08,0s-.13-.25-.44-.53Z"/><path d="M86.15,167.84a1.2,1.2,0,0,1,.56.25.48.48,0,0,1,.18.48.59.59,0,0,1-.19.35.65.65,0,0,1-.4.14,2.92,2.92,0,0,1-.53,0l-.55-.09,0,.08a.15.15,0,0,1,0,.09.15.15,0,0,1-.06.08.1.1,0,0,1-.08,0s-.08-.06-.15-.17l-.1-.18-.33,0-.44-.07a2.16,2.16,0,0,1-.93-.33A.44.44,0,0,1,83,168a.33.33,0,0,1,.19-.24,1.65,1.65,0,0,1,.63-.07H84l.12,0a1.25,1.25,0,0,1,.7.41,1.43,1.43,0,0,1,.31.56l.23,0,.24,0,.37.05h.37a.33.33,0,0,0,.21-.07.32.32,0,0,0,.13-.21.25.25,0,0,0-.14-.27,1,1,0,0,0-.37-.14.66.66,0,0,0-.42.07c-.15.07-.24.16-.25.25a.61.61,0,0,1-.05.16.09.09,0,0,1-.11,0,.19.19,0,0,1-.11-.06.12.12,0,0,1,0-.11.75.75,0,0,1,.41-.52A.84.84,0,0,1,86.15,167.84Zm-2.26.07a1.91,1.91,0,0,0-.37,0c-.14,0-.22.07-.23.13s0,.14.16.2a3,3,0,0,0,.66.19l.29.07.42.11a1.17,1.17,0,0,0-.27-.39,1,1,0,0,0-.52-.31Z"/><path d="M87,164.71s.08.06.14.17a2.13,2.13,0,0,1,.19.41,2.84,2.84,0,0,1,.14.6,1.8,1.8,0,0,1,0,.53.37.37,0,0,1-.29.29,1.55,1.55,0,0,1-.7,0,3.34,3.34,0,0,1,.39.34q.28.3.24.51a.27.27,0,0,1-.16.23.73.73,0,0,1-.36,0,1.58,1.58,0,0,1-.68-.37.8.8,0,0,1-.37-.76.59.59,0,0,1,.07-.2.55.55,0,0,1,.15-.13s0-.06.09-.08a.37.37,0,0,1,.19,0l.38.09.33.08a.88.88,0,0,0,.3,0,.23.23,0,0,0,.17-.21,1.44,1.44,0,0,0,0-.31,1.69,1.69,0,0,0-.1-.52,2.57,2.57,0,0,0-.21-.47l-.06-.13A.1.1,0,0,1,87,164.71Zm-1,1.92-.07,0c-.08,0-.13,0-.15.08s.06.28.24.46a1.06,1.06,0,0,0,.48.31l.18,0c.05,0,.08,0,.08,0s-.13-.25-.44-.53Z"/><path d="M91.15,220s.06,0,.05.07l0,.11a1.78,1.78,0,0,1-.35.6,3.62,3.62,0,0,1-.77.76,7.34,7.34,0,0,1-.8.5,3.52,3.52,0,0,1-.54.25l.58.15.8.24a.86.86,0,0,1,.29.09.13.13,0,0,1,.05.15.11.11,0,0,1-.1.08.86.86,0,0,1-.24,0l-.15,0-.16,0-1.33-.35-.93-.22-.44-.08-.31,0a.27.27,0,0,1-.16-.09.18.18,0,0,1,.07-.29.51.51,0,0,1,.32,0l.42.11.75.21-.33-.48c-.12-.18-.21-.32-.27-.42l-.45-.85a1.14,1.14,0,0,1-.18-.5.15.15,0,0,1,.07-.1l0,0a1.79,1.79,0,0,1,.31.46l.52.93a3.92,3.92,0,0,0,.24.36l.34.46a2.69,2.69,0,0,0,.58-.24q.38-.2.81-.48a3.67,3.67,0,0,0,.38-.28c.1-.09.23-.21.38-.37a5,5,0,0,0,.31-.39C91,220.06,91.12,220,91.15,220Z"/><path d="M89.7,217.89a.15.15,0,0,1,.12.13.4.4,0,0,1,0,.16l.27,0,.27,0a1.24,1.24,0,0,1,.62.34.68.68,0,0,1,.26.64.67.67,0,0,1-.25.41.56.56,0,0,1-.42.13l-.35-.05-.33-.09-.31-.14a.83.83,0,0,1-.23-.2c-.08-.09-.11-.16-.11-.21a.12.12,0,0,1,.16-.11.46.46,0,0,1,.16.08l.19.13a1.93,1.93,0,0,0,.36.16l.43.12a.33.33,0,0,0,.24,0,.33.33,0,0,0,.15-.23q0-.15-.16-.32a.87.87,0,0,0-.42-.22,2.91,2.91,0,0,0-.42-.06.59.59,0,0,0-.23,0,.9.9,0,0,1-.12.18.18.18,0,0,1-.17.07c-.14,0-.21-.1-.2-.21a.27.27,0,0,1,0-.07.29.29,0,0,1,.11-.16l.2-.12.06-.21C89.61,217.92,89.65,217.88,89.7,217.89Z"/><path d="M91.37,213.86c.05,0,.13.11.23.3a2.9,2.9,0,0,1,.24.55,2.67,2.67,0,0,1,.11.51,1.47,1.47,0,0,1,0,.42,1,1,0,0,1-.22.5.72.72,0,0,1-.39.21l-.2,0H90.9v.15l0,.12,0,.13-.11.55.09,0,.09,0h.42a.3.3,0,0,1,.15.07.16.16,0,0,1,0,.16c0,.09-.09.14-.21.15a1.65,1.65,0,0,1-.42,0l-.22,0a.18.18,0,0,1-.24.15s-.06-.08-.05-.21L90,217.5l-.23-.06a.24.24,0,0,1-.14-.07.2.2,0,0,1,0-.17c0-.05.06-.08.13-.07l.28,0,.12,0,.12,0,.12,0,.08-.38,0-.09v-.07l0-.18c0-.06,0-.12,0-.18v-.05l-.41-.09a.55.55,0,0,1-.24-.1.14.14,0,0,1-.06-.14q0-.12.36-.05l.5.08a1.5,1.5,0,0,0,.35,0,.82.82,0,0,0,.4-.11.46.46,0,0,0,.16-.29,1.26,1.26,0,0,0,0-.28,3,3,0,0,0-.08-.48,3.38,3.38,0,0,0-.28-.68.65.65,0,0,1-.09-.23c0-.06,0-.09.08-.08Z"/><path d="M91.84,211.42s.09.08.15.23.11.29.17.43a3.61,3.61,0,0,1,.23.79,1.87,1.87,0,0,1,0,.67.58.58,0,0,1-.33.42.89.89,0,0,1-.59.07,2.3,2.3,0,0,1-.72-.28q-.52-.3-.45-.68a.64.64,0,0,1,.17-.33.29.29,0,0,1,.28-.1c.08,0,.11.05.1.11s0,.08-.12.11a.17.17,0,0,0-.13.13c0,.15.05.3.25.44a1.63,1.63,0,0,0,.61.24.65.65,0,0,0,.46,0,.39.39,0,0,0,.18-.28,1.69,1.69,0,0,0,0-.49,3.43,3.43,0,0,0-.15-.65l-.18-.5a.51.51,0,0,1,0-.21s0-.07,0-.08Z"/><path d="M92.65,207.21c.09,0,.21.19.34.52a1.74,1.74,0,0,1,.14,1,1,1,0,0,1-.48.71l-.5.2a1.37,1.37,0,0,1,.26.27.45.45,0,0,1,.1.33.29.29,0,0,1-.09.16.59.59,0,0,1-.2.11l-.19,0-.22,0h-.19a.11.11,0,0,0-.1.08s0,.1.12.18a3.49,3.49,0,0,0,.35.26l.29.19a.27.27,0,0,1,.11.26.11.11,0,0,1-.11.09,1,1,0,0,1-.26,0l-.16,0-.17,0-.4-.06-.36,0a.32.32,0,0,1-.17-.08.14.14,0,0,1,0-.14c0-.07.13-.11.34-.12a2.17,2.17,0,0,1,.47,0,2,2,0,0,1-.27-.28.4.4,0,0,1-.11-.27.47.47,0,0,1,.14-.24.45.45,0,0,1,.28-.13h.32c.14,0,.22,0,.23-.06s0-.13-.14-.21l-.24-.14-.22-.11a.15.15,0,0,1,0-.17c0-.09.09-.14.2-.15a1.25,1.25,0,0,0,.27-.05,2.11,2.11,0,0,0,.6-.23.68.68,0,0,0,.32-.46,1.27,1.27,0,0,0,0-.65l-.27-.61Q92.58,207.19,92.65,207.21Z"/><path d="M93.44,203.74q.12,0,.31.5a1.82,1.82,0,0,1,.13,1.05.82.82,0,0,1-.15.35.56.56,0,0,1-.38.22l-.32,0h-.29a1.67,1.67,0,0,1,.57.54.86.86,0,0,1,.23.56.47.47,0,0,1-.18.3.72.72,0,0,1-.48.11l-.49-.08-.52-.12a.24.24,0,0,1-.15-.09.18.18,0,0,1,0-.14.13.13,0,0,1,.07-.1.41.41,0,0,1,.22,0l.19,0,.28.07.42.08c.19,0,.3,0,.32-.14s-.06-.22-.23-.41a2.24,2.24,0,0,0-.43-.4,1.13,1.13,0,0,1-.26-.22c-.08-.09-.11-.16-.1-.21s.18-.12.49-.1h.47a.43.43,0,0,0,.45-.41,1.38,1.38,0,0,0-.05-.7l-.27-.65s0-.06,0-.07Z"/><path d="M94.19,199.45c.09,0,.21.19.34.52a1.74,1.74,0,0,1,.14,1,1,1,0,0,1-.48.71l-.5.2a1.37,1.37,0,0,1,.26.27.45.45,0,0,1,.1.33.29.29,0,0,1-.09.16.59.59,0,0,1-.2.11l-.19,0-.22,0h-.19a.11.11,0,0,0-.1.08s0,.1.12.18a3.49,3.49,0,0,0,.35.26l.29.19a.27.27,0,0,1,.11.26.11.11,0,0,1-.11.09,1,1,0,0,1-.26,0l-.16,0-.17,0-.4-.06-.36,0a.32.32,0,0,1-.17-.08.14.14,0,0,1,0-.14c0-.07.13-.11.34-.12a2.18,2.18,0,0,1,.47,0,2,2,0,0,1-.27-.28.4.4,0,0,1-.11-.27.47.47,0,0,1,.14-.24.45.45,0,0,1,.28-.13h.32c.14,0,.22,0,.23-.06s0-.13-.14-.21l-.24-.14-.22-.11a.15.15,0,0,1,0-.17c0-.09.09-.14.2-.15a1.25,1.25,0,0,0,.27-.05,2.11,2.11,0,0,0,.6-.23.68.68,0,0,0,.32-.46,1.27,1.27,0,0,0,0-.65l-.27-.61Q94.12,199.43,94.19,199.45Z"/><path d="M94.82,196.06a2.35,2.35,0,0,1,.22.73q.09.41.2,1l.38.08.41.08.28.05a2.26,2.26,0,0,1,1.06.4.61.61,0,0,1,.17.59.56.56,0,0,1-.32.41.94.94,0,0,1-.62.06,1.93,1.93,0,0,1-1.09-.63,2.57,2.57,0,0,1-.45-.73l-.29,0-.25,0-.09,0-.12,0a4,4,0,0,1,.38.56,1.12,1.12,0,0,1,.21.66.29.29,0,0,1-.18.22l-.28.07-.3.06-.26,0-.19,0h-.16q-.22,0-.18-.24c0-.09.09-.14.22-.14H94l.37,0c.16,0,.25-.08.27-.16a.7.7,0,0,0-.17-.41l-.4-.54a3,3,0,0,1-.32-.48.11.11,0,0,1,0-.06.11.11,0,0,1,.07-.08.31.31,0,0,1,.17,0l.21.08.18.08.12,0,.22,0,.24,0a6.07,6.07,0,0,1-.21-.87,4,4,0,0,1-.1-.67.1.1,0,0,1,.08-.08Zm1.61,2.27-1-.2a1.38,1.38,0,0,0,.36.53,1.58,1.58,0,0,0,.81.42.82.82,0,0,0,.41,0c.15,0,.23-.11.24-.18s-.06-.23-.26-.34A1.87,1.87,0,0,0,96.44,198.32Z"/><path d="M95.77,193.46a3.42,3.42,0,0,1,.7.25,2.35,2.35,0,0,1,.59.34.51.51,0,0,1,.21.46q0,.14-.21.11s-.09-.05-.12-.13a1.59,1.59,0,0,0-.1-.2,1.1,1.1,0,0,0-.36-.26,4.06,4.06,0,0,0-.48-.22.56.56,0,0,1,.09.2.57.57,0,0,1,0,.23.48.48,0,0,1-.19.28.86.86,0,0,1-.38.16l-.33.06-.31,0,.36.53a1.07,1.07,0,0,1,.24.59.24.24,0,0,1-.16.2,1.45,1.45,0,0,1-.42,0l-.35,0-.33,0-.1,0a.24.24,0,0,1-.15-.09.17.17,0,0,1,0-.14.14.14,0,0,1,.08-.1.32.32,0,0,1,.2,0l.46.07a1.85,1.85,0,0,0,.44,0,3.4,3.4,0,0,0-.25-.41,3.73,3.73,0,0,0-.3-.4l-.15-.2a.24.24,0,0,1,0-.17q0-.12.33-.14l.6,0a1.11,1.11,0,0,0,.39-.12.27.27,0,0,0,.12-.18.41.41,0,0,0-.14-.32c-.11-.13-.16-.21-.15-.24a.12.12,0,0,1,0-.08S95.65,193.43,95.77,193.46Z"/><path d="M93.23,192.09l.11,0a.22.22,0,0,1,0,.18q0,.1-.2.18a.51.51,0,0,1-.29.06.23.23,0,0,1-.12-.06.14.14,0,0,1,0-.14c0-.09.09-.15.21-.21A.55.55,0,0,1,93.23,192.09ZM96,190.81q.16,0,.38.61a2,2,0,0,1,.15,1.06l-.12.36a.34.34,0,0,1-.14.2.77.77,0,0,1-.22.07,1.08,1.08,0,0,1-.36,0l-.4-.08-.44-.09-.18,0a.74.74,0,0,1-.21-.07.13.13,0,0,1-.06-.14.16.16,0,0,1,.1-.13.63.63,0,0,1,.31,0l.4.09.45.1a.88.88,0,0,0,.38,0q.14-.06.21-.36a1.61,1.61,0,0,0,0-.76l-.29-.7,0-.08A.07.07,0,0,1,96,190.81Z"/><path d="M94.13,188.9a.37.37,0,0,1,.15.1.7.7,0,0,1,.19.28,1.19,1.19,0,0,1,.07.29.8.8,0,0,1,0,.24.74.74,0,0,1-.11.28l-.15.18-.14.11a.5.5,0,0,1-.18.07h-.1a.21.21,0,0,1-.12-.06.13.13,0,0,1,0-.12s0-.07.13-.11L94,190l.16-.13a.34.34,0,0,0,.1-.18.58.58,0,0,0,0-.2,1,1,0,0,0-.06-.19.82.82,0,0,0-.13-.21C94,189.07,94,189,94,189S94.08,188.89,94.13,188.9Zm2.56-1.52q.12,0,.31.5a1.82,1.82,0,0,1,.13,1.05.83.83,0,0,1-.15.35.56.56,0,0,1-.38.22l-.32,0H96a1.67,1.67,0,0,1,.57.54.86.86,0,0,1,.23.56.47.47,0,0,1-.21.3.67.67,0,0,1-.42.11l-.5-.08-.28-.06-.25-.06a.24.24,0,0,1-.15-.09.18.18,0,0,1,0-.14.13.13,0,0,1,.07-.1.41.41,0,0,1,.22,0l.19,0,.28.07.42.07q.28,0,.32-.16c0-.08-.06-.21-.23-.4a2.53,2.53,0,0,0-.43-.39,1.15,1.15,0,0,1-.26-.22c-.08-.09-.11-.16-.1-.21s.18-.12.49-.1h.47a.43.43,0,0,0,.45-.41,1.38,1.38,0,0,0-.05-.7l-.27-.65s0-.06,0-.07Z"/><path d="M97.34,183.78c.05,0,.13.11.23.3a2.9,2.9,0,0,1,.24.55,2.67,2.67,0,0,1,.11.51,1.47,1.47,0,0,1,0,.42,1,1,0,0,1-.22.5.72.72,0,0,1-.39.21l-.2,0h-.22v.15l0,.12,0,.13-.11.55.09,0,.09,0h.42a.3.3,0,0,1,.15.07.16.16,0,0,1,0,.16c0,.09-.09.14-.21.15a1.65,1.65,0,0,1-.42,0l-.22,0a.18.18,0,0,1-.24.15s-.06-.08-.05-.21l-.33-.08-.23-.06a.24.24,0,0,1-.14-.07.2.2,0,0,1,0-.17c0-.05.06-.08.13-.07l.28,0,.12,0,.12,0,.12,0,.08-.38,0-.09v-.07l0-.18,0-.18v-.05l-.41-.09a.55.55,0,0,1-.24-.1.14.14,0,0,1-.06-.14c0-.08.14-.1.36-.05l.5.08a1.5,1.5,0,0,0,.35,0,.82.82,0,0,0,.4-.11.46.46,0,0,0,.16-.29,1.26,1.26,0,0,0,0-.28,3,3,0,0,0-.08-.48,3.38,3.38,0,0,0-.28-.68.66.66,0,0,1-.09-.23c0-.06,0-.09.08-.08Z"/><path d="M98,181.11s.11.12.19.32a3.8,3.8,0,0,1,.2.6,2.76,2.76,0,0,1,.07.6,2.73,2.73,0,0,1,0,.57.92.92,0,0,1-.29.52.75.75,0,0,1-.68.17l-.22,0-.24,0-.22,0-.19-.06a.51.51,0,0,1-.27-.28.65.65,0,0,1-.05-.4,1,1,0,0,1,.23-.48.45.45,0,0,1,.43-.19.46.46,0,0,1,.32.22,1,1,0,0,1,.11.37c0,.11,0,.22,0,.32l.05.32a.58.58,0,0,0,.39-.06.55.55,0,0,0,.29-.41,2.17,2.17,0,0,0,0-.5,4.53,4.53,0,0,0-.06-.56,3.87,3.87,0,0,0-.13-.54l-.08-.26a.31.31,0,0,1,0-.11A.07.07,0,0,1,98,181.11Zm-1.16,1.62a.17.17,0,0,0-.18.09.82.82,0,0,0-.11.3.25.25,0,0,0,0,.16.25.25,0,0,0,.11.12l.24.07.22.05a2.13,2.13,0,0,0,0-.28c0-.12,0-.21-.06-.28a.33.33,0,0,0-.09-.16A.29.29,0,0,0,96.87,182.73Z"/><path d="M99.18,174.71s.12.09.22.25a2.44,2.44,0,0,1,.24.48,2.06,2.06,0,0,1,.13.58,1.93,1.93,0,0,1,0,.5.83.83,0,0,1-.24.5,1.06,1.06,0,0,1-.54.18l-.36,0c-.1,0-.15.05-.16.11s0,.12.13.24a4.27,4.27,0,0,0,.33.37l.16.17c.09.1.13.18.12.24s-.09.14-.22.16H98.6l-.59,0-.45-.06a.25.25,0,0,1-.14-.06s0-.09,0-.17.06-.08.15-.09a1.13,1.13,0,0,1,.32,0l.28,0h.48a4.92,4.92,0,0,1-.38-.42,1.44,1.44,0,0,1-.2-.31.44.44,0,0,1-.05-.25.34.34,0,0,1,.26-.27,2.13,2.13,0,0,1,.49,0,1.79,1.79,0,0,0,.49-.05.3.3,0,0,0,.21-.24,1.9,1.9,0,0,0,0-.46,2.63,2.63,0,0,0-.09-.54,3.42,3.42,0,0,0-.28-.59.53.53,0,0,1-.09-.21c0-.05,0-.08,0-.08Z"/><path d="M99.13,173.16a1.74,1.74,0,0,1,.76.37c.27.22.39.44.35.65a.46.46,0,0,1-.18.29.44.44,0,0,1-.36.06q-.35-.07-.32-.21t.14-.11l.18,0a.32.32,0,0,0,.15,0,.12.12,0,0,0,.09-.09.39.39,0,0,0-.18-.36,1.62,1.62,0,0,0-.75-.32.33.33,0,0,0-.27.06.35.35,0,0,0-.14.21.51.51,0,0,0,0,.28,1.15,1.15,0,0,0,.21.32l.21.08a5.57,5.57,0,0,0,.68.18l.43.08.32.06a5,5,0,0,0,.55.08l.35,0a.67.67,0,0,0,.27,0,.36.36,0,0,1,.16,0,.38.38,0,0,1,.19.08s0,.1,0,.19-.08.12-.18.15a1,1,0,0,1-.38,0L100.4,175l-1-.19-.59-.15-.77-.22h-.14l-.17,0a.21.21,0,0,1-.13-.06.18.18,0,0,1,0-.13.18.18,0,0,1,.12-.13.32.32,0,0,1,.19,0l.52.1a1,1,0,0,1-.14-.26.64.64,0,0,1,0-.35.59.59,0,0,1,.28-.38A.74.74,0,0,1,99.13,173.16Z"/><path d="M100.18,169.47s.09.07.17.2a2.47,2.47,0,0,1,.22.48,3.29,3.29,0,0,1,.16.7,2.08,2.08,0,0,1,0,.62.43.43,0,0,1-.34.34,1.82,1.82,0,0,1-.82,0,3.82,3.82,0,0,1,.45.4q.33.35.28.59a.32.32,0,0,1-.18.27.85.85,0,0,1-.42,0,1.85,1.85,0,0,1-.8-.43.94.94,0,0,1-.43-.89.68.68,0,0,1,.08-.24.63.63,0,0,1,.17-.15s0-.07.11-.1a.42.42,0,0,1,.22,0l.44.11.38.09a1,1,0,0,0,.35,0,.27.27,0,0,0,.2-.24,1.69,1.69,0,0,0,0-.36,2,2,0,0,0-.11-.61,3,3,0,0,0-.25-.54.82.82,0,0,1-.07-.15A.12.12,0,0,1,100.18,169.47ZM99,171.71l-.08,0c-.1,0-.15,0-.17.1s.07.33.28.54a1.24,1.24,0,0,0,.56.37l.21,0c.06,0,.09,0,.1,0s-.15-.29-.52-.61Z"/><path d="M100.27,167.95a1.4,1.4,0,0,1,.65.29.56.56,0,0,1,.21.56.69.69,0,0,1-.23.4.75.75,0,0,1-.46.17,3.43,3.43,0,0,1-.62,0l-.64-.11,0,.09a.17.17,0,0,1,0,.11.16.16,0,0,1-.07.09.12.12,0,0,1-.1,0s-.1-.08-.17-.2l-.12-.21-.39-.06-.52-.08a2.51,2.51,0,0,1-1.09-.39.52.52,0,0,1-.15-.52.39.39,0,0,1,.22-.28,1.92,1.92,0,0,1,.74-.09h.14l.14,0a1.45,1.45,0,0,1,.82.48,1.66,1.66,0,0,1,.36.65l.26.05.28,0,.43.06h.43a.38.38,0,0,0,.25-.08.37.37,0,0,0,.15-.24.3.3,0,0,0-.16-.32,1.22,1.22,0,0,0-.43-.16.78.78,0,0,0-.49.08q-.26.12-.3.3a.71.71,0,0,1-.06.19.1.1,0,0,1-.12.05.22.22,0,0,1-.12-.07.15.15,0,0,1,0-.13.87.87,0,0,1,.47-.61A1,1,0,0,1,100.27,167.95Zm-2.64.09a2.19,2.19,0,0,0-.43,0c-.17,0-.26.08-.27.15s0,.17.19.24a3.44,3.44,0,0,0,.77.22l.33.08.49.13a1.4,1.4,0,0,0-.31-.46,1.17,1.17,0,0,0-.61-.36Z"/><path d="M100.06,165.78a.15.15,0,0,1,.12.13.4.4,0,0,1,0,.16l.27,0,.27,0a1.24,1.24,0,0,1,.62.34.68.68,0,0,1,.26.64.67.67,0,0,1-.25.41.56.56,0,0,1-.42.13l-.35-.05-.33-.09-.31-.14a.83.83,0,0,1-.23-.2c-.08-.09-.11-.16-.11-.21a.12.12,0,0,1,.16-.11.46.46,0,0,1,.16.08l.19.13a1.93,1.93,0,0,0,.36.16l.43.12a.33.33,0,0,0,.24,0,.33.33,0,0,0,.15-.23q0-.15-.16-.32a.87.87,0,0,0-.42-.22,2.91,2.91,0,0,0-.42-.06.59.59,0,0,0-.23,0,.9.9,0,0,1-.12.18.18.18,0,0,1-.17.07c-.14,0-.21-.1-.2-.21a.27.27,0,0,1,0-.07.29.29,0,0,1,.11-.16l.2-.12.06-.21C100,165.8,100,165.76,100.06,165.78Z"/><path d="M205.5,110.25c-22.1-5.69-33.81-32.52-36-38.14,1.61-2.13,4.82-7.65,4.82-17.66,0-23.52-19.55-51.78-20.38-53l-1-1.48L151.3.91c-17.83,10.37-37,36.11-40.67,41.17H98.9C95.23,37,76.05,11.28,58.23.91L56.67,0l-1,1.48c-.83,1.19-20.38,29.45-20.38,53,0,10,3.19,15.48,4.8,17.63-2.41,5.66-14.88,32.47-37,38.17L0,111l2,2.39C3,114.6,26.36,141.65,51,145.51v96.12a23.39,23.39,0,0,0,2,9.63c2.66,5.93,7.23,9.57,13.23,10.52l77,0,.15,0c6-1,10.57-4.59,13.23-10.52a23.4,23.4,0,0,0,2-9.63V145.51c24.57-3.87,47-30.95,48-32.12l1.95-2.38Zm-49.11,31.6-1.75.19v25.47L131.59,190a9.13,9.13,0,1,0-16.19,8.27,9.12,9.12,0,0,0,13.12,12.67,9.13,9.13,0,1,0,9-15.28l17.15-16v62a19.51,19.51,0,0,1-1.64,8c-1.92,4.3-5,7-9,8a6.62,6.62,0,0,0,.14-1.29c0-5.87-7.5-10.63-16.74-10.63s-16.74,4.76-16.74,10.63a6.67,6.67,0,0,0,.2,1.55H98.68a6.67,6.67,0,0,0,.2-1.55c0-5.87-7.5-10.63-16.74-10.63s-16.74,4.76-16.74,10.63a6.62,6.62,0,0,0,.14,1.29c-4-1-7.09-3.68-9-8a19.51,19.51,0,0,1-1.64-8v-62l17.15,16a9.13,9.13,0,1,0,9,15.28,9.12,9.12,0,0,0,13.12-12.67A9.13,9.13,0,1,0,77.94,190L54.88,167.51V142l-1.75-.19c-19.68-2.19-39.72-22-46.06-28.72a45.7,45.7,0,0,0,13.31-7.44c7,5.36,37.44,21.83,53,19.06,16.5-2.95,23-17.87,24.15-21s2.55-21.4-12.37-30.83c-12.41-7.84-33.76-3.46-40.61-1.76l-.82-.82s-4.52-4.64-4.52-15.88c0-19.3,14.62-43,18.65-49.19C76.08,16.8,96.08,44.88,96.29,45.18l.59.83h15.78l.59-.83c.21-.29,20.21-28.38,38.46-39.92,4,6.18,18.65,29.89,18.65,49.19,0,11.24-4.47,15.83-4.5,15.87l-.86.83c-6.88-1.7-28.19-6.06-40.59,1.77-14.92,9.43-13.55,27.69-12.37,30.83s7.66,18.07,24.15,21c16.16,2.89,46.93-14.59,52-19.13a44.41,44.41,0,0,0,13.34,7.53C195.44,119.9,176.08,139.66,156.39,141.85Z"/><path d="M159.95,47.65c-.45-16.26-12.74-30-12.74-30-6.06,3.29-20.47,26.85-20.47,26.85l28.51,15S160.7,56.6,159.95,47.65Z"/><path d="M61.53,17.69s-12.28,13.7-12.74,30c-.76,8.95,4.7,11.87,4.7,11.87L82,44.54S67.59,21,61.53,17.69Z"/><line class="cls-9" x1="108.79" y1="162.25" x2="138.47" y2="152.03"/><line class="cls-9" x1="110.59" y1="162.72" x2="141.07" y2="152.21"/><line class="cls-9" x1="112.39" y1="163.2" x2="143.67" y2="152.4"/><line class="cls-9" x1="114.19" y1="163.68" x2="146.27" y2="152.59"/><circle class="cls-3" cx="138.28" cy="97.26" r="16.79"/><path d="M138.28,85.72a11.53,11.53,0,0,0-10.69,7.21,4.09,4.09,0,1,1-.53,2,4.06,4.06,0,0,1,0-.49,11.53,11.53,0,1,0,11.17-8.72Z"/><line class="cls-9" x1="94.86" y1="161.37" x2="125.43" y2="150.65"/><line class="cls-9" x1="96.71" y1="161.87" x2="128.11" y2="150.84"/><line class="cls-9" x1="98.57" y1="162.37" x2="130.79" y2="151.04"/><line class="cls-9" x1="100.42" y1="162.87" x2="133.47" y2="151.24"/><line class="cls-9" x1="101.35" y1="163.12" x2="134.81" y2="151.33"/><circle class="cls-3" cx="71.25" cy="97.26" r="16.79"/><path d="M71.25,85.72a11.53,11.53,0,0,0-10.69,7.21,4.09,4.09,0,1,1-.53,2,4.06,4.06,0,0,1,0-.49,11.53,11.53,0,1,0,11.17-8.72Z"/><line class="cls-9" x1="83.89" y1="160.29" x2="117.49" y2="149"/><line class="cls-9" x1="85.9" y1="160.81" x2="119.07" y2="149.61"/><line class="cls-9" x1="87.91" y1="161.33" x2="121.97" y2="149.81"/></g></g></svg>