<svg xmlns="http://www.w3.org/2000/svg" viewBox="0 0 300.01 66.72"><defs><style>.cls-1{fill:#424344;}.cls-2{fill:#f62459;}.cls-3{fill:#fff;}</style></defs><title>administrator</title><g id="Слой_2" data-name="Слой 2"><g id="Слой_1-2" data-name="Слой 1"><path class="cls-1" d="M28,33.91v3.22a1.6,1.6,0,0,1-1.61,1.61H2.21a1.56,1.56,0,0,1-1.14-.47A1.56,1.56,0,0,1,.6,37.13V2.29a1.56,1.56,0,0,1,.47-1.14A1.55,1.55,0,0,1,2.21.68H6.27a1.56,1.56,0,0,1,1.14.47,1.56,1.56,0,0,1,.47,1.14v28.4A1.6,1.6,0,0,0,9.49,32.3H26.4A1.6,1.6,0,0,1,28,33.91Z"/><path class="cls-1" d="M39.87,8.74V15a1.6,1.6,0,0,0,1.61,1.61H56.67a1.6,1.6,0,0,1,1.61,1.61v3.38a1.6,1.6,0,0,1-1.61,1.61H41.48a1.6,1.6,0,0,0-1.61,1.61v5.72a1.6,1.6,0,0,0,1.61,1.61H59a1.6,1.6,0,0,1,1.61,1.61v3.33A1.6,1.6,0,0,1,59,38.75H34.2a1.6,1.6,0,0,1-1.61-1.61V2.29a1.56,1.56,0,0,1,.47-1.14A1.55,1.55,0,0,1,34.2.68H59a1.56,1.56,0,0,1,1.14.47,1.56,1.56,0,0,1,.47,1.14V5.51A1.6,1.6,0,0,1,59,7.13H41.48a1.6,1.6,0,0,0-1.61,1.61Z"/><path class="cls-1" d="M105.09,19.56q-.05,1-.08,2.08a7.54,7.54,0,0,1-.08,1.2A16.71,16.71,0,0,1,103,29.49a18.39,18.39,0,0,1-4.21,5.25,18.72,18.72,0,0,1-5.93,3.48,20.24,20.24,0,0,1-7.07,1.25,19,19,0,0,1-7.65-1.56,20.2,20.2,0,0,1-6.29-4.26,20,20,0,0,1-4.26-6.24A19,19,0,0,1,66,19.76a19.59,19.59,0,0,1,1.56-7.7,19.8,19.8,0,0,1,1.85-3.38,20.34,20.34,0,0,1,2.42-2.91,21.53,21.53,0,0,1,6.29-4.21,19.51,19.51,0,0,1,23.09,5.93,1.33,1.33,0,0,1,.29,1.14,1.5,1.5,0,0,1-.7,1l-3.54,2.13a1.53,1.53,0,0,1-1.22.21,2.31,2.31,0,0,1-1.12-.62,18.88,18.88,0,0,0-1.53-1.56,10.61,10.61,0,0,0-1.79-1.3,11.1,11.1,0,0,0-5.83-1.66,11.79,11.79,0,0,0-4.84,1,12.64,12.64,0,0,0-4,2.86,14.58,14.58,0,0,0-2.7,4.11,12.57,12.57,0,0,0-1,4.94,12.33,12.33,0,0,0,1,4.94A14.57,14.57,0,0,0,77,28.81a11.7,11.7,0,0,0,4,2.81,10.88,10.88,0,0,0,4.84,1.09,12.63,12.63,0,0,0,7.13-2.29,12.57,12.57,0,0,0,2.65-2.6,7.46,7.46,0,0,0,1-1.82,1,1,0,0,0,0-1.07,1.2,1.2,0,0,0-1-.44H84.75a1.6,1.6,0,0,1-1.61-1.61V19.56a1.6,1.6,0,0,1,1.61-1.61h18.72a1.6,1.6,0,0,1,1.61,1.61Z"/><path class="cls-1" d="M106.44,37.34l18-36a1.18,1.18,0,0,1,2.08,0l18,36a1,1,0,0,1,.08,1,1,1,0,0,1-.91.42H139a2.55,2.55,0,0,1-1.35-.42,2.23,2.23,0,0,1-.94-1l-1.56-3.12a2.76,2.76,0,0,0-1-1,2.44,2.44,0,0,0-1.33-.42H118.14a2.57,2.57,0,0,0-1.35.42,2.24,2.24,0,0,0-.94,1l-1.51,3.07a2.63,2.63,0,0,1-1,1,2.43,2.43,0,0,1-1.33.42h-4.73a1,1,0,0,1-.91-.42A1.05,1.05,0,0,1,106.44,37.34Zm15.24-10.92h7.7a.93.93,0,0,0,.91-.44,1.11,1.11,0,0,0,0-1l-4.06-8.58q-.26-.62-.68-.62t-.68.62L120.74,25a1.09,1.09,0,0,0,0,1A1,1,0,0,0,121.68,26.42Z"/><path class="cls-1" d="M176,33.91v3.22a1.6,1.6,0,0,1-1.61,1.61H150.18a1.6,1.6,0,0,1-1.61-1.61V2.29A1.56,1.56,0,0,1,149,1.14a1.55,1.55,0,0,1,1.14-.47h4.06a1.56,1.56,0,0,1,1.14.47,1.56,1.56,0,0,1,.47,1.14v28.4a1.6,1.6,0,0,0,1.61,1.61h16.9A1.6,1.6,0,0,1,176,33.91Z"/><path class="cls-1" d="M225.75,33.91v3.22a1.6,1.6,0,0,1-1.61,1.61H199.95a1.6,1.6,0,0,1-1.61-1.61V2.29a1.56,1.56,0,0,1,.47-1.14,1.55,1.55,0,0,1,1.14-.47H204a1.55,1.55,0,0,1,1.14.47,1.56,1.56,0,0,1,.47,1.14v28.4a1.6,1.6,0,0,0,1.61,1.61h16.9a1.6,1.6,0,0,1,1.61,1.61Z"/><path class="cls-1" d="M227.2,37.34l18-36a1.18,1.18,0,0,1,2.08,0l18,36a1,1,0,0,1,.08,1,1,1,0,0,1-.91.42h-4.73a2.55,2.55,0,0,1-1.35-.42,2.23,2.23,0,0,1-.94-1L256,34.17a2.76,2.76,0,0,0-1-1,2.44,2.44,0,0,0-1.33-.42H238.9a2.57,2.57,0,0,0-1.35.42,2.24,2.24,0,0,0-.94,1l-1.51,3.07a2.62,2.62,0,0,1-1,1,2.43,2.43,0,0,1-1.33.42h-4.73a1,1,0,0,1-.91-.42A1.05,1.05,0,0,1,227.2,37.34Zm15.24-10.92h7.7A.93.93,0,0,0,251,26a1.11,1.11,0,0,0,0-1L247,16.38q-.26-.62-.68-.62t-.68.62L241.5,25a1.09,1.09,0,0,0,0,1A1,1,0,0,0,242.44,26.42Z"/><path class="cls-1" d="M298,13.73a11.08,11.08,0,0,1-1.25,2.39,6.63,6.63,0,0,1-2,1.82,5.52,5.52,0,0,1-1.2.62q-.52.16-.47.23a1.75,1.75,0,0,0,.62.23q.73.26,1.35.52a8,8,0,0,1,2.44,1.92,9.34,9.34,0,0,1,1.82,2.76,7.93,7.93,0,0,1,.68,3.28,13.45,13.45,0,0,1-.94,5.31,9,9,0,0,1-2.55,3.48,8.66,8.66,0,0,1-3.75,1.87q-1.09.26-2.24.42a17.61,17.61,0,0,1-2.39.16h-16a1.6,1.6,0,0,1-1.61-1.61V2.29A1.56,1.56,0,0,1,271,1.14a1.55,1.55,0,0,1,1.14-.47h15.13q1.2,0,2.24.1t2.08.31a8.82,8.82,0,0,1,3.54,1.66A7.19,7.19,0,0,1,297.57,6a12.82,12.82,0,0,1,.88,5.25A7.34,7.34,0,0,1,298,13.73Zm-18.51,2.44h7.33a4.24,4.24,0,0,0,1.92-.42,4.35,4.35,0,0,0,1.35-1.09,4.76,4.76,0,0,0,.83-1.56,5.11,5.11,0,0,0,.26-1.72,4.3,4.3,0,0,0-.31-1.61A4.13,4.13,0,0,0,290,8.43a4.84,4.84,0,0,0-1.2-.94,3.14,3.14,0,0,0-1.51-.36h-7.85a1.6,1.6,0,0,0-1.61,1.61v5.82a1.6,1.6,0,0,0,1.61,1.61Zm10.45,15.66a4.18,4.18,0,0,0,1.46-1.2,5.17,5.17,0,0,0,1-1.66,4.27,4.27,0,0,0,.36-1.82,4.32,4.32,0,0,0-1.4-3.22,5.49,5.49,0,0,0-4-1.3h-7.91a1.6,1.6,0,0,0-1.61,1.61v6.45a1.6,1.6,0,0,0,1.61,1.61h8.69A3.37,3.37,0,0,0,289.92,31.83Z"/><rect class="cls-2" y="44.23" width="299" height="22.49"/><path class="cls-3" d="M95.46,59.39q0,1.31-1,1.31a.74.74,0,0,1-.78-.52q0-.21-.16-.57h0A2.7,2.7,0,0,1,91.3,60.7a3.64,3.64,0,0,1-1.52-.32,3.85,3.85,0,0,1-1.84-1.72,5.11,5.11,0,0,1-.58-2.47A5,5,0,0,1,88,53.73,3.87,3.87,0,0,1,89.81,52a3.47,3.47,0,0,1,1.44-.32,2.91,2.91,0,0,1,2.27,1.06h0v0a4,4,0,0,1,.14-.42.79.79,0,0,1,.8-.56q1,0,1,1.29Zm-4-5.81a1.72,1.72,0,0,0-1.57.88,3.45,3.45,0,0,0-.45,1.83A3.12,3.12,0,0,0,89.89,58a1.74,1.74,0,0,0,1.52.84A1.79,1.79,0,0,0,93,58a3.22,3.22,0,0,0,.46-1.81,3.33,3.33,0,0,0-.45-1.8A1.77,1.77,0,0,0,91.45,53.58Z"/><path class="cls-3" d="M106.47,61.58a.88.88,0,0,1-1,1q-.75,0-.75-1v-1H98.87v1q0,1-.78,1a.86.86,0,0,1-1-1V60q0-.69.37-.86l.66-.26a1.39,1.39,0,0,0,.37-1.15V54a2.15,2.15,0,0,1,.62-1.73,2.8,2.8,0,0,1,1.81-.48h3.49q.94,0,.94,1.28V59h.13q1,0,1,.86ZM103.38,59V53.47h-2.32a.58.58,0,0,0-.66.66v3.63a2.39,2.39,0,0,1-.32,1.26Z"/><path class="cls-3" d="M118.6,59.87a.81.81,0,0,1-.29.66,1.06,1.06,0,0,1-.7.24q-.83,0-1-1l-.83-5.1s-.61,1.78-1.76,5.26q-.29.88-1,.88t-1-.88l-1.73-5.26s-.3,1.73-.85,5.12q-.16,1-1,1a1.06,1.06,0,0,1-.7-.24.79.79,0,0,1-.29-.64,10.14,10.14,0,0,1,.21-1.39l1.08-5.61a1.21,1.21,0,0,1,1.3-1.11,1.33,1.33,0,0,1,1.4,1L113,57.5h.06l1.56-4.75a1.33,1.33,0,0,1,1.39-1,1.2,1.2,0,0,1,1.29,1.1l1.07,5.6A10.15,10.15,0,0,1,118.6,59.87Z"/><path class="cls-3" d="M122.73,49.64a1.17,1.17,0,0,1-.34.85,1.13,1.13,0,0,1-.84.35,1.2,1.2,0,0,1-1.2-1.2,1.13,1.13,0,0,1,.35-.84,1.17,1.17,0,0,1,.85-.34,1.2,1.2,0,0,1,1.18,1.18Zm-.18,9.75q0,1.31-1,1.31t-1-1.31V53.08q0-1.31,1-1.31t1,1.29Z"/><path class="cls-3" d="M132.82,59.39q0,1.31-1,1.31t-1-1.31V56.81h-3.58v2.58q0,1.31-1,1.31t-1-1.31V53.08q0-1.31,1-1.31t1,1.3v2.21h3.58V53.08q0-1.31,1-1.31t1,1.29Z"/><path class="cls-3" d="M137.69,49.64a1.17,1.17,0,0,1-.34.85,1.13,1.13,0,0,1-.84.35,1.2,1.2,0,0,1-1.2-1.2,1.13,1.13,0,0,1,.35-.84,1.17,1.17,0,0,1,.85-.34,1.2,1.2,0,0,1,1.18,1.18Zm-.18,9.75q0,1.31-1,1.31t-1-1.31V53.08q0-1.31,1-1.31t1,1.29Z"/><path class="cls-3" d="M143.91,51.71a4.54,4.54,0,0,1,1.63.29q1,.39,1,1.1t-.8.85a2,2,0,0,1-.8-.2,2.47,2.47,0,0,0-1-.2,1.87,1.87,0,0,0-1.62.86,3.07,3.07,0,0,0-.53,1.82,3.13,3.13,0,0,0,.51,1.87,1.92,1.92,0,0,0,1.69.83,3.07,3.07,0,0,0,1-.25,3.52,3.52,0,0,1,.79-.25.76.76,0,0,1,.59.25.88.88,0,0,1,.22.62q0,.85-1.47,1.3a4.54,4.54,0,0,1-1.3.18,3.77,3.77,0,0,1-3-1.33,4.74,4.74,0,0,1-1.07-3.2,4.66,4.66,0,0,1,1.1-3.18A3.85,3.85,0,0,1,143.91,51.71Z"/><path class="cls-3" d="M154.68,52.68q0,.86-1.12.86h-1.33v5.86q0,1.29-1,1.29t-1-1.31V53.55H149q-1.15,0-1.15-.86t1.15-.86h4.58Q154.68,51.82,154.68,52.68Z"/><path class="cls-3" d="M164.45,56.23a5.06,5.06,0,0,1-1,3.14,3.41,3.41,0,0,1-2.86,1.42,2.78,2.78,0,0,1-2.18-1h0v3.06q0,1.36-1,1.36t-1-1.36V53.08q0-1.31,1-1.31a.85.85,0,0,1,.86.59,3.16,3.16,0,0,0,.13.4,2.56,2.56,0,0,1,2.26-1,3.39,3.39,0,0,1,2.86,1.37A4.92,4.92,0,0,1,164.45,56.23Zm-2,0a3.3,3.3,0,0,0-.45-1.79,1.71,1.71,0,0,0-1.55-.85,1.87,1.87,0,0,0-1.6.79,2.88,2.88,0,0,0-.51,1.75v.4a2.61,2.61,0,0,0,.54,1.66,1.89,1.89,0,0,0,1.55.74,1.76,1.76,0,0,0,1.58-.87A3.54,3.54,0,0,0,162.42,56.25Z"/><path class="cls-3" d="M174.31,59.39q0,1.31-1,1.31a.74.74,0,0,1-.78-.52q0-.21-.16-.57h0a2.7,2.7,0,0,1-2.21,1.09,3.64,3.64,0,0,1-1.52-.32,3.85,3.85,0,0,1-1.84-1.72,5.11,5.11,0,0,1-.58-2.47,5,5,0,0,1,.61-2.47,3.87,3.87,0,0,1,1.84-1.7,3.47,3.47,0,0,1,1.44-.32,2.91,2.91,0,0,1,2.27,1.06h0v0a4,4,0,0,1,.14-.42.79.79,0,0,1,.8-.56q1,0,1,1.29Zm-4-5.81a1.72,1.72,0,0,0-1.57.88,3.45,3.45,0,0,0-.45,1.83,3.12,3.12,0,0,0,.46,1.73,1.74,1.74,0,0,0,1.52.84,1.79,1.79,0,0,0,1.6-.83,3.22,3.22,0,0,0,.46-1.81,3.33,3.33,0,0,0-.45-1.8A1.77,1.77,0,0,0,170.29,53.58Z"/><path class="cls-3" d="M182.89,52.68q0,.86-1.12.86h-1.33v5.86q0,1.29-1,1.29t-1-1.31V53.55h-1.28q-1.15,0-1.15-.86t1.15-.86h4.58Q182.89,51.82,182.89,52.68Z"/><path class="cls-3" d="M192.36,56.25a4.74,4.74,0,0,1-1.09,3.18,3.74,3.74,0,0,1-3,1.34,3.78,3.78,0,0,1-3-1.36,5.15,5.15,0,0,1,0-6.35,3.78,3.78,0,0,1,3-1.38,3.74,3.74,0,0,1,3,1.36A4.82,4.82,0,0,1,192.36,56.25Zm-4.1-2.75a1.8,1.8,0,0,0-1.61.88,3.45,3.45,0,0,0-.47,1.86,3.42,3.42,0,0,0,.48,1.86,1.78,1.78,0,0,0,1.6.9,1.76,1.76,0,0,0,1.6-.9,3.89,3.89,0,0,0,0-3.7A1.79,1.79,0,0,0,188.26,53.5Z"/><path class="cls-3" d="M202.63,56.23a5.06,5.06,0,0,1-1,3.14,3.41,3.41,0,0,1-2.86,1.42,2.78,2.78,0,0,1-2.18-1h0v3.06q0,1.36-1,1.36t-1-1.36V53.08q0-1.31,1-1.31a.85.85,0,0,1,.86.59,3.14,3.14,0,0,0,.13.4,2.56,2.56,0,0,1,2.26-1,3.39,3.39,0,0,1,2.86,1.37A4.92,4.92,0,0,1,202.63,56.23Zm-2,0a3.3,3.3,0,0,0-.45-1.79,1.71,1.71,0,0,0-1.55-.85,1.87,1.87,0,0,0-1.6.79,2.89,2.89,0,0,0-.51,1.75v.4a2.62,2.62,0,0,0,.54,1.66,1.89,1.89,0,0,0,1.55.74,1.75,1.75,0,0,0,1.58-.87A3.54,3.54,0,0,0,200.6,56.25Z"/><path class="cls-3" d="M211.43,52.71a1.81,1.81,0,0,1-.14.64l-3.86,10.06q-.32.85-.94.85a.92.92,0,0,1-.69-.26,1,1,0,0,1-.26-.7,1.71,1.71,0,0,1,.15-.67l1.11-2.73-2.65-6.62a1.4,1.4,0,0,1-.11-.54,1,1,0,0,1,.27-.7.92.92,0,0,1,.69-.28q.69,0,1,.9l1.79,4.82,1.73-4.94q.27-.77.91-.77A.85.85,0,0,1,211.43,52.71Z"/></g></g></svg>