<svg xmlns="http://www.w3.org/2000/svg" viewBox="0 0 842.46 189.08"><defs><style>.cls-1{fill:#f62459;}.cls-2{fill:#22313f;stroke:#22313f;stroke-miterlimit:10;stroke-width:10px;}.cls-3{fill:#fff;}</style></defs><title>doctor_new</title><g id="Слой_2" data-name="Слой 2"><g id="Слой_1-2" data-name="Слой 1"><rect class="cls-1" x="1.02" y="125.86" width="841" height="63.23"/><path class="cls-2" d="M16.14,108.77c-1.47,0-5.86-.15-8.35-2.2S5,101.59,5,99.39V6.17h7.91V96.75a4.92,4.92,0,0,0,1.17,3.81c1.17,1,3.08,1.17,4.4,1.17H77.26v7Z"/><path class="cls-2" d="M109.3,108.77c-3.52,0-7.47.15-10.7-3.08-3.08-3.07-3.23-7.33-3.23-11.14V19.8c0-6,2.2-8.94,2.93-9.82C101.23,6.47,105,6.17,109,6.17h60.53v7H110.18c-1.61,0-4.25.58-5.28,1.46-1.61,1.32-1.61,4.1-1.61,5.13v33h64.78v7H103.29V96.31c0,1.17.44,3.23,1.46,4.11s4.84,1.32,6.6,1.32h58.77v7Z"/><path class="cls-2" d="M276.79,97.34c0,1.76-.15,6.15-2.78,8.65-2.2,2.2-6.6,2.79-9.24,2.79H225.05a35.55,35.55,0,0,1-22.42-7.48c-13.19-10.55-14.36-28.73-14.36-43.24,0-17.3,1.76-36.35,18.32-46.17,8.35-5,17.59-5.71,23.89-5.71h44v7H228.28c-12.75,0-22.28,6.45-26.82,15.39-4.1,8.21-4.69,21.25-4.69,28.88,0,19.2,3.52,27.26,4.55,29.46a25.41,25.41,0,0,0,23.6,14.8h37.82c1.61,0,3.52,0,4.84-1.61,1-1.17,1.32-3.23,1.32-4.84V61.72h7.91Z"/><path class="cls-2" d="M334.77,15.85C337.12,10.28,340,5,346.2,5s9.09,5.42,11.43,10.85l39.28,92.92h-8.5L376,78.87H316.45L304,108.77h-8.5Zm-15.24,56h53.35L350.45,18.19c-.88-2.05-2.2-5.86-4.25-5.86s-3.37,3.81-4.25,5.86Z"/><path class="cls-2" d="M426.35,108.77c-1.47,0-5.86-.15-8.35-2.2s-2.79-5-2.79-7.18V6.17h7.91V96.75a4.92,4.92,0,0,0,1.17,3.81c1.17,1,3.08,1.17,4.4,1.17h58.77v7Z"/><path class="cls-2" d="M554.9,108.77c-1.47,0-5.86-.15-8.35-2.2s-2.79-5-2.79-7.18V6.17h7.92V96.75a4.93,4.93,0,0,0,1.17,3.81c1.17,1,3.08,1.17,4.4,1.17H616v7Z"/><path class="cls-2" d="M675.25,15.85C677.59,10.28,680.53,5,686.68,5s9.09,5.42,11.43,10.85l39.28,92.92h-8.5l-12.46-29.9H656.93l-12.46,29.9H636ZM660,71.84h53.35L690.93,18.19c-.88-2.05-2.2-5.86-4.25-5.86s-3.37,3.81-4.25,5.86Z"/><path class="cls-2" d="M755.23,19.66c0-3.81,1-7.62,2.93-10,2.64-3.07,6-3.52,9.09-3.52h47.34c7.33,0,12.46,2.64,15.39,5.71,5.72,5.86,6.45,15.39,6.45,22,0,6.3-.59,12.31-4.4,17.3a13.39,13.39,0,0,1-9.38,5.42v.59a15.86,15.86,0,0,1,10.55,5.57c4.4,5.27,4.25,11.87,4.25,18.32,0,7.48.15,14.66-6.16,21.69-4.84,5.42-9.38,6-14.66,6H771.35c-3.66,0-9.24.59-13-3.37-2.79-2.93-3.08-6.74-3.08-9.82Zm7.91,34h48.08c4.4,0,10.26-.29,13.48-4.55,2.79-3.52,3.22-12.16,3.22-16.27,0-11.14-3.22-15.09-4.69-16.56-3.22-3.07-7-3.07-9.82-3.07H769c-1.47,0-3.23-.15-4.4,1.17-1,1-1.47,3.52-1.47,4.69Zm0,40.16c0,4.25.44,5.57,1,6.31,1.32,1.61,4.4,1.61,6.74,1.61h40.89c4.11,0,10.26.15,13.92-4.84,2.64-3.52,3.22-11.14,3.22-15.68s-.59-12-2.64-15.1a13.42,13.42,0,0,0-10.55-5.42H763.14Z"/><path class="cls-3" d="M348.29,145.87c1-2.34,2.52-2.52,3.12-2.52s2.16.18,3.12,2.52l11.94,29.64h-3.54L352,147.67c-.12-.36-.3-1-.6-1s-.48.6-.6,1L339.9,175.51h-3.54Z"/><path class="cls-3" d="M368.87,138v-4.44h3.36V138Zm.12,5.76h3.12v31.8H369Z"/><path class="cls-3" d="M378.23,175.51v-31.8h3.12v31.8Zm20,0-13.38-12.6a5.25,5.25,0,0,1-2-3.78c0-1.5,1.44-3.18,2.46-4.14l12.12-11.28h4.26l-14.16,13.38c-.42.42-1.32,1.26-1.32,2a3.35,3.35,0,0,0,1,1.74l15.54,14.64Z"/><path class="cls-3" d="M421.91,143.71a7.73,7.73,0,0,1,5.58,2.22c1.68,1.8,1.92,4.44,1.92,6.36v19a4.45,4.45,0,0,1-1.08,3.3c-1,.9-2.52.9-3.6.9H412.49c-1.8,0-4-.06-5.76-1.44-2.64-2.16-2.82-6.48-2.82-8.4,0-2.58.36-5.58,2.64-7.5a9.31,9.31,0,0,1,5.94-1.68h13.8v-4.74a7,7,0,0,0-1.2-3.78,4.41,4.41,0,0,0-3.36-1.44H406.31v-2.82Zm-10.14,15.6a4.23,4.23,0,0,0-3.48,1.56c-.78,1-1,2.7-1,4.92,0,1.92.18,4.2,1.26,5.52a4.13,4.13,0,0,0,3.12,1.38h12.84a2.09,2.09,0,0,0,1.38-.36,1.16,1.16,0,0,0,.42-1.08V159.31Z"/><path class="cls-3" d="M438.53,185.71h-3.12v-38a3.71,3.71,0,0,1,1.5-3,5.76,5.76,0,0,1,3.54-1h8c2.1,0,6.36.3,9.48,3.66s3.36,8,3.36,11.76c0,4-.24,8.16-2.52,11.64-2.52,3.78-6.12,4.74-11.28,4.74h-9Zm10.26-13a8.65,8.65,0,0,0,7.38-3.6c1.44-2.22,1.8-5.4,1.8-9.54,0-4.38-.42-6.78-1.14-8.4a8.12,8.12,0,0,0-7.68-4.62H440a2,2,0,0,0-1,.42,1.31,1.31,0,0,0-.48,1.14v24.6Z"/><path class="cls-3" d="M474.29,157.69c.18-4.44,1.26-8.34,3.9-10.86,3.48-3.42,8.4-3.48,11.4-3.48s7.92.06,11.4,3.48,3.9,8.94,3.9,12.6c0,3.84-.48,9.36-3.9,12.84s-8.52,3.6-11.4,3.6c-3.06,0-7.86-.18-11.4-3.6s-4-9-3.9-11.76h-5v15h-3.12v-31.8h3.12v14Zm5.82,12.3c2.4,2.76,6.24,3.06,9.48,3.06s7.08-.3,9.48-3.06,2.46-7.8,2.46-10.26c0-2.64-.06-7.92-2.4-10.62s-6.54-2.94-9.54-2.94-7.2.24-9.54,2.94-2.4,8-2.4,10.62C477.65,162.19,477.65,167.17,480.11,170Z"/></g></g></svg>