<svg xmlns="http://www.w3.org/2000/svg" viewBox="0 0 830.01 138.83"><defs><style>.cls-1{fill:#22313f;}.cls-2{fill:#f62459;}</style></defs><title>ll_logo</title><g id="Слой_2" data-name="Слой 2"><g id="Слой_1-2" data-name="Слой 1"><path class="cls-1" d="M77.49,93.81v8.92A4.42,4.42,0,0,1,73,107.2H6.12A4.31,4.31,0,0,1,3,105.9a4.31,4.31,0,0,1-1.3-3.17V6.33A4.31,4.31,0,0,1,3,3.17,4.3,4.3,0,0,1,6.12,1.87H17.35a4.31,4.31,0,0,1,3.17,1.29,4.31,4.31,0,0,1,1.29,3.17V84.89a4.42,4.42,0,0,0,4.46,4.46H73a4.42,4.42,0,0,1,4.46,4.46Z"/><path class="cls-1" d="M110.3,24.18V41.58A4.43,4.43,0,0,0,114.76,46h42a4.42,4.42,0,0,1,4.46,4.46v9.35a4.42,4.42,0,0,1-4.46,4.46h-42a4.43,4.43,0,0,0-4.46,4.46V84.61a4.43,4.43,0,0,0,4.46,4.46h48.49a4.42,4.42,0,0,1,4.46,4.46v9.21a4.42,4.42,0,0,1-4.46,4.46H94.61a4.42,4.42,0,0,1-4.46-4.46V6.33a4.31,4.31,0,0,1,1.3-3.17,4.3,4.3,0,0,1,3.17-1.29h68.63a4.3,4.3,0,0,1,3.17,1.29,4.31,4.31,0,0,1,1.29,3.17v8.92a4.42,4.42,0,0,1-4.46,4.46H114.76a4.42,4.42,0,0,0-4.46,4.46Z"/><path class="cls-1" d="M290.73,54.1q-.15,2.88-.22,5.75a20.85,20.85,0,0,1-.22,3.31A46.24,46.24,0,0,1,285,81.58a50.89,50.89,0,0,1-11.65,14.53,51.8,51.8,0,0,1-16.4,9.64,56,56,0,0,1-19.57,3.46,52.48,52.48,0,0,1-21.15-4.32,55.89,55.89,0,0,1-17.41-11.8A55.32,55.32,0,0,1,187,75.83a52.49,52.49,0,0,1-4.32-21.15A54.19,54.19,0,0,1,187,33.38,54.78,54.78,0,0,1,192.1,24,56.32,56.32,0,0,1,198.79,16,59.57,59.57,0,0,1,216.2,4.32a54,54,0,0,1,63.89,16.4,3.67,3.67,0,0,1,.79,3.17,4.16,4.16,0,0,1-1.94,2.73l-9.78,5.9a4.24,4.24,0,0,1-3.38.58,6.4,6.4,0,0,1-3.09-1.73,52.31,52.31,0,0,0-4.25-4.31,29.38,29.38,0,0,0-5-3.6,30.7,30.7,0,0,0-16.12-4.6A32.63,32.63,0,0,0,224,21.73,35,35,0,0,0,213,29.64,40.33,40.33,0,0,0,205.55,41a34.78,34.78,0,0,0-2.73,13.67,34.11,34.11,0,0,0,2.73,13.67A40.32,40.32,0,0,0,213,79.71,32.37,32.37,0,0,0,224,87.48a30.1,30.1,0,0,0,13.38,3,35,35,0,0,0,19.71-6.33A34.77,34.77,0,0,0,264.4,77a20.65,20.65,0,0,0,2.88-5,2.62,2.62,0,0,0-.07-3,3.32,3.32,0,0,0-2.81-1.22H234.47A4.42,4.42,0,0,1,230,63.31V54.1a4.42,4.42,0,0,1,4.46-4.46h51.8a4.42,4.42,0,0,1,4.46,4.46Z"/><path class="cls-1" d="M294.47,103.31,344.4,3.6a3.26,3.26,0,0,1,5.75,0l49.93,99.71a2.72,2.72,0,0,1,.22,2.73,2.63,2.63,0,0,1-2.52,1.15H384.69a7.06,7.06,0,0,1-3.74-1.15,6.19,6.19,0,0,1-2.59-2.88L374,94.53a7.65,7.65,0,0,0-2.66-2.73,6.76,6.76,0,0,0-3.67-1.15H326.84a7.11,7.11,0,0,0-3.74,1.15,6.2,6.2,0,0,0-2.59,2.88l-4.17,8.49a7.27,7.27,0,0,1-2.66,2.88A6.72,6.72,0,0,1,310,107.2H296.92A2.63,2.63,0,0,1,294.4,106,2.91,2.91,0,0,1,294.47,103.31ZM336.63,73.1h21.29a2.58,2.58,0,0,0,2.52-1.22,3.06,3.06,0,0,0-.07-2.8L349.15,45.32q-.72-1.73-1.87-1.73t-1.87,1.73L334,69.07a3,3,0,0,0,0,2.88A2.8,2.8,0,0,0,336.63,73.1Z"/><path class="cls-1" d="M486.85,93.81v8.92a4.42,4.42,0,0,1-4.46,4.46H415.48a4.42,4.42,0,0,1-4.46-4.46V6.33a4.31,4.31,0,0,1,1.3-3.17,4.3,4.3,0,0,1,3.17-1.29H426.7a4.31,4.31,0,0,1,3.17,1.29,4.31,4.31,0,0,1,1.29,3.17V84.89a4.42,4.42,0,0,0,4.46,4.46h46.76a4.42,4.42,0,0,1,4.46,4.46Z"/><path class="cls-1" d="M624.54,93.81v8.92a4.42,4.42,0,0,1-4.46,4.46H553.18a4.42,4.42,0,0,1-4.46-4.46V6.33A4.31,4.31,0,0,1,550,3.17a4.3,4.3,0,0,1,3.17-1.29H564.4a4.3,4.3,0,0,1,3.16,1.29,4.31,4.31,0,0,1,1.3,3.17V84.89a4.42,4.42,0,0,0,4.46,4.46h46.76a4.42,4.42,0,0,1,4.46,4.46Z"/><path class="cls-1" d="M628.57,103.31,678.5,3.6a3.26,3.26,0,0,1,5.76,0l49.93,99.71a2.72,2.72,0,0,1,.22,2.73,2.63,2.63,0,0,1-2.52,1.15h-13.1A7.06,7.06,0,0,1,715,106a6.17,6.17,0,0,1-2.59-2.88l-4.32-8.63a7.63,7.63,0,0,0-2.66-2.73,6.76,6.76,0,0,0-3.67-1.15H660.94a7.11,7.11,0,0,0-3.74,1.15,6.19,6.19,0,0,0-2.59,2.88l-4.17,8.49a7.26,7.26,0,0,1-2.66,2.88,6.72,6.72,0,0,1-3.67,1.15H631A2.62,2.62,0,0,1,628.5,106,2.91,2.91,0,0,1,628.57,103.31ZM670.73,73.1H692a2.58,2.58,0,0,0,2.52-1.22,3.07,3.07,0,0,0-.07-2.8L683.25,45.32q-.72-1.73-1.87-1.73t-1.87,1.73L668.14,69.07a3,3,0,0,0,0,2.88A2.8,2.8,0,0,0,670.73,73.1Z"/><path class="cls-1" d="M824.4,38a30.65,30.65,0,0,1-3.45,6.62,18.34,18.34,0,0,1-5.47,5,15.29,15.29,0,0,1-3.31,1.73q-1.44.43-1.29.65a4.84,4.84,0,0,0,1.73.65q2,.72,3.74,1.44a22.13,22.13,0,0,1,6.76,5.33,25.83,25.83,0,0,1,5,7.62A21.94,21.94,0,0,1,830,76.12a37.22,37.22,0,0,1-2.59,14.68,25,25,0,0,1-7.05,9.64A24,24,0,0,1,810,105.61q-3,.72-6.19,1.15a48.73,48.73,0,0,1-6.62.43H753a4.42,4.42,0,0,1-4.46-4.46V6.33a4.31,4.31,0,0,1,1.29-3.17A4.3,4.3,0,0,1,753,1.87H794.9q3.31,0,6.19.29t5.76.86a24.4,24.4,0,0,1,9.78,4.6,19.89,19.89,0,0,1,6.62,8.92q2.44,5.33,2.45,14.53A20.32,20.32,0,0,1,824.4,38Zm-51.22,6.76h20.29a11.72,11.72,0,0,0,5.32-1.15,12,12,0,0,0,3.74-3,13.17,13.17,0,0,0,2.3-4.32,14.14,14.14,0,0,0,.72-4.75,11.9,11.9,0,0,0-.86-4.46,11.43,11.43,0,0,0-2.3-3.74,13.39,13.39,0,0,0-3.31-2.59,8.68,8.68,0,0,0-4.17-1H773.18a4.42,4.42,0,0,0-4.46,4.46V40.29a4.42,4.42,0,0,0,4.46,4.46ZM802.1,88.06a11.56,11.56,0,0,0,4-3.31,14.29,14.29,0,0,0,2.73-4.6,11.82,11.82,0,0,0,1-5A12,12,0,0,0,806,66.19q-3.74-3.59-10.93-3.6H773.18a4.42,4.42,0,0,0-4.46,4.46V84.89a4.42,4.42,0,0,0,4.46,4.46h24A9.33,9.33,0,0,0,802.1,88.06Z"/><rect class="cls-2" y="122.41" width="827.21" height="16.42"/></g></g></svg>