<svg xmlns="http://www.w3.org/2000/svg" viewBox="0 0 842.46 142.94"><defs><style>.cls-1{fill:#f62459;}.cls-2{fill:#22313f;stroke:#22313f;stroke-miterlimit:10;stroke-width:10px;}</style></defs><title>logo_new</title><g id="Слой_2" data-name="Слой 2"><g id="Слой_1-2" data-name="Слой 1"><rect class="cls-1" x="0.44" y="129.27" width="841" height="13.67"/><path class="cls-2" d="M16.14,108.77c-1.47,0-5.86-.15-8.35-2.2S5,101.59,5,99.39V6.17h7.91V96.75a4.92,4.92,0,0,0,1.17,3.81c1.17,1,3.08,1.17,4.4,1.17H77.26v7Z"/><path class="cls-2" d="M109.3,108.77c-3.52,0-7.47.15-10.7-3.08-3.08-3.07-3.23-7.33-3.23-11.14V19.8c0-6,2.2-8.94,2.93-9.82C101.23,6.47,105,6.17,109,6.17h60.53v7H110.18c-1.61,0-4.25.58-5.28,1.46-1.61,1.32-1.61,4.1-1.61,5.13v33h64.78v7H103.29V96.31c0,1.17.44,3.23,1.46,4.11s4.84,1.32,6.6,1.32h58.77v7Z"/><path class="cls-2" d="M276.79,97.34c0,1.76-.15,6.15-2.78,8.65-2.2,2.2-6.6,2.79-9.24,2.79H225.05a35.55,35.55,0,0,1-22.42-7.48c-13.19-10.55-14.36-28.73-14.36-43.24,0-17.3,1.76-36.35,18.32-46.17,8.35-5,17.59-5.71,23.89-5.71h44v7H228.28c-12.75,0-22.28,6.45-26.82,15.39-4.1,8.21-4.69,21.25-4.69,28.88,0,19.2,3.52,27.26,4.55,29.46a25.41,25.41,0,0,0,23.6,14.8h37.82c1.61,0,3.52,0,4.84-1.61,1-1.17,1.32-3.23,1.32-4.84V61.72h7.91Z"/><path class="cls-2" d="M334.77,15.85C337.12,10.28,340,5,346.2,5s9.09,5.42,11.43,10.85l39.28,92.92h-8.5L376,78.87H316.45L304,108.77h-8.5Zm-15.24,56h53.35L350.45,18.19c-.88-2.05-2.2-5.86-4.25-5.86s-3.37,3.81-4.25,5.86Z"/><path class="cls-2" d="M426.35,108.77c-1.47,0-5.86-.15-8.35-2.2s-2.79-5-2.79-7.18V6.17h7.91V96.75a4.92,4.92,0,0,0,1.17,3.81c1.17,1,3.08,1.17,4.4,1.17h58.77v7Z"/><path class="cls-2" d="M554.9,108.77c-1.47,0-5.86-.15-8.35-2.2s-2.79-5-2.79-7.18V6.17h7.92V96.75a4.93,4.93,0,0,0,1.17,3.81c1.17,1,3.08,1.17,4.4,1.17H616v7Z"/><path class="cls-2" d="M675.25,15.85C677.59,10.28,680.53,5,686.68,5s9.09,5.42,11.43,10.85l39.28,92.92h-8.5l-12.46-29.9H656.93l-12.46,29.9H636ZM660,71.84h53.35L690.93,18.19c-.88-2.05-2.2-5.86-4.25-5.86s-3.37,3.81-4.25,5.86Z"/><path class="cls-2" d="M755.23,19.66c0-3.81,1-7.62,2.93-10,2.64-3.07,6-3.52,9.09-3.52h47.34c7.33,0,12.46,2.64,15.39,5.71,5.72,5.86,6.45,15.39,6.45,22,0,6.3-.59,12.31-4.4,17.3a13.39,13.39,0,0,1-9.38,5.42v.59a15.86,15.86,0,0,1,10.55,5.57c4.4,5.27,4.25,11.87,4.25,18.32,0,7.48.15,14.66-6.16,21.69-4.84,5.42-9.38,6-14.66,6H771.35c-3.66,0-9.24.59-13-3.37-2.79-2.93-3.08-6.74-3.08-9.82Zm7.91,34h48.08c4.4,0,10.26-.29,13.48-4.55,2.79-3.52,3.22-12.16,3.22-16.27,0-11.14-3.22-15.09-4.69-16.56-3.22-3.07-7-3.07-9.82-3.07H769c-1.47,0-3.23-.15-4.4,1.17-1,1-1.47,3.52-1.47,4.69Zm0,40.16c0,4.25.44,5.57,1,6.31,1.32,1.61,4.4,1.61,6.74,1.61h40.89c4.11,0,10.26.15,13.92-4.84,2.64-3.52,3.22-11.14,3.22-15.68s-.59-12-2.64-15.1a13.42,13.42,0,0,0-10.55-5.42H763.14Z"/></g></g></svg>