<svg xmlns="http://www.w3.org/2000/svg" viewBox="0 0 185.16 34.98"><defs><style>.cls-1{fill:#22313f;}.cls-2{fill:#f62459;}</style></defs><title>logo</title><g id="Слой_2" data-name="Слой 2"><g id="Слой_1-2" data-name="Слой 1"><path class="cls-1" d="M3.24,40.61H5.9V64.67H16.15v2.57H3.24Z" transform="translate(-2.81 -39.94)"/><path class="cls-1" d="M20.39,40.61H35.65v2.61H23v8.35H35.54v2.61H23V64.63H35.54v2.61H20.39Z" transform="translate(-2.81 -39.94)"/><path class="cls-1" d="M65.93,45.08l-2.06,2A15.78,15.78,0,0,0,59,43.71a13.13,13.13,0,0,0-5.17-1.13,12.32,12.32,0,0,0-6,1.54,11.16,11.16,0,0,0-4.39,4.17,10.77,10.77,0,0,0-1.56,5.57,11,11,0,0,0,1.61,5.71A11.44,11.44,0,0,0,48,63.83a12.82,12.82,0,0,0,6.23,1.55,10.64,10.64,0,0,0,7-2.32,9.15,9.15,0,0,0,3.37-6H56V54.48H67.51q0,6.17-3.67,9.8a13.13,13.13,0,0,1-9.71,3.63q-7.39,0-11.7-5a13.38,13.38,0,0,1-3.31-9,13.74,13.74,0,0,1,1.9-7,13.52,13.52,0,0,1,5.21-5.1,15.19,15.19,0,0,1,7.5-1.84,16.65,16.65,0,0,1,6.37,1.22A19,19,0,0,1,65.93,45.08Z" transform="translate(-2.81 -39.94)"/><path class="cls-1" d="M83.46,40.61,95.88,67.24H93l-4.19-8.76H77.34l-4.15,8.76h-3L82.81,40.61Zm-.34,5.66-4.56,9.64h9.1Z" transform="translate(-2.81 -39.94)"/><path class="cls-1" d="M100,40.61h2.66V64.67h10.25v2.57H100Z" transform="translate(-2.81 -39.94)"/><path class="cls-1" d="M127.4,40.61h2.66V64.67H140.3v2.57H127.4Z" transform="translate(-2.81 -39.94)"/><path class="cls-1" d="M155.4,40.61l12.42,26.63h-2.87l-4.19-8.76H149.29l-4.15,8.76h-3l12.58-26.63Zm-.34,5.66-4.56,9.64h9.1Z" transform="translate(-2.81 -39.94)"/><path class="cls-1" d="M172,40.61h5.25a12.48,12.48,0,0,1,4.87.75,6,6,0,0,1,2.69,2.31,6.33,6.33,0,0,1,1,3.46,6.21,6.21,0,0,1-.86,3.23,6.4,6.4,0,0,1-2.54,2.36,9.83,9.83,0,0,1,3.19,1.66,6.61,6.61,0,0,1,1.74,2.3A6.89,6.89,0,0,1,188,59.6,7.18,7.18,0,0,1,185.63,65a8.78,8.78,0,0,1-6.29,2.22H172Zm2.61,2.61v8.53h1.52a11.91,11.91,0,0,0,4.08-.52,4.4,4.4,0,0,0,2.07-1.63,4.27,4.27,0,0,0,.76-2.47,3.5,3.5,0,0,0-1.28-2.87,6.43,6.43,0,0,0-4.07-1Zm0,11.21V64.63h3.3a11.85,11.85,0,0,0,4.28-.57,4.86,4.86,0,0,0,2.19-1.78,4.65,4.65,0,0,0-.33-5.72,6,6,0,0,0-3.19-1.81,23.27,23.27,0,0,0-4.74-.33Z" transform="translate(-2.81 -39.94)"/><rect class="cls-2" y="31.98" width="184.82" height="3"/></g></g></svg>