<svg xmlns="http://www.w3.org/2000/svg" viewBox="0 0 299.41 66.72"><defs><style>.cls-1{fill:#424344;}.cls-2{fill:#f62459;}.cls-3{fill:#fff;}</style></defs><title>Ресурс 4</title><g id="Слой_2" data-name="Слой 2"><g id="Слой_1-2" data-name="Слой 1"><path class="cls-1" d="M27.41,33.91v3.22a1.6,1.6,0,0,1-1.61,1.61H1.61a1.56,1.56,0,0,1-1.14-.47A1.56,1.56,0,0,1,0,37.13V2.29A1.56,1.56,0,0,1,.47,1.14,1.55,1.55,0,0,1,1.61.68H5.67a1.56,1.56,0,0,1,1.14.47,1.56,1.56,0,0,1,.47,1.14v28.4A1.6,1.6,0,0,0,8.89,32.3H25.8a1.6,1.6,0,0,1,1.61,1.61Z"/><path class="cls-1" d="M39.27,8.74V15a1.6,1.6,0,0,0,1.61,1.61H56.07a1.6,1.6,0,0,1,1.61,1.61v3.38a1.6,1.6,0,0,1-1.61,1.61H40.88a1.6,1.6,0,0,0-1.61,1.61v5.72a1.6,1.6,0,0,0,1.61,1.61H58.41A1.6,1.6,0,0,1,60,33.81v3.33a1.6,1.6,0,0,1-1.61,1.61H33.6A1.6,1.6,0,0,1,32,37.13V2.29a1.56,1.56,0,0,1,.47-1.14A1.55,1.55,0,0,1,33.6.68H58.41a1.56,1.56,0,0,1,1.14.47A1.56,1.56,0,0,1,60,2.29V5.51a1.6,1.6,0,0,1-1.61,1.61H40.88a1.6,1.6,0,0,0-1.61,1.61Z"/><path class="cls-1" d="M104.49,19.56q-.05,1-.08,2.08a7.53,7.53,0,0,1-.08,1.2,16.71,16.71,0,0,1-1.92,6.66,18.39,18.39,0,0,1-4.21,5.25,18.72,18.72,0,0,1-5.93,3.48,20.24,20.24,0,0,1-7.07,1.25,19,19,0,0,1-7.65-1.56,20.2,20.2,0,0,1-6.29-4.26A20,20,0,0,1,67,27.41a19,19,0,0,1-1.56-7.65A19.59,19.59,0,0,1,67,12.07a19.8,19.8,0,0,1,1.85-3.38,20.35,20.35,0,0,1,2.42-2.91,21.53,21.53,0,0,1,6.29-4.21,19.51,19.51,0,0,1,23.09,5.93,1.33,1.33,0,0,1,.29,1.14,1.5,1.5,0,0,1-.7,1l-3.54,2.13a1.53,1.53,0,0,1-1.22.21,2.31,2.31,0,0,1-1.12-.62,18.91,18.91,0,0,0-1.53-1.56A10.62,10.62,0,0,0,91,8.48a11.1,11.1,0,0,0-5.83-1.66,11.79,11.79,0,0,0-4.84,1,12.63,12.63,0,0,0-4,2.86,14.58,14.58,0,0,0-2.7,4.11,12.57,12.57,0,0,0-1,4.94,12.33,12.33,0,0,0,1,4.94,14.57,14.57,0,0,0,2.7,4.11,11.7,11.7,0,0,0,4,2.81,10.88,10.88,0,0,0,4.84,1.09,12.63,12.63,0,0,0,7.13-2.29A12.57,12.57,0,0,0,95,27.83,7.46,7.46,0,0,0,96,26a1,1,0,0,0,0-1.07,1.2,1.2,0,0,0-1-.44H84.15a1.6,1.6,0,0,1-1.61-1.61V19.56a1.6,1.6,0,0,1,1.61-1.61h18.72a1.6,1.6,0,0,1,1.61,1.61Z"/><path class="cls-1" d="M105.84,37.34l18-36a1.18,1.18,0,0,1,2.08,0l18,36a1,1,0,0,1,.08,1,1,1,0,0,1-.91.42h-4.73a2.55,2.55,0,0,1-1.35-.42,2.24,2.24,0,0,1-.94-1l-1.56-3.12a2.76,2.76,0,0,0-1-1,2.44,2.44,0,0,0-1.33-.42H117.54a2.57,2.57,0,0,0-1.35.42,2.24,2.24,0,0,0-.94,1l-1.51,3.07a2.63,2.63,0,0,1-1,1,2.43,2.43,0,0,1-1.33.42h-4.73a1,1,0,0,1-.91-.42A1.05,1.05,0,0,1,105.84,37.34Zm15.24-10.92h7.7a.93.93,0,0,0,.91-.44,1.11,1.11,0,0,0,0-1l-4.06-8.58q-.26-.62-.68-.62t-.68.62L120.14,25a1.09,1.09,0,0,0,0,1A1,1,0,0,0,121.08,26.42Z"/><path class="cls-1" d="M175.37,33.91v3.22a1.6,1.6,0,0,1-1.61,1.61H149.58A1.6,1.6,0,0,1,148,37.13V2.29a1.56,1.56,0,0,1,.47-1.14,1.55,1.55,0,0,1,1.14-.47h4.06a1.56,1.56,0,0,1,1.14.47,1.56,1.56,0,0,1,.47,1.14v28.4a1.6,1.6,0,0,0,1.61,1.61h16.9a1.6,1.6,0,0,1,1.61,1.61Z"/><path class="cls-1" d="M225.14,33.91v3.22a1.6,1.6,0,0,1-1.61,1.61H199.35a1.6,1.6,0,0,1-1.61-1.61V2.29a1.56,1.56,0,0,1,.47-1.14,1.55,1.55,0,0,1,1.14-.47h4.06a1.55,1.55,0,0,1,1.14.47A1.56,1.56,0,0,1,205,2.29v28.4a1.6,1.6,0,0,0,1.61,1.61h16.9a1.6,1.6,0,0,1,1.61,1.61Z"/><path class="cls-1" d="M226.6,37.34l18-36a1.18,1.18,0,0,1,2.08,0l18,36a1,1,0,0,1,.08,1,1,1,0,0,1-.91.42h-4.73a2.55,2.55,0,0,1-1.35-.42,2.23,2.23,0,0,1-.94-1l-1.56-3.12a2.76,2.76,0,0,0-1-1,2.44,2.44,0,0,0-1.33-.42H238.3a2.57,2.57,0,0,0-1.35.42,2.24,2.24,0,0,0-.94,1l-1.51,3.07a2.62,2.62,0,0,1-1,1,2.43,2.43,0,0,1-1.33.42h-4.73a1,1,0,0,1-.91-.42A1.05,1.05,0,0,1,226.6,37.34Zm15.24-10.92h7.7a.93.93,0,0,0,.91-.44,1.11,1.11,0,0,0,0-1l-4.06-8.58q-.26-.62-.68-.62t-.68.62L240.9,25a1.09,1.09,0,0,0,0,1A1,1,0,0,0,241.84,26.42Z"/><path class="cls-1" d="M297.39,13.73a11.08,11.08,0,0,1-1.25,2.39,6.63,6.63,0,0,1-2,1.82,5.53,5.53,0,0,1-1.2.62q-.52.16-.47.23a1.75,1.75,0,0,0,.62.23q.73.26,1.35.52a8,8,0,0,1,2.44,1.92,9.34,9.34,0,0,1,1.82,2.76,7.93,7.93,0,0,1,.68,3.28,13.45,13.45,0,0,1-.94,5.31,9,9,0,0,1-2.55,3.48,8.66,8.66,0,0,1-3.75,1.87q-1.09.26-2.24.42a17.61,17.61,0,0,1-2.39.16h-16A1.6,1.6,0,0,1,270,37.13V2.29a1.56,1.56,0,0,1,.47-1.14,1.55,1.55,0,0,1,1.14-.47h15.13q1.2,0,2.24.1t2.08.31a8.82,8.82,0,0,1,3.54,1.66A7.19,7.19,0,0,1,297,6a12.82,12.82,0,0,1,.88,5.25A7.34,7.34,0,0,1,297.39,13.73Zm-18.51,2.44h7.33a4.24,4.24,0,0,0,1.92-.42,4.35,4.35,0,0,0,1.35-1.09,4.76,4.76,0,0,0,.83-1.56,5.11,5.11,0,0,0,.26-1.72,4.3,4.3,0,0,0-.31-1.61,4.13,4.13,0,0,0-.83-1.35,4.84,4.84,0,0,0-1.2-.94,3.14,3.14,0,0,0-1.51-.36h-7.85a1.6,1.6,0,0,0-1.61,1.61v5.82a1.6,1.6,0,0,0,1.61,1.61Zm10.45,15.66a4.18,4.18,0,0,0,1.46-1.2,5.17,5.17,0,0,0,1-1.66,4.27,4.27,0,0,0,.36-1.82,4.32,4.32,0,0,0-1.4-3.22,5.49,5.49,0,0,0-4-1.3h-7.91a1.6,1.6,0,0,0-1.61,1.61v6.45a1.6,1.6,0,0,0,1.61,1.61h8.69A3.37,3.37,0,0,0,289.32,31.83Z"/><rect class="cls-2" x="0.2" y="44.23" width="299" height="22.49"/><path class="cls-3" d="M103.44,60.24a3.11,3.11,0,0,1-2.5-1.07,4.48,4.48,0,0,1-.77-3.06,4.68,4.68,0,0,1,1-3.41,3.56,3.56,0,0,1,2.64-.94h2.87v.75h-3a2.31,2.31,0,0,0-2.45,1.73,12.29,12.29,0,0,0-.16,2,6.31,6.31,0,0,0,.29,2,2.53,2.53,0,0,0,2.5,1.26h3v.75Z"/><path class="cls-3" d="M111.35,60.24V52.51h-3.2v-.75h7.23v.75h-3.2v7.73Z"/><path class="cls-3" d="M117.75,52.59a5.77,5.77,0,0,1,6.27,0,4.78,4.78,0,0,1,1.06,3.36A4.69,4.69,0,0,1,124,59.37a5.61,5.61,0,0,1-6.27,0,4.69,4.69,0,0,1-1.06-3.43A4.78,4.78,0,0,1,117.75,52.59Zm.53,6.18a4.58,4.58,0,0,0,5.22,0,4.11,4.11,0,0,0,.69-2.74,4.46,4.46,0,0,0-.67-2.83,4.79,4.79,0,0,0-5.25,0,4.46,4.46,0,0,0-.67,2.83A4.11,4.11,0,0,0,118.28,58.77Z"/><path class="cls-3" d="M132.76,59.73a.79.79,0,0,1-1.54,0l-2.85-6.9s-.06-.14-.11-.14-.06.08-.06.11v7.44h-.83v-7.7c0-.56.29-.88.8-.88a.78.78,0,0,1,.82.58l2.83,6.82c.08.18.13.29.18.29s.1-.11.18-.29L135,52.24a.78.78,0,0,1,.82-.58c.51,0,.8.32.8.88v7.7h-.83V52.79s0-.11-.06-.11-.1.1-.11.14Z"/><path class="cls-3" d="M143.69,51.75a2.06,2.06,0,0,1,1.49.59,2.47,2.47,0,0,1,.51,1.7v5.07a1.19,1.19,0,0,1-.29.88,1.4,1.4,0,0,1-1,.24h-3.27a2.38,2.38,0,0,1-1.54-.38,3,3,0,0,1-.75-2.24,2.05,2.05,0,0,1,2.29-2.45h3.68V53.9a1.87,1.87,0,0,0-.32-1,1.18,1.18,0,0,0-.9-.38h-4.11v-.75ZM141,55.92a1.13,1.13,0,0,0-.93.42,2.23,2.23,0,0,0-.27,1.31,2.46,2.46,0,0,0,.34,1.47,1.1,1.1,0,0,0,.83.37h3.43a.55.55,0,0,0,.37-.1.31.31,0,0,0,.11-.29V55.92Z"/><path class="cls-3" d="M150.53,60.24V52.51h-3.2v-.75h7.23v.75h-3.2v7.73Z"/><path class="cls-3" d="M156.94,52.59a5.77,5.77,0,0,1,6.27,0,4.78,4.78,0,0,1,1.06,3.36,4.69,4.69,0,0,1-1.06,3.43,5.61,5.61,0,0,1-6.27,0,4.69,4.69,0,0,1-1.06-3.43A4.78,4.78,0,0,1,156.94,52.59Zm.53,6.18a4.58,4.58,0,0,0,5.22,0,4.11,4.11,0,0,0,.69-2.74,4.46,4.46,0,0,0-.67-2.83,4.79,4.79,0,0,0-5.25,0,4.46,4.46,0,0,0-.67,2.83A4.11,4.11,0,0,0,157.47,58.77Z"/><path class="cls-3" d="M168.77,52.33c.26-.62.67-.67.83-.67s.58,0,.83.67l3.19,7.91h-.94l-2.91-7.43c0-.1-.08-.26-.16-.26s-.13.16-.16.26l-2.91,7.43h-.94Z"/><path class="cls-3" d="M176,52.59a5.77,5.77,0,0,1,6.27,0,4.78,4.78,0,0,1,1.06,3.36,4.69,4.69,0,0,1-1.06,3.43,5.61,5.61,0,0,1-6.27,0,4.69,4.69,0,0,1-1.06-3.43A4.78,4.78,0,0,1,176,52.59Zm.53,6.18a4.58,4.58,0,0,0,5.22,0,4.11,4.11,0,0,0,.69-2.74,4.46,4.46,0,0,0-.67-2.83,4.79,4.79,0,0,0-5.25,0,4.46,4.46,0,0,0-.67,2.83A4.11,4.11,0,0,0,176.52,58.77Z"/><path class="cls-3" d="M185.6,60.24V53a1.6,1.6,0,0,1,.13-.82.89.89,0,0,1,.83-.4H192v.75h-5.09a.43.43,0,0,0-.35.13.9.9,0,0,0-.1.48v7.12Z"/><path class="cls-3" d="M196.17,63h-.9l1.28-2.79L193,51.75h.9L197,59.2l3.35-7.44h.9Z"/></g></g></svg>