<svg xmlns="http://www.w3.org/2000/svg" viewBox="0 0 299.41 65.76"><defs><style>.cls-1{fill:#424344;}.cls-2{fill:#f62459;}.cls-3{fill:#fff;}</style></defs><title>Ресурс 4</title><g id="Слой_2" data-name="Слой 2"><g id="Слой_1-2" data-name="Слой 1"><path class="cls-1" d="M27.41,33.91v3.22a1.6,1.6,0,0,1-1.61,1.61H1.61a1.56,1.56,0,0,1-1.14-.47A1.56,1.56,0,0,1,0,37.13V2.29A1.56,1.56,0,0,1,.47,1.14,1.55,1.55,0,0,1,1.61.68H5.67a1.56,1.56,0,0,1,1.14.47,1.56,1.56,0,0,1,.47,1.14v28.4A1.6,1.6,0,0,0,8.89,32.3H25.8a1.6,1.6,0,0,1,1.61,1.61Z"/><path class="cls-1" d="M39.27,8.74V15a1.6,1.6,0,0,0,1.61,1.61H56.07a1.6,1.6,0,0,1,1.61,1.61v3.38a1.6,1.6,0,0,1-1.61,1.61H40.88a1.6,1.6,0,0,0-1.61,1.61v5.72a1.6,1.6,0,0,0,1.61,1.61H58.41A1.6,1.6,0,0,1,60,33.81v3.33a1.6,1.6,0,0,1-1.61,1.61H33.6A1.6,1.6,0,0,1,32,37.13V2.29a1.56,1.56,0,0,1,.47-1.14A1.55,1.55,0,0,1,33.6.68H58.41a1.56,1.56,0,0,1,1.14.47A1.56,1.56,0,0,1,60,2.29V5.51a1.6,1.6,0,0,1-1.61,1.61H40.88a1.6,1.6,0,0,0-1.61,1.61Z"/><path class="cls-1" d="M104.49,19.56q-.05,1-.08,2.08a7.53,7.53,0,0,1-.08,1.2,16.71,16.71,0,0,1-1.92,6.66,18.39,18.39,0,0,1-4.21,5.25,18.72,18.72,0,0,1-5.93,3.48,20.24,20.24,0,0,1-7.07,1.25,19,19,0,0,1-7.65-1.56,20.2,20.2,0,0,1-6.29-4.26A20,20,0,0,1,67,27.41a19,19,0,0,1-1.56-7.65A19.59,19.59,0,0,1,67,12.07a19.8,19.8,0,0,1,1.85-3.38,20.35,20.35,0,0,1,2.42-2.91,21.53,21.53,0,0,1,6.29-4.21,19.51,19.51,0,0,1,23.09,5.93,1.33,1.33,0,0,1,.29,1.14,1.5,1.5,0,0,1-.7,1l-3.54,2.13a1.53,1.53,0,0,1-1.22.21,2.31,2.31,0,0,1-1.12-.62,18.91,18.91,0,0,0-1.53-1.56A10.62,10.62,0,0,0,91,8.48a11.1,11.1,0,0,0-5.83-1.66,11.79,11.79,0,0,0-4.84,1,12.63,12.63,0,0,0-4,2.86,14.58,14.58,0,0,0-2.7,4.11,12.57,12.57,0,0,0-1,4.94,12.33,12.33,0,0,0,1,4.94,14.57,14.57,0,0,0,2.7,4.11,11.7,11.7,0,0,0,4,2.81,10.88,10.88,0,0,0,4.84,1.09,12.63,12.63,0,0,0,7.13-2.29A12.57,12.57,0,0,0,95,27.83,7.46,7.46,0,0,0,96,26a1,1,0,0,0,0-1.07,1.2,1.2,0,0,0-1-.44H84.15a1.6,1.6,0,0,1-1.61-1.61V19.56a1.6,1.6,0,0,1,1.61-1.61h18.72a1.6,1.6,0,0,1,1.61,1.61Z"/><path class="cls-1" d="M105.84,37.34l18-36a1.18,1.18,0,0,1,2.08,0l18,36a1,1,0,0,1,.08,1,1,1,0,0,1-.91.42h-4.73a2.55,2.55,0,0,1-1.35-.42,2.24,2.24,0,0,1-.94-1l-1.56-3.12a2.76,2.76,0,0,0-1-1,2.44,2.44,0,0,0-1.33-.42H117.54a2.57,2.57,0,0,0-1.35.42,2.24,2.24,0,0,0-.94,1l-1.51,3.07a2.63,2.63,0,0,1-1,1,2.43,2.43,0,0,1-1.33.42h-4.73a1,1,0,0,1-.91-.42A1.05,1.05,0,0,1,105.84,37.34Zm15.24-10.92h7.7a.93.93,0,0,0,.91-.44,1.11,1.11,0,0,0,0-1l-4.06-8.58q-.26-.62-.68-.62t-.68.62L120.14,25a1.09,1.09,0,0,0,0,1A1,1,0,0,0,121.08,26.42Z"/><path class="cls-1" d="M175.37,33.91v3.22a1.6,1.6,0,0,1-1.61,1.61H149.58A1.6,1.6,0,0,1,148,37.13V2.29a1.56,1.56,0,0,1,.47-1.14,1.55,1.55,0,0,1,1.14-.47h4.06a1.56,1.56,0,0,1,1.14.47,1.56,1.56,0,0,1,.47,1.14v28.4a1.6,1.6,0,0,0,1.61,1.61h16.9a1.6,1.6,0,0,1,1.61,1.61Z"/><path class="cls-1" d="M225.14,33.91v3.22a1.6,1.6,0,0,1-1.61,1.61H199.35a1.6,1.6,0,0,1-1.61-1.61V2.29a1.56,1.56,0,0,1,.47-1.14,1.55,1.55,0,0,1,1.14-.47h4.06a1.55,1.55,0,0,1,1.14.47A1.56,1.56,0,0,1,205,2.29v28.4a1.6,1.6,0,0,0,1.61,1.61h16.9a1.6,1.6,0,0,1,1.61,1.61Z"/><path class="cls-1" d="M226.6,37.34l18-36a1.18,1.18,0,0,1,2.08,0l18,36a1,1,0,0,1,.08,1,1,1,0,0,1-.91.42h-4.73a2.55,2.55,0,0,1-1.35-.42,2.23,2.23,0,0,1-.94-1l-1.56-3.12a2.76,2.76,0,0,0-1-1,2.44,2.44,0,0,0-1.33-.42H238.3a2.57,2.57,0,0,0-1.35.42,2.24,2.24,0,0,0-.94,1l-1.51,3.07a2.62,2.62,0,0,1-1,1,2.43,2.43,0,0,1-1.33.42h-4.73a1,1,0,0,1-.91-.42A1.05,1.05,0,0,1,226.6,37.34Zm15.24-10.92h7.7a.93.93,0,0,0,.91-.44,1.11,1.11,0,0,0,0-1l-4.06-8.58q-.26-.62-.68-.62t-.68.62L240.9,25a1.09,1.09,0,0,0,0,1A1,1,0,0,0,241.84,26.42Z"/><path class="cls-1" d="M297.39,13.73a11.08,11.08,0,0,1-1.25,2.39,6.63,6.63,0,0,1-2,1.82,5.53,5.53,0,0,1-1.2.62q-.52.16-.47.23a1.75,1.75,0,0,0,.62.23q.73.26,1.35.52a8,8,0,0,1,2.44,1.92,9.34,9.34,0,0,1,1.82,2.76,7.93,7.93,0,0,1,.68,3.28,13.45,13.45,0,0,1-.94,5.31,9,9,0,0,1-2.55,3.48,8.66,8.66,0,0,1-3.75,1.87q-1.09.26-2.24.42a17.61,17.61,0,0,1-2.39.16h-16A1.6,1.6,0,0,1,270,37.13V2.29a1.56,1.56,0,0,1,.47-1.14,1.55,1.55,0,0,1,1.14-.47h15.13q1.2,0,2.24.1t2.08.31a8.82,8.82,0,0,1,3.54,1.66A7.19,7.19,0,0,1,297,6a12.82,12.82,0,0,1,.88,5.25A7.34,7.34,0,0,1,297.39,13.73Zm-18.51,2.44h7.33a4.24,4.24,0,0,0,1.92-.42,4.35,4.35,0,0,0,1.35-1.09,4.76,4.76,0,0,0,.83-1.56,5.11,5.11,0,0,0,.26-1.72,4.3,4.3,0,0,0-.31-1.61,4.13,4.13,0,0,0-.83-1.35,4.84,4.84,0,0,0-1.2-.94,3.14,3.14,0,0,0-1.51-.36h-7.85a1.6,1.6,0,0,0-1.61,1.61v5.82a1.6,1.6,0,0,0,1.61,1.61Zm10.45,15.66a4.18,4.18,0,0,0,1.46-1.2,5.17,5.17,0,0,0,1-1.66,4.27,4.27,0,0,0,.36-1.82,4.32,4.32,0,0,0-1.4-3.22,5.49,5.49,0,0,0-4-1.3h-7.91a1.6,1.6,0,0,0-1.61,1.61v6.45a1.6,1.6,0,0,0,1.61,1.61h8.69A3.37,3.37,0,0,0,289.32,31.83Z"/><rect class="cls-2" x="0.2" y="43.27" width="299" height="22.49"/><path class="cls-3" d="M97.17,60.2A3.89,3.89,0,0,1,94,58.86a5.6,5.6,0,0,1-1-3.82c0-1.44.08-3.12,1.2-4.26a4.45,4.45,0,0,1,3.3-1.18h3.58v.94h-3.7a2.89,2.89,0,0,0-3.06,2.16,15.33,15.33,0,0,0-.2,2.48,7.88,7.88,0,0,0,.36,2.5,3.16,3.16,0,0,0,3.12,1.58h3.72v.94Z"/><path class="cls-3" d="M105.81,60.2V50.54h-4V49.6h9v.94h-4V60.2Z"/><path class="cls-3" d="M112.57,50.64a7.21,7.21,0,0,1,7.84,0,6,6,0,0,1,1.32,4.2c0,2.3-.64,3.6-1.32,4.28a7,7,0,0,1-7.84,0c-.68-.68-1.32-2-1.32-4.28A6,6,0,0,1,112.57,50.64Zm.66,7.72a5.72,5.72,0,0,0,6.52,0c.88-1,.86-2.56.86-3.42s0-2.6-.84-3.54a6,6,0,0,0-6.56,0c-.84.94-.84,2.62-.84,3.54S112.35,57.4,113.23,58.36Z"/><path class="cls-3" d="M130.07,59.56a1,1,0,0,1-1.92,0l-3.56-8.62c0-.06-.08-.18-.14-.18s-.08.1-.08.14v9.3h-1V50.58c0-.7.36-1.1,1-1.1a1,1,0,0,1,1,.72l3.54,8.52c.1.22.16.36.22.36s.12-.14.22-.36l3.54-8.52a1,1,0,0,1,1-.72c.64,0,1,.4,1,1.1V60.2h-1V50.9s0-.14-.08-.14-.12.12-.14.18Z"/><path class="cls-3" d="M142.49,49.6a2.58,2.58,0,0,1,1.86.74,3.09,3.09,0,0,1,.64,2.12V58.8a1.48,1.48,0,0,1-.36,1.1,1.75,1.75,0,0,1-1.2.3h-4.08a3,3,0,0,1-1.92-.48,3.72,3.72,0,0,1-.94-2.8,2.56,2.56,0,0,1,2.86-3.06h4.6V52.28a2.34,2.34,0,0,0-.4-1.26,1.47,1.47,0,0,0-1.12-.48h-5.14V49.6Zm-3.38,5.2a1.41,1.41,0,0,0-1.16.52,2.79,2.79,0,0,0-.34,1.64A3.07,3.07,0,0,0,138,58.8a1.38,1.38,0,0,0,1,.46h4.28a.7.7,0,0,0,.46-.12.39.39,0,0,0,.14-.36v-4Z"/><path class="cls-3" d="M149.79,60.2V50.54h-4V49.6h9v.94h-4V60.2Z"/><path class="cls-3" d="M156.55,50.64a7.21,7.21,0,0,1,7.84,0,6,6,0,0,1,1.32,4.2c0,2.3-.64,3.6-1.32,4.28a7,7,0,0,1-7.84,0c-.68-.68-1.32-2-1.32-4.28A6,6,0,0,1,156.55,50.64Zm.66,7.72a5.72,5.72,0,0,0,6.52,0c.88-1,.86-2.56.86-3.42s0-2.6-.84-3.54a6,6,0,0,0-6.56,0c-.84.94-.84,2.62-.84,3.54S156.33,57.4,157.21,58.36Z"/><path class="cls-3" d="M170.09,50.32c.32-.78.84-.84,1-.84s.72.06,1,.84l4,9.88H175l-3.64-9.28c0-.12-.1-.32-.2-.32s-.16.2-.2.32l-3.64,9.28h-1.18Z"/><path class="cls-3" d="M177.87,50.64a7.21,7.21,0,0,1,7.84,0,6,6,0,0,1,1.32,4.2c0,2.3-.64,3.6-1.32,4.28a7,7,0,0,1-7.84,0c-.68-.68-1.32-2-1.32-4.28A6,6,0,0,1,177.87,50.64Zm.66,7.72a5.72,5.72,0,0,0,6.52,0c.88-1,.86-2.56.86-3.42s0-2.6-.84-3.54a6,6,0,0,0-6.56,0c-.84.94-.84,2.62-.84,3.54S177.65,57.4,178.53,58.36Z"/><path class="cls-3" d="M188.63,60.2V51.12a2,2,0,0,1,.16-1,1.11,1.11,0,0,1,1-.5h6.76v.94h-6.36a.53.53,0,0,0-.44.16,1.11,1.11,0,0,0-.12.6v8.9Z"/><path class="cls-3" d="M200.59,63.62h-1.12l1.6-3.48L196.59,49.6h1.12l3.92,9.3,4.18-9.3h1.12Z"/></g></g></svg>