<svg id="figure1" xmlns="http://www.w3.org/2000/svg" viewBox="0 0 733.24 719"><title>logo7</title><path id="conture" d="M1054.51,481.73C1004.32,646.39,833.88,745.5,664.26,704.8,488.09,662.52,379.54,485.42,421.82,309.25c11.33-47.19,37-91.23,37-91.23a356.52,356.52,0,0,1,70.24-86.57c9.82-8.93,12.83-21.77,8.48-29.69-5.63-10.25-25-14.77-40.23-2.55-30.44,19.54-83.58,59.46-124.18,128.43,0,0-28.89,49.76-41.56,102.57C283.94,528.63,406.2,728.09,604.63,775.71s397.89-74.64,445.51-273.07C1051.81,495.68,1053.25,488.7,1054.51,481.73Z" transform="translate(-321.28 -67)" style="fill:#c80049"/><path id="conture-2" data-name="conture" d="M954.77,186.49c66.61,103.34,42,242-58.46,315.69-104.34,76.54-251,54-327.52-50.34-20.5-27.95-32.67-62.27-32.67-62.27a254.64,254.64,0,0,1-14.79-78.24c-.34-9.47-5.95-17-12.28-18.32-8.18-1.66-19.57,6.79-20,20.75a275.75,275.75,0,0,0,12.72,127s13.8,38.71,36.74,70c86.21,117.52,251.37,142.9,368.89,56.69S1050.36,316,964.15,198.52Q959.61,192.33,954.77,186.49Z" transform="translate(-321.28 -67)" style="fill:#c80049"/><path id="conture-3" data-name="conture" d="M697.68,71.58a168.19,168.19,0,0,1,43.93,333.34c-24.56,4-50.47.6-50.47.6a182.79,182.79,0,0,1-54.86-16c-6.17-2.87-12.84-1.75-15.72,1.88-3.73,4.69-2,14.73,6.77,19.52a197.94,197.94,0,0,0,85.35,33.24s29.26,3.79,56.74-.69C872.68,426.59,942.74,329.23,925.9,226S811.7,52.66,708.44,69.5C704.81,70.09,701.23,70.79,697.68,71.58Z" transform="translate(-321.28 -67)" style="fill:#c80049"/></svg>