<svg id="Слой_1" data-name="Слой 1" xmlns="http://www.w3.org/2000/svg" xmlns:xlink="http://www.w3.org/1999/xlink" viewBox="0 0 1227 483.88"><defs><style>.cls-1{fill:url(#Безымянный_градиент_7);}.cls-2{fill:url(#Безымянный_градиент_7-2);}.cls-3{fill:url(#Безымянный_градиент_7-3);}.cls-4{fill:url(#Безымянный_градиент_34);}.cls-5{font-size:102.16px;font-family:Micra, Micra;}</style><linearGradient id="Безымянный_градиент_7" x1="44.87" y1="421.94" x2="392.2" y2="421.94" gradientUnits="userSpaceOnUse"><stop offset="0" stop-color="#fbb03b"/><stop offset="1" stop-color="#ed1c24"/></linearGradient><linearGradient id="Безымянный_градиент_7-2" x1="45.63" y1="373.4" x2="307.51" y2="373.4" xlink:href="#Безымянный_градиент_7"/><linearGradient id="Безымянный_градиент_7-3" x1="230.45" y1="418.73" x2="416.04" y2="418.73" xlink:href="#Безымянный_градиент_7"/><linearGradient id="Безымянный_градиент_34" x1="-34.8" y1="345.3" x2="157.78" y2="152.71" gradientUnits="userSpaceOnUse"><stop offset="0" stop-color="#22b573"/><stop offset="0.15" stop-color="#2bb76e"/><stop offset="0.39" stop-color="#45bb62"/><stop offset="0.69" stop-color="#6ec14e"/><stop offset="0.89" stop-color="#8cc63f"/><stop offset="0.98" stop-color="#8cc63f"/><stop offset="0.99" stop-color="#8cc63f"/></linearGradient></defs><title>logo6</title><path class="cls-1" d="M392.2,419.58a180,180,0,0,0-9.29-57.28c7,28.25,5.41,64.76-18.38,108.78s-60.47,68-67.91,72.33a172.18,172.18,0,0,1-40.43,17.11c3.86-1.45,9.31-3.66,15.61-6.78,55.94-27.69,80.78-78.59,85.08-87.51,20-41.52,21.35-77.55,16.08-105.46-2.2-11.67-7.49-37.47-27.67-62.22-22.59-27.7-51.7-39.13-63.76-43.7a110.28,110.28,0,0,0-16.22-5.18c-40.77-9.23-75,10.27-83.95,15.82-9.38,5.81-24,14.88-34.9,33.2-2.92,4.93-21.55,37.55-7.66,72.36a75.6,75.6,0,0,0,18.87,27.24c3.5,2.42,26.39,17.65,55.58,10.34,33.82-8.47,46.31-39.73,47.41-42.63-8.63,12.44-22.34,19.69-35.73,18.67-14.23-1.08-27.11-11.4-33.63-26-1.16-4.82-3.84-18.91,3.37-33.45A46.79,46.79,0,0,1,205,311.58a45.93,45.93,0,0,1,14-9.05c32.09-13.12,80.58,12.53,98.66,50.34,7.69,16.08,8.08,30.51,8.18,40.29.52,49.24-30.07,120.29-123.87,119.64C78.56,511.95,45.81,403.56,45.63,403c-.5,5.46-.77,11-.77,16.6,0,97.79,77.75,177.07,173.67,177.07S392.2,517.37,392.2,419.58Z" transform="translate(-27 -117.88)"/><path class="cls-2" d="M193.48,500.47c44.69-2.44,76-27.76,88.05-38.75,25-25.88,32.69-61.1,19.87-88-8.83-18.54-24.86-27.85-32.5-31.59,3,48.34-25.29,87.38-58.88,93.64-38,7.1-68-26.64-71.14-30.33-30.17-35.55-26.2-91.07-3.58-120.06,15.74-20.16,48.87-38.22,48.19-39.19-.05-.07-.26,0-.32,0C109.39,261.75,52.74,325,45.63,403,75.56,465.23,134.11,503.71,193.48,500.47Z" transform="translate(-27 -117.88)"/><path class="cls-3" d="M237.26,235.69c-2.28,0-4.55.06-6.81.15,95.58,3.67,172,84.14,172,182.89S326,597.95,230.45,601.61c2.26.09,4.53.15,6.81.15,98.74,0,178.78-81.95,178.78-183S336,235.69,237.26,235.69Z" transform="translate(-27 -117.88)"/><path class="cls-4" d="M190.16,226.61a145.74,145.74,0,0,0-25.54-53.92c-24.79-32.53-55.8-44-63.16-46.59-15.31-5.31-39.28-13.61-49.21-3.36-13,13.45,4.42,52.29,22.13,74.92,16.54,21.12,36.59,32.3,49.38,38a209.42,209.42,0,0,0-50.58,44.37c-24.9,30-49,75.8-45.9,138.66,0,0-2.27-139.9,144.72-185.3l-96.48-89.1Z" transform="translate(-27 -117.88)"/><text class="cls-5" transform="translate(436.71 337.45)">REDLemon</text></svg>