<svg id="Слой_1" data-name="Слой 1" xmlns="http://www.w3.org/2000/svg" xmlns:xlink="http://www.w3.org/1999/xlink" viewBox="0 0 544.19 207.76"><defs><style>.cls-1{fill:#333;}.cls-2{fill:url(#Безымянный_градиент_11);}.cls-3{fill:url(#Безымянный_градиент_11-2);}.cls-4{fill:url(#Безымянный_градиент_18);}.cls-5{fill:url(#Безымянный_градиент_18-2);}.cls-6{font-size:49px;font-family:Micra, Micra;}</style><linearGradient id="Безымянный_градиент_11" x1="623.21" y1="393.59" x2="671.87" y2="339.55" gradientUnits="userSpaceOnUse"><stop offset="0" stop-color="#ff7300"/><stop offset="0.19" stop-color="#f97c01"/><stop offset="0.5" stop-color="#ea9602"/><stop offset="0.59" stop-color="#e59e03"/><stop offset="0.99" stop-color="#e5c500"/></linearGradient><linearGradient id="Безымянный_градиент_11-2" x1="614.37" y1="413.7" x2="677.07" y2="344.06" xlink:href="#Безымянный_градиент_11"/><linearGradient id="Безымянный_градиент_18" x1="659.76" y1="293.93" x2="690.35" y2="293.93" gradientUnits="userSpaceOnUse"><stop offset="0" stop-color="#009245"/><stop offset="0.15" stop-color="#099846"/><stop offset="0.41" stop-color="#23a748"/><stop offset="0.59" stop-color="#39b54a"/><stop offset="0.99" stop-color="#8cc63f"/></linearGradient><linearGradient id="Безымянный_градиент_18-2" x1="680.48" y1="328.65" x2="709.94" y2="328.65" xlink:href="#Безымянный_градиент_18"/></defs><title>logo2</title><rect class="cls-1" width="188.32" height="207.76" rx="70" ry="70"/><path class="cls-2" d="M630.45,399.92c38.25,30.77,71.76,5.47,88.06-11.9L674,344.91a7.47,7.47,0,0,1-6.15,3.4c-4.25,0-7.7-3.8-7.7-8.49a8.91,8.91,0,0,1,2.32-6.07L622,294.66C617.09,301.78,579.89,359.24,630.45,399.92Z" transform="translate(-564 -254.01)"/><path class="cls-3" d="M727,395a80.66,80.66,0,0,1-30.21,22.4c-6.15,2.54-38.69,15-68.84-6.83-28.82-20.87-32.33-56.31-32.69-60.65a90.08,90.08,0,0,1,18.82-62.56c-6.42,5.56-21.15,19.94-26.29,43.43-9.62,44,23.42,79,28.27,84.15,2.71,2.87,34.62,35.7,72.2,27.87,7-1.46,21.66-4.51,31.1-18.83C726.8,412.75,727.17,400.37,727,395Z" transform="translate(-564 -254.01)"/><path class="cls-4" d="M675.28,264.42s-34.92,27.59,0,59C675.28,323.43,709.2,297.75,675.28,264.42Z" transform="translate(-564 -254.01)"/><path class="cls-5" d="M680.48,329.44s12.88-21,29.47,0C709.94,329.44,698.55,346.92,680.48,329.44Z" transform="translate(-564 -254.01)"/><text class="cls-6" transform="translate(200.58 127.85) scale(0.91 1)">REDLemon</text></svg>