<svg id="Слой_1" data-name="Слой 1" xmlns="http://www.w3.org/2000/svg" xmlns:xlink="http://www.w3.org/1999/xlink" viewBox="0 0 473.02 179.6"><defs><style>.cls-1{fill:url(#Безымянный_градиент_11);}.cls-2{fill:url(#Безымянный_градиент_11-2);}.cls-3{fill:url(#Безымянный_градиент_18);}.cls-4{fill:url(#Безымянный_градиент_18-2);}.cls-5{font-size:42px;font-family:Micra, Micra;}</style><linearGradient id="Безымянный_градиент_11" x1="474.29" y1="367.99" x2="522.94" y2="313.95" gradientUnits="userSpaceOnUse"><stop offset="0" stop-color="#ff7300"/><stop offset="0.19" stop-color="#f97c01"/><stop offset="0.5" stop-color="#ea9602"/><stop offset="0.59" stop-color="#e59e03"/><stop offset="0.99" stop-color="#e5c500"/></linearGradient><linearGradient id="Безымянный_градиент_11-2" x1="465.45" y1="388.1" x2="528.15" y2="318.46" xlink:href="#Безымянный_градиент_11"/><linearGradient id="Безымянный_градиент_18" x1="510.83" y1="268.32" x2="541.43" y2="268.32" gradientUnits="userSpaceOnUse"><stop offset="0" stop-color="#009245"/><stop offset="0.15" stop-color="#099846"/><stop offset="0.41" stop-color="#23a748"/><stop offset="0.59" stop-color="#39b54a"/><stop offset="0.99" stop-color="#8cc63f"/></linearGradient><linearGradient id="Безымянный_градиент_18-2" x1="531.55" y1="303.05" x2="561.02" y2="303.05" xlink:href="#Безымянный_градиент_18"/></defs><title>logo1</title><path class="cls-1" d="M481.53,374.32c38.25,30.77,71.76,5.47,88.06-11.9L525,319.31a7.47,7.47,0,0,1-6.15,3.4c-4.25,0-7.7-3.8-7.7-8.49a8.91,8.91,0,0,1,2.32-6.07l-40.41-39.09C468.17,276.18,431,333.64,481.53,374.32Z" transform="translate(-437.15 -238.82)"/><path class="cls-2" d="M578.11,369.4a80.66,80.66,0,0,1-30.21,22.4c-6.15,2.54-38.69,15-68.84-6.83-28.82-20.87-32.33-56.31-32.69-60.65a90.08,90.08,0,0,1,18.82-62.56c-6.42,5.56-21.15,19.94-26.29,43.43-9.62,44,23.42,79,28.27,84.15,2.71,2.87,34.62,35.7,72.2,27.87,7-1.46,21.66-4.51,31.1-18.83C577.87,387.15,578.25,374.76,578.11,369.4Z" transform="translate(-437.15 -238.82)"/><path class="cls-3" d="M526.35,238.82s-34.92,27.59,0,59C526.35,297.83,560.28,272.15,526.35,238.82Z" transform="translate(-437.15 -238.82)"/><path class="cls-4" d="M531.55,303.84s12.88-21,29.47,0C561,303.84,549.63,321.32,531.55,303.84Z" transform="translate(-437.15 -238.82)"/><text class="cls-5" transform="translate(178.5 117.44) scale(0.91 1)">REDLemon</text></svg>