<svg id="Слой_1" data-name="Слой 1" xmlns="http://www.w3.org/2000/svg" viewBox="0 0 1064 355.36"><defs><style>.cls-1{fill:#ff485a;}.cls-2{fill:#22b573;}.cls-3{font-size:94.25px;font-family:Micra, Micra;}</style></defs><title>logo5</title><path class="cls-1" d="M434.22,344a132.5,132.5,0,0,1-264.74-8.11c0-19.6,5.93-39.32,5.93-39.32A144,144,0,0,1,194.83,256c3-4.43,3-9.76.53-12.46-3.18-3.49-11.19-3.45-16,2.79a155.93,155.93,0,0,0-36.67,62.14S136,330.71,136,352.65a149.23,149.23,0,0,0,298.47,0C434.47,349.75,434.38,346.88,434.22,344Z" transform="translate(-136 -146.53)"/><path class="cls-1" d="M373.41,236.62a105.56,105.56,0,0,1-137,160.53c-12.18-9.77-21.48-23.28-21.48-23.28a114.73,114.73,0,0,1-15.57-32.32c-1.25-4.08-4.58-6.72-7.48-6.54-3.76.23-7.72,5.24-6.26,11.36A124.24,124.24,0,0,0,206,400.13s10.52,15.23,24.16,26.17A118.9,118.9,0,0,0,378.9,240.76Q376.2,238.6,373.41,236.62Z" transform="translate(-136 -146.53)"/><path class="cls-1" d="M275.32,216.15a81.62,81.62,0,0,1,26.32,161,96.62,96.62,0,0,1-24.47,1.05,88.7,88.7,0,0,1-26.85-7c-3-1.3-6.25-.66-7.6,1.15-1.74,2.33-.76,7.17,3.58,9.37a96.05,96.05,0,0,0,41.9,14.84s14.25,1.4,27.51-1.19A91.93,91.93,0,0,0,280.51,215C278.76,215.32,277,215.71,275.32,216.15Z" transform="translate(-136 -146.53)"/><path class="cls-2" d="M236.77,207.05s-29.13-38.86,23.29-60.53C260.06,146.53,283.59,192.19,236.77,207.05Z" transform="translate(-136 -146.53)"/><path class="cls-2" d="M238.75,206.72s-3.23-63.43-89.68-26.25C149.07,180.48,194,252.5,238.75,206.72Z" transform="translate(-136 -146.53)"/><text class="cls-3" transform="translate(334.9 234.76)">REDLemon</text></svg>